<?xml version="1.0" encoding="UTF-8"?>
<svg version="1.1" xmlns="http://www.w3.org/2000/svg" width="512" height="512">
<path d="M0 0 C47.24598189 21.82779838 96.80659994 43.94323506 149.4074707 47.63745117 C150.23730469 47.69771484 151.06713867 47.75797852 151.92211914 47.82006836 C218.58904232 52.38364984 279.38940432 28.23275922 338.71870422 0.73071289 C397.11699671 -26.32149171 397.11699671 -26.32149171 413.6574707 -21.36254883 C418.35180514 -19.31481446 421.73449985 -15.66819918 424.4074707 -11.36254883 C430.02515117 3.5243044 426.83455561 21.4202951 420.74731445 35.55151367 C401.8379272 77.24221032 356.91202234 99.28756197 316.4074707 114.63745117 C316.17806104 116.95468628 316.17806104 116.95468628 318.71606445 119.07104492 C319.7561093 120.07538371 320.79930109 121.07646995 321.8449707 122.07495117 C327.49497097 127.60111354 332.53883219 133.40490328 337.4074707 139.63745117 C338.19637695 140.6094043 338.9852832 141.58135742 339.7980957 142.58276367 C366.90718729 176.59700123 384.1947843 220.75710232 379.97387695 264.60620117 C376.32298401 295.99215322 361.11744628 323.21347846 339.4074707 345.63745117 C338.93583496 346.13486816 338.46419922 346.63228516 337.97827148 347.14477539 C326.38882466 359.3621638 313.5675694 368.93977214 299.14672852 377.58422852 C297.68475755 378.46953772 296.24275132 379.38769834 294.8059082 380.31323242 C273.76280222 393.72730857 248.01244496 401.29720687 223.80981445 406.39526367 C217.25367774 407.78943541 211.92677697 410.37640738 206.13012695 413.64892578 C188.26254713 423.52058019 165.77321134 424.10182494 146.4074707 418.63745117 C140.37281621 416.56716824 134.95139786 413.98342365 129.5324707 410.63745117 C122.51677432 406.67337995 114.76967439 405.49253294 106.9699707 403.84057617 C69.34893135 395.85957806 33.64023493 377.11612657 6.12670898 350.30541992 C4.56837931 348.79356131 2.99094799 347.30615342 1.40356445 345.82495117 C-23.82039103 321.7132896 -38.8153381 287.16925943 -39.99926758 252.39746094 C-40.64167448 201.28532415 -13.10159958 155.21594616 21.4074707 119.63745117 C22.73541254 118.29874806 24.06592237 116.96251857 25.4074707 115.63745117 C20.20053011 113.21079736 14.97225589 110.86137272 9.66918945 108.65307617 C-28.86301988 92.57066889 -65.73486479 69.60591004 -82.5925293 29.63745117 C-85.62948858 22.02971479 -85.87147086 14.48437702 -85.9675293 6.38745117 C-85.98170898 5.4520752 -85.99588867 4.51669922 -86.01049805 3.55297852 C-85.95078831 -4.83474671 -84.15264352 -11.61511003 -78.3112793 -17.88598633 C-59.0409331 -34.44096556 -18.49437027 -8.54604015 0 0 Z " fill="#34373A" transform="translate(85.592529296875,56.362548828125)"/>
<path d="M0 0 C19.65545159 0.50872934 39.01868135 12.27126888 56.52001953 20.39892578 C80.76611507 31.65079294 104.9834089 42.61037052 130.1875 51.5625 C130.9515918 51.83835938 131.71568359 52.11421875 132.50292969 52.3984375 C224.9241204 85.63254378 311.37858804 66.60534486 398.03125 26.47265625 C401.20798976 25.00186044 404.38502891 23.53171525 407.5625 22.0625 C408.35246368 21.69719177 409.14242737 21.33188354 409.95632935 20.95550537 C420.38920233 16.13889484 430.86187449 11.47109062 441.5 7.125 C442.57749512 6.68285156 443.65499023 6.24070312 444.76513672 5.78515625 C452.23920715 2.78446785 459.28571187 0.2941988 467.4375 0.1875 C468.43265625 0.15914062 469.4278125 0.13078125 470.453125 0.1015625 C473.91790185 0.68562488 475.04146146 1.83565286 477.1875 4.5625 C481.31128595 16.93385784 476.85676089 32.33424995 471.5625 43.75 C448.91165793 85.59743072 399.30386291 105.64382248 356.1875 118.5625 C355.38248047 118.80983887 354.57746094 119.05717773 353.74804688 119.31201172 C328.08533089 127.17584923 300.55259785 131.59793656 273.79736328 133.24047852 C266.46958033 134.14462685 259.37376722 138.40891934 254.1875 143.5625 C249.71636469 149.79292985 247.04385086 154.94810626 247.0625 162.6875 C247.05863281 164.30011719 247.05863281 164.30011719 247.0546875 165.9453125 C246.89061025 168.48906396 246.89061025 168.48906396 248.1875 169.5625 C251.64562169 169.89588596 251.64562169 169.89588596 255.1875 169.5625 C257.20058416 166.54287376 257.48134053 165.33420928 257.9375 161.875 C258.92830562 156.43355947 261.21622968 152.42585537 265.1875 148.5625 C265.8475 148.5625 266.5075 148.5625 267.1875 148.5625 C263.72653845 168.41806367 256.69152959 191.11264482 243.1875 206.5625 C242.40375 207.5525 241.62 208.5425 240.8125 209.5625 C237.95176757 211.74210566 235.92261131 212.49404702 232.29296875 212.21484375 C224.53946506 209.81255225 219.83004219 200.67317765 216.26953125 193.9375 C209.96436291 181.20003079 201.1875 162.9906957 201.1875 148.5625 C206.04993376 150.63162075 208.00565787 153.8661235 210.1875 158.5625 C210.89981613 161.22411134 211.41245405 163.83594902 211.828125 166.55859375 C211.98917614 168.55457072 211.98917614 168.55457072 213.1875 169.5625 C216.6875 169.72916667 216.6875 169.72916667 220.1875 169.5625 C221.9370249 167.8129751 221.48359976 165.50718021 221.5625 163.125 C221.48734395 154.09553733 217.49034273 146.86534273 211.1875 140.5625 C204.31080685 135.44064763 197.70726218 133.41855953 189.1875 132.6875 C141.996286 128.04397093 96.39199682 117.76282921 54.1875 95.5625 C53.25421875 95.09714844 52.3209375 94.63179688 51.359375 94.15234375 C26.94193156 81.6146445 2.59146993 60.97368237 -6.8125 34.6796875 C-9.6563748 25.81479652 -12.75123876 13.44820928 -8.41796875 4.76953125 C-5.74471328 1.09461801 -4.508278 0.19993794 0 0 Z " fill="#CB549D" transform="translate(21.8125,46.4375)"/>
<path d="M0 0 C1.44355555 0.39254572 2.88757931 0.78337308 4.33203125 1.17260742 C5.06413818 1.37405365 5.79624512 1.57549988 6.55053711 1.78305054 C12.40788762 3.35335236 18.35011593 4.5882792 24.27734375 5.86328125 C24.97008392 6.01291321 25.6628241 6.16254517 26.3765564 6.31671143 C40.79907943 9.40310551 55.28554069 11.37719198 69.9387207 12.99365234 C72.27200608 13.30431931 74.45179459 13.72991322 76.71484375 14.36328125 C76.99457031 15.49121094 77.27429688 16.61914062 77.5625 17.78125 C87.591358 59.76700054 87.591358 59.76700054 114.71484375 91.36328125 C119.15017141 93.58094508 125.18953982 92.99009776 129.90234375 91.8203125 C143.28827289 86.07191954 150.37403871 69.75878853 155.64111328 57.14501953 C157.53784339 52.28290016 159.14131156 47.33739133 160.71484375 42.36328125 C161.25554654 40.70671633 161.7972465 39.05047662 162.33984375 37.39453125 C162.88302869 35.71793905 163.4247277 34.04086461 163.96484375 32.36328125 C164.21137695 31.59822266 164.45791016 30.83316406 164.71191406 30.04492188 C166.16084229 25.43961472 167.32502656 20.84738232 168.27636719 16.11328125 C168.71484375 14.36328125 168.71484375 14.36328125 169.71484375 13.36328125 C171.36716543 13.11144672 173.02851465 12.91846101 174.69140625 12.75 C175.74295898 12.63865723 176.79451172 12.52731445 177.87792969 12.41259766 C179.02036133 12.29319824 180.16279297 12.17379883 181.33984375 12.05078125 C197.90004034 10.2201086 214.15223815 7.46989205 230.40234375 3.80078125 C231.32700439 3.5994458 232.25166504 3.39811035 233.2043457 3.19067383 C237.06773212 2.32530621 240.56865799 1.42467927 244.23046875 -0.11328125 C247.4814776 -1.46062449 249.21503602 -2.13260431 252.71484375 -1.63671875 C258.57986995 1.96675335 263.16006243 7.28038883 267.71484375 12.36328125 C268.43800781 13.13414062 269.16117187 13.905 269.90625 14.69921875 C271.57913571 16.53900489 273.15041792 18.43075523 274.71484375 20.36328125 C275.40578125 21.17796875 276.09671875 21.99265625 276.80859375 22.83203125 C289.35179783 37.78078132 302.13895638 55.76631471 308.71484375 74.36328125 C308.38484375 75.02328125 308.05484375 75.68328125 307.71484375 76.36328125 C307.09609375 75.53828125 306.47734375 74.71328125 305.83984375 73.86328125 C299.59172315 66.40073721 291.20082903 60.96328945 282.71484375 56.36328125 C282.02132813 55.98300781 281.3278125 55.60273438 280.61328125 55.2109375 C264.02107111 46.97697554 241.45198402 46.71267765 223.94360352 52.03466797 C211.11713904 56.37871564 201.15476585 63.82458567 191.71484375 73.36328125 C190.71517578 74.33007812 190.71517578 74.33007812 189.6953125 75.31640625 C175.74388164 89.80321933 171.24195603 110.09441279 171.5 129.53125 C172.04405291 146.8699798 179.51967861 164.22639686 191.39453125 176.76953125 C192.71484375 178.36328125 192.71484375 178.36328125 192.71484375 180.36328125 C193.30136719 180.63269531 193.88789063 180.90210938 194.4921875 181.1796875 C196.71193654 182.36173312 198.39323743 183.64428509 200.27734375 185.30078125 C201.14552734 186.05681641 201.14552734 186.05681641 202.03125 186.828125 C203.64153734 188.29643805 205.18810054 189.8086947 206.71484375 191.36328125 C199.33849017 194.45291312 192.73871101 196.955288 184.71484375 197.36328125 C184.10898437 196.46867188 183.503125 195.5740625 182.87890625 194.65234375 C170.66159263 176.89089406 155.40885199 163.02613251 133.71484375 158.36328125 C121.87531792 157.48091527 109.56043047 157.02340522 98.71484375 162.36328125 C97.78929687 162.79898438 96.86375 163.2346875 95.91015625 163.68359375 C80.58963857 171.44995036 69.99011537 183.27860954 60.71484375 197.36328125 C53.22044026 196.86365435 46.75834112 194.92563647 39.71484375 192.36328125 C39.71484375 191.37328125 39.71484375 190.38328125 39.71484375 189.36328125 C41.359375 187.86328125 41.359375 187.86328125 43.52734375 186.36328125 C45.64056722 184.88517959 47.55426914 183.52883789 49.3515625 181.67578125 C50.71484375 180.36328125 50.71484375 180.36328125 52.71484375 180.36328125 C52.97910156 179.78320312 53.24335938 179.203125 53.515625 178.60546875 C54.76393577 176.27149357 56.19011657 174.50220521 57.90234375 172.48828125 C70.9286976 156.03537086 75.33186365 135.95277027 73.71484375 115.36328125 C71.8295157 100.38877603 64.84143215 85.51122084 54.71484375 74.36328125 C53.75191406 73.26306641 53.75191406 73.26306641 52.76953125 72.140625 C39.95407497 58.35573383 21.7211667 49.74230215 2.859375 49.02734375 C-18.80745403 48.71648293 -36.42732641 52.96012471 -53.28515625 67.36328125 C-54.64640625 68.41515625 -54.64640625 68.41515625 -56.03515625 69.48828125 C-58.61265496 71.63619684 -60.94743525 73.95876822 -63.28515625 76.36328125 C-61.3175782 69.64324546 -58.58287546 63.70985149 -55.16015625 57.61328125 C-54.67224609 56.73784668 -54.18433594 55.86241211 -53.68164062 54.96044922 C-49.61911658 47.76893419 -45.23998168 40.98096972 -40.28515625 34.36328125 C-39.87861816 33.81542969 -39.47208008 33.26757812 -39.05322266 32.703125 C-32.22918253 23.55927574 -24.7646383 15.11469083 -16.79052734 6.95898438 C-15.12683643 5.23971919 -15.12683643 5.23971919 -13.1796875 2.72265625 C-8.97806955 -2.13749343 -5.85146281 -1.72072031 0 0 Z " fill="#82D639" transform="translate(133.28515625,176.63671875)"/>
<path d="M0 0 C19.65545159 0.50872934 39.01868135 12.27126888 56.52001953 20.39892578 C80.76611507 31.65079294 104.9834089 42.61037052 130.1875 51.5625 C130.9515918 51.83835938 131.71568359 52.11421875 132.50292969 52.3984375 C224.9241204 85.63254378 311.37858804 66.60534486 398.03125 26.47265625 C401.20798976 25.00186044 404.38502891 23.53171525 407.5625 22.0625 C408.35246368 21.69719177 409.14242737 21.33188354 409.95632935 20.95550537 C420.38920233 16.13889484 430.86187449 11.47109062 441.5 7.125 C442.57749512 6.68285156 443.65499023 6.24070312 444.76513672 5.78515625 C452.23920715 2.78446785 459.28571187 0.2941988 467.4375 0.1875 C468.43265625 0.15914062 469.4278125 0.13078125 470.453125 0.1015625 C473.91790185 0.68562488 475.04146146 1.83565286 477.1875 4.5625 C479.99975919 12.99927757 478.3708632 23.10196761 476.1875 31.5625 C475.24132812 31.49289063 474.29515625 31.42328125 473.3203125 31.3515625 C448.31995972 30.07829245 424.54434053 45.24712248 402.49047852 55.55615234 C400.76269165 56.36366943 400.76269165 56.36366943 399 57.1875 C397.28091431 57.9911499 397.28091431 57.9911499 395.52709961 58.81103516 C384.42795078 63.97062253 373.19124006 68.77423216 361.87988281 73.44775391 C359.64145033 74.37454777 357.40933716 75.31408841 355.1796875 76.26171875 C327.90895821 87.59863924 299.41241223 95.47295482 270.1875 99.5625 C269.36813965 99.68109375 268.5487793 99.7996875 267.70458984 99.921875 C233.02158901 104.7663931 195.90138729 101.82661805 162.1875 92.5625 C161.36749512 92.33836426 160.54749023 92.11422852 159.70263672 91.88330078 C153.81894969 90.24695446 147.99567605 88.44817114 142.1875 86.5625 C141.31609375 86.28067871 140.4446875 85.99885742 139.546875 85.70849609 C110.51348264 76.21075882 82.86271902 63.37771738 55.1875 50.5625 C39.38707647 43.24649255 39.38707647 43.24649255 23.3125 36.5625 C22.60472412 36.2833374 21.89694824 36.0041748 21.16772461 35.71655273 C13.86495394 32.92073495 6.99958661 31.35600464 -0.8125 30.9375 C-1.49183594 30.89882812 -2.17117187 30.86015625 -2.87109375 30.8203125 C-4.51785817 30.72753704 -6.16513955 30.64401002 -7.8125 30.5625 C-9.98840079 22.67485964 -12.20454359 12.35998799 -8.41796875 4.765625 C-5.74273256 1.09449796 -4.50685497 0.19987483 0 0 Z " fill="#E980BC" transform="translate(21.8125,46.4375)"/>
<path d="M0 0 C9.74898067 7.17656056 16.32634545 17.72220767 19.44921875 29.3984375 C20.99422645 44.61607967 18.9942179 57.14405057 9.44921875 69.3984375 C7.01171875 72.0859375 7.01171875 72.0859375 4.44921875 74.3984375 C3.97226562 74.87925781 3.4953125 75.36007812 3.00390625 75.85546875 C-5.26792433 83.74767426 -17.28106452 87.26526713 -28.55078125 87.6484375 C-42.94138156 87.13037589 -54.79199208 80.87170945 -64.55078125 70.3984375 C-69.54637602 64.35850503 -72.18128738 57.81070038 -74.55078125 50.3984375 C-75.04578125 48.9134375 -75.04578125 48.9134375 -75.55078125 47.3984375 C-76.33957185 32.09956867 -74.27952414 20.20002331 -64.51171875 7.8125 C-46.94995293 -10.89876321 -21.53530134 -13.52139901 0 0 Z " fill="#353739" transform="translate(409.55078125,262.6015625)"/>
<path d="M0 0 C11.10923342 8.48461513 17.61372167 18.49686532 21 32 C22.3548449 47.17111207 19.05135991 60.28284149 9.1875 72.1875 C-0.74315443 82.75884181 -13.78530412 87.7951617 -28.1875 88.5 C-38.43523249 87.98330761 -47.67007808 83.73073575 -56 78 C-56.9075 77.38125 -57.815 76.7625 -58.75 76.125 C-67.89228847 67.49061644 -73.94925848 56.19086679 -74.40698242 43.6027832 C-74.58065593 30.2132501 -71.69782151 19.43738581 -63 9 C-62.42636719 8.29101562 -61.85273437 7.58203125 -61.26171875 6.8515625 C-45.72083418 -10.51961897 -19.15147214 -12.47794457 0 0 Z " fill="#353739" transform="translate(157,262)"/>
<path d="M0 0 C11.02595995 7.93164082 18.13554129 19.51143773 23 32 C23.3403125 32.85722656 23.680625 33.71445312 24.03125 34.59765625 C29.46649242 50.87822034 25.85147967 68.09461802 18.8125 83.1875 C10.42696393 99.07027382 -2.28033654 110.10159678 -19.35131836 115.7824707 C-26.44950647 117.93717508 -33.04207391 118.50937168 -40.4375 118.4375 C-41.54061523 118.42920166 -42.64373047 118.42090332 -43.78027344 118.41235352 C-51.50168662 118.25153843 -58.02637909 117.50768956 -65 114 C-66.04671875 113.525625 -67.0934375 113.05125 -68.171875 112.5625 C-83.80992745 104.92701899 -95.22549739 92.45703065 -101.4375 76.1875 C-107.14515039 59.28513435 -106.85819036 41.39757737 -99.6796875 24.98046875 C-91.78509242 9.55796744 -80.17415845 -0.27040105 -65 -8 C-64.11183594 -8.46019531 -63.22367188 -8.92039063 -62.30859375 -9.39453125 C-42.30092064 -17.83293884 -17.14120685 -11.84722093 0 0 Z M-78 24 C-86.69325499 35.73019996 -88.45443345 48.75461367 -87 63 C-84.94035666 72.78621497 -79.37857763 81.3412836 -72 88 C-71.51144531 88.48082031 -71.02289063 88.96164062 -70.51953125 89.45703125 C-62.16309621 97.29739191 -50.39895789 101.60810059 -38.96484375 101.30859375 C-25.18653235 99.87448756 -13.1582372 95.26843718 -3.5546875 84.9296875 C6.08225816 72.96825243 9.23066241 60.07561458 8 45 C6.28703848 32.94809215 -0.70210035 22.66698416 -10 15 C-32.36367991 -1.15766693 -60.35602739 3.11115886 -78 24 Z " fill="#FCAE00" transform="translate(170,249)"/>
<path d="M0 0 C15.48275007 10.99749657 25.54909272 26.19289183 28.8046875 44.9921875 C30.64172955 63.6095546 26.48457007 81.23126235 14.9921875 96.2421875 C8.75758087 103.56463356 2.49435997 108.93968847 -6.0703125 113.3046875 C-7.02357422 113.79316162 -7.02357422 113.79316162 -7.99609375 114.29150391 C-17.62685651 118.94944073 -26.98732531 120.53234565 -37.6328125 120.4296875 C-38.73447754 120.42211426 -39.83614258 120.41454102 -40.97119141 120.40673828 C-48.66822618 120.25026198 -55.24411065 119.50068055 -62.1953125 115.9921875 C-63.09507812 115.5796875 -63.99484375 115.1671875 -64.921875 114.7421875 C-82.6942851 105.93107714 -93.54288452 91.71371796 -100.16015625 73.30859375 C-105.14847285 56.73450956 -102.71832419 39.56432807 -95.0078125 24.3046875 C-85.38906779 7.53302035 -72.14455253 -2.61567368 -54.0546875 -9.140625 C-35.46458961 -13.31775226 -16.03133048 -10.12276423 0 0 Z M-73.2734375 23.41796875 C-82.35898697 35.5874344 -85.27230251 47.89915846 -84.1953125 62.9921875 C-81.49260992 76.01149192 -74.32368749 87.56970576 -63.2265625 94.97265625 C-51.31439035 102.1229081 -39.59030032 104.76993826 -25.90234375 101.7421875 C-13.17422968 98.2157836 -3.41398867 92.13020626 3.8046875 80.9921875 C4.18367188 80.41597656 4.56265625 79.83976562 4.953125 79.24609375 C9.61323709 71.66027218 11.37163925 64.0557845 11.3046875 55.2421875 C11.29969238 54.37110352 11.29469727 53.50001953 11.28955078 52.60253906 C10.94908478 39.89963509 5.83147338 30.6533719 -2.5703125 21.3671875 C-11.24015826 13.52304133 -21.19974816 7.67118171 -33.1953125 6.9921875 C-34.27619141 6.899375 -34.27619141 6.899375 -35.37890625 6.8046875 C-49.74913437 6.06893182 -63.50678349 13.14683881 -73.2734375 23.41796875 Z " fill="#FCAE00" transform="translate(418.1953125,247.0078125)"/>
<path d="M0 0 C2.83570274 2.71754846 5.17845147 5.52591746 7.5 8.6875 C17.82525101 21.64168946 35.46165802 31.87055335 52 34 C66.75988464 35.00787895 80.57956702 34.41975307 94.4375 29 C95.47680664 28.60941406 95.47680664 28.60941406 96.53710938 28.2109375 C99.61953 27.03157656 102.24249079 25.83833948 105 24 C108.10115087 24.51685848 110.97215354 25.18276749 114 26 C115.30844647 26.34431018 116.61705161 26.68801772 117.92578125 27.03125 C121.62144508 28.00540252 125.31154532 28.99891744 129 30 C128.52949219 31.01578125 128.05898437 32.0315625 127.57421875 33.078125 C119.66811197 50.41229057 115.03836101 68.26054497 121.7109375 86.91015625 C123.9811294 92.35173743 126.40075342 97.70620114 129 103 C122.74389072 102.42340007 117.190743 101.01637746 111.25 99 C110.34113037 98.69312256 109.43226074 98.38624512 108.49584961 98.07006836 C80.88034772 88.49774339 56.58269696 73.6380444 35 54 C33.88238281 52.99066406 33.88238281 52.99066406 32.7421875 51.9609375 C18.13678864 38.06511267 7.82216584 20.41121482 0 2 C0 1.34 0 0.68 0 0 Z " fill="#20B318" transform="translate(65,344)"/>
<path d="M0 0 C0.33 0.66 0.66 1.32 1 2 C-0.12705346 5.37306435 -1.77427111 8.54699839 -3.3125 11.75 C-3.7674585 12.6992334 -4.22241699 13.6484668 -4.69116211 14.62646484 C-8.70017764 22.77148142 -13.37424465 29.90233756 -19 37 C-19.75152344 37.97195313 -20.50304687 38.94390625 -21.27734375 39.9453125 C-30.24398402 51.25998335 -40.49374486 60.39796791 -52 69 C-52.86625 69.6496875 -53.7325 70.299375 -54.625 70.96875 C-61.41710258 75.88408739 -68.64064303 80.00968686 -76 84 C-76.90830566 84.49717529 -76.90830566 84.49717529 -77.83496094 85.00439453 C-89.40690878 91.27431968 -101.52996908 95.83788845 -114 100 C-114.9065332 100.30728027 -115.81306641 100.61456055 -116.74707031 100.93115234 C-117.62717773 101.21555176 -118.50728516 101.49995117 -119.4140625 101.79296875 C-120.19990723 102.04973389 -120.98575195 102.30649902 -121.79541016 102.57104492 C-124.21975046 103.04275765 -125.68033856 102.77905985 -128 102 C-127.29423828 100.67548828 -127.29423828 100.67548828 -126.57421875 99.32421875 C-117.56999339 82.13301901 -115.00368711 65.40193004 -120.7109375 46.53515625 C-122.78506283 40.84702465 -125.26597221 35.40426159 -128 30 C-127.31035156 29.81824219 -126.62070312 29.63648438 -125.91015625 29.44921875 C-120.52352686 28.00835081 -115.27149503 26.47031366 -110.0703125 24.453125 C-105.54024249 23.46163798 -101.7705766 25.43524813 -97.75 27.375 C-79.40974318 35.89275686 -56.82121856 37.37972831 -37.63671875 30.484375 C-22.35282563 24.24605128 -9.20232796 13.80349194 0 0 Z " fill="#20B318" transform="translate(446,344)"/>
<path d="M0 0 C12.49320365 10.49121107 22.36689287 26.6898666 25.31640625 42.85546875 C25.5935437 49.20653522 22.89170945 52.28767252 18.84765625 56.81640625 C18.32751953 57.41388672 17.80738281 58.01136719 17.27148438 58.62695312 C15.99280363 60.09333012 14.70259784 61.54964331 13.41015625 63.00390625 C10.50766961 61.55266293 10.41965257 59.34603648 9.3671875 56.4375 C3.76114856 42.18214384 -5.66963707 31.52662605 -19.58984375 25.00390625 C-28.65088708 21.22953056 -41.39784459 21.47715367 -50.65234375 24.56640625 C-65.38501168 31.08891868 -75.35460619 42.91830466 -81.69140625 57.546875 C-82.3735846 59.34795336 -82.9913789 61.17330788 -83.58984375 63.00390625 C-89.02658925 58.82619655 -95.69325635 53.66766761 -97.0546875 46.5859375 C-95.99251464 29.89075897 -84.72294928 12.82693721 -73.05859375 1.55859375 C-50.79501846 -17.75833187 -23.22128168 -17.89754893 0 0 Z " fill="#82D639" transform="translate(291.58984375,358.99609375)"/>
<path d="M0 0 C10.64252624 6.67592744 18.79937412 16.76747097 22 29 C23.42939516 39.26764008 22.03991008 47.49660693 16 56 C9.97222644 63.13345983 2.07258088 68.13151652 -7.29833984 69.28222656 C-20.46336221 70.30780474 -31.2617682 68.84037278 -41.875 60.4375 C-48.82201368 53.65498756 -52.30952809 46.21785662 -52.6875 36.5 C-52.09303654 23.56711719 -46.12987039 13.70516692 -36.8359375 4.96484375 C-25.49394753 -4.47345532 -13.26333779 -7.15159174 0 0 Z " fill="#82D738" transform="translate(271,396)"/>
<path d="M0 0 C1.484375 1.78515625 1.484375 1.78515625 2.75 4.0625 C8.99142342 14.042441 18.4695373 20.43963024 29.70703125 23.8125 C42.82570549 26.71432656 55.12850661 24.1611548 67 18 C69.52040497 16.13709198 71.70497023 14.14535391 74 12 C74.66 12 75.32 12 76 12 C77.0921968 9.88841953 78.05176409 7.85241214 78.83984375 5.60546875 C80.24522674 2.50962509 81.19791696 0.99220742 84 -1 C90.28198151 -1.91155379 96.7595069 -0.84648273 103 0 C98.30394918 16.08329545 87.55554761 27.97529678 73 36 C57.39507877 43.4675065 38.02394867 46.72559061 21.125 41.375 C19.39201333 40.63886407 17.68088224 39.84839482 16 39 C14.65035156 38.38125 14.65035156 38.38125 13.2734375 37.75 C-2.29499203 30.03156733 -13.12736978 17.8369305 -20 2 C-20 1.34 -20 0.68 -20 0 C-17.60458732 -0.19585135 -15.20907226 -0.38192107 -12.8125 -0.5625 C-11.80219727 -0.64661133 -11.80219727 -0.64661133 -10.77148438 -0.73242188 C-3.52841513 -1.26240255 -3.52841513 -1.26240255 0 0 Z " fill="#FCF500" transform="translate(340,324)"/>
<path d="M0 0 C1.31640625 1.70703125 1.31640625 1.70703125 2.5625 3.8125 C2.97628906 4.49957031 3.39007813 5.18664062 3.81640625 5.89453125 C5 8 5 8 5.90234375 10.13671875 C7.28884715 12.49032061 8.52380572 12.92063326 11 14 C12.38533975 14.94332473 13.75980995 15.90274288 15.125 16.875 C25.56994401 23.92447541 36.41792222 26.45667169 48.8203125 24.3515625 C62.63945048 21.45229212 72.28634511 15.29144446 81 4 C81.99 2.35 82.98 0.7 84 -1 C90.27 -0.67 96.54 -0.34 103 0 C100.28511846 7.60166831 96.87852661 13.58854186 92 20 C91.278125 21.010625 90.55625 22.02125 89.8125 23.0625 C80.06439679 34.31276994 64.71202933 41.82870291 49.96313477 43.30371094 C46.82306987 43.43594513 43.70514484 43.46804147 40.5625 43.4375 C39.45938477 43.42920166 38.35626953 43.42090332 37.21972656 43.41235352 C29.49831338 43.25153843 22.97362091 42.50768956 16 39 C14.95328125 38.525625 13.9065625 38.05125 12.828125 37.5625 C-0.55251846 31.02922808 -13.67009166 19.5499203 -18.68261719 5.02148438 C-19.16143479 3.35857507 -19.58632235 1.68029892 -20 0 C-17.22949974 -0.1946838 -14.45886998 -0.38102792 -11.6875 -0.5625 C-10.90181641 -0.61857422 -10.11613281 -0.67464844 -9.30664062 -0.73242188 C-8.1706543 -0.80493164 -8.1706543 -0.80493164 -7.01171875 -0.87890625 C-6.31522217 -0.9260376 -5.61872559 -0.97316895 -4.90112305 -1.02172852 C-3 -1 -3 -1 0 0 Z " fill="#FCF500" transform="translate(89,324)"/>
<path d="M0 0 C3.27964951 2.3444884 5.73933756 4.60900634 8 8 C7.625 10.6875 7.625 10.6875 7 13 C-2.90748113 16.8896037 -12.85305374 17.15465065 -23.390625 17.16796875 C-24.3383075 17.17129715 -25.28598999 17.17462555 -26.26239014 17.17805481 C-28.25223308 17.1830776 -30.24208431 17.18546459 -32.23193359 17.18530273 C-35.22898669 17.1874847 -38.22566818 17.20567844 -41.22265625 17.22460938 C-70.175482 17.31365164 -70.175482 17.31365164 -78 12 C-77.57870447 7.08488551 -75.69468278 5.15587488 -72 2 C-50.57855083 -14.3090323 -22.42181368 -14.26174378 0 0 Z " fill="#A1F154" transform="translate(291,316)"/>
<path d="M0 0 C3.63298925 0.91678118 7.18726072 1.36208545 10.91015625 1.734375 C10.15985264 8.40374039 5.56684476 12.26189094 0.91015625 16.734375 C-1.63128221 18.74002513 -4.19079458 20.30231457 -7.08984375 21.734375 C-7.99089844 22.21003906 -7.99089844 22.21003906 -8.91015625 22.6953125 C-16.49841626 26.15606706 -25.60031133 25.9906028 -33.33984375 23.109375 C-34.94392128 22.36063217 -36.52846213 21.56850208 -38.08984375 20.734375 C-38.87230469 20.321875 -39.65476562 19.909375 -40.4609375 19.484375 C-47.31448867 15.4161625 -52.54856002 9.35822619 -55.08984375 1.734375 C-36.600528 -2.08382229 -18.55590021 -4.6887376 0 0 Z " fill="#6C5B4C" transform="translate(152.08984375,313.265625)"/>
<path d="M0 0 C-0.61479044 1.26872626 -1.23418825 2.53522045 -1.85546875 3.80078125 C-2.19989014 4.50630127 -2.54431152 5.21182129 -2.89916992 5.9387207 C-7.48770895 14.53065572 -14.98534993 19.26315032 -23.98046875 22.265625 C-34.1354616 24.73540334 -42.97646279 23.12671555 -52 18 C-57.61528366 14.09865621 -62.5821646 8.95531926 -66 3 C-66 2.01 -66 1.02 -66 0 C-64.81921875 -0.20496094 -63.6384375 -0.40992188 -62.421875 -0.62109375 C-60.86457003 -0.89315305 -59.3072791 -1.16529268 -57.75 -1.4375 C-56.97269531 -1.57220703 -56.19539063 -1.70691406 -55.39453125 -1.84570312 C-54.64042969 -1.97783203 -53.88632812 -2.10996094 -53.109375 -2.24609375 C-52.07248535 -2.42676392 -52.07248535 -2.42676392 -51.01464844 -2.61108398 C-48.99441187 -2.97615555 -48.99441187 -2.97615555 -47.01782227 -3.53222656 C-31.97631679 -7.01916238 -14.76653926 -3.07687379 0 0 Z " fill="#6C5B4C" transform="translate(415,315)"/>
<path d="M0 0 C0.94875 0.845625 1.8975 1.69125 2.875 2.5625 C14.41798235 12.34743293 24.75423252 17.87032852 40.2578125 17.37890625 C54.29865536 15.95723427 63.76190357 9.12525987 74 0 C74.45800053 7.9151887 71.02556606 14.36574018 66.01953125 20.37890625 C56.79816433 29.23074663 46.82994614 31.75643103 34.37060547 31.58984375 C23.88586078 31.12906315 15.59791956 27.69110402 7.98046875 20.37890625 C2.97443394 14.36574018 -0.45800053 7.9151887 0 0 Z " fill="#21B318" transform="translate(219,434)"/>
<path d="M0 0 C2.94298917 1.01866982 5.93261398 1.83517819 8.93261719 2.66894531 C8.93261719 3.32894531 8.93261719 3.98894531 8.93261719 4.66894531 C8.27519531 4.91386719 7.61777344 5.15878906 6.94042969 5.41113281 C-15.60255053 14.26948547 -36.14663754 28.37563317 -53.06738281 45.66894531 C-53.72738281 45.33894531 -54.38738281 45.00894531 -55.06738281 44.66894531 C-47.13297442 31.05061527 -36.7566163 18.85142555 -25.81738281 7.54785156 C-23.08091107 4.76529995 -23.08091107 4.76529995 -20.87988281 1.94628906 C-14.47249275 -5.32270081 -8.17364557 -2.88408796 0 0 Z " fill="#9FEE54" transform="translate(140.0673828125,178.3310546875)"/>
<path d="M0 0 C11.58562686 10.27688013 21.35801252 22.53586799 30.734375 34.80859375 C31.40726562 35.68386719 32.08015625 36.55914062 32.7734375 37.4609375 C34.109375 39.87109375 34.109375 39.87109375 33.8203125 42.1875 C33.58570313 42.74308594 33.35109375 43.29867187 33.109375 43.87109375 C32.72910156 43.44441406 32.34882813 43.01773438 31.95703125 42.578125 C15.96670751 25.60808777 -6.15307488 12.1580142 -27.890625 3.87109375 C-27.890625 3.21109375 -27.890625 2.55109375 -27.890625 1.87109375 C-25.16224065 1.0558874 -22.43298083 0.24384532 -19.703125 -0.56640625 C-18.54973633 -0.91155273 -18.54973633 -0.91155273 -17.37304688 -1.26367188 C-15.21666583 -1.90225682 -13.05535456 -2.51932138 -10.890625 -3.12890625 C-9.9625 -3.39703125 -9.034375 -3.66515625 -8.078125 -3.94140625 C-4.41314192 -4.25554766 -2.72697526 -2.21951182 0 0 Z " fill="#9FEE54" transform="translate(390.890625,179.12890625)"/>
<path d="M0 0 C4.47408975 3.39504457 8.60036003 7.13569555 12.65625 11.015625 C12.32625 11.675625 11.99625 12.335625 11.65625 13.015625 C10.79386719 12.55671875 9.93148437 12.0978125 9.04296875 11.625 C-11.26557105 1.24306857 -33.54097725 -1.16377119 -55.453125 5.38183594 C-59.238553 6.65081464 -62.80369091 8.31919729 -66.33984375 10.16015625 C-67.00113281 10.44246094 -67.66242188 10.72476562 -68.34375 11.015625 C-69.00375 10.685625 -69.66375 10.355625 -70.34375 10.015625 C-53.64881244 -12.3825521 -22.60137718 -15.28916692 0 0 Z " fill="#9FEE54" transform="translate(286.34375,354.984375)"/>
<path d="M0 0 C3.0717718 1.71077974 5.40485654 3.80971307 7 7 C7.67660495 12.86390959 7.67660495 12.86390959 5.953125 15.7578125 C3.59013633 18.6350987 1.77666886 20.7556644 -1.98828125 21.2734375 C-6.52261627 21.47157651 -8.34576048 21.53156961 -12 18.5625 C-12.66 17.716875 -13.32 16.87125 -14 16 C-14.33 15.67 -14.66 15.34 -15 15 C-15.40996741 9.77291555 -14.79591186 6.45274851 -12 2 C-7.97818385 -0.68121076 -4.72763609 -0.81344335 0 0 Z " fill="#F9F9F9" transform="translate(365,278)"/>
<path d="M0 0 C3.5426931 0.02820616 4.63090304 0.2380644 7.75 2.1875 C11.07530877 5.72064057 11.08074386 8.35911263 11.04296875 13.05078125 C10.61344199 16.3667278 9.14075646 18.06237627 6.75 20.3125 C3.28003768 22.04748116 -0.46507195 21.92044181 -4.25 21.3125 C-7.25 18.875 -7.25 18.875 -9.25 16.3125 C-9.58 15.9825 -9.91 15.6525 -10.25 15.3125 C-10.69166754 12.25868444 -10.73223087 9.36144358 -10.25 6.3125 C-7.8125 3.3125 -7.8125 3.3125 -5.25 1.3125 C-3.69014791 -0.24735209 -2.16093902 0.06797656 0 0 Z " fill="#FBFBFB" transform="translate(109.25,277.6875)"/>
<path d="M0 0 C0.33 0 0.66 0 1 0 C1.47332125 12.59560444 -1.480241 22.18164238 -8 33 C-10.73046875 35.921875 -10.73046875 35.921875 -13 38 C-12.8246875 37.01644531 -12.649375 36.03289062 -12.46875 35.01953125 C-12.06884714 32.25700788 -12.00575277 29.73082947 -12.21875 26.94921875 C-13.0253985 15.72520655 -13.0253985 15.72520655 -10.10546875 10.8125 C-7.84992373 8.36383077 -5.50217989 6.19102799 -3 4 C-1.98724376 2.67632988 -0.98298178 1.3459289 0 0 Z " fill="#26901D" transform="translate(316,408)"/>
<path d="M0 0 C1.13808588 1.1025207 2.26526892 2.21729373 3.35546875 3.3671875 C5.0102158 5.0774542 5.0102158 5.0774542 7.11328125 6.6328125 C10.35633224 9.47840253 12.68768118 11.88983445 13.34082031 16.30273438 C13.61341771 21.4997351 13.39683397 26.66607238 13.01342773 31.8527832 C12.99953128 34.07495219 13.36948503 35.87731642 14 38 C9.71602625 34.15041519 7.2562153 30.28201994 4.75 25.125 C4.399375 24.44308594 4.04875 23.76117188 3.6875 23.05859375 C0.68213313 16.99006449 -0.1552376 11.33234489 -0.0625 4.5625 C-0.05347656 3.69753906 -0.04445312 2.83257812 -0.03515625 1.94140625 C-0.02355469 1.30074219 -0.01195312 0.66007812 0 0 Z " fill="#26901D" transform="translate(195,408)"/>
<path d="M0 0 C2.92494186 1.71563817 5.01494577 3.89869433 7.32421875 6.36328125 C6.35484375 6.13511719 5.38546875 5.90695312 4.38671875 5.671875 C-8.16249415 2.90896294 -20.22761959 2.47323073 -32.67578125 6.36328125 C-24.13359964 -3.88733668 -11.77132611 -4.72798718 0 0 Z " fill="#9AE652" transform="translate(268.67578125,394.63671875)"/>
<path d="M0 0 C3 1.875 3 1.875 5 4 C5 4.66 5 5.32 5 6 C2.02760209 7.48619895 -0.69619578 7.13177009 -4 7.125 C-5.8871875 7.12886719 -5.8871875 7.12886719 -7.8125 7.1328125 C-11 7 -11 7 -13 6 C-10.40239357 0.00552363 -6.21301589 -1.01535668 0 0 Z " fill="#9FEF52" transform="translate(260,418)"/>
<path d="M0 0 C0.66 0.33 1.32 0.66 2 1 C1.04882866 2.1725131 0.08882991 3.33787015 -0.875 4.5 C-1.40867188 5.1496875 -1.94234375 5.799375 -2.4921875 6.46875 C-2.98976562 6.9740625 -3.48734375 7.479375 -4 8 C-4.66 8 -5.32 8 -6 8 C-4.55746343 4.63408134 -2.66735273 2.48952921 0 0 Z " fill="#90D54F" transform="translate(219,360)"/>
</svg>
