<?xml version="1.0" encoding="UTF-8"?>
<svg version="1.1" xmlns="http://www.w3.org/2000/svg" width="512" height="512">
<path d="M0 0 C26.25532902 22.83072089 27.80078455 64.27740538 30.875 96.5 C31.56722656 95.96632813 32.25945312 95.43265625 32.97265625 94.8828125 C76.42355131 61.79372509 128.26325119 41.67303351 183.55419922 48.84765625 C224.3579243 54.67574941 258.29954357 71.87247263 290.875 96.5 C290.97522461 95.57477539 291.07544922 94.64955078 291.17871094 93.69628906 C295.12978209 57.63492541 295.12978209 57.63492541 298.875 42.5 C299.05643555 41.76056152 299.23787109 41.02112305 299.42480469 40.25927734 C303.26418049 25.05045908 308.90144767 9.11040991 322.34765625 -0.21484375 C326.95991247 -2.5601796 331.96862828 -3.0364808 337.0546875 -2.09765625 C347.40540305 1.30559458 352.2776747 9.44660208 356.98779297 18.69921875 C369.05774752 43.19783866 370.93620786 71.72012589 372.4453125 98.54296875 C372.75185801 103.89312342 373.212521 109.18273436 373.875 114.5 C374.48085938 113.98050781 375.08671875 113.46101563 375.7109375 112.92578125 C384.70672398 105.43851896 393.21732031 100.08085321 405.14453125 100.22265625 C409.02779894 100.61709403 411.06216195 101.82780385 413.875 104.5 C418.57968482 112.28082489 418.0841404 121.84969014 416.03125 130.50390625 C408.43163409 158.01622363 391.00406216 182.04776162 371.69921875 202.5625 C371.24353516 203.04775146 370.78785156 203.53300293 370.31835938 204.03295898 C369.30643438 205.06148694 368.25668469 206.05350631 367.18164062 207.01586914 C363.83709212 209.99197557 363.83709212 209.99197557 362.5078125 214.12109375 C362.67023438 215.05050781 362.83265625 215.97992188 363 216.9375 C367.4219338 252.15217279 358.70383644 285.98115579 337.328125 314.37109375 C333.719071 318.97436168 329.93083907 323.28695786 325.875 327.5 C325.3804834 328.02561523 324.8859668 328.55123047 324.37646484 329.09277344 C315.16959435 338.85367091 305.25205744 347.34769338 294.01855469 354.71801758 C289.75064318 357.57268669 286.7856248 360.72592178 284 365.0625 C283.58073242 365.70670898 283.16146484 366.35091797 282.72949219 367.01464844 C273.92742781 381.01462611 268.23893349 396.62291656 263.875 412.5 C263.55088135 413.66692383 263.55088135 413.66692383 263.22021484 414.85742188 C256.87661429 438.1988032 253.85329651 462.42514938 251.86279297 486.48779297 C250.83150315 498.62602572 250.83150315 498.62602572 248.875 503.5 C245.875 505.5 245.875 505.5 242.875 505.375 C239.875 504.5 239.875 504.5 238.56860161 502.47747898 C237.00074583 500.22778487 237.00074583 500.22778487 234.14598274 499.99384212 C233.03434195 499.9910352 231.92270115 499.98822828 230.77737427 499.9853363 C228.86359985 499.96624962 228.86359985 499.96624962 226.91116333 499.94677734 C225.49432189 499.95296005 224.07748224 499.95956611 222.66064453 499.96655273 C221.170788 499.95949658 219.68093865 499.95075285 218.19110107 499.94044495 C214.14136836 499.91790398 210.0920256 499.9209019 206.04225397 499.92976642 C202.66250123 499.93487028 199.28282216 499.92758848 195.90307701 499.92029434 C187.92929728 499.90327963 179.95570884 499.90687601 171.98193359 499.92358398 C163.75489099 499.94049977 155.52837918 499.92468208 147.30139458 499.8923611 C140.23970331 499.86566883 133.17817731 499.8583884 126.11644065 499.86687618 C121.89808559 499.87180741 117.68004981 499.86957981 113.46173477 499.84908867 C109.49378097 499.83073752 105.52659041 499.83668244 101.55867767 499.86128807 C100.10302741 499.86629826 98.64731907 499.86280063 97.19171524 499.85013962 C95.20339182 499.83421443 93.21488328 499.8521777 91.22659302 499.87181091 C90.11419817 499.87239722 89.00180332 499.87298353 87.85569954 499.87358761 C83.95905393 500.69249172 82.54845476 502.64703198 79.875 505.5 C76.12029849 505.4263784 74.54658839 505.17158839 71.875 502.5 C71.43603516 500.17871094 71.43603516 500.17871094 71.1640625 497.234375 C71.00188232 495.58066895 71.00188232 495.58066895 70.83642578 493.89355469 C70.66989502 492.08999512 70.66989502 492.08999512 70.5 490.25 C70.24252733 487.68720252 69.98200824 485.12470963 69.71875 482.5625 C69.65100372 481.89982117 69.58325745 481.23714233 69.51345825 480.55438232 C65.40103225 440.70214302 59.71062626 394.5914251 34.875 361.5 C34.28332031 360.68402344 33.69164062 359.86804688 33.08203125 359.02734375 C30.575263 356.15676134 27.99631959 354.33901893 24.8125 352.25 C-8.12519111 329.99579725 -32.58758493 298.11781826 -40.67138672 258.78955078 C-43.09885279 245.35514743 -43.45765195 230.81264817 -40.75 217.4375 C-40.44861376 214.33403626 -40.47720291 212.43729689 -42.27441406 209.83691406 C-45.04964414 206.65729843 -48.1313589 203.85726373 -51.2734375 201.046875 C-56.57251538 196.30573265 -60.71216747 190.77165649 -64.94042969 185.0859375 C-66.00701401 183.65796311 -67.09963488 182.24952507 -68.1953125 180.84375 C-83.39421169 160.90673244 -97.30469189 136.22574622 -95.125 110.5 C-93.98759185 106.58977524 -92.03311461 104.35307736 -89.0625 101.5625 C-81.90765807 98.97457845 -74.6077548 99.97610076 -67.7578125 103.015625 C-62.28294531 106.10234537 -56.58121499 110.04378501 -52.125 114.5 C-51.28617235 107.85502616 -50.87229724 101.23810962 -50.53027344 94.55029297 C-46.91575117 24.96551608 -46.91575117 24.96551608 -25.125 3.5 C-17.31796264 -2.5147603 -9.2314904 -4.43111539 0 0 Z " fill="#1A92D5" transform="translate(95.125,4.5)"/>
<path d="M0 0 C1.32668701 0.31348389 1.32668701 0.31348389 2.68017578 0.63330078 C30.74445946 7.49140415 57.93886595 20.77533717 80.07250977 39.43994141 C82.09439088 41.1232186 82.09439088 41.1232186 84.80053711 42.88427734 C89.39056754 46.32280059 92.98095364 49.32877642 94.00561523 55.13916016 C94.42911413 59.18251413 94.48487749 63.21621863 94.45471191 67.27908325 C94.42564083 71.66361045 94.5766429 76.04334841 94.69921875 80.42578125 C94.72745224 81.69992134 94.72745224 81.69992134 94.7562561 82.99980164 C94.96697277 91.49176692 96.20932186 99.49001076 98.390625 107.69384766 C99.07661458 110.28994443 99.69317647 112.89894763 100.3125 115.51171875 C103.6761596 129.21119894 108.83804216 149.6197589 121.5625 157.875 C126.67172336 160.86600408 132.20308082 160.89372315 138 161 C133.55586414 167.47799111 128.32245 172.98749435 122.75219727 178.50854492 C121.32529535 179.92480012 119.90931789 181.35133705 118.49414062 182.77929688 C102.6568814 198.57265517 102.6568814 198.57265517 95 202 C95.05220703 200.33324219 95.05220703 200.33324219 95.10546875 198.6328125 C95.41267798 184.84253148 93.79037985 174.66178699 84.25390625 164.05859375 C76.85879343 156.94022112 68.17741398 153.54375073 57.9375 153.4375 C46.8720575 153.65690214 37.8961067 157.18085341 30 165 C21.93615934 174.81071205 19.8632114 184.48244692 20.74560547 196.92724609 C21.81878867 205.67132036 26.5227348 213.20932491 33 219 C37.98210071 222.87791172 43.1152797 225.74627733 49 228 C46.17770487 229.88153009 43.72109829 231.00034705 40.5625 232.1875 C39.61503906 232.55230469 38.66757812 232.91710937 37.69140625 233.29296875 C33.95695329 234.27400792 32.20294135 233.62771667 28.8515625 231.87890625 C27.37218763 231.0042583 25.89301947 230.12926064 24.4140625 229.25390625 C12.21711537 222.91859876 -2.31765109 223.69826593 -15.6796875 223.734375 C-17.46363375 223.7330235 -19.24757965 223.73107895 -21.03152466 223.72857666 C-24.75135847 223.72564667 -28.47109551 223.72985297 -32.19091797 223.73925781 C-36.91641413 223.75063427 -41.64168255 223.74409064 -46.36717033 223.73211288 C-50.04616962 223.72482216 -53.72511656 223.72721526 -57.40411758 223.73236847 C-59.14452264 223.73368599 -60.88493272 223.7321253 -62.62533188 223.72740936 C-86.56810334 223.12015925 -86.56810334 223.12015925 -107.75 232.3125 C-110 234 -110 234 -113.1875 234 C-117.98330609 232.74208365 -122.45502632 230.96613549 -127 229 C-127 228.34 -127 227.68 -127 227 C-126.32195312 226.81566406 -125.64390625 226.63132812 -124.9453125 226.44140625 C-115.87042689 223.61336018 -109.0948229 219.06997411 -104.078125 210.8515625 C-98.79559036 200.46257771 -96.98030804 189.89595091 -99.90625 178.45703125 C-104.19491575 167.61165535 -110.75635708 161.32506709 -120.98046875 155.9609375 C-129.27046242 152.52948944 -140.5254023 152.11557245 -148.96484375 155.32421875 C-161.01775764 160.68545333 -166.96036998 168.00973932 -172 180 C-172.84795574 182.84710001 -173.11884263 185.36203181 -173.09765625 188.328125 C-173.09443359 189.12734375 -173.09121094 189.9265625 -173.08789062 190.75 C-173.07951172 191.575 -173.07113281 192.4 -173.0625 193.25 C-173.05798828 194.09046875 -173.05347656 194.9309375 -173.04882812 195.796875 C-173.03707961 197.86461401 -173.01914522 199.93231624 -173 202 C-183.79908067 195.95171637 -192.78804032 186.40301664 -201.5 177.75 C-202.6295813 176.63419556 -202.6295813 176.63419556 -203.78198242 175.49584961 C-208.30568182 170.9468979 -212.31060671 166.24974363 -216 161 C-214.91332031 160.94392578 -214.91332031 160.94392578 -213.8046875 160.88671875 C-206.77743991 160.40886591 -201.99781216 159.54814034 -196.5 154.875 C-183.4945235 139.91870202 -179.2448742 120.89348665 -175 102 C-174.79028564 101.06897461 -174.58057129 100.13794922 -174.36450195 99.17871094 C-173.1522017 92.99462963 -172.87310199 86.99642422 -172.82421875 80.71875 C-172.79928123 79.03514948 -172.77388419 77.3515557 -172.74804688 75.66796875 C-172.7085574 73.07932301 -172.68753732 70.49744412 -172.7253418 67.90869141 C-172.90493772 52.74504831 -172.90493772 52.74504831 -168.22973633 47.28735352 C-165.07843101 44.15570446 -161.62357653 41.55388108 -158 39 C-156.81391176 38.10498342 -155.63090445 37.20586781 -154.45117188 36.30249023 C-139.79294835 25.25751425 -123.81859255 16.29367566 -107 9 C-106.23244385 8.66548828 -105.4648877 8.33097656 -104.67407227 7.98632812 C-72.10215494 -5.65622213 -34.21899273 -8.14737922 0 0 Z " fill="#42B0E7" transform="translate(295,69)"/>
<path d="M0 0 C26.25532902 22.83072089 27.80078455 64.27740538 30.875 96.5 C31.56722656 95.96632813 32.25945312 95.43265625 32.97265625 94.8828125 C76.42355131 61.79372509 128.26325119 41.67303351 183.55419922 48.84765625 C224.3579243 54.67574941 258.29954357 71.87247263 290.875 96.5 C290.97522461 95.57477539 291.07544922 94.64955078 291.17871094 93.69628906 C295.12978209 57.63492541 295.12978209 57.63492541 298.875 42.5 C299.05643555 41.76056152 299.23787109 41.02112305 299.42480469 40.25927734 C303.26418049 25.05045908 308.90144767 9.11040991 322.34765625 -0.21484375 C326.95991247 -2.5601796 331.96862828 -3.0364808 337.0546875 -2.09765625 C347.40540305 1.30559458 352.2776747 9.44660208 356.98779297 18.69921875 C369.05774752 43.19783866 370.93620786 71.72012589 372.4453125 98.54296875 C372.75185801 103.89312342 373.212521 109.18273436 373.875 114.5 C374.48085938 113.98050781 375.08671875 113.46101563 375.7109375 112.92578125 C384.70672398 105.43851896 393.21732031 100.08085321 405.14453125 100.22265625 C409.02779894 100.61709403 411.06216195 101.82780385 413.875 104.5 C418.57968482 112.28082489 418.0841404 121.84969014 416.03125 130.50390625 C408.43163409 158.01622363 391.00406216 182.04776162 371.69921875 202.5625 C371.24353516 203.04775146 370.78785156 203.53300293 370.31835938 204.03295898 C369.30643438 205.06148694 368.25668469 206.05350631 367.18164062 207.01586914 C363.83709212 209.99197557 363.83709212 209.99197557 362.5078125 214.12109375 C362.67023438 215.05050781 362.83265625 215.97992188 363 216.9375 C367.4219338 252.15217279 358.70383644 285.98115579 337.328125 314.37109375 C333.719071 318.97436168 329.93083907 323.28695786 325.875 327.5 C325.3804834 328.02561523 324.8859668 328.55123047 324.37646484 329.09277344 C315.16959435 338.85367091 305.25205744 347.34769338 294.01855469 354.71801758 C289.75064318 357.57268669 286.7856248 360.72592178 284 365.0625 C283.58073242 365.70670898 283.16146484 366.35091797 282.72949219 367.01464844 C273.92742781 381.01462611 268.23893349 396.62291656 263.875 412.5 C263.55088135 413.66692383 263.55088135 413.66692383 263.22021484 414.85742188 C256.87661429 438.1988032 253.85329651 462.42514938 251.86279297 486.48779297 C250.83150315 498.62602572 250.83150315 498.62602572 248.875 503.5 C245.875 505.5 245.875 505.5 242.875 505.4375 C239.875 504.5 239.875 504.5 238.15991211 502.4140625 C236.53210092 498.72233643 236.80904916 495.82425613 237.31640625 491.9375 C237.39836243 491.20225098 237.4803186 490.46700195 237.5647583 489.70947266 C237.83786565 487.30385992 238.13670825 484.90229611 238.4375 482.5 C238.63666934 480.82173396 238.83481985 479.14334672 239.03198242 477.46484375 C239.53192733 473.25356807 240.0554157 469.04556278 240.5847168 464.83789062 C240.85143956 462.68975171 241.1076418 460.54079095 241.35742188 458.390625 C244.96510498 427.47678933 251.90087385 397.44825229 265.875 369.5 C264.6684375 368.7884375 264.6684375 368.7884375 263.4375 368.0625 C260.875 366.5 260.875 366.5 259.875 365.5 C259.5 362.6875 259.5 362.6875 259.875 359.5 C263.64913894 355.89215454 268.00585022 353.79686455 272.625 351.5 C285.51856607 344.86232593 297.14955208 336.58277532 307.66015625 326.59375 C309.875 324.5 309.875 324.5 313 322.0625 C328.06489167 308.63509656 338.39388888 289.57659359 345.25 270.8125 C345.60807739 269.8529541 345.60807739 269.8529541 345.97338867 268.87402344 C349.90347316 257.53150111 350.22340222 245.57400168 350.5 233.6875 C350.53831755 232.3014115 350.5773764 230.91534328 350.6171875 229.52929688 C350.71037145 226.18632253 350.79618243 222.8433386 350.875 219.5 C349.80789795 220.13663574 349.80789795 220.13663574 348.71923828 220.78613281 C340.81299631 225.33252158 335.03209004 227.08217177 325.875 225.5 C315.85512533 221.68149533 310.66040405 211.81001355 306.375 202.5625 C301.35630569 191.1078015 298.57485725 178.67079987 295.875 166.5 C295.66746094 165.5726001 295.45992188 164.6452002 295.24609375 163.68969727 C294.03410882 157.49504749 293.73617168 151.47254716 293.6640625 145.18359375 C293.63432408 143.495439 293.60437326 141.80728799 293.57421875 140.11914062 C293.52855772 137.52210833 293.50006564 134.93063499 293.52490234 132.33325195 C293.85693074 121.47419025 293.85693074 121.47419025 289.32958984 112.01220703 C286.42983904 109.12560209 283.24291543 106.81330193 279.875 104.5 C278.67169007 103.54517108 277.47045438 102.58770641 276.2734375 101.625 C256.67914317 87.8532996 236.70498412 76.87259782 213.875 69.5 C212.76253906 69.13132812 211.65007812 68.76265625 210.50390625 68.3828125 C163.92774948 53.95706407 115.5508944 61.73272567 72.9375 84 C61.88570368 89.93754248 51.32980849 96.93366383 41.72021484 105.0222168 C39.875 106.5 39.875 106.5 37.29931641 108.15942383 C32.91280929 111.33484802 29.85577318 114.09443747 28.95166016 119.55688477 C28.5494248 123.60196838 28.48546294 127.64075039 28.49572754 131.7036438 C28.50293024 136.10176786 28.34560669 140.49496424 28.2109375 144.890625 C28.17806641 146.16940269 28.17806641 146.16940269 28.14453125 147.47401428 C27.90158894 155.96903911 26.66698907 163.98508037 24.484375 172.19384766 C23.79838542 174.78994443 23.18182353 177.39894763 22.5625 180.01171875 C18.9715688 194.64065447 13.74338903 213.79516984 0.6875 222.9375 C-3.35789896 225.18494387 -6.54606667 225.75588365 -11.125 225.9375 C-12.176875 225.99808594 -13.22875 226.05867187 -14.3125 226.12109375 C-19.9210439 225.20740678 -24.29661655 222.39932202 -29.125 219.5 C-29.02988262 223.53475552 -28.92349102 227.56905754 -28.80761719 231.60327148 C-28.7698513 232.96940444 -28.73491832 234.3356193 -28.703125 235.7019043 C-28.40714911 248.276255 -27.40414384 260.29246951 -23.125 272.1875 C-22.82303711 273.03199707 -22.52107422 273.87649414 -22.20996094 274.74658203 C-16.65583894 289.64374909 -8.40039365 302.45572814 1.875 314.5 C2.59816406 315.36367188 3.32132812 316.22734375 4.06640625 317.1171875 C8.30976712 322.04978311 12.82841734 326.39911426 17.875 330.5 C18.78636719 331.24894531 19.69773437 331.99789063 20.63671875 332.76953125 C32.17980767 341.96634613 44.82262373 349.57461296 57.90625 356.37890625 C59.875 357.5 59.875 357.5 61.875 359.5 C62.4315371 364.73144876 62.4315371 364.73144876 60.5625 367.3125 C58.875 368.5 58.875 368.5 55.875 369.5 C56.33390625 370.46679688 56.7928125 371.43359375 57.265625 372.4296875 C57.88556886 373.74471993 58.50535177 375.05982824 59.125 376.375 C59.42535156 377.00664062 59.72570312 377.63828125 60.03515625 378.2890625 C72.85451841 405.56430113 77.34653071 435.11569567 81.125 464.75 C81.32138062 466.28935211 81.32138062 466.28935211 81.52172852 467.85980225 C82.34965206 474.40173194 83.14012494 480.94694792 83.875 487.5 C83.95662384 488.22350647 84.03824768 488.94701294 84.12234497 489.69244385 C84.32249036 491.53030312 84.5002221 493.37056692 84.67578125 495.2109375 C84.81367065 496.65412354 84.81367065 496.65412354 84.9543457 498.12646484 C84.875 500.5 84.875 500.5 82.8125 503.875 C79.875 505.5 79.875 505.5 76.6875 505.4375 C73.875 504.5 73.875 504.5 71.875 502.5 C71.43603516 500.17871094 71.43603516 500.17871094 71.1640625 497.234375 C71.00188232 495.58066895 71.00188232 495.58066895 70.83642578 493.89355469 C70.66989502 492.08999512 70.66989502 492.08999512 70.5 490.25 C70.24252733 487.68720252 69.98200824 485.12470963 69.71875 482.5625 C69.65100372 481.89982117 69.58325745 481.23714233 69.51345825 480.55438232 C65.40103225 440.70214302 59.71062626 394.5914251 34.875 361.5 C34.28332031 360.68402344 33.69164062 359.86804688 33.08203125 359.02734375 C30.575263 356.15676134 27.99631959 354.33901893 24.8125 352.25 C-8.12519111 329.99579725 -32.58758493 298.11781826 -40.67138672 258.78955078 C-43.09885279 245.35514743 -43.45765195 230.81264817 -40.75 217.4375 C-40.44861376 214.33403626 -40.47720291 212.43729689 -42.27441406 209.83691406 C-45.04964414 206.65729843 -48.1313589 203.85726373 -51.2734375 201.046875 C-56.57251538 196.30573265 -60.71216747 190.77165649 -64.94042969 185.0859375 C-66.00701401 183.65796311 -67.09963488 182.24952507 -68.1953125 180.84375 C-83.39421169 160.90673244 -97.30469189 136.22574622 -95.125 110.5 C-93.98759185 106.58977524 -92.03311461 104.35307736 -89.0625 101.5625 C-81.90765807 98.97457845 -74.6077548 99.97610076 -67.7578125 103.015625 C-62.28294531 106.10234537 -56.58121499 110.04378501 -52.125 114.5 C-51.28617235 107.85502616 -50.87229724 101.23810962 -50.53027344 94.55029297 C-46.91575117 24.96551608 -46.91575117 24.96551608 -25.125 3.5 C-17.31796264 -2.5147603 -9.2314904 -4.43111539 0 0 Z " fill="#33373B" transform="translate(95.125,4.5)"/>
<path d="M0 0 C4.3751335 0.64493107 8.75008275 1.29110374 13.125 1.9375 C14.3625 2.11990234 15.6 2.30230469 16.875 2.49023438 C18.07382813 2.66748047 19.27265625 2.84472656 20.5078125 3.02734375 C21.60754395 3.18968506 22.70727539 3.35202637 23.84033203 3.51928711 C25.87931383 3.82949845 27.91389611 4.17099044 29.94116211 4.55029297 C33.47037064 5.06915338 36.8662534 5.14722451 40.43359375 5.16796875 C41.49311249 5.17425293 41.49311249 5.17425293 42.57403564 5.18066406 C44.86191401 5.19042661 47.14960425 5.19045397 49.4375 5.1875 C50.21944733 5.18722809 51.00139465 5.18695618 51.80703735 5.18667603 C69.43511242 5.1584877 86.72525275 4.2090238 104.015625 0.5859375 C107 0 107 0 110 0 C108.88928693 10.06949084 107.3870031 20.00784146 105.49707031 29.96118164 C102.15481874 48.2138807 101.39843077 66.75493889 100.4375 85.25 C100.24945007 88.83091489 100.05992822 92.41173047 99.86671448 95.99237061 C99.74779167 98.19927509 99.6318461 100.40634277 99.51939392 102.61358643 C99.46586258 103.61283142 99.41233124 104.61207642 99.35717773 105.64160156 C99.31213608 106.5102887 99.26709442 107.37897583 99.22068787 108.27398682 C98.95703078 111.53077077 98.46208564 114.76540054 98 118 C69.62 118 41.24 118 12 118 C11.40984181 113.86889268 10.87163416 110.05090172 10.65869141 105.9362793 C10.58303955 104.52995239 10.58303955 104.52995239 10.50585938 103.09521484 C10.45494141 102.09828613 10.40402344 101.10135742 10.3515625 100.07421875 C10.23435094 97.90646899 10.11665727 95.73874526 9.99853516 93.57104492 C9.90756561 91.8835463 9.90756561 91.8835463 9.8147583 90.16195679 C8.40624029 64.37212346 6.06936681 39.14220769 1.62548828 13.69018555 C1.41520996 12.48531494 1.20493164 11.28044434 0.98828125 10.0390625 C0.79790283 8.96865723 0.60752441 7.89825195 0.41137695 6.79541016 C0 4 0 4 0 0 Z " fill="#FCFDFE" transform="translate(201,386)"/>
<path d="M0 0 C6.65369877 4.87296203 10.16137023 12.48839125 13 20 C13.52013672 21.37091797 13.52013672 21.37091797 14.05078125 22.76953125 C20.08100873 39.78920804 22.27776172 57.10676175 24 75 C24.09716309 75.98162109 24.19432617 76.96324219 24.29443359 77.97460938 C26.42485226 101.09175557 24.91612618 124.03639319 22 147 C21.89848633 147.84836426 21.79697266 148.69672852 21.69238281 149.57080078 C20.53828326 158.88256188 18.03245273 167.59638926 15.125 176.5 C14.63350464 178.00602783 14.63350464 178.00602783 14.13208008 179.54248047 C11.1972163 188.13697772 7.87308902 195.89058754 1 202 C0.67 202.33 0.34 202.66 0 203 C-9.11462207 203.97656665 -14.70458275 199.88096592 -21.75 194.5 C-42.85816352 176.98055052 -58.34404804 154.65015421 -70 130 C-70.43441406 129.09894531 -70.86882812 128.19789063 -71.31640625 127.26953125 C-75.13217509 119.08886078 -76.33301025 112.02827801 -76 103 C-70.80518682 101.54985781 -68.35257096 102.81264417 -63.75 105.28515625 C-58.76223951 108.39542167 -54.40778126 112.130073 -50 116 C-49.195625 116.61617188 -48.39125 117.23234375 -47.5625 117.8671875 C-44.05924232 120.78239835 -42.21860695 122.66761459 -41.46484375 127.26171875 C-41.36288466 129.67997931 -41.28887481 132.09957256 -41.2421875 134.51953125 C-40.87522204 139.79317997 -39.23111301 143.82878321 -36 148 C-28.72265765 154.12828829 -21.27002863 154.77890181 -12 154 C-6.10012843 152.3585413 -2.41748133 149.07740084 1 144 C3.68543898 137.99343841 4.44719622 133.16584821 4.3125 126.625 C4.31733398 125.41650391 4.31733398 125.41650391 4.32226562 124.18359375 C4.46116634 119.61367164 4.46116634 119.61367164 2 116 C-0.68839385 115.73008094 -3.29141936 115.91262643 -6 116 C-6.07347656 117.86205078 -6.07347656 117.86205078 -6.1484375 119.76171875 C-6.22349799 121.40366694 -6.29904439 123.04559297 -6.375 124.6875 C-6.4059375 125.50412109 -6.436875 126.32074219 -6.46875 127.16210938 C-6.74007273 132.7468355 -7.222377 136.9446234 -11 141.3125 C-15.30312629 143.73300854 -19.17148313 143.9514319 -24 143 C-27.0625 140.5625 -27.0625 140.5625 -29 138 C-29.33 137.67 -29.66 137.34 -30 137 C-30.24369863 134.42052006 -30.42103174 131.86734706 -30.55078125 129.28125 C-30.59262039 128.48013794 -30.63445953 127.67902588 -30.67756653 126.8536377 C-31.10284709 117.99091652 -31.18608965 109.13094186 -31.18530273 100.25927734 C-31.18749831 97.50212344 -31.20577884 94.74536556 -31.22460938 91.98828125 C-31.2751292 76.40942539 -30.0331421 61.25257058 -26.75 46 C-26.53384033 44.99090576 -26.31768066 43.98181152 -26.0949707 42.94213867 C-22.8791132 28.44727719 -19.0772843 11.98233363 -8.1328125 1.15234375 C-5.19161836 -0.43676298 -3.29541237 -0.46710006 0 0 Z " fill="#D7E5E6" transform="translate(88,15)"/>
<path d="M0 0 C13.80754458 8.60175458 17.05451625 30.11732314 20.48779297 44.77246094 C24.28229179 61.27437095 25.32110897 77.85923724 25.20581055 94.74072266 C25.18751449 97.49781607 25.18530232 100.25457068 25.18554688 103.01171875 C25.17843495 107.47740818 25.12952463 111.94084606 25.04681396 116.40576172 C25.01551259 118.14035566 24.99085216 119.87508172 24.97271729 121.60986328 C24.94110053 124.0850375 24.87595579 126.55706084 24.80078125 129.03125 C24.79331123 130.13188782 24.79331123 130.13188782 24.78569031 131.25476074 C24.62449261 135.17890187 24.10824956 136.86896278 21.57495117 139.93554688 C17.68786264 143.05199901 15.20966223 143.39880318 10.328125 143.3515625 C6.33292464 142.74826043 4.6920891 140.961298 2 138 C1.07434089 135.23473986 0.82868919 132.57378382 0.68359375 129.671875 C0.64169922 128.87265625 0.59980469 128.0734375 0.55664062 127.25 C0.51732422 126.425 0.47800781 125.6 0.4375 124.75 C0.39431641 123.90953125 0.35113281 123.0690625 0.30664062 122.203125 C0.20091457 120.13559329 0.09998705 118.06781719 0 116 C-4.0100934 115.82135369 -4.0100934 115.82135369 -8 116 C-10.60336463 118.60336463 -10.31122138 120.51546052 -10.38061523 124.06933594 C-10.42335187 136.88528229 -10.42335187 136.88528229 -4.3515625 147.859375 C1.74525836 153.4503461 7.48215659 154.52808985 15.63671875 154.37109375 C21.6669892 153.7057329 26.72452165 151.70114519 30.69140625 146.9921875 C33.18125991 143.1474562 35.04057596 139.71320731 34.9296875 135.03125 C34.8458307 129.61649644 34.97220714 125.52605745 38.0546875 120.94921875 C45.24419961 113.58257373 55.09419719 105.15568165 65 102 C67.8125 102.375 67.8125 102.375 70 103 C71.04938504 121.26707285 60.973267 139.23295273 51 154 C50.62117676 154.56138672 50.24235352 155.12277344 49.85205078 155.70117188 C38.57150938 172.28231999 25.26229666 189.38182471 8 200 C6.96875 200.639375 5.9375 201.27875 4.875 201.9375 C0.82306991 203.43495243 -1.67213561 203.54957008 -6 203 C-20.69285889 192.50510079 -24.66090983 166.25254837 -27.5625 149.6875 C-31.84128802 123.49377957 -32.2174819 96.9524442 -29.6875 70.5625 C-29.56995361 69.32628906 -29.45240723 68.09007813 -29.33129883 66.81640625 C-28.40946254 58.07044769 -26.85050776 49.58880399 -25 41 C-24.83395264 40.20037842 -24.66790527 39.40075684 -24.49682617 38.5769043 C-22.05082988 27.01440169 -15.73436521 -2.40525328 0 0 Z " fill="#D7E5E6" transform="translate(430,15)"/>
<path d="M0 0 C1.32668701 0.31348389 1.32668701 0.31348389 2.68017578 0.63330078 C31.3855249 7.6480621 57.4871011 21.31958759 80.44384766 39.78710938 C81.93547665 40.94970944 83.48869462 42.03195776 85.04296875 43.109375 C89.44519214 46.41259481 91.73450182 48.31231092 92.61328125 53.8984375 C92.72333738 57.62938424 92.43953472 61.29325721 92 65 C88.57271983 63.66974214 85.26907635 62.20066973 81.97265625 60.57421875 C71.46369283 55.43388736 61.17713658 50.50815236 50 47 C48.28249814 46.43115243 46.5650553 45.86212664 44.84765625 45.29296875 C32.14645424 41.17268704 19.55770277 38.3673676 6.36279297 36.37011719 C3.51824089 35.92453536 0.70036072 35.36554933 -2.125 34.8125 C-10.98920027 33.36082662 -20.03732924 33.24833188 -29 33 C-30.22251465 32.96495361 -30.22251465 32.96495361 -31.46972656 32.92919922 C-77.94435726 31.79543927 -121.1259706 41.24881724 -162.62255859 61.87426758 C-165.04685147 63.02218444 -167.50001152 64.02951103 -170 65 C-170.96989314 58.34545539 -171.80281092 52.55882841 -167.8203125 46.90625 C-164.81317024 43.92585421 -161.43339501 41.46180512 -158 39 C-156.90447562 38.16508352 -155.81070096 37.32786584 -154.71875 36.48828125 C-139.97391213 25.37471598 -123.91918506 16.33729935 -107 9 C-106.23244385 8.66548828 -105.4648877 8.33097656 -104.67407227 7.98632812 C-72.10215494 -5.65622213 -34.21899273 -8.14737922 0 0 Z " fill="#76D4FA" transform="translate(295,69)"/>
<path d="M0 0 C0.80566532 -0.00407553 1.61133064 -0.00815105 2.44141006 -0.01235008 C6.7003578 -0.03301814 10.9592751 -0.0474055 15.21826172 -0.05688477 C19.56376234 -0.0679552 23.90875198 -0.10241858 28.25407219 -0.14205647 C31.64658425 -0.16844546 35.03897779 -0.17659573 38.4315834 -0.18016624 C40.03164273 -0.18496872 41.63169914 -0.19639556 43.23165512 -0.21520424 C56.42050216 -0.36072268 71.53556209 0.0721525 81.8828125 9.30078125 C84.67889191 14.16803059 84.16066128 18.90343867 83.203125 24.3125 C80.4121314 33.73688251 71.8698519 40.81299535 63.7109375 45.64453125 C57.53374463 48.77922614 51.16077295 51.13079882 44.5703125 53.23828125 C43.53003906 53.58117187 42.48976563 53.9240625 41.41796875 54.27734375 C18.2237761 60.53655841 -9.76227285 57.21511021 -30.6171875 45.48828125 C-38.73626132 40.33604681 -47.14174073 33.93996123 -49.984375 24.37109375 C-51.06602472 19.19056087 -52.02564264 13.71245752 -49.03125 9.0703125 C-36.81563241 -2.62177862 -15.72704596 0.06846851 0 0 Z " fill="#FDFEFE" transform="translate(239.4296875,303.76171875)"/>
<path d="M0 0 C0.74580322 0.00902344 1.49160645 0.01804688 2.26000977 0.02734375 C13.47441933 0.37631727 21.78672562 4.5440789 29.75 12.4375 C37.83567999 22.21196125 39.8853144 31.94073831 39.00439453 44.36474609 C37.68638782 55.10359153 31.05923655 63.10496352 22.9375 69.6875 C13.74239135 76.11003772 4.92231152 77.76421199 -6.25 76.4375 C-17.06107795 73.55624574 -26.15374833 67.41970333 -31.96484375 57.8046875 C-32.60099609 56.63292969 -32.60099609 56.63292969 -33.25 55.4375 C-33.66378906 54.67695313 -34.07757813 53.91640625 -34.50390625 53.1328125 C-38.83114664 43.93554197 -38.5418255 34.20728246 -35.3125 24.6875 C-31.26687423 15.31627646 -24.43960555 7.93057283 -15.25 3.4375 C-14.18523437 2.90898437 -13.12046875 2.38046875 -12.0234375 1.8359375 C-8.00378755 0.14657359 -4.32215244 -0.06286053 0 0 Z " fill="#33373C" transform="translate(158.25,221.5625)"/>
<path d="M0 0 C8.41835896 6.07461129 15.74937854 14.3362094 17.74609375 24.82421875 C19.1523039 36.874358 16.93018942 46.96222519 9.75 56.9375 C3.46404146 64.35031504 -5.95789732 70.19288221 -15.7265625 71.3125 C-28.72508763 71.60542451 -38.66006879 68.13188837 -48.3125 59.3125 C-56.55341625 50.67121535 -58.56847554 39.93266107 -58.3359375 28.44140625 C-57.85519579 19.11461979 -53.63360613 11.61731977 -47.2421875 4.97265625 C-34.08567968 -6.60232015 -15.16170295 -9.21762623 0 0 Z " fill="#33373B" transform="translate(373,227)"/>
<path d="M0 0 C1.78587903 -0.00135194 3.5717577 -0.00329685 5.3576355 -0.00579834 C9.07390904 -0.00872322 12.79008552 -0.00453685 16.50634766 0.00488281 C21.2342251 0.01629247 25.96187573 0.00969138 30.68974495 -0.00226212 C34.36865911 -0.00953826 38.04752075 -0.00716685 41.72643661 -0.00200653 C43.4684947 -0.00068676 45.21055779 -0.00225798 46.95261002 -0.00696564 C63.609985 -0.04212982 81.70281904 0.02016131 94.4296875 12.40234375 C99.76073512 18.51510748 100.65969693 23.96116793 100.37109375 32.0234375 C99.09937161 45.05466437 92.02728879 55.05718271 82.0546875 63.265625 C69.46784304 71.70245915 55.97727158 76.64265298 41.0546875 79.265625 C40.0234375 79.45253906 38.9921875 79.63945312 37.9296875 79.83203125 C23.97793293 81.39316508 8.78680163 81.37216955 -4.9453125 78.265625 C-5.88117188 78.09417969 -6.81703125 77.92273438 -7.78125 77.74609375 C-20.46926183 75.10984464 -33.40022414 69.08576994 -42.9453125 60.265625 C-43.57695312 59.70101562 -44.20859375 59.13640625 -44.859375 58.5546875 C-53.68199481 50.25767057 -57.96235809 40.76372705 -58.3828125 28.640625 C-58.12886138 20.30907476 -55.79765194 15.79266352 -49.8828125 10.015625 C-36.33194343 -1.22168106 -16.66764984 -0.04516409 0 0 Z M-44.5390625 21.11328125 C-47.66916572 25.90407812 -46.52237811 31.05054515 -45.5625 36.3984375 C-42.82074235 45.93666481 -34.02478317 52.86717617 -25.8515625 57.734375 C-21.0240477 60.2779043 -16.06129259 62.37632115 -10.9453125 64.265625 C-10.08550781 64.59949219 -9.22570312 64.93335938 -8.33984375 65.27734375 C1.3088436 68.08645526 10.9281528 68.62593348 20.9296875 68.578125 C22.1662207 68.57248535 23.40275391 68.5668457 24.67675781 68.56103516 C33.21207543 68.4472159 40.90012717 67.95349743 49.0546875 65.265625 C50.01157471 64.95963379 50.01157471 64.95963379 50.98779297 64.64746094 C64.39399618 60.28766846 77.90363228 54.13940578 85.4296875 41.578125 C88.17914951 35.97345244 89.02864661 30.47222719 88.0546875 24.265625 C85.817856 19.67243666 82.55887901 17.15889176 77.8046875 15.453125 C76.2238281 15.04752416 74.64019889 14.65264195 73.0546875 14.265625 C72.37823181 14.08565475 71.70177612 13.90568451 71.00482178 13.72026062 C62.72205368 11.76355271 54.39699262 11.99454547 45.9453125 12.03515625 C44.28920528 12.03635166 42.63309738 12.03680045 40.97698975 12.0365448 C37.51749378 12.03810168 34.05810245 12.04632614 30.59863281 12.05981445 C26.20369768 12.07674925 21.80887767 12.08062964 17.41391373 12.07986927 C13.99573707 12.0801437 10.57758468 12.08566904 7.1594162 12.09287071 C5.5409946 12.09601385 3.92257029 12.09801437 2.30414581 12.09876442 C-22.84176313 10.96006973 -22.84176313 10.96006973 -44.5390625 21.11328125 Z " fill="#34383D" transform="translate(234.9453125,291.734375)"/>
<path d="M0 0 C4.3751335 0.64493107 8.75008275 1.29110374 13.125 1.9375 C14.3625 2.11990234 15.6 2.30230469 16.875 2.49023438 C18.07382813 2.66748047 19.27265625 2.84472656 20.5078125 3.02734375 C21.60754395 3.18968506 22.70727539 3.35202637 23.84033203 3.51928711 C25.87931383 3.82949845 27.91389611 4.17099044 29.94116211 4.55029297 C33.47037064 5.06915338 36.8662534 5.14722451 40.43359375 5.16796875 C41.49311249 5.17425293 41.49311249 5.17425293 42.57403564 5.18066406 C44.86191401 5.19042661 47.14960425 5.19045397 49.4375 5.1875 C50.21944733 5.18722809 51.00139465 5.18695618 51.80703735 5.18667603 C69.43511242 5.1584877 86.72525275 4.2090238 104.015625 0.5859375 C107 0 107 0 110 0 C108.6798974 11.39947424 106.96285717 22.69394268 105 34 C79.25135365 44.1930958 30.95543852 43.15296814 5 34 C4.28373718 29.80148069 3.57178296 25.60226012 2.86376953 21.40234375 C2.62243318 19.97441001 2.37993152 18.54667269 2.13623047 17.11914062 C1.7856502 15.06431098 1.43930052 13.00880569 1.09375 10.953125 C0.88427734 9.71723633 0.67480469 8.48134766 0.45898438 7.20800781 C0 4 0 4 0 0 Z " fill="#D8E6E8" transform="translate(201,386)"/>
<path d="M0 0 C6.88229083 7.47220147 9.64215427 14.92033236 9.51953125 24.953125 C8.78893852 32.48252776 5.30132358 37.64594489 -0.0625 42.8125 C-5.88999692 47.59626613 -12.19494484 50.04975097 -19.7890625 49.64453125 C-28.84984364 48.43759322 -34.76481065 44.17186452 -40.8125 37.375 C-45.50247704 30.79215306 -45.91526013 23.21790609 -44.8125 15.375 C-41.93198502 6.6744281 -36.6533337 1.01549341 -28.8125 -3.625 C-18.83265138 -8.06048827 -9.10713314 -5.26189915 0 0 Z " fill="#34383D" transform="translate(273.8125,154.625)"/>
<path d="M0 0 C3.59137882 3.06763608 5.58070694 5.48406754 7 10 C-0.59950008 16.4047372 -12.03229956 15.30802911 -21.4453125 15.30078125 C-23.32100418 15.30720894 -23.32100418 15.30720894 -25.23458862 15.31376648 C-28.52889259 15.32092739 -31.82301057 15.31792072 -35.11730957 15.31219482 C-37.12666011 15.31250025 -39.13571777 15.32256484 -41.14501953 15.33618164 C-45.03692274 15.36074752 -48.92834125 15.36483519 -52.8203125 15.36328125 C-54.00803253 15.372491 -55.19575256 15.38170074 -56.41946411 15.39118958 C-69.54225043 15.31853385 -69.54225043 15.31853385 -75 12 C-76.30618286 10.05024719 -76.30618286 10.05024719 -77 8 C-73.68024216 0.34447302 -65.34836666 -3.59647292 -58.0625 -6.8125 C-38.60620742 -14.33758008 -16.96596375 -12.56614604 0 0 Z " fill="#76D5FB" transform="translate(291,274)"/>
<path d="M0 0 C6.65369877 4.87296203 10.16137023 12.48839125 13 20 C13.52013672 21.37091797 13.52013672 21.37091797 14.05078125 22.76953125 C17.98899019 33.88470783 21.86463412 46.11128091 21 58 C19.71699896 55.44722473 18.45289041 52.88566845 17.1953125 50.3203125 C16.50531918 48.9218203 15.81521175 47.5233844 15.125 46.125 C14.78597656 45.43019531 14.44695312 44.73539063 14.09765625 44.01953125 C9.12359678 33.94922807 9.12359678 33.94922807 0 28 C-4.60523014 27.16268543 -7.2614806 27.83135204 -11.0625 30.375 C-18.93897092 36.88297211 -22.39790651 46.72381235 -26 56 C-26.33 56 -26.66 56 -27 56 C-27.33095785 48.71140563 -26.17555503 42.57503813 -24.25 35.5625 C-23.99734375 34.58990234 -23.7446875 33.61730469 -23.484375 32.61523438 C-21.16940805 23.95147057 -18.39442144 15.63772955 -13.5 8.0625 C-12.9328125 7.16660156 -12.365625 6.27070313 -11.78125 5.34765625 C-8.34688602 0.82122478 -5.8056142 -0.8229024 0 0 Z " fill="#FAFAFA" transform="translate(88,15)"/>
<path d="M0 0 C11.84021346 7.37615654 15.45146794 24.49567302 18.75 37.125 C18.97316895 37.9603125 19.19633789 38.795625 19.42626953 39.65625 C20.82781324 45.24919234 21.20878689 50.23516189 21 56 C18.27778051 51.91667077 16.27955867 47.49721473 14.18554688 43.06835938 C11.21868645 36.98088569 7.60173731 30.55067124 1 28 C-5.14983583 27.72616686 -9.13313773 29.14360322 -14 33 C-15.57434331 35.22425015 -16.86282283 37.24454419 -18.125 39.625 C-18.46337891 40.23875488 -18.80175781 40.85250977 -19.15039062 41.48486328 C-21.8575467 46.49101558 -24.11789954 51.62610789 -26 57 C-26.33 57 -26.66 57 -27 57 C-27.33505845 50.1353878 -26.13375768 44.13796549 -24.4375 37.5 C-24.1679248 36.44353271 -23.89834961 35.38706543 -23.62060547 34.29858398 C-13.95746309 -2.13362493 -13.95746309 -2.13362493 0 0 Z " fill="#FAFAFB" transform="translate(430,15)"/>
<path d="M0 0 C0.80566532 -0.00407553 1.61133064 -0.00815105 2.44141006 -0.01235008 C6.7003578 -0.03301814 10.9592751 -0.0474055 15.21826172 -0.05688477 C19.56376234 -0.0679552 23.90875198 -0.10241858 28.25407219 -0.14205647 C31.64658425 -0.16844546 35.03897779 -0.17659573 38.4315834 -0.18016624 C40.03164273 -0.18496872 41.63169914 -0.19639556 43.23165512 -0.21520424 C54.27066193 -0.33700253 63.98568354 1.07517169 74.5703125 4.23828125 C74.5703125 4.56828125 74.5703125 4.89828125 74.5703125 5.23828125 C73.80074219 5.33625 73.03117187 5.43421875 72.23828125 5.53515625 C70.51544922 5.75945312 70.51544922 5.75945312 68.7578125 5.98828125 C68.09966553 6.07190918 67.44151855 6.15553711 66.76342773 6.24169922 C62.38364166 6.81418829 58.03750182 7.49407137 53.6875 8.26171875 C25.32600991 13.13314035 -0.94210655 11.69214275 -29.02636719 6.78955078 C-33.47965373 6.06820781 -37.93318063 5.58768543 -42.4296875 5.23828125 C-34.12876606 -3.06264019 -11.31963953 0.04928064 0 0 Z " fill="#D8E5E6" transform="translate(239.4296875,303.76171875)"/>
<path d="M0 0 C0.41737838 7.26547556 -0.4648448 13.1874684 -3 20 C-3.33064453 21.08667969 -3.33064453 21.08667969 -3.66796875 22.1953125 C-5.49994501 27.08678211 -7.87082269 28.72501651 -12.5625 30.9375 C-13.62082031 31.41316406 -14.67914063 31.88882813 -15.76953125 32.37890625 C-23.83737994 36.42746394 -30.35534699 43.09243471 -36.5390625 49.56640625 C-38 51 -38 51 -39 51 C-39.32910602 46.39251574 -39.46035614 43.37431241 -37.0625 39.375 C-34.84372094 35.53364442 -34.88952015 32.5872527 -34.9375 28.1875 C-34.65104338 22.22920226 -33.41469552 19.46637909 -29.25 15.1875 C-9.09572557 -2.59877874 -9.09572557 -2.59877874 0 0 Z " fill="#FBFBFB" transform="translate(500,118)"/>
<path d="M0 0 C12.66774241 1.35146612 21.36652926 10.50142724 30 19 C30.60972656 19.47695312 31.21945313 19.95390625 31.84765625 20.4453125 C33.73506773 22.9917185 33.38043249 25.58235617 33.4375 28.6875 C33.69354667 34.10344376 34.38529549 37.57764086 37.14453125 42.1796875 C38.66881961 45.42315041 38.251236 48.48269599 38 52 C31.6377607 46.60592755 31.6377607 46.60592755 28.73046875 43.84375 C22.18696393 37.67023334 15.12128453 32.57568134 6.78125 29.06640625 C2.45885875 26.47865886 1.08989676 19.6955233 -0.25 15.0625 C-1.30172149 10.44609418 -1.39475485 5.70951714 -1 1 C-0.67 0.67 -0.34 0.34 0 0 Z " fill="#FBFBFB" transform="translate(13,117)"/>
<path d="M0 0 C5.13308791 2.61320839 8.1797908 5.53937241 10 11 C10.5747617 16.86256937 9.60317286 21.34716334 6 26 C2.38414491 28.80013073 -1.06452345 29.86870504 -5.5625 30.5 C-9.71817414 29.89553831 -12.8619453 28.77298398 -16 26 C-19.45618838 21.31381516 -20.75621029 16.83362222 -20 11 C-16.41122719 1.36697825 -9.55168724 -1.07108014 0 0 Z " fill="#FAFAFA" transform="translate(261,162)"/>
<path d="M0 0 C0.495 0.99 0.495 0.99 1 2 C-3.90361293 9.2386667 -9.12288059 15.12214782 -18 17 C-26.16315103 17.95581199 -32.18244148 16.6299209 -39 12 C-42.93839557 8.78615444 -46.08661957 6.15326981 -47 1 C-31.99806846 -2.7673012 -15.11975627 -4.20859195 0 0 Z " fill="#455551" transform="translate(376,269)"/>
<path d="M0 0 C-2.1833357 6.11963803 -5.67527169 10.09538177 -11.33203125 13.3359375 C-17.95723111 16.27815224 -24.33569272 17.36106016 -31.3828125 15.3046875 C-37.83898208 12.70033435 -43.12984599 8.80523101 -47 3 C-47 2.01 -47 1.02 -47 0 C-31.28630445 -4.73949884 -15.78596713 -3.96418906 0 0 Z " fill="#455551" transform="translate(183,270)"/>
<path d="M0 0 C3.91656471 1.99388749 6.84099087 4.13650997 9 8 C9.33 9.98 9.66 11.96 10 14 C0.1 14 -9.8 14 -20 14 C-18.97259133 7.835548 -18.1886012 6.28601053 -14 2 C-9.55859568 -0.73746933 -5.06892135 -0.65663752 0 0 Z " fill="#D7E5E6" transform="translate(261,162)"/>
<path d="M0 0 C3.4375 1 3.4375 1 5.375 2.75 C6.67120853 5.49491218 6.96237013 7.00074212 6.4375 10 C4.875 12.3125 4.875 12.3125 2.4375 14 C-1.02480815 14.42519574 -3.3972167 14.63902633 -6.5 12.9375 C-8.20152633 9.8347167 -7.98769574 7.46230815 -7.5625 4 C-5.30132583 0.38212133 -4.292718 0 0 0 Z " fill="#F4F4F4" transform="translate(337.5625,242)"/>
<path d="M0 0 C1.875 1.125 1.875 1.125 3 3 C3.36528977 6.4093712 3.6140629 8.88023824 1.9375 11.9375 C-1.1652833 13.63902633 -3.53769185 13.42519574 -7 13 C-9.5 11.4375 -9.5 11.4375 -11 9 C-11 5.18846501 -10.80074051 2.94902579 -8.3125 0 C-5.12832007 -1.37694267 -3.29075199 -0.980224 0 0 Z " fill="#F6F6F6" transform="translate(147,243)"/>
</svg>
