<?xml version="1.0" encoding="UTF-8"?>
<svg version="1.1" xmlns="http://www.w3.org/2000/svg" width="512" height="512">
<path d="M0 0 C24.92514671 16.32797044 37.26761752 49.26460014 43.625 76.75 C48.10777481 98.94340974 47.85027625 121.50711355 46 144 C46.37286133 143.14245117 46.74572266 142.28490234 47.12988281 141.40136719 C48.52394482 138.20739893 49.92634243 135.01736665 51.33447266 131.82958984 C51.94102243 130.45183226 52.54425854 129.07261073 53.14404297 127.69189453 C54.00912393 125.70206486 54.88617214 123.71788716 55.765625 121.734375 C56.28930664 120.54038086 56.81298828 119.34638672 57.35253906 118.11621094 C58.95112388 115.09245032 60.37060679 113.16245489 63 111 C68.94167284 109.78668543 74.13805719 113.0122654 79.375 115.5 C80.30183594 115.92925781 81.22867188 116.35851562 82.18359375 116.80078125 C84.46065079 117.85714792 86.73230522 118.92371962 89 120 C95.15257006 114.92476095 100.71672564 109.36466744 106.3125 103.6875 C108.09795449 101.87662979 109.88560159 100.06791792 111.67578125 98.26171875 C112.45864502 97.46725342 113.24150879 96.67278809 114.0480957 95.85424805 C116.33767412 93.67922015 117.52562176 93.09035776 120.625 92.5 C129.1825713 93.76778834 136.66193922 104.54428313 142.5 110.4375 C143.4178125 111.35982422 144.335625 112.28214844 145.28125 113.23242188 C147.52315055 115.48599899 149.762666 117.74189075 152 120 C154.07547996 119.21818372 156.14939902 118.43222294 158.22265625 117.64453125 C159.37773682 117.20729736 160.53281738 116.77006348 161.72290039 116.31958008 C164.41161291 115.2369241 166.89647559 114.06823087 169.4375 112.6875 C173.08926736 110.95771546 175.03813647 110.27966118 179 111 C182.71146656 114.03431252 184.32784241 117.3874807 186.234375 121.734375 C186.51726379 122.37240051 186.80015259 123.01042603 187.09161377 123.66778564 C187.98650089 125.69146422 188.86838701 127.72050861 189.75 129.75 C190.35722076 131.12928172 190.96528508 132.5081924 191.57421875 133.88671875 C193.05926479 137.25357412 194.53271089 140.62536187 196 144 C195.93071289 143.1445459 195.86142578 142.2890918 195.79003906 141.40771484 C192.58303043 99.66524488 196.33018158 54.27355388 223 20 C224.03253906 18.64648438 224.03253906 18.64648438 225.0859375 17.265625 C237.6052644 1.36388346 237.6052644 1.36388346 245.625 -1.125 C258.91715002 3.30571667 269.93852612 28.09072924 275.92529297 39.81152344 C299.8539057 87.87315776 307.0524508 146.37857159 289.9375 197.75 C289.45322174 199.18453912 288.96263682 200.61696942 288.46484375 202.046875 C288.23361816 202.71396484 288.00239258 203.38105469 287.76416016 204.06835938 C287 206 287 206 285.98193359 207.82226562 C284.82879543 209.78014166 284.82879543 209.78014166 284 213 C285.46840891 215.80913009 286.72893638 217.6478374 288.75 220 C289.80050827 221.32683654 290.84598719 222.65766861 291.88671875 223.9921875 C292.41571777 224.66217773 292.9447168 225.33216797 293.48974609 226.02246094 C314.35765924 253.34708048 325.8075666 289.49283848 324.85986328 323.60717773 C324.76816759 329.77965598 325.64986974 334.01009955 328.6875 339.47265625 C336.40258634 354.32878976 334.49601126 375.46571967 329.69335938 390.94873047 C322.61698922 411.88382274 310.1879024 429.21019922 295 445 C293.69289063 446.36898437 293.69289063 446.36898437 292.359375 447.765625 C255.59829339 485.4515137 203.080037 504.06190293 152 511 C150.77112061 511.1757959 149.54224121 511.3515918 148.27612305 511.53271484 C143.56581294 512.11274811 138.88226248 512.19726339 134.140625 512.23828125 C133.20653305 512.2480751 132.2724411 512.25786896 131.31004333 512.26795959 C110.54342536 512.44069318 90.41552914 512.25015658 70 508 C68.92572754 507.78037598 67.85145508 507.56075195 66.74462891 507.33447266 C52.43134529 504.33066013 38.64458904 500.25065799 25 495 C23.34677734 494.36964844 23.34677734 494.36964844 21.66015625 493.7265625 C3.51200117 486.46730047 -14.54014995 476.96820778 -30 465 C-31.5778125 463.83791016 -31.5778125 463.83791016 -33.1875 462.65234375 C-60.38273251 442.349858 -82.67410266 414.60807141 -90 381 C-90.19078125 380.22785156 -90.3815625 379.45570313 -90.578125 378.66015625 C-92.88374529 364.12193939 -91.28845333 348.552868 -84.75 335.3125 C-82.59451863 330.3300219 -82.86495111 325.69651113 -83 320.375 C-83.77502051 286.13012161 -70.29774823 252.6359436 -50.7890625 224.9375 C-50.34240234 224.29925293 -49.89574219 223.66100586 -49.43554688 223.00341797 C-48.39743873 221.55465683 -47.32659788 220.12916354 -46.23632812 218.71923828 C-44.61268941 216.52457409 -43.17778507 214.46331885 -42 212 C-42.3438731 208.7562354 -42.3438731 208.7562354 -44.25 205.875 C-51.1414701 192.62115901 -54.41317858 176.79659455 -56 162 C-56.10957031 161.09507812 -56.21914062 160.19015625 -56.33203125 159.2578125 C-62.15586587 103.19369793 -44.29507727 44.77281642 -9 1 C-5.86845314 -0.56577343 -3.45912891 -0.32565021 0 0 Z " fill="#D2954B" transform="translate(135,0)"/>
<path d="M0 0 C24.92514671 16.32797044 37.26761752 49.26460014 43.625 76.75 C48.10777481 98.94340974 47.85027625 121.50711355 46 144 C46.37286133 143.14245117 46.74572266 142.28490234 47.12988281 141.40136719 C48.52394482 138.20739893 49.92634243 135.01736665 51.33447266 131.82958984 C51.94102243 130.45183226 52.54425854 129.07261073 53.14404297 127.69189453 C54.00912393 125.70206486 54.88617214 123.71788716 55.765625 121.734375 C56.28930664 120.54038086 56.81298828 119.34638672 57.35253906 118.11621094 C58.95112388 115.09245032 60.37060679 113.16245489 63 111 C68.94167284 109.78668543 74.13805719 113.0122654 79.375 115.5 C80.30183594 115.92925781 81.22867188 116.35851562 82.18359375 116.80078125 C84.46065079 117.85714792 86.73230522 118.92371962 89 120 C95.15257006 114.92476095 100.71672564 109.36466744 106.3125 103.6875 C108.09795449 101.87662979 109.88560159 100.06791792 111.67578125 98.26171875 C112.45864502 97.46725342 113.24150879 96.67278809 114.0480957 95.85424805 C116.33767412 93.67922015 117.52562176 93.09035776 120.625 92.5 C129.1825713 93.76778834 136.66193922 104.54428313 142.5 110.4375 C143.4178125 111.35982422 144.335625 112.28214844 145.28125 113.23242188 C147.52315055 115.48599899 149.762666 117.74189075 152 120 C154.07547996 119.21818372 156.14939902 118.43222294 158.22265625 117.64453125 C159.37773682 117.20729736 160.53281738 116.77006348 161.72290039 116.31958008 C164.41161291 115.2369241 166.89647559 114.06823087 169.4375 112.6875 C173.08926736 110.95771546 175.03813647 110.27966118 179 111 C182.71146656 114.03431252 184.32784241 117.3874807 186.234375 121.734375 C186.51726379 122.37240051 186.80015259 123.01042603 187.09161377 123.66778564 C187.98650089 125.69146422 188.86838701 127.72050861 189.75 129.75 C190.35722076 131.12928172 190.96528508 132.5081924 191.57421875 133.88671875 C193.05926479 137.25357412 194.53271089 140.62536187 196 144 C195.93071289 143.1445459 195.86142578 142.2890918 195.79003906 141.40771484 C192.58303043 99.66524488 196.33018158 54.27355388 223 20 C224.03253906 18.64648438 224.03253906 18.64648438 225.0859375 17.265625 C237.6052644 1.36388346 237.6052644 1.36388346 245.625 -1.125 C258.91715002 3.30571667 269.93852612 28.09072924 275.92529297 39.81152344 C299.8539057 87.87315776 307.0524508 146.37857159 289.9375 197.75 C289.45322174 199.18453912 288.96263682 200.61696942 288.46484375 202.046875 C288.23361816 202.71396484 288.00239258 203.38105469 287.76416016 204.06835938 C287 206 287 206 285.98193359 207.82226562 C284.82879543 209.78014166 284.82879543 209.78014166 284 213 C285.46840891 215.80913009 286.72893638 217.6478374 288.75 220 C289.80050827 221.32683654 290.84598719 222.65766861 291.88671875 223.9921875 C292.41571777 224.66217773 292.9447168 225.33216797 293.48974609 226.02246094 C314.35765924 253.34708048 325.8075666 289.49283848 324.85986328 323.60717773 C324.76816759 329.77965598 325.64986974 334.01009955 328.6875 339.47265625 C336.40258634 354.32878976 334.49601126 375.46571967 329.69335938 390.94873047 C322.61698922 411.88382274 310.1879024 429.21019922 295 445 C293.69289063 446.36898437 293.69289063 446.36898437 292.359375 447.765625 C255.59829339 485.4515137 203.080037 504.06190293 152 511 C150.77112061 511.1757959 149.54224121 511.3515918 148.27612305 511.53271484 C143.56581294 512.11274811 138.88226248 512.19726339 134.140625 512.23828125 C133.20653305 512.2480751 132.2724411 512.25786896 131.31004333 512.26795959 C110.54342536 512.44069318 90.41552914 512.25015658 70 508 C68.92572754 507.78037598 67.85145508 507.56075195 66.74462891 507.33447266 C52.43134529 504.33066013 38.64458904 500.25065799 25 495 C23.34677734 494.36964844 23.34677734 494.36964844 21.66015625 493.7265625 C3.51200117 486.46730047 -14.54014995 476.96820778 -30 465 C-31.5778125 463.83791016 -31.5778125 463.83791016 -33.1875 462.65234375 C-60.38273251 442.349858 -82.67410266 414.60807141 -90 381 C-90.19078125 380.22785156 -90.3815625 379.45570313 -90.578125 378.66015625 C-92.88374529 364.12193939 -91.28845333 348.552868 -84.75 335.3125 C-82.59451863 330.3300219 -82.86495111 325.69651113 -83 320.375 C-83.77502051 286.13012161 -70.29774823 252.6359436 -50.7890625 224.9375 C-50.34240234 224.29925293 -49.89574219 223.66100586 -49.43554688 223.00341797 C-48.39743873 221.55465683 -47.32659788 220.12916354 -46.23632812 218.71923828 C-44.61268941 216.52457409 -43.17778507 214.46331885 -42 212 C-42.3438731 208.7562354 -42.3438731 208.7562354 -44.25 205.875 C-51.1414701 192.62115901 -54.41317858 176.79659455 -56 162 C-56.10957031 161.09507812 -56.21914062 160.19015625 -56.33203125 159.2578125 C-62.15586587 103.19369793 -44.29507727 44.77281642 -9 1 C-5.86845314 -0.56577343 -3.45912891 -0.32565021 0 0 Z M-4 15 C-5.604088 17.09148398 -7.06295722 19.17135122 -8.5 21.375 C-9.16104736 22.38288574 -9.16104736 22.38288574 -9.83544922 23.41113281 C-24.81117927 46.57912414 -35.69141297 71.85668891 -41 99 C-41.2784375 100.26199219 -41.556875 101.52398437 -41.84375 102.82421875 C-47.64257167 131.46147651 -45.88985839 165.54426344 -36 193 C-35.7637793 193.65822754 -35.52755859 194.31645508 -35.28417969 194.99462891 C-32.51189576 202.57109161 -29.29740464 209.72581083 -25.1015625 216.6328125 C-23.84381487 219.33563188 -23.63285424 221.0529111 -24 224 C-26 226 -26 226 -28.875 226.125 C-29.90625 226.08375 -30.9375 226.0425 -32 226 C-33.32 226 -34.64 226 -36 226 C-52.1662399 242.64171755 -62.56748999 269.86418493 -67.54174805 292.02148438 C-67.84994773 293.35214514 -68.18534869 294.67676714 -68.54614258 295.99414062 C-75.76421244 323.87526292 -67.90810059 354.12285457 -54.09765625 378.53515625 C-48.56292512 387.90542743 -41.46534486 396.12812645 -34 404 C-33.15695313 404.89589844 -32.31390625 405.79179687 -31.4453125 406.71484375 C-16.64589868 422.00757136 1.11525738 433.09316287 20.25878906 442.16992188 C21.75162529 442.88159366 23.23259165 443.61807189 24.7109375 444.359375 C38.10225624 450.86493679 52.6907033 454.88887826 67.125 458.3125 C68.12345947 458.55476318 69.12191895 458.79702637 70.15063477 459.04663086 C87.08967888 462.89462316 104.25993793 463.40878045 121.5625 463.375 C122.56924774 463.37478851 123.57599548 463.37457703 124.61325073 463.37435913 C140.4422497 463.34126474 155.4933812 462.38795361 171 459 C172.79282878 458.64512546 174.58579631 458.29095113 176.37890625 457.9375 C195.85609296 453.88725323 214.56545339 446.5231919 232 437 C232.59425781 436.68208496 233.18851562 436.36416992 233.80078125 436.03662109 C247.82461436 428.50912244 260.1086938 419.49792518 271.52441406 408.42431641 C272.88264288 407.11327953 274.26452452 405.82686442 275.6484375 404.54296875 C297.29287198 383.95685835 311.19405902 354.95943365 312.3203125 325.1015625 C312.63295076 311.22460418 312.11401287 298.29142619 308 285 C307.80744629 284.3493457 307.61489258 283.69869141 307.41650391 283.02832031 C301.93153103 264.65343205 293.56442554 247.74441046 282.6875 232 C282.07503418 231.09121094 282.07503418 231.09121094 281.45019531 230.1640625 C280.16380741 228.2955005 280.16380741 228.2955005 278 226 C275.62463453 226 273.24846745 226.0300613 270.875 226.125 C268 226 268 226 266 224 C266.25450941 218.55483809 268.04360743 214.49702667 270.625 209.8125 C278.56243198 194.57644545 283.08424236 179.03769599 285 162 C285.0920874 161.27087402 285.1841748 160.54174805 285.27905273 159.79052734 C287.80826439 138.03430779 286.91510878 115.3139748 282 94 C281.69449219 92.63391602 281.69449219 92.63391602 281.3828125 91.24023438 C275.55722077 65.87014199 264.59044728 35.05520846 246 16 C242.71794203 15.67913868 242.71794203 15.67913868 239.9375 18.5625 C214.59071026 45.1926715 207.64820966 82.37675425 207.625 117.75 C207.62300598 118.55465698 207.62101196 119.35931396 207.61895752 120.18835449 C207.62179809 130.29511626 208.25826451 140.01814299 210 150 C210.19480957 151.21091309 210.19480957 151.21091309 210.39355469 152.44628906 C212.88906973 167.42614224 217.19808581 183.39617162 224 197 C224.18704404 199.69013339 224.08581391 202.29686177 224 205 C223 206 223 206 221.15234375 206.09765625 C219.1015625 206.06510417 217.05078125 206.03255208 215 206 C214.608125 204.783125 214.21625 203.56625 213.8125 202.3125 C213.39484375 201.09626953 213.39484375 201.09626953 212.96875 199.85546875 C212.2667883 197.78638004 211.60520282 195.70345017 210.96875 193.61328125 C210.5871875 192.46214844 210.205625 191.31101563 209.8125 190.125 C209.46832031 189.03445312 209.12414062 187.94390625 208.76953125 186.8203125 C207.18071777 183.59426776 207.18071777 183.59426776 203.18481445 182.88769531 C199.5938467 181.62400054 198.21384374 180.3774863 196.44287109 177.01025391 C195.69133506 175.34487995 194.96972266 173.66578237 194.2734375 171.9765625 C193.87726227 171.07940521 193.48108704 170.18224792 193.07290649 169.25790405 C191.81378734 166.39097178 190.5939279 163.50921696 189.375 160.625 C188.54946586 158.72413312 187.72136384 156.82437928 186.890625 154.92578125 C185.29702225 151.2764238 183.71676791 147.62178042 182.14746094 143.96191406 C179.54744006 137.92005162 176.80644489 131.94888244 174 126 C170.83842149 126.55662074 168.09130371 127.26297227 165.1875 128.62890625 C164.50429688 128.94150391 163.82109375 129.25410156 163.1171875 129.57617188 C161.70423025 130.23442225 160.29276784 130.89589081 158.8828125 131.56054688 C157.85800781 132.02750977 157.85800781 132.02750977 156.8125 132.50390625 C156.20019531 132.79080322 155.58789062 133.0777002 154.95703125 133.37329102 C152.31521709 134.21929113 150.77104717 134.46988988 148 134 C145.73121253 132.1671212 143.8228619 130.40614538 141.82421875 128.3125 C141.25419632 127.73540283 140.68417389 127.15830566 140.09687805 126.5637207 C138.28167175 124.72055988 136.48463026 122.86077312 134.6875 121 C133.45884077 119.74625948 132.22903561 118.49364087 130.99804688 117.2421875 C127.98525376 114.17431092 124.98863512 111.09140799 122 108 C118.06472503 109.58776696 115.69480035 112.1497774 112.7890625 115.19140625 C111.78168734 116.22894043 110.7738608 117.26603651 109.765625 118.30273438 C108.1914642 119.93265899 106.62153412 121.56614264 105.05957031 123.20776367 C103.54314414 124.7969573 102.01126327 126.36988108 100.4765625 127.94140625 C99.56986816 128.88701416 98.66317383 129.83262207 97.72900391 130.80688477 C94.63888774 133.29020142 92.93432161 133.89195921 89 134 C86.71411133 133.37915039 86.71411133 133.37915039 84.58203125 132.34765625 C83.80279297 131.98349609 83.02355469 131.61933594 82.22070312 131.24414062 C81.02864258 130.65922852 81.02864258 130.65922852 79.8125 130.0625 C78.21712317 129.29860654 76.61954952 128.53927957 75.01953125 127.78515625 C74.31932861 127.44363525 73.61912598 127.10211426 72.89770508 126.75024414 C70.87512287 125.81617296 70.87512287 125.81617296 68 126 C66.37320954 129.47415596 64.750403 132.95014891 63.12997437 136.42727661 C62.24779758 138.31721839 61.36183979 140.2053585 60.47583008 142.09350586 C57.43387484 148.60039414 54.49181994 155.12784336 51.74609375 161.765625 C51.22610517 163.00371755 50.70560605 164.24159582 50.18457031 165.47924805 C49.20335734 167.82779057 48.24475533 170.18593711 47.31152344 172.55395508 C43.96678227 180.48722556 43.96678227 180.48722556 41.02392578 182.0480957 C39.64250275 182.42278701 38.25658283 182.7813335 36.86645508 183.12231445 C33.48526704 184.71229104 32.71804922 187.94036927 31.453125 191.27539062 C31.13859375 192.19513672 30.8240625 193.11488281 30.5 194.0625 C30.15453125 194.98611328 29.8090625 195.90972656 29.453125 196.86132812 C27.6679199 201.31880992 27.6679199 201.31880992 27 206 C20.84765625 206.09765625 20.84765625 206.09765625 19 206 C18 205 18 205 17.73828125 201.49609375 C17.80512957 196.56794762 19.35064864 192.5825673 21.1875 188.0625 C21.83618351 186.38180506 22.48064112 184.69947363 23.12109375 183.015625 C23.44062012 182.17580078 23.76014648 181.33597656 24.08935547 180.47070312 C38.92223422 140.22707498 39.67482923 89.39780853 22.22265625 49.90625 C16.39219767 37.31579548 8.65421594 24.06741782 -2 15 C-2.66 15 -3.32 15 -4 15 Z " fill="#34373A" transform="translate(135,0)"/>
<path d="M0 0 C7.07678128 3.10687958 12.00603262 9.92390398 16.95703125 15.66796875 C27.21318943 27.37528507 37.79925423 38.29776271 50 48 C51.66666667 49.33333333 53.33333333 50.66666667 55 52 C54.95359375 50.75605469 54.9071875 49.51210938 54.859375 48.23046875 C54.53540803 35.93085263 55.14925967 25.76673689 63.2421875 15.84375 C66.51235206 12.41371072 70.05892796 9.62074656 74 7 C74.96292969 6.34451172 74.96292969 6.34451172 75.9453125 5.67578125 C84.20964197 1.05747949 96.9711584 1.51925811 105.9375 4 C116.79844653 8.57528062 124.09854329 16.26301215 128.8125 26.875 C132.24208127 35.90021387 132.5108974 46.26222474 129.0625 55.375 C124.11948266 65.63804448 116.14073709 73.32222359 105.5 77.3125 C104.675 77.539375 103.85 77.76625 103 78 C116.28343279 84.45293376 130.72495176 87.53549391 145 91 C144.97808594 90.04867187 144.95617187 89.09734375 144.93359375 88.1171875 C145 85 145 85 146.0625 83.125 C149.17606796 81.31712183 151.49310205 81.49901458 155 82 C157.20010629 84.57943496 157.96994959 86.90609246 159 90.125 C160.26000364 93.74751046 161.60975304 95.30487652 165 97 C170.93510271 97.55508155 175.96204444 97.52656889 181 94 C182.90778747 90.95821299 183.34474868 88.29985009 183.625 84.75 C183.69976562 83.85796875 183.77453125 82.9659375 183.8515625 82.046875 C183.90054688 81.37140625 183.94953125 80.6959375 184 80 C183.28328125 79.89042969 182.5665625 79.78085937 181.828125 79.66796875 C176.97355599 78.52137856 172.8987133 76.07755574 169 73 C167.625 69.875 167.625 69.875 168 67 C169.515625 64.85351562 169.515625 64.85351562 172 63 C174.84103832 62.60207444 177.28682294 62.43828249 180.125 62.46875 C180.90891113 62.4649231 181.69282227 62.46109619 182.50048828 62.45715332 C184.15463549 62.45443647 185.80882583 62.4617819 187.46289062 62.47851562 C189.99186162 62.49993108 192.51799214 62.47870903 195.046875 62.453125 C196.65625626 62.45576832 198.26563575 62.46089339 199.875 62.46875 C200.6292627 62.46065308 201.38352539 62.45255615 202.16064453 62.44421387 C205.65856911 62.50654878 207.64991024 62.74142691 210.49829102 64.84521484 C212 67 212 67 212.15234375 70.0078125 C210.55482172 74.15595444 208.49730296 74.9356119 204.5625 76.875 C203.38816406 77.47054687 202.21382812 78.06609375 201.00390625 78.6796875 C198 80 198 80 196 80 C196.26595353 88.08400277 196.26595353 88.08400277 200 95 C204.38349388 97.78949611 209.9659592 97.55660939 215 97 C218.30061649 95.74824563 218.956071 95.06589351 221 92 C221.56019482 90.47219594 222.07914417 88.92882451 222.5625 87.375 C223.89647059 83.10352941 223.89647059 83.10352941 225 82 C231.2080292 81.54014599 231.2080292 81.54014599 233.9375 83.125 C235.42806408 85.7554072 235.06852468 88.02522266 235 91 C249.04529855 87.86500872 262.71003841 84.58534898 276 79 C274.28945598 77.85963732 272.55575167 76.74913949 270.765625 75.73828125 C260.92342637 70.1600165 255.47371714 64.42191784 251 54 C250.63261719 53.23300781 250.26523437 52.46601563 249.88671875 51.67578125 C247.18798951 43.53203882 248.04558748 32.89090579 251.75390625 25.23046875 C252.16511719 24.49441406 252.57632813 23.75835937 253 23 C253.40089844 22.23300781 253.80179688 21.46601563 254.21484375 20.67578125 C258.96138462 12.57226655 267.22641442 5.91211148 276.36328125 3.40234375 C288.91409505 1.48718253 300.33365296 2.6432622 310.8125 10.25 C314.94421931 13.72507106 318.20232694 17.38256391 321 22 C321.41378906 22.66902344 321.82757813 23.33804687 322.25390625 24.02734375 C326.58095861 32.60606428 325.353533 42.65857035 325 52 C329.10059607 48.49260813 333.19771615 44.98123648 337.29101562 41.46533203 C338.64399611 40.30524791 340.00097844 39.14983122 341.359375 37.99609375 C348.78263383 31.63110942 355.63642239 24.69510691 362.01171875 17.28515625 C364.6990146 14.19661386 367.43348683 11.15408257 370.1875 8.125 C370.69909668 7.55289795 371.21069336 6.9807959 371.73779297 6.39135742 C374.27048729 3.6196437 376.44420757 1.34084774 380 0 C386.59997155 28.58224153 378.1282294 59.62325415 363 84 C357.66357151 91.90476305 351.55581834 99.08718165 345 106 C344.15695312 106.89589844 343.31390625 107.79179687 342.4453125 108.71484375 C319.31160467 132.61967517 287.80000163 148.17309046 256 157 C254.86433594 157.32613281 253.72867188 157.65226563 252.55859375 157.98828125 C248.39262546 159.11339677 244.21661516 160.08690254 240 161 C239.17129395 161.18626953 238.34258789 161.37253906 237.48876953 161.56445312 C208.02151157 167.91770809 173.5703591 167.94827574 144 162 C142.99888184 161.80132324 141.99776367 161.60264648 140.96630859 161.39794922 C103.14570676 153.62898423 67.36439651 137.47734243 39.47558594 110.42431641 C38.11735712 109.11327953 36.73547548 107.82686442 35.3515625 106.54296875 C15.00329575 87.1896488 -0.0373708 58.79719008 -1.13623047 30.49072266 C-1.61636477 6.99992839 -1.61636477 6.99992839 0 0 Z " fill="#C3823D" transform="translate(66,298)"/>
<path d="M0 0 C2.66018803 2.66018803 3.41854477 5.70947122 4.625 9.1875 C9.26072172 21.97844359 15.57705081 33.29449588 24 44 C24.67546875 44.87914062 25.3509375 45.75828125 26.046875 46.6640625 C39.90260346 64.21128067 56.76358693 77.73966064 76 89 C76.76570313 89.495 77.53140625 89.99 78.3203125 90.5 C98.07829545 103.16713889 121.63486845 110.4171943 144.375 115.375 C145.46619141 115.61371826 146.55738281 115.85243652 147.68164062 116.09838867 C164.47217068 119.55474778 181.08475377 120.37792749 198.1875 120.3125 C199.67459976 120.30976578 199.67459976 120.30976578 201.19174194 120.30697632 C215.67331146 120.26216524 229.74963119 119.76326675 244 117 C244.96518555 116.82839355 245.93037109 116.65678711 246.92480469 116.47998047 C260.34839301 114.08886373 273.08772119 110.73442873 285.81445312 105.83789062 C287.79020687 105.08043007 289.77422966 104.35564905 291.765625 103.640625 C331.98127736 88.58190055 370.5781027 59.43887252 389.01171875 19.7734375 C391.9279849 13.27307504 394.52877359 6.68118997 397 0 C397.33 0 397.66 0 398 0 C398.57674896 14.16850367 398.76448974 26.87564429 393 40 C392.71592285 40.6590332 392.4318457 41.31806641 392.13916016 41.99707031 C377.23000115 75.79116405 347.72964308 99.68487503 316 117 C315.33419922 117.36722168 314.66839844 117.73444336 313.98242188 118.11279297 C295.22911712 128.35017395 274.71785063 135.0424451 254 140 C252.76419189 140.29946533 252.76419189 140.29946533 251.50341797 140.60498047 C201.76234171 152.37713453 146.64536022 146.49954217 100 126 C99.35466309 125.7210791 98.70932617 125.4421582 98.04443359 125.15478516 C59.08017064 108.18572229 22.30006541 79.71501652 5 40 C4.58911133 39.06728271 4.58911133 39.06728271 4.16992188 38.11572266 C-1.0543599 25.73915037 -0.53861333 13.23165787 0 0 Z " fill="#ECC698" transform="translate(57,354)"/>
<path d="M0 0 C4.00072076 1.58184422 6.52495254 4.40018367 9.39453125 7.48046875 C10.44244489 8.57314338 11.49130243 9.66491342 12.54101562 10.75585938 C14.18313276 12.47224929 15.8182285 14.19364671 17.43774414 15.93139648 C19.00933128 17.61205877 20.60528179 19.26609636 22.20703125 20.91796875 C22.68332474 21.44182663 23.15961823 21.96568451 23.65034485 22.50541687 C25.20967554 24.17467619 25.20967554 24.17467619 28 26 C32.05698597 25.90938712 35.4188581 25.08607529 39.078125 23.37109375 C39.76390625 23.05849609 40.4496875 22.74589844 41.15625 22.42382812 C41.8471875 22.09833984 42.538125 21.77285156 43.25 21.4375 C50.62279843 18 50.62279843 18 54 18 C55.62679046 21.47415596 57.249597 24.95014891 58.87002563 28.42727661 C59.75220242 30.31721839 60.63816021 32.2053585 61.52416992 34.09350586 C64.56612516 40.60039414 67.50818006 47.12784336 70.25390625 53.765625 C70.77389483 55.00371755 71.29439395 56.24159582 71.81542969 57.47924805 C72.79664266 59.82779057 73.75524467 62.18593711 74.68847656 64.55395508 C76.87567479 70.21797433 76.87567479 70.21797433 81.08154297 74.31616211 C83.49063255 75.21822574 83.49063255 75.21822574 87 76 C89.03513868 79.30710036 89 81.05112581 89 85 C86.12380179 84.29224442 83.25115603 83.57506148 80.3828125 82.8359375 C78.24449463 82.307531 76.09327964 81.82696176 73.9296875 81.4140625 C66.95241164 79.95016538 66.95241164 79.95016538 64.34375 77.34765625 C63.00445862 75.2856375 61.98609029 73.25170224 61 71 C60.61070312 70.19046875 60.22140625 69.3809375 59.8203125 68.546875 C57 62.51724138 57 62.51724138 57 60 C56.26362305 60.34369629 55.52724609 60.68739258 54.76855469 61.04150391 C51.43634335 62.58571222 48.09356106 64.10553318 44.75 65.625 C43.59113281 66.16640625 42.43226563 66.7078125 41.23828125 67.265625 C40.12324219 67.76835937 39.00820313 68.27109375 37.859375 68.7890625 C36.31975098 69.49603271 36.31975098 69.49603271 34.74902344 70.21728516 C32 71 32 71 30.01367188 70.50585938 C27.05945499 68.29664384 24.49913084 65.74298414 21.921875 63.1171875 C21.35043762 62.54292023 20.77900024 61.96865295 20.19024658 61.37698364 C18.37207055 59.5476419 16.56098508 57.71145807 14.75 55.875 C13.51608671 54.63105226 12.28171678 53.3875573 11.046875 52.14453125 C8.02593257 49.10157633 5.01132908 46.05246746 2 43 C-2.19625909 44.63778045 -4.98676785 47.73323182 -8.078125 50.8828125 C-8.64956238 51.45707977 -9.22099976 52.03134705 -9.80975342 52.62301636 C-11.62792945 54.4523581 -13.43901492 56.28854193 -15.25 58.125 C-16.48391329 59.36894774 -17.71828322 60.6124427 -18.953125 61.85546875 C-21.97406743 64.89842367 -24.98867092 67.94753254 -28 71 C-34.39296661 69.00667932 -40.47046394 66.58525386 -46.5625 63.8125 C-47.78936523 63.26045898 -47.78936523 63.26045898 -49.04101562 62.69726562 C-51.02909218 61.80204987 -53.01480308 60.9015835 -55 60 C-55.28786377 60.88969482 -55.28786377 60.88969482 -55.58154297 61.79736328 C-60.39114386 76.47725761 -60.39114386 76.47725761 -64.8671875 79.08984375 C-67.22352609 79.88823686 -69.5751714 80.44232472 -72 81 C-74.31601101 81.71793682 -76.62842018 82.44757387 -78.9375 83.1875 C-84.74157303 85 -84.74157303 85 -87 85 C-86.25 78.375 -86.25 78.375 -84 75 C-82.89922119 74.79221924 -81.79844238 74.58443848 -80.66430664 74.37036133 C-76.71620934 72.89386921 -76.37901739 72.62269726 -74.55639648 69.1237793 C-73.80192823 67.45209988 -73.07508771 65.76777327 -72.37109375 64.07421875 C-71.97350357 63.17564651 -71.57591339 62.27707428 -71.16627502 61.35127258 C-69.89914512 58.47323425 -68.66789784 55.58140535 -67.4375 52.6875 C-66.60718698 50.78216888 -65.77452724 48.8778586 -64.93945312 46.97460938 C-63.336122 43.31388641 -61.74494441 39.64828661 -60.16357422 35.97802734 C-57.5507142 29.93435725 -54.80660411 23.9562609 -52 18 C-48.83157211 18.55421008 -46.11457965 19.25905145 -43.22265625 20.6640625 C-42.20461914 21.13972656 -42.20461914 21.13972656 -41.16601562 21.625 C-39.76380649 22.29160267 -38.36532413 22.96610192 -36.97070312 23.6484375 C-35.95073242 24.12023437 -35.95073242 24.12023437 -34.91015625 24.6015625 C-34.30308838 24.89369629 -33.69602051 25.18583008 -33.07055664 25.48681641 C-29.98162785 26.25240163 -28.05580368 25.91195637 -25 25 C-22.77307586 23.19781734 -20.90308029 21.4892977 -18.9453125 19.43359375 C-18.12569534 18.60336449 -18.12569534 18.60336449 -17.28952026 17.75636292 C-15.55587272 15.99484247 -13.84046939 14.21671019 -12.125 12.4375 C-10.94908099 11.2364891 -9.77200922 10.03660573 -8.59375 8.83789062 C-5.71565201 5.90481773 -2.85378607 2.95672508 0 0 Z " fill="#E3AF75" transform="translate(255,108)"/>
<path d="M0 0 C10.26144815 3.48502013 16.04133905 15.59262083 20.59765625 24.69140625 C30.30764559 47.10191397 28.30511378 74.16867304 19.62597656 96.5690918 C15.35966191 106.92999302 9.93821944 118.69922943 1.3125 126.125 C-1.9375 126.875 -1.9375 126.875 -5.6875 126.125 C-18.45787447 117.34696705 -25.23864406 99.75066455 -28 85.125 C-31.37407096 57.86779929 -25.95638757 32.09177548 -10.6875 9.125 C-10.23246094 8.43535156 -9.77742188 7.74570313 -9.30859375 7.03515625 C-4.63675271 0.21566292 -4.63675271 0.21566292 0 0 Z " fill="#353739" transform="translate(130.6875,92.875)"/>
<path d="M0 0 C15.73801216 14.21743127 24.27917388 40.03019962 25.41015625 60.66796875 C26.03778194 82.99873693 21.40042633 104.70830656 6 121.6875 C3.30910822 124.19174033 2.07180589 124.97984396 -1.5625 126 C-9.78280915 123.60863734 -13.7842202 114.55684446 -17.72070312 107.48046875 C-30.15320771 84.1133517 -33.97921959 56.67455881 -27 31 C-23.07553801 18.98223361 -16.63027811 8.27982532 -7 0 C-4.19664415 -1.40167793 -2.9650644 -0.96536981 0 0 Z " fill="#353739" transform="translate(385,94)"/>
<path d="M0 0 C7.27628901 6.11987879 13.20149427 14.00619945 14.43115234 23.66357422 C15.26647533 33.64299314 14.17192773 41.88267553 9.1875 50.75 C8.80335938 51.43578125 8.41921875 52.1215625 8.0234375 52.828125 C2.65995014 61.21997597 -6.45344727 66.04446739 -15.8125 68.75 C-19.8956582 69.2513498 -23.72487263 69.15543043 -27.8125 68.75 C-29.111875 68.62431641 -29.111875 68.62431641 -30.4375 68.49609375 C-40.11513473 67.05956984 -48.86346711 61.4898132 -54.8125 53.75 C-56.72130445 50.51112437 -58.33030948 47.20289328 -59.8125 43.75 C-60.36357422 42.59951172 -60.36357422 42.59951172 -60.92578125 41.42578125 C-63.62451049 33.28203882 -62.76691252 22.64090579 -59.05859375 14.98046875 C-58.64738281 14.24441406 -58.23617188 13.50835937 -57.8125 12.75 C-57.41160156 11.98300781 -57.01070313 11.21601563 -56.59765625 10.42578125 C-51.85111538 2.32226655 -43.58608558 -4.33788852 -34.44921875 -6.84765625 C-21.89840495 -8.76281747 -10.47884704 -7.6067378 0 0 Z " fill="#34363A" transform="translate(376.8125,308.25)"/>
<path d="M0 0 C9.69988267 6.50981431 14.59524765 14.41855545 18.234375 25.3359375 C19.17499682 36.93246083 18.32024308 46.44197563 11.1796875 56.12109375 C3.39988335 65.26034464 -5.07663156 70.40788773 -17.09375 71.69140625 C-28.07854113 72.13902439 -37.46218511 69.01736579 -46.0234375 62.0546875 C-49.26413616 58.85758568 -51.57536638 55.30821127 -53.765625 51.3359375 C-54.38824219 50.22798828 -54.38824219 50.22798828 -55.0234375 49.09765625 C-59.37903295 40.03619019 -59.26992773 28.78958735 -56.140625 19.3359375 C-52.35370264 10.52177675 -46.7081797 4.61760267 -38.765625 -0.6640625 C-38.12367188 -1.10105469 -37.48171875 -1.53804688 -36.8203125 -1.98828125 C-26.18920917 -7.92919193 -10.06165204 -6.05404487 0 0 Z " fill="#34363A" transform="translate(178.765625,305.6640625)"/>
<path d="M0 0 C0.33 0 0.66 0 1 0 C1 25.08 1 50.16 1 76 C-1.97 76.99 -1.97 76.99 -5 78 C-6.23604156 79.77272502 -6.23604156 79.77272502 -7 82 C-8.22188868 83.92131462 -9.4520587 85.83737181 -10.6875 87.75 C-25.41280945 111.42902493 -31.06686183 138.82056572 -25.03515625 166.2578125 C-21.92986689 177.48372648 -17.5557512 186.97072056 -10 196 C-9.52304688 196.5775 -9.04609375 197.155 -8.5546875 197.75 C-5.6705574 200.94249621 -4.5364471 201.09271058 0 202 C-0.33 211.24 -0.66 220.48 -1 230 C-9.52900283 225.73549859 -15.43705068 217.56632656 -21 210 C-20.34 209.01 -19.68 208.02 -19 207 C-19.2497156 201.55225701 -21.04187809 197.50016495 -23.625 192.8125 C-31.56243198 177.57644545 -36.08424236 162.03769599 -38 145 C-38.0920874 144.27087402 -38.1841748 143.54174805 -38.27905273 142.79052734 C-40.80826439 121.03430779 -39.91510878 98.3139748 -35 77 C-34.79632813 76.08927734 -34.59265625 75.17855469 -34.3828125 74.24023438 C-28.46345484 48.46179714 -17.42494494 20.31357218 0 0 Z " fill="#C2823D" transform="translate(130,17)"/>
<path d="M0 0 C4.62616611 4.62616611 7.64193259 9.42084863 11 15 C11.35255859 15.58330078 11.70511719 16.16660156 12.06835938 16.76757812 C23.77297593 36.3028939 32.36584888 57.86162554 36.34375 80.33203125 C36.77433924 82.73871751 37.27257594 85.13447117 37.84375 87.51171875 C44.02492109 115.35560519 41.61802257 149.29892062 32 176 C31.64566895 176.98734131 31.64566895 176.98734131 31.28417969 177.99462891 C28.51189576 185.57109161 25.29740464 192.72581083 21.1015625 199.6328125 C19.83607718 202.35225968 19.64019739 204.03405959 20 207 C20.66 207.99 21.32 208.98 22 210 C8.95833333 225.72671569 8.95833333 225.72671569 3 231 C2.67 231 2.34 231 2 231 C2 221.76 2 212.52 2 203 C1.34 202.67 0.68 202.34 0 202 C0.969375 201.87625 1.93875 201.7525 2.9375 201.625 C10.01066943 199.53877225 14.34713499 192.72771436 17.98828125 186.71875 C29.99652588 163.88508569 31.21011967 137.9006992 23.79589844 113.42041016 C19.80415455 101.28110067 14.07184793 89.93458207 6 80 C6 79.34 6 78.68 6 78 C4.02 77.34 2.04 76.68 0 76 C0 50.92 0 25.84 0 0 Z " fill="#C2823D" transform="translate(381,17)"/>
<path d="M0 0 C4.13434743 1.45622764 7.79201499 3.52125434 11.58520508 5.68115234 C22.08563485 11.65054018 32.72453732 16.68201326 44 21 C45.73443359 21.67095703 45.73443359 21.67095703 47.50390625 22.35546875 C66.62613361 29.2022454 86.92360962 33.20831258 107 36 C109.14709276 36.36772048 111.29310243 36.74187499 113.4375 37.125 C174.77959306 47.20816978 252.80013182 36.77367535 305.51123047 2.65405273 C306.97469162 1.71611286 308.48374661 0.84995613 310 0 C310.66 0.33 311.32 0.66 312 1 C293.58526864 18.44040695 270.70811118 31.25550653 247 40 C246.09733398 40.33338379 245.19466797 40.66676758 244.26464844 41.01025391 C183.62083349 63.02592165 116.5214749 63.15829268 57 37 C56.35466309 36.7210791 55.70932617 36.4421582 55.04443359 36.15478516 C39.39806833 29.34074234 24.69730992 20.74209531 11 10.5625 C10.34765381 10.0787793 9.69530762 9.59505859 9.02319336 9.09667969 C5.47368459 6.37943371 2.65004986 3.65044368 0 0 Z " fill="#FCE9CF" transform="translate(100,443)"/>
<path d="M0 0 C1.1758667 -0.00574036 1.1758667 -0.00574036 2.37548828 -0.01159668 C4.02963549 -0.01431353 5.68382583 -0.0069681 7.33789062 0.00976562 C9.86686162 0.03118108 12.39299214 0.00995903 14.921875 -0.015625 C16.53125626 -0.01298168 18.14063575 -0.00785661 19.75 0 C20.5042627 -0.00809692 21.25852539 -0.01619385 22.03564453 -0.02453613 C25.53356911 0.03779878 27.52491024 0.27267691 30.37329102 2.37646484 C31.875 4.53125 31.875 4.53125 32.02734375 7.5390625 C30.42982172 11.68720444 28.37230296 12.4668619 24.4375 14.40625 C23.26316406 15.00179688 22.08882813 15.59734375 20.87890625 16.2109375 C17.875 17.53125 17.875 17.53125 15.875 17.53125 C16.14095353 25.61525277 16.14095353 25.61525277 19.875 32.53125 C24.25849388 35.32074611 29.8409592 35.08785939 34.875 34.53125 C38.17561649 33.27949563 38.831071 32.59714351 40.875 29.53125 C41.43519482 28.00344594 41.95414417 26.46007451 42.4375 24.90625 C43.77147059 20.63477941 43.77147059 20.63477941 44.875 19.53125 C48.3125 19.34375 48.3125 19.34375 51.875 19.53125 C54.32450621 21.98075621 54.19771254 22.77848021 54.25 26.15625 C54.11369183 31.41168724 53.10605809 35.33717459 49.875 39.53125 C43.63367747 45.3947054 37.71756932 47.93643192 29.125 47.96875 C28.06200684 47.97455078 28.06200684 47.97455078 26.97753906 47.98046875 C21.59322091 47.86218625 18.00652981 46.74595147 13.671875 43.625 C11.65613096 42.1846187 11.65613096 42.1846187 7.875 42.53125 C6.02001203 43.62870466 6.02001203 43.62870466 4.125 45.03125 C-2.53844729 48.88613686 -9.72643261 48.43841103 -17.125 47.53125 C-24.59105544 45.44190458 -29.32874906 41.22722029 -33.125 34.53125 C-34.1057664 31.58895079 -34.28988128 29.5403716 -34.3125 26.46875 C-34.32667969 25.59089844 -34.34085938 24.71304687 -34.35546875 23.80859375 C-34.125 21.53125 -34.125 21.53125 -32.125 19.53125 C-28.6875 19.09375 -28.6875 19.09375 -25.125 19.53125 C-22.92489371 22.11068496 -22.15505041 24.43734246 -21.125 27.65625 C-19.86499636 31.27876046 -18.51524696 32.83612652 -15.125 34.53125 C-9.18989729 35.08633155 -4.16295556 35.05781889 0.875 31.53125 C2.78278747 28.48946299 3.21974868 25.83110009 3.5 22.28125 C3.57476562 21.38921875 3.64953125 20.4971875 3.7265625 19.578125 C3.77554688 18.90265625 3.82453125 18.2271875 3.875 17.53125 C2.79992187 17.36689453 2.79992187 17.36689453 1.703125 17.19921875 C-3.15144401 16.05262856 -7.2262867 13.60880574 -11.125 10.53125 C-12.5 7.40625 -12.5 7.40625 -12.125 4.53125 C-8.86669194 -0.0832868 -5.25719312 -0.05643537 0 0 Z " fill="#36373A" transform="translate(246.125,360.46875)"/>
<path d="M0 0 C5.08901323 1.69633774 6.6680995 6.38689248 9 11 C18.72098215 32.72891017 21.60642467 56.13035233 14 79 C11.61850079 84.8076247 8.87509532 90.05551635 5 95 C1.31241973 93.77080658 0.83447688 92.28693445 -0.85498047 88.93432617 C-1.19158691 88.23412354 -1.52819336 87.5339209 -1.875 86.8125 C-2.22578613 86.09360596 -2.57657227 85.37471191 -2.93798828 84.6340332 C-12.8291772 63.95803761 -16.68380665 41.97109191 -10.27734375 19.60546875 C-7.76914997 12.52576582 -4.6591208 5.91722167 0 0 Z " fill="#65310E" transform="translate(380,109)"/>
<path d="M0 0 C5.4689979 1.8229993 7.47054789 8.08529258 10 13 C11.27069413 15.95708001 12.2082227 18.88307387 13 22 C13.20367187 22.73089844 13.40734375 23.46179688 13.6171875 24.21484375 C19.22477297 47.29812366 12.7361511 72.18244497 1.06640625 92.26171875 C0.71449219 92.83535156 0.36257812 93.40898437 0 94 C-1.32 94 -2.64 94 -4 94 C-9.37120454 87.93053887 -11.8611373 79.66083035 -14 72 C-14.226875 71.23558594 -14.45375 70.47117187 -14.6875 69.68359375 C-20.58788701 46.12302061 -12.99171522 21.22653232 -1 1 C-0.67 0.67 -0.34 0.34 0 0 Z " fill="#87400B" transform="translate(130,109)"/>
<path d="M0 0 C0.89203125 0.36222656 1.7840625 0.72445313 2.703125 1.09765625 C8.90642797 3.90436542 14.61916339 7.73102112 19 13 C19.74609375 15.75 19.74609375 15.75 20 18 C8.96507877 24.9362362 -6.36563126 23.3126938 -18.86499023 23.26074219 C-21.92777357 23.25003401 -24.98996894 23.26068109 -28.05273438 23.2734375 C-56.08033966 23.29729828 -56.08033966 23.29729828 -64 18 C-63.35634984 12.45692322 -60.85477839 10.46290815 -56.72265625 6.9921875 C-40.0655497 -5.19593924 -19.04506667 -7.84965586 0 0 Z " fill="#E4AF74" transform="translate(278,319)"/>
<path d="M0 0 C8.27822352 8.01687303 11.32752519 19.0550009 14 30 C14.17805176 30.69182373 14.35610352 31.38364746 14.53955078 32.09643555 C18.94557174 50.15560903 16.23018845 70.29551117 7.46484375 86.6171875 C6.07953424 88.87062431 4.72346269 90.99162885 3 93 C2.34 93 1.68 93 1 93 C0.25096094 61.99456406 -0.15090515 31.01449064 0 0 Z " fill="#87400B" transform="translate(382,111)"/>
<path d="M0 0 C5.4689979 1.8229993 7.47054789 8.08529258 10 13 C11.27069413 15.95708001 12.2082227 18.88307387 13 22 C13.20367187 22.73089844 13.40734375 23.46179688 13.6171875 24.21484375 C19.22477297 47.29812366 12.7361511 72.18244497 1.06640625 92.26171875 C0.71449219 92.83535156 0.36257812 93.40898437 0 94 C-0.33 94 -0.66 94 -1 94 C-1.02312178 81.89158056 -1.04091424 69.78316633 -1.05181217 57.67472935 C-1.05704136 52.05292038 -1.06413966 46.43112647 -1.07543945 40.80932617 C-1.08626706 35.38881723 -1.09227656 29.9683228 -1.09487724 24.54780388 C-1.09673172 22.47485055 -1.10035277 20.40189806 -1.10573006 18.32895088 C-1.1129388 15.43616107 -1.11399101 12.54343204 -1.11352539 9.65063477 C-1.11712067 8.78461136 -1.12071594 7.91858795 -1.12442017 7.02632141 C-1.11405216 1.11405216 -1.11405216 1.11405216 0 0 Z " fill="#65310E" transform="translate(130,109)"/>
<path d="M0 0 C0.495 1.485 0.495 1.485 1 3 C-2.71993342 9.798499 -8.5669366 14.24946484 -15.98828125 16.640625 C-23.57424391 17.99578726 -29.9328861 17.40987219 -36.69921875 13.6328125 C-41.30232832 10.36608958 -45.19994659 6.40016023 -47 1 C-32.05639597 -4.19777532 -15.32114053 -2.88397939 0 0 Z " fill="#87400C" transform="translate(376,348)"/>
<path d="M0 0 C-3.17592109 6.92839401 -7.73633128 11.8507762 -14.8125 14.9375 C-22.45170042 17.3341119 -29.94719217 16.80714781 -37.06640625 13.203125 C-39.84209921 11.47602716 -41.88253879 9.48045456 -44 7 C-44.763125 6.113125 -45.52625 5.22625 -46.3125 4.3125 C-48 2 -48 2 -48 0 C-32.8403802 -5.3730298 -15.27884928 -4.38028444 0 0 Z " fill="#87400B" transform="translate(183,349)"/>
<path d="M0 0 C2.375 1.625 2.375 1.625 4 4 C4.61195145 7.6717087 4.48706506 9.28813568 2.375 12.375 C-0.71186432 14.48706506 -2.3282913 14.61195145 -6 14 C-8.375 12.375 -8.375 12.375 -10 10 C-10.61195145 6.3282913 -10.48706506 4.71186432 -8.375 1.625 C-5.28813568 -0.48706506 -3.6717087 -0.61195145 0 0 Z " fill="#F5F5F5" transform="translate(340,321)"/>
<path d="M0 0 C4.91511194 1.34048507 4.91511194 1.34048507 6.4375 3.9375 C6.97270313 7.53100675 6.88564771 9.25631548 4.875 12.3125 C1.5380787 14.5371142 -0.63155293 14.43780235 -4.5625 13.9375 C-6.5 12.875 -6.5 12.875 -7.5625 10.9375 C-8.06141602 7.01744554 -8.11503414 4.82155462 -6 1.4375 C-3.5625 -0.0625 -3.5625 -0.0625 0 0 Z " fill="#F5F5F5" transform="translate(143.5625,321.0625)"/>
<path d="M0 0 C4.39131785 1.51077449 6.31736792 4.91662276 8.75 8.625 C9.16121094 9.23601562 9.57242187 9.84703125 9.99609375 10.4765625 C11.00551256 11.97895328 12.0038647 13.48876909 13 15 C12.67 15.66 12.34 16.32 12 17 C7.38 12.38 2.76 7.76 -2 3 C-1.34 2.01 -0.68 1.02 0 0 Z " fill="#DCA970" transform="translate(410,225)"/>
<path d="M0 0 C1.32 0.66 2.64 1.32 4 2 C-0.40843437 7.29012124 -5.07559794 12.18808428 -10 17 C-10 12.95935243 -8.3891351 11.25312844 -6.125 7.9375 C-5.40570313 6.87402344 -4.68640625 5.81054688 -3.9453125 4.71484375 C-2 2 -2 2 0 0 Z " fill="#DCA970" transform="translate(100,225)"/>
<path d="M0 0 C-2.31853826 2.42392636 -3.74777843 3.90469818 -7.20703125 4.16796875 C-15.81408242 4.23248937 -15.81408242 4.23248937 -20 2 C-20 1.67 -20 1.34 -20 1 C-13.30386804 0.202163 -6.74233419 -0.12910853 0 0 Z " fill="#BA7D3C" transform="translate(286,392)"/>
<path d="M0 0 C6.74233419 -0.12910853 13.30386804 0.202163 20 1 C16.97399366 4.02600634 14.23008375 4.17513525 10.125 4.25 C5.95476662 4.21951584 3.303418 3.75284833 0 1 C0 0.67 0 0.34 0 0 Z " fill="#BA7D3C" transform="translate(226,392)"/>
<path d="M0 0 C0.66 0.33 1.32 0.66 2 1 C-1.465 3.97 -1.465 3.97 -5 7 C-5.33 6.34 -5.66 5.68 -6 5 C-4.06745228 2.9754262 -2.36841312 1.57894208 0 0 Z " fill="#F2E0C6" transform="translate(410,443)"/>
</svg>
