<?xml version="1.0" encoding="UTF-8"?>
<svg version="1.1" xmlns="http://www.w3.org/2000/svg" width="512" height="512">
<path d="M0 0 C1.70349609 0.36544922 1.70349609 0.36544922 3.44140625 0.73828125 C30.06673675 7.37103773 56.42242181 25.21365845 71.44921875 48.39453125 C75.86481926 55.813185 80.1925758 63.24413589 84 71 C84.515625 70.505 85.03125 70.01 85.5625 69.5 C88.91638962 67.43606793 91.09259613 67.71467746 95 68 C98.39331055 69.22509766 98.39331055 69.22509766 101.88671875 70.9140625 C103.16729459 71.5156742 104.44789424 72.11723524 105.72851562 72.71875 C107.71866759 73.6737467 109.70616012 74.63404265 111.69262695 75.59667969 C113.62639994 76.52808084 115.56837163 77.44034936 117.51171875 78.3515625 C119.23588013 79.18421631 119.23588013 79.18421631 120.99487305 80.03369141 C123.8371855 81.28798377 123.8371855 81.28798377 125.95785522 80.28013611 C128.19067142 78.88047597 129.84099693 77.37187362 131.67944336 75.48413086 C132.38374985 74.76676254 133.08805634 74.04939423 133.81370544 73.31028748 C134.56483109 72.53629105 135.31595673 71.76229462 136.08984375 70.96484375 C137.69438583 69.33501506 139.29921226 67.70546627 140.90429688 66.07617188 C143.42736958 63.50340042 145.9471632 60.92758071 148.46166992 58.34643555 C150.89147082 55.85629938 153.33349473 53.37868327 155.77734375 50.90234375 C156.52644516 50.12632309 157.27554657 49.35030243 158.04734802 48.55076599 C158.75480667 47.83654984 159.46226532 47.12233368 160.19116211 46.38647461 C160.80753036 45.7551915 161.42389862 45.12390839 162.0589447 44.47349548 C164.47341337 42.64062205 165.96725532 42.11879758 169 42 C172.53806979 43.66501973 175.13353921 45.88713313 177.87231445 48.64526367 C178.59268387 49.36578415 179.31305328 50.08630463 180.05525208 50.82865906 C180.8169017 51.60063126 181.57855133 52.37260345 182.36328125 53.16796875 C183.15526413 53.96278152 183.94724701 54.7575943 184.76322937 55.57649231 C187.28439687 58.10882856 189.79850958 60.6480405 192.3125 63.1875 C194.02362753 64.90866157 195.73521092 66.62937007 197.44726562 68.34960938 C201.63680859 72.56116889 205.82058525 76.77839069 210 81 C214.94983997 79.41519959 219.76130745 77.79515203 224.4453125 75.51953125 C225.37730469 75.07802734 226.30929687 74.63652344 227.26953125 74.18164062 C229.18410878 73.26363868 231.0955532 72.33907547 233.00390625 71.40820312 C238.12689807 68.99592057 242.20916291 67.07906535 248 68 C250.4375 69.5 250.4375 69.5 252 71 C252.53367187 69.93523437 253.06734375 68.87046875 253.6171875 67.7734375 C263.82461417 47.73267833 277.24776283 28.69940202 297 17 C298.06476563 16.34902344 299.12953125 15.69804688 300.2265625 15.02734375 C316.91259437 5.01478602 334.61185614 -0.98488515 354 -3 C354.66257812 -3.07226807 355.32515625 -3.14453613 356.0078125 -3.21899414 C367.8153272 -4.35509773 367.8153272 -4.35509773 372.2734375 -1.58984375 C374.24504519 0.81218533 375.57928256 3.23296679 377 6 C377.71529086 7.2176532 378.43570496 8.43230575 379.16015625 9.64453125 C387.2751393 23.63435288 393.51495604 39.81302078 395 56 C395.19722656 57.86205078 395.19722656 57.86205078 395.3984375 59.76171875 C397.19266754 79.37209235 394.9069338 100.22813903 386.6015625 118.21484375 C383.13306603 126.3644215 381.76774169 134.95749653 380.20483398 143.62988281 C379.68315191 146.52412275 379.14305187 149.4144617 378.59960938 152.3046875 C378.25675902 154.15084634 377.91492465 155.99719421 377.57421875 157.84375 C377.33526131 159.1343634 377.33526131 159.1343634 377.09147644 160.4510498 C376.94744888 161.25288696 376.80342133 162.05472412 376.6550293 162.88085938 C376.46447212 163.93243225 376.46447212 163.93243225 376.27006531 165.00524902 C375.91055736 167.32514781 375.91055736 167.32514781 376 171 C376.76666992 171.34256836 377.53333984 171.68513672 378.32324219 172.03808594 C381.18172127 173.32054807 384.03635206 174.61113002 386.88867188 175.90722656 C388.12092761 176.46516817 389.35463964 177.01990549 390.58984375 177.57128906 C392.37104075 178.36708191 394.14653163 179.17560747 395.921875 179.984375 C396.99018555 180.46616211 398.05849609 180.94794922 399.15917969 181.44433594 C402.03139053 183.0171898 403.93562083 184.46628915 406 187 C406.3751009 194.09032197 402.00146985 199.71074164 398.4375 205.5625 C397.16231934 207.69895555 395.88757798 209.83567336 394.61328125 211.97265625 C393.99404785 213.00277832 393.37481445 214.03290039 392.73681641 215.09423828 C390.48147465 218.86751317 388.2919151 222.67545895 386.125 226.5 C385.50882812 227.5828125 384.89265625 228.665625 384.2578125 229.78125 C383.84273438 230.5134375 383.42765625 231.245625 383 232 C389.12906056 237.21311192 395.25914465 242.42066278 401.5 247.5 C405.74581843 250.95677253 409.9459204 254.46314998 414.125 258 C414.97868164 258.72219727 414.97868164 258.72219727 415.84960938 259.45898438 C420.96734285 263.79997495 420.96734285 263.79997495 421.5 267.0625 C420.61095882 274.06369926 415.28801553 277.76353858 410.3828125 282.48046875 C409.74553223 283.10042725 409.10825195 283.72038574 408.45166016 284.35913086 C407.15920956 285.61132373 405.85422923 286.8507226 404.53662109 288.07641602 C403.93672363 288.65447998 403.33682617 289.23254395 402.71875 289.828125 C402.17154297 290.3427832 401.62433594 290.85744141 401.06054688 291.38769531 C399.79216768 292.94926067 399.79216768 292.94926067 400.18408203 294.92626953 C401.07716937 297.19613305 402.12056672 299.23554378 403.3359375 301.3515625 C403.81836914 302.19436768 404.30080078 303.03717285 404.79785156 303.90551758 C405.31831055 304.80294678 405.83876953 305.70037598 406.375 306.625 C406.90577148 307.55272217 407.43654297 308.48044434 407.98339844 309.4362793 C410.64347684 314.05598029 413.36259828 318.61897376 416.2421875 323.10546875 C416.74830566 323.90065918 417.25442383 324.69584961 417.77587891 325.51513672 C418.73353403 327.00760686 419.7064307 328.49044516 420.69677734 329.96142578 C423.82607216 334.84479403 425.04471852 338.18723474 424 344 C419.33267602 347.74102394 413.97297196 349.95948527 408.515625 352.328125 C407.61882019 352.72199402 406.72201538 353.11586304 405.79803467 353.52166748 C403.91327095 354.34792208 402.02727982 355.17138189 400.14013672 355.9921875 C397.24256845 357.25323427 394.34958229 358.52436822 391.45703125 359.796875 C389.62265731 360.59955616 387.78803065 361.40166006 385.953125 362.203125 C385.08544495 362.58430481 384.21776489 362.96548462 383.3237915 363.35821533 C382.52245789 363.7056781 381.72112427 364.05314087 380.89550781 364.41113281 C380.18968567 364.71883606 379.48386353 365.02653931 378.75665283 365.34356689 C377 366 377 366 375 366 C375.16193848 366.87736816 375.32387695 367.75473633 375.49072266 368.65869141 C376.08776771 371.93313068 376.67133481 375.20939823 377.24609375 378.48779297 C377.49696236 379.9028083 377.75307696 381.31690446 378.01464844 382.72998047 C378.39099419 384.76828058 378.74798201 386.80920574 379.1015625 388.8515625 C379.32150879 390.07697754 379.54145508 391.30239258 379.76806641 392.56494141 C380.02190953 396.32449162 379.5810775 398.59512758 378 402 C374.40039908 404.39973394 371.56335093 404.43624388 367.38598633 404.63500977 C366.61145615 404.67936661 365.83692596 404.72372345 365.03892517 404.76942444 C363.35474178 404.8656195 361.67034765 404.95817746 359.98578835 405.04754829 C357.30444387 405.19290174 354.62457394 405.35457544 351.94450378 405.52171326 C344.32319891 405.99699646 336.70206652 406.46685263 329.07641602 406.86743164 C324.40843206 407.11385796 319.74426295 407.400043 315.08014488 407.71088982 C313.31629516 407.82123917 311.551498 407.91752035 309.7860508 407.99838448 C298.32843216 408.53101674 290.07227134 410.61538634 280.3575592 416.84832764 C275.9742993 419.65731435 271.42210037 421.70234272 266.625 423.6875 C265.7376416 424.0585083 264.8502832 424.4295166 263.93603516 424.81176758 C205.68164719 448.80774604 135.80135496 450.46562693 77 427 C55.75881755 418.0887024 55.75881755 418.0887024 51.09173584 414.55525208 C42.77325985 408.6152235 34.08519182 408.72409342 24.2265625 408.20703125 C22.41180218 408.09097614 20.5972159 407.97217017 18.7828064 407.85075378 C14.0345333 407.53856543 9.2850276 407.25567204 4.53442383 406.98150635 C-3.08925634 406.53865222 -10.71057658 406.06029972 -18.33095169 405.56409264 C-20.98708493 405.39682058 -23.64380109 405.24790093 -26.30111694 405.1007843 C-27.92653255 404.99986687 -29.55191122 404.8983521 -31.17724609 404.79614258 C-31.9139151 404.76025024 -32.65058411 404.72435791 -33.40957642 404.68737793 C-37.46631768 404.41372697 -40.10151686 403.9519747 -43 401 C-44.49994786 396.85091068 -43.74961502 393.22340314 -43.00390625 388.94921875 C-42.89151108 388.29041214 -42.77911591 387.63160553 -42.66331482 386.95283508 C-42.30477434 384.86283517 -41.93384433 382.77525893 -41.5625 380.6875 C-41.31623413 379.26511623 -41.07078265 377.84259121 -40.82617188 376.41992188 C-40.22686593 372.94492967 -39.61643444 369.47199964 -39 366 C-39.81580284 365.74374596 -39.81580284 365.74374596 -40.64808655 365.48231506 C-46.302997 363.65840291 -51.70478637 361.49440984 -57.12109375 359.05859375 C-57.94706558 358.69024918 -58.77303741 358.3219046 -59.6240387 357.94239807 C-61.35178429 357.17049541 -63.07857789 356.39645857 -64.80444336 355.62036133 C-67.45198656 354.43099213 -70.10368077 353.25125623 -72.75585938 352.07226562 C-74.44035986 351.31827932 -76.12461377 350.56374186 -77.80859375 349.80859375 C-78.99756508 349.28041298 -78.99756508 349.28041298 -80.21055603 348.74156189 C-85.77017611 346.22982389 -85.77017611 346.22982389 -88 344 C-88.56891689 337.90811468 -87.8416746 334.78474207 -84.4375 329.5625 C-83.62533254 328.27665354 -82.81422036 326.99014021 -82.00390625 325.703125 C-81.3080542 324.61741211 -81.3080542 324.61741211 -80.59814453 323.50976562 C-77.2917841 318.31737559 -74.08267852 313.06618983 -70.875 307.8125 C-69.84330688 306.16326538 -69.84330688 306.16326538 -68.79077148 304.48071289 C-67.83859741 302.92211548 -67.83859741 302.92211548 -66.8671875 301.33203125 C-66.29081543 300.40108643 -65.71444336 299.4701416 -65.12060547 298.51098633 C-63.83429482 296.13753737 -63.83429482 296.13753737 -64.10473633 293.89892578 C-65.2203298 291.53266289 -66.57441556 290.10279691 -68.45703125 288.28515625 C-69.15763672 287.59873047 -69.85824219 286.91230469 -70.58007812 286.20507812 C-71.31677734 285.49802734 -72.05347656 284.79097656 -72.8125 284.0625 C-84.76971115 272.46666235 -84.76971115 272.46666235 -85.55078125 267.4921875 C-84.85457401 263.07793733 -83.59021592 261.95187169 -80.1875 259.125 C-79.68758545 258.70065674 -79.1876709 258.27631348 -78.67260742 257.83911133 C-77.13086208 256.53887624 -75.56802971 255.2683329 -74 254 C-73.13632813 253.27941406 -72.27265625 252.55882812 -71.3828125 251.81640625 C-69.15603315 249.97203733 -66.9135282 248.14960167 -64.66015625 246.33789062 C-61.94211803 244.14747159 -59.23609928 241.94228133 -56.52807617 239.73950195 C-53.35368061 237.15766023 -50.17688159 234.57878164 -47 232 C-48.03989066 230.16565871 -49.08213407 228.33265142 -50.125 226.5 C-50.46539307 225.89921631 -50.80578613 225.29843262 -51.15649414 224.67944336 C-53.58758713 220.41001583 -56.08201473 216.18352974 -58.61328125 211.97265625 C-59.24282715 210.91691406 -59.87237305 209.86117187 -60.52099609 208.7734375 C-61.78412991 206.65716541 -63.05639953 204.54631562 -64.33837891 202.44140625 C-70.28728702 192.43042531 -70.28728702 192.43042531 -70 187 C-67.13484495 183.48345879 -64.01709888 181.83124067 -59.921875 179.984375 C-58.76171875 179.45585937 -57.6015625 178.92734375 -56.40625 178.3828125 C-55.18758759 177.83834558 -53.96883645 177.29407721 -52.75 176.75 C-51.51525098 176.19092948 -50.28087168 175.63104164 -49.046875 175.0703125 C-46.0347883 173.70546072 -43.01918768 172.34905275 -40 171 C-40.86051499 162.69105111 -42.21856316 154.54740597 -43.73657227 146.33691406 C-44.03499906 144.70760392 -44.32677077 143.07705948 -44.61157227 141.4453125 C-46.33605511 131.57172458 -48.57361813 122.56025243 -52.60180664 113.36230469 C-64.43303874 84.91115601 -61.4317207 50.97402285 -50 23 C-47.64011066 17.7657588 -44.96040187 12.74773652 -42.04345703 7.8046875 C-41.12444249 6.21522669 -40.28761176 4.5788489 -39.46484375 2.9375 C-32.37215541 -9.16735476 -11.38304668 -2.54810561 0 0 Z " fill="#E1BE90" transform="translate(88,36)"/>
<path d="M0 0 C3.08185753 1.36886731 5.14094812 2.91410776 7.47998047 5.33227539 C8.14101776 6.0096022 8.80205505 6.68692902 9.48312378 7.38478088 C10.18736481 8.11502975 10.89160583 8.84527863 11.6171875 9.59765625 C13.12586697 11.13649442 14.63499545 12.67489247 16.14453125 14.21289062 C18.51531296 16.63948725 20.88199874 19.06973492 23.24072266 21.50805664 C25.52173439 23.86161359 27.81814288 26.19922999 30.1171875 28.53515625 C30.81738007 29.26742935 31.51757263 29.99970245 32.23898315 30.75416565 C35.11851725 33.66318385 37.21326291 35.71477678 41.09570312 37.12231445 C44.69238949 36.97084002 47.08997696 36.03073372 50.3515625 34.5078125 C51.53234375 33.96769531 52.713125 33.42757812 53.9296875 32.87109375 C55.16177342 32.28972979 56.39354146 31.70769172 57.625 31.125 C60.05218275 29.9970963 62.48308813 28.87755015 64.9140625 27.7578125 C65.9860791 27.2539502 67.0580957 26.75008789 68.16259766 26.23095703 C71 25 71 25 75 24 C76.98 27.96 78.96 31.92 81 36 C78.79936607 38.20063393 77.65450697 38.55975212 74.71875 39.40234375 C73.87699219 39.65306641 73.03523438 39.90378906 72.16796875 40.16210938 C70.39036612 40.67873327 68.61171419 41.19176043 66.83203125 41.70117188 C65.99027344 41.95318359 65.14851563 42.20519531 64.28125 42.46484375 C63.50845703 42.687771 62.73566406 42.91069824 61.93945312 43.14038086 C59.64674514 43.94931243 59.64674514 43.94931243 58 47 C58.28274138 50.31086259 58.28274138 50.31086259 60 53 C66.715445 53.49943241 72.03305572 52.03095733 78.375 49.9375 C86.86704692 47.23898963 95.38221425 44.76515814 104 42.5 C113.65136328 39.95860693 123.20280835 37.18688435 132.70507812 34.1328125 C133.59259766 33.85308594 134.48011719 33.57335937 135.39453125 33.28515625 C136.55239136 32.91209351 136.55239136 32.91209351 137.73364258 32.53149414 C140.22237175 31.94785056 142.4525272 31.90750264 145 32 C145.14099121 32.76143311 145.28198242 33.52286621 145.42724609 34.30737305 C146.0711996 37.76842537 146.7230153 41.22795198 147.375 44.6875 C147.59671875 45.88568359 147.8184375 47.08386719 148.046875 48.31835938 C148.26601563 49.47529297 148.48515625 50.63222656 148.7109375 51.82421875 C148.90993652 52.88729248 149.10893555 53.95036621 149.31396484 55.0456543 C149.97166727 57.87798779 150.74236799 60.37919838 152 63 C154.32595577 64.16297789 155.91638421 64.22188139 158.50976562 64.37304688 C159.44413452 64.42980591 160.37850342 64.48656494 161.34118652 64.54504395 C162.35265747 64.60236694 163.36412842 64.65968994 164.40625 64.71875 C165.44189087 64.78155151 166.47753174 64.84435303 167.54455566 64.90905762 C170.86280454 65.11017497 174.18134278 65.30574416 177.5 65.5 C181.86489556 65.75549685 186.22940125 66.01659483 190.59375 66.28125 C191.60522095 66.338573 192.61669189 66.395896 193.65881348 66.45495605 C194.59318237 66.51171509 195.52755127 66.56847412 196.49023438 66.62695312 C197.31471069 66.67501099 198.13918701 66.72306885 198.98864746 66.77258301 C201 67 201 67 203 68 C202.40069977 77.92335802 200.46762444 87.5327263 198.50854492 97.25341797 C196.9781558 104.88688273 195.59077988 112.18128365 196 120 C197.01578125 120.50789063 198.0315625 121.01578125 199.078125 121.5390625 C207.38541667 125.69270833 215.69270833 129.84635417 224 134 C220.4284176 141.4755959 216.37389724 148.55478002 212.0625 155.625 C206.81799189 164.28955759 201.64465105 172.98920093 196.5625 181.75 C191.82539676 189.90940786 187.02308678 198.01298003 182 206 C177.46668628 204.59473323 173.24842272 202.78442859 168.9921875 200.70703125 C167.66299586 200.07047169 166.33356152 199.43441869 165.00390625 198.79882812 C162.92982117 197.80319826 160.85769281 196.80406523 158.78955078 195.79614258 C156.77869673 194.81826801 154.76123046 193.855359 152.7421875 192.89453125 C152.12544159 192.58941116 151.50869568 192.28429108 150.8732605 191.96992493 C148.48050898 190.84178077 146.53784624 189.98382464 143.86499023 190.06420898 C139.25906635 192.37531073 135.79426039 196.65118986 132.1875 200.25 C131.29095703 201.10980469 130.39441406 201.96960938 129.47070312 202.85546875 C128.20709961 204.11037109 128.20709961 204.11037109 126.91796875 205.390625 C126.14219482 206.15407227 125.3664209 206.91751953 124.56713867 207.70410156 C122.69471571 209.92403315 122.69471571 209.92403315 123.25512695 212.78808594 C123.50093506 213.51801758 123.74674316 214.24794922 124 215 C119.61510608 216.32344071 117.42328615 215.64356692 113.375 213.625 C104.44926212 209.24772033 94.7428838 208.55571779 84.97265625 210.6484375 C73.55400274 214.86955112 67.10970289 222.43811897 61.96875 233.1484375 C58.50068078 241.78649879 58.71810584 251.59439702 61.9375 260.25 C67.15410718 271.17864633 74.79211788 277.66244346 86 282 C88.67967893 282.84794756 91.23483512 283.46823752 94 284 C91.36477063 286.63522937 88.36855238 287.55234585 84.9375 288.8125 C84.23665283 289.07240723 83.53580566 289.33231445 82.8137207 289.60009766 C77.49075592 291.53732905 72.11802849 293.26562833 66.6875 294.875 C65.9648999 295.09003174 65.2422998 295.30506348 64.49780273 295.52661133 C61.56636855 296.37170003 59.06715796 297 56 297 C54.5703125 295.20703125 54.5703125 295.20703125 53.125 292.8125 C45.97488005 281.62404824 34.50209391 274.53271829 21.62402344 271.42700195 C14.39820451 269.95708862 7.35814202 269.66590921 0 269.6875 C-1.09828125 269.67138672 -2.1965625 269.65527344 -3.328125 269.63867188 C-10.6810892 269.63431585 -17.03199079 270.67086243 -24 273 C-25.093125 273.36480469 -26.18625 273.72960937 -27.3125 274.10546875 C-39.5785091 279.04396369 -47.68261368 285.27079127 -54 297 C-67.09881737 294.38023653 -79.82816164 290.51133336 -92 285 C-92 284.67 -92 284.34 -92 284 C-91.154375 283.76925781 -90.30875 283.53851563 -89.4375 283.30078125 C-77.20913831 279.78512727 -68.21427101 275.03105729 -61.64453125 263.65234375 C-57.36766276 254.1567693 -56.65989054 242.88869844 -60 233 C-64.6809775 222.36141478 -72.67313085 215.27512823 -83.41015625 210.98828125 C-92.39662792 208.51431245 -102.92469291 208.37660667 -111.23828125 212.9296875 C-111.81964844 213.28289062 -112.40101563 213.63609375 -113 214 C-116.49313767 215.96199004 -118.09023259 216.0860465 -122 215 C-121.75040527 214.27603027 -121.50081055 213.55206055 -121.24365234 212.80615234 C-120.69409418 209.90275494 -120.69409418 209.90275494 -122.64306641 207.58056641 C-123.45437012 206.76249512 -124.26567383 205.94442383 -125.1015625 205.1015625 C-125.98457031 204.21082031 -126.86757812 203.32007813 -127.77734375 202.40234375 C-128.71707031 201.48582031 -129.65679687 200.56929687 -130.625 199.625 C-131.54152344 198.68527344 -132.45804687 197.74554688 -133.40234375 196.77734375 C-134.29308594 195.89433594 -135.18382812 195.01132812 -136.1015625 194.1015625 C-136.91963379 193.29025879 -137.73770508 192.47895508 -138.58056641 191.64306641 C-140.84459234 189.76163088 -140.84459234 189.76163088 -143.40600586 190.06420898 C-146.4970371 191.17930759 -149.4331117 192.46059524 -152.40234375 193.87109375 C-153.30262047 194.29467918 -153.30262047 194.29467918 -154.22108459 194.7268219 C-156.12905865 195.62519436 -158.03350352 196.53073163 -159.9375 197.4375 C-161.83825941 198.33994415 -163.73976371 199.24068915 -165.64320374 200.13746643 C-167.37325961 200.9529257 -169.10064848 201.77403617 -170.82788086 202.59545898 C-173.84528692 203.93149662 -176.85303357 205.01366394 -180 206 C-187.40805032 193.71067621 -194.71762284 181.36413756 -202 169 C-202.73207576 167.75812588 -203.46417301 166.51626443 -204.19628906 165.27441406 C-206.1271431 161.99851164 -208.05552484 158.72116351 -209.98242188 155.44293213 C-210.73795373 154.15816474 -211.49412804 152.87377491 -212.25097656 151.58978271 C-213.31765151 149.77971247 -214.38177252 147.96816357 -215.4453125 146.15625 C-216.05906738 145.11275391 -216.67282227 144.06925781 -217.30517578 142.99414062 C-218.97648887 140.04153565 -220.5107634 137.04789883 -222 134 C-221.18732666 133.61142822 -220.37465332 133.22285645 -219.53735352 132.82250977 C-216.5305207 131.38359779 -213.52460112 129.9428122 -210.51928711 128.50073242 C-209.21691583 127.87627667 -207.91418221 127.25257603 -206.61108398 126.62963867 C-204.74107239 125.73553271 -202.87236897 124.83874359 -201.00390625 123.94140625 C-199.87799072 123.40201416 -198.7520752 122.86262207 -197.59204102 122.30688477 C-195.13164143 121.23599153 -195.13164143 121.23599153 -194 120 C-193.74907892 113.68244234 -194.33757322 107.92099871 -195.53125 101.73046875 C-195.68662231 100.88704422 -195.84199463 100.04361969 -196.0020752 99.17463684 C-196.49386077 96.51079316 -196.9962256 93.84910005 -197.5 91.1875 C-198.00218972 88.50779064 -198.50204516 85.82768916 -198.9979248 83.14680481 C-199.30550201 81.48661957 -199.61694019 79.82714373 -199.93273926 78.16850281 C-200.58028744 74.69635373 -201 71.54561178 -201 68 C-197.16499175 66.81658376 -193.28390815 66.69768339 -189.3046875 66.5 C-188.55720245 66.45939453 -187.80971741 66.41878906 -187.0395813 66.37695312 C-184.65156703 66.24763098 -182.26332614 66.12341774 -179.875 66 C-174.56194254 65.7217384 -169.24957739 65.4361011 -163.93884277 65.11621094 C-162.21244177 65.0127334 -160.4856368 64.91604615 -158.75878906 64.8203125 C-157.8715918 64.75585938 -156.98439453 64.69140625 -156.0703125 64.625 C-155.33828613 64.57601562 -154.60625977 64.52703125 -153.85205078 64.4765625 C-151.38719813 63.84231621 -150.51327708 63.04381291 -149 61 C-148.14965496 58.4888285 -148.14965496 58.4888285 -147.6484375 55.6328125 C-147.43703125 54.58222656 -147.225625 53.53164062 -147.0078125 52.44921875 C-146.79898438 51.35222656 -146.59015625 50.25523437 -146.375 49.125 C-146.1584375 48.03574219 -145.941875 46.94648438 -145.71875 45.82421875 C-145.1358717 42.88464114 -144.56720954 39.94263033 -144 37 C-143.66809373 35.33304856 -143.33522706 33.6662868 -143 32 C-138.13890974 32.60139676 -133.60458873 33.57157969 -128.90649414 34.94946289 C-128.23557236 35.14468033 -127.56465057 35.33989777 -126.87339783 35.54103088 C-125.42857775 35.9618952 -123.98435929 36.38482939 -122.5406971 36.80964851 C-120.25011982 37.48295508 -117.95760605 38.1492424 -115.66441345 38.81358337 C-109.14868422 40.70215824 -102.63580422 42.60035782 -96.1262207 44.51000977 C-92.1331524 45.68088478 -88.1371575 46.84127323 -84.13918877 47.99529839 C-82.62348596 48.43505952 -81.10892617 48.87878144 -79.59559822 49.3266468 C-77.47408918 49.95424719 -75.34909529 50.5684252 -73.22290039 51.17993164 C-72.01823624 51.53221329 -70.81357208 51.88449493 -69.57240295 52.24745178 C-65.45490547 53.11482745 -62.19576539 53.34407747 -58 53 C-55.76887492 50.25423759 -55.76887492 50.25423759 -56 47.5 C-57.4490965 43.87725875 -59.46005486 43.5217324 -63 42 C-66.28036601 41.06036407 -69.55425659 40.2344693 -72.87304688 39.45117188 C-74.5968456 39.02322982 -76.30093008 38.51747259 -78 38 C-78.33 37.34 -78.66 36.68 -79 36 C-77.78515625 33.1796875 -77.78515625 33.1796875 -76.0625 29.875 C-75.49660156 28.77929688 -74.93070313 27.68359375 -74.34765625 26.5546875 C-73.68056641 25.29011719 -73.68056641 25.29011719 -73 24 C-70.43592413 25.03791334 -67.8736475 26.07989973 -65.3125 27.125 C-64.54244629 27.43759766 -63.77239258 27.75019531 -62.97900391 28.07226562 C-59.34058557 29.56410002 -55.74472357 31.08488541 -52.22265625 32.8359375 C-51.11792969 33.38507813 -50.01320312 33.93421875 -48.875 34.5 C-47.90304688 35.0053125 -46.93109375 35.510625 -45.9296875 36.03125 C-41.9730169 37.33958908 -40.05250279 37.11400803 -36 36 C-32.83033847 33.65136351 -30.169339 30.86771466 -27.44140625 28.02734375 C-26.65225327 27.22970108 -25.86310028 26.43205841 -25.05003357 25.61024475 C-22.5397264 23.0664272 -20.05111511 20.50252523 -17.5625 17.9375 C-15.86141668 16.20631474 -14.15895754 14.47648022 -12.45507812 12.74804688 C-8.28731043 8.5142257 -4.13715082 4.26373239 0 0 Z " fill="#F3D2A1" transform="translate(255,94)"/>
<path d="M0 0 C1.70349609 0.36544922 1.70349609 0.36544922 3.44140625 0.73828125 C30.06673675 7.37103773 56.42242181 25.21365845 71.44921875 48.39453125 C75.86481926 55.813185 80.1925758 63.24413589 84 71 C84.515625 70.505 85.03125 70.01 85.5625 69.5 C88.91638962 67.43606793 91.09259613 67.71467746 95 68 C98.39331055 69.22509766 98.39331055 69.22509766 101.88671875 70.9140625 C103.16729459 71.5156742 104.44789424 72.11723524 105.72851562 72.71875 C107.71866759 73.6737467 109.70616012 74.63404265 111.69262695 75.59667969 C113.62639994 76.52808084 115.56837163 77.44034936 117.51171875 78.3515625 C119.23588013 79.18421631 119.23588013 79.18421631 120.99487305 80.03369141 C123.8371855 81.28798377 123.8371855 81.28798377 125.95785522 80.28013611 C128.19067142 78.88047597 129.84099693 77.37187362 131.67944336 75.48413086 C132.38374985 74.76676254 133.08805634 74.04939423 133.81370544 73.31028748 C134.56483109 72.53629105 135.31595673 71.76229462 136.08984375 70.96484375 C137.69438583 69.33501506 139.29921226 67.70546627 140.90429688 66.07617188 C143.42736958 63.50340042 145.9471632 60.92758071 148.46166992 58.34643555 C150.89147082 55.85629938 153.33349473 53.37868327 155.77734375 50.90234375 C156.52644516 50.12632309 157.27554657 49.35030243 158.04734802 48.55076599 C158.75480667 47.83654984 159.46226532 47.12233368 160.19116211 46.38647461 C160.80753036 45.7551915 161.42389862 45.12390839 162.0589447 44.47349548 C164.47341337 42.64062205 165.96725532 42.11879758 169 42 C172.53806979 43.66501973 175.13353921 45.88713313 177.87231445 48.64526367 C178.59268387 49.36578415 179.31305328 50.08630463 180.05525208 50.82865906 C180.8169017 51.60063126 181.57855133 52.37260345 182.36328125 53.16796875 C183.15526413 53.96278152 183.94724701 54.7575943 184.76322937 55.57649231 C187.28439687 58.10882856 189.79850958 60.6480405 192.3125 63.1875 C194.02362753 64.90866157 195.73521092 66.62937007 197.44726562 68.34960938 C201.63680859 72.56116889 205.82058525 76.77839069 210 81 C214.94983997 79.41519959 219.76130745 77.79515203 224.4453125 75.51953125 C225.37730469 75.07802734 226.30929687 74.63652344 227.26953125 74.18164062 C229.18410878 73.26363868 231.0955532 72.33907547 233.00390625 71.40820312 C238.12689807 68.99592057 242.20916291 67.07906535 248 68 C250.4375 69.5 250.4375 69.5 252 71 C252.53367187 69.93523437 253.06734375 68.87046875 253.6171875 67.7734375 C263.82461417 47.73267833 277.24776283 28.69940202 297 17 C298.06476563 16.34902344 299.12953125 15.69804688 300.2265625 15.02734375 C316.91259437 5.01478602 334.61185614 -0.98488515 354 -3 C354.66257812 -3.07226807 355.32515625 -3.14453613 356.0078125 -3.21899414 C367.8153272 -4.35509773 367.8153272 -4.35509773 372.2734375 -1.58984375 C374.24504519 0.81218533 375.57928256 3.23296679 377 6 C377.71529086 7.2176532 378.43570496 8.43230575 379.16015625 9.64453125 C387.2751393 23.63435288 393.51495604 39.81302078 395 56 C395.19722656 57.86205078 395.19722656 57.86205078 395.3984375 59.76171875 C397.19266754 79.37209235 394.9069338 100.22813903 386.6015625 118.21484375 C383.13306603 126.3644215 381.76774169 134.95749653 380.20483398 143.62988281 C379.68315191 146.52412275 379.14305187 149.4144617 378.59960938 152.3046875 C378.25675902 154.15084634 377.91492465 155.99719421 377.57421875 157.84375 C377.33526131 159.1343634 377.33526131 159.1343634 377.09147644 160.4510498 C376.94744888 161.25288696 376.80342133 162.05472412 376.6550293 162.88085938 C376.46447212 163.93243225 376.46447212 163.93243225 376.27006531 165.00524902 C375.91055736 167.32514781 375.91055736 167.32514781 376 171 C376.76666992 171.34256836 377.53333984 171.68513672 378.32324219 172.03808594 C381.18172127 173.32054807 384.03635206 174.61113002 386.88867188 175.90722656 C388.12092761 176.46516817 389.35463964 177.01990549 390.58984375 177.57128906 C392.37104075 178.36708191 394.14653163 179.17560747 395.921875 179.984375 C396.99018555 180.46616211 398.05849609 180.94794922 399.15917969 181.44433594 C402.03139053 183.0171898 403.93562083 184.46628915 406 187 C406.3751009 194.09032197 402.00146985 199.71074164 398.4375 205.5625 C397.16231934 207.69895555 395.88757798 209.83567336 394.61328125 211.97265625 C393.99404785 213.00277832 393.37481445 214.03290039 392.73681641 215.09423828 C390.48147465 218.86751317 388.2919151 222.67545895 386.125 226.5 C385.50882812 227.5828125 384.89265625 228.665625 384.2578125 229.78125 C383.84273438 230.5134375 383.42765625 231.245625 383 232 C389.12906056 237.21311192 395.25914465 242.42066278 401.5 247.5 C405.74581843 250.95677253 409.9459204 254.46314998 414.125 258 C414.97868164 258.72219727 414.97868164 258.72219727 415.84960938 259.45898438 C420.96734285 263.79997495 420.96734285 263.79997495 421.5 267.0625 C420.61095882 274.06369926 415.28801553 277.76353858 410.3828125 282.48046875 C409.74553223 283.10042725 409.10825195 283.72038574 408.45166016 284.35913086 C407.15920956 285.61132373 405.85422923 286.8507226 404.53662109 288.07641602 C403.93672363 288.65447998 403.33682617 289.23254395 402.71875 289.828125 C402.17154297 290.3427832 401.62433594 290.85744141 401.06054688 291.38769531 C399.79216768 292.94926067 399.79216768 292.94926067 400.18408203 294.92626953 C401.07716937 297.19613305 402.12056672 299.23554378 403.3359375 301.3515625 C403.81836914 302.19436768 404.30080078 303.03717285 404.79785156 303.90551758 C405.31831055 304.80294678 405.83876953 305.70037598 406.375 306.625 C406.90577148 307.55272217 407.43654297 308.48044434 407.98339844 309.4362793 C410.64347684 314.05598029 413.36259828 318.61897376 416.2421875 323.10546875 C416.74830566 323.90065918 417.25442383 324.69584961 417.77587891 325.51513672 C418.73353403 327.00760686 419.7064307 328.49044516 420.69677734 329.96142578 C423.82607216 334.84479403 425.04471852 338.18723474 424 344 C419.33267602 347.74102394 413.97297196 349.95948527 408.515625 352.328125 C407.61882019 352.72199402 406.72201538 353.11586304 405.79803467 353.52166748 C403.91327095 354.34792208 402.02727982 355.17138189 400.14013672 355.9921875 C397.24256845 357.25323427 394.34958229 358.52436822 391.45703125 359.796875 C389.62265731 360.59955616 387.78803065 361.40166006 385.953125 362.203125 C385.08544495 362.58430481 384.21776489 362.96548462 383.3237915 363.35821533 C382.52245789 363.7056781 381.72112427 364.05314087 380.89550781 364.41113281 C380.18968567 364.71883606 379.48386353 365.02653931 378.75665283 365.34356689 C377 366 377 366 375 366 C375.16193848 366.87736816 375.32387695 367.75473633 375.49072266 368.65869141 C376.08776771 371.93313068 376.67133481 375.20939823 377.24609375 378.48779297 C377.49696236 379.9028083 377.75307696 381.31690446 378.01464844 382.72998047 C378.39099419 384.76828058 378.74798201 386.80920574 379.1015625 388.8515625 C379.32150879 390.07697754 379.54145508 391.30239258 379.76806641 392.56494141 C380.02190953 396.32449162 379.5810775 398.59512758 378 402 C374.40039908 404.39973394 371.56335093 404.43624388 367.38598633 404.63500977 C366.61145615 404.67936661 365.83692596 404.72372345 365.03892517 404.76942444 C363.35474178 404.8656195 361.67034765 404.95817746 359.98578835 405.04754829 C357.30444387 405.19290174 354.62457394 405.35457544 351.94450378 405.52171326 C344.32319891 405.99699646 336.70206652 406.46685263 329.07641602 406.86743164 C324.40843206 407.11385796 319.74426295 407.400043 315.08014488 407.71088982 C313.31629516 407.82123917 311.551498 407.91752035 309.7860508 407.99838448 C298.32843216 408.53101674 290.07227134 410.61538634 280.3575592 416.84832764 C275.9742993 419.65731435 271.42210037 421.70234272 266.625 423.6875 C265.7376416 424.0585083 264.8502832 424.4295166 263.93603516 424.81176758 C205.68164719 448.80774604 135.80135496 450.46562693 77 427 C55.75881755 418.0887024 55.75881755 418.0887024 51.09173584 414.55525208 C42.77325985 408.6152235 34.08519182 408.72409342 24.2265625 408.20703125 C22.41180218 408.09097614 20.5972159 407.97217017 18.7828064 407.85075378 C14.0345333 407.53856543 9.2850276 407.25567204 4.53442383 406.98150635 C-3.08925634 406.53865222 -10.71057658 406.06029972 -18.33095169 405.56409264 C-20.98708493 405.39682058 -23.64380109 405.24790093 -26.30111694 405.1007843 C-27.92653255 404.99986687 -29.55191122 404.8983521 -31.17724609 404.79614258 C-31.9139151 404.76025024 -32.65058411 404.72435791 -33.40957642 404.68737793 C-37.46631768 404.41372697 -40.10151686 403.9519747 -43 401 C-44.49994786 396.85091068 -43.74961502 393.22340314 -43.00390625 388.94921875 C-42.89151108 388.29041214 -42.77911591 387.63160553 -42.66331482 386.95283508 C-42.30477434 384.86283517 -41.93384433 382.77525893 -41.5625 380.6875 C-41.31623413 379.26511623 -41.07078265 377.84259121 -40.82617188 376.41992188 C-40.22686593 372.94492967 -39.61643444 369.47199964 -39 366 C-39.81580284 365.74374596 -39.81580284 365.74374596 -40.64808655 365.48231506 C-46.302997 363.65840291 -51.70478637 361.49440984 -57.12109375 359.05859375 C-57.94706558 358.69024918 -58.77303741 358.3219046 -59.6240387 357.94239807 C-61.35178429 357.17049541 -63.07857789 356.39645857 -64.80444336 355.62036133 C-67.45198656 354.43099213 -70.10368077 353.25125623 -72.75585938 352.07226562 C-74.44035986 351.31827932 -76.12461377 350.56374186 -77.80859375 349.80859375 C-78.99756508 349.28041298 -78.99756508 349.28041298 -80.21055603 348.74156189 C-85.77017611 346.22982389 -85.77017611 346.22982389 -88 344 C-88.56891689 337.90811468 -87.8416746 334.78474207 -84.4375 329.5625 C-83.62533254 328.27665354 -82.81422036 326.99014021 -82.00390625 325.703125 C-81.3080542 324.61741211 -81.3080542 324.61741211 -80.59814453 323.50976562 C-77.2917841 318.31737559 -74.08267852 313.06618983 -70.875 307.8125 C-69.84330688 306.16326538 -69.84330688 306.16326538 -68.79077148 304.48071289 C-67.83859741 302.92211548 -67.83859741 302.92211548 -66.8671875 301.33203125 C-66.29081543 300.40108643 -65.71444336 299.4701416 -65.12060547 298.51098633 C-63.83429482 296.13753737 -63.83429482 296.13753737 -64.10473633 293.89892578 C-65.2203298 291.53266289 -66.57441556 290.10279691 -68.45703125 288.28515625 C-69.15763672 287.59873047 -69.85824219 286.91230469 -70.58007812 286.20507812 C-71.31677734 285.49802734 -72.05347656 284.79097656 -72.8125 284.0625 C-84.76971115 272.46666235 -84.76971115 272.46666235 -85.55078125 267.4921875 C-84.85457401 263.07793733 -83.59021592 261.95187169 -80.1875 259.125 C-79.68758545 258.70065674 -79.1876709 258.27631348 -78.67260742 257.83911133 C-77.13086208 256.53887624 -75.56802971 255.2683329 -74 254 C-73.13632813 253.27941406 -72.27265625 252.55882812 -71.3828125 251.81640625 C-69.15603315 249.97203733 -66.9135282 248.14960167 -64.66015625 246.33789062 C-61.94211803 244.14747159 -59.23609928 241.94228133 -56.52807617 239.73950195 C-53.35368061 237.15766023 -50.17688159 234.57878164 -47 232 C-48.03989066 230.16565871 -49.08213407 228.33265142 -50.125 226.5 C-50.46539307 225.89921631 -50.80578613 225.29843262 -51.15649414 224.67944336 C-53.58758713 220.41001583 -56.08201473 216.18352974 -58.61328125 211.97265625 C-59.24282715 210.91691406 -59.87237305 209.86117187 -60.52099609 208.7734375 C-61.78412991 206.65716541 -63.05639953 204.54631562 -64.33837891 202.44140625 C-70.28728702 192.43042531 -70.28728702 192.43042531 -70 187 C-67.13484495 183.48345879 -64.01709888 181.83124067 -59.921875 179.984375 C-58.76171875 179.45585937 -57.6015625 178.92734375 -56.40625 178.3828125 C-55.18758759 177.83834558 -53.96883645 177.29407721 -52.75 176.75 C-51.51525098 176.19092948 -50.28087168 175.63104164 -49.046875 175.0703125 C-46.0347883 173.70546072 -43.01918768 172.34905275 -40 171 C-40.86051499 162.69105111 -42.21856316 154.54740597 -43.73657227 146.33691406 C-44.03499906 144.70760392 -44.32677077 143.07705948 -44.61157227 141.4453125 C-46.33605511 131.57172458 -48.57361813 122.56025243 -52.60180664 113.36230469 C-64.43303874 84.91115601 -61.4317207 50.97402285 -50 23 C-47.64011066 17.7657588 -44.96040187 12.74773652 -42.04345703 7.8046875 C-41.12444249 6.21522669 -40.28761176 4.5788489 -39.46484375 2.9375 C-32.37215541 -9.16735476 -11.38304668 -2.54810561 0 0 Z M165.43989563 59.35997009 C164.82591415 59.99649002 164.21193268 60.63300995 163.5793457 61.28881836 C162.53234245 62.36509743 162.53234245 62.36509743 161.46418762 63.46311951 C160.70901352 64.24743851 159.95383942 65.03175751 159.17578125 65.83984375 C157.57417036 67.47650142 155.97193691 69.11255006 154.36914062 70.74804688 C151.83892931 73.34012035 149.31357704 75.9363832 146.79907227 78.54370117 C144.3756772 81.05186863 141.93370055 83.5406701 139.48828125 86.02734375 C138.7432283 86.80963852 137.99817535 87.59193329 137.23054504 88.39793396 C134.0072847 91.6523925 131.8136561 93.73493949 127.40869141 95.16992188 C123.34972583 94.9675841 120.65387218 93.97180702 116.97265625 92.25390625 C116.33887558 91.96394272 115.70509491 91.67397919 115.05210876 91.37522888 C113.04767232 90.45369428 111.05538949 89.50870687 109.0625 88.5625 C107.6980006 87.9300525 106.33277166 87.29917646 104.96679688 86.66992188 C101.63590053 85.13136389 98.31546428 83.57158528 95 82 C92.30106779 84.54378401 91.12666132 86.69817511 89.8125 90.1875 C89.29623047 91.53908203 89.29623047 91.53908203 88.76953125 92.91796875 C88.51558594 93.60503906 88.26164063 94.29210937 88 95 C89.2375 95.4125 90.475 95.825 91.75 96.25 C92.56082031 96.52328125 93.37164062 96.7965625 94.20703125 97.078125 C96.19744057 97.73509927 98.19587666 98.36796205 100.19921875 98.984375 C101.26785156 99.31953125 102.33648437 99.6546875 103.4375 100 C104.44683594 100.309375 105.45617187 100.61875 106.49609375 100.9375 C109 102 109 102 111 105 C110.45945946 109.54054054 110.45945946 109.54054054 109 111 C103.45619095 111.28250029 98.77563397 110.68596847 93.45410156 109.07226562 C92.74734787 108.86744064 92.04059418 108.66261566 91.31242371 108.45158386 C89.00217038 107.77958635 86.69657354 107.09285813 84.390625 106.40625 C82.77528061 105.93433758 81.15961312 105.46352984 79.54364014 104.99377441 C75.30767184 103.75996313 71.07528199 102.51433494 66.84381104 101.26519775 C60.0584621 99.26345835 53.26888283 97.27625132 46.47728729 95.29582214 C44.10932886 94.60288126 41.74359457 93.90271283 39.37799072 93.20178223 C37.92817232 92.77685479 36.47828583 92.35215957 35.02832031 91.92773438 C33.76449524 91.55467163 32.50067017 91.18160889 31.19854736 90.79724121 C27.90252565 89.83876562 27.90252565 89.83876562 24 90 C23.85900879 90.76143311 23.71801758 91.52286621 23.57275391 92.30737305 C22.9288004 95.76842537 22.2769847 99.22795198 21.625 102.6875 C21.40328125 103.88568359 21.1815625 105.08386719 20.953125 106.31835938 C20.73398438 107.47529297 20.51484375 108.63222656 20.2890625 109.82421875 C20.09006348 110.88729248 19.89106445 111.95036621 19.68603516 113.0456543 C19.02833273 115.87798779 18.25763201 118.37919838 17 121 C14.58253498 122.20873251 12.736571 122.28591961 10.0390625 122.5 C8.5089856 122.62290405 8.5089856 122.62290405 6.94799805 122.74829102 C5.85140869 122.83135498 4.75481934 122.91441895 3.625 123 C2.50843018 123.08757568 1.39186035 123.17515137 0.24145508 123.26538086 C-7.76792073 123.87657923 -15.77741687 124.34990421 -23.80419922 124.65820312 C-27.33920213 124.80471625 -30.59089804 125.05973775 -34 126 C-33.40069977 135.92335802 -31.46762444 145.5327263 -29.50854492 155.25341797 C-27.9781558 162.88688273 -26.59077988 170.18128365 -27 178 C-36.33333333 182.66666667 -45.66666667 187.33333333 -55 192 C-51.4284034 199.47562563 -47.37365683 206.55461299 -43.0625 213.625 C-36.09153297 225.14963123 -29.26135839 236.74857482 -22.515625 248.40625 C-21.13742626 250.76481691 -19.73308255 253.10430078 -18.3125 255.4375 C-17.92505615 256.08372314 -17.5376123 256.72994629 -17.13842773 257.39575195 C-16.15485186 259.03370596 -15.15816825 260.66377052 -14.16015625 262.29296875 C-12.82305664 265.41286785 -12.91231519 266.82711632 -14 270 C-15 271 -15 271 -17.859375 271.30859375 C-21 271 -21 271 -22.765625 269.41015625 C-23.50039062 268.24806641 -23.50039062 268.24806641 -24.25 267.0625 C-24.82878906 266.16917969 -25.40757813 265.27585937 -26.00390625 264.35546875 C-27.5429742 261.76826841 -29.04534627 259.17047377 -30.52734375 256.55078125 C-30.96723633 255.78048584 -31.40712891 255.01019043 -31.86035156 254.21655273 C-32.73894374 252.66640969 -33.60189097 251.10728536 -34.44824219 249.53930664 C-35.05200684 248.46410767 -35.05200684 248.46410767 -35.66796875 247.3671875 C-36.02141357 246.71862793 -36.3748584 246.07006836 -36.73901367 245.40185547 C-37.15513916 244.93924316 -37.57126465 244.47663086 -38 244 C-43.1193826 244 -44.97316053 246.17660002 -48.5625 249.4375 C-49.80900321 250.53877158 -51.05641039 251.63902076 -52.3046875 252.73828125 C-52.9244043 253.28822754 -53.54412109 253.83817383 -54.18261719 254.40478516 C-56.80378382 256.70552438 -59.48698403 258.91777828 -62.1875 261.125 C-63.04730469 261.82882812 -63.90710938 262.53265625 -64.79296875 263.2578125 C-67 265 -67 265 -70 267 C-68.52915356 270.44565208 -66.61715093 272.55813092 -63.90234375 275.1171875 C-62.70061523 276.27541016 -62.70061523 276.27541016 -61.47460938 277.45703125 C-59.78504705 279.06725308 -58.08972527 280.6714535 -56.38867188 282.26953125 C-55.18887695 283.43162109 -55.18887695 283.43162109 -53.96484375 284.6171875 C-53.2287085 285.31440918 -52.49257324 286.01163086 -51.73413086 286.72998047 C-49.52200998 289.62570058 -49.04799734 291.35561061 -49 295 C-50.3359375 298.15283203 -50.3359375 298.15283203 -52.375 301.5078125 C-52.737146 302.11454803 -53.09929199 302.72128357 -53.47241211 303.34640503 C-54.63274783 305.28248093 -55.81555518 307.20359951 -57 309.125 C-57.76588266 310.39228785 -58.53022034 311.66051076 -59.29296875 312.9296875 C-60.79343748 315.42201469 -62.30004259 317.9104384 -63.8125 320.39550781 C-65.91454325 323.85442185 -67.99948461 327.3223092 -70.0625 330.8046875 C-70.63097656 331.76101074 -71.19945313 332.71733398 -71.78515625 333.70263672 C-73.15582156 335.86153847 -73.15582156 335.86153847 -73 338 C-68.84229912 339.88578393 -64.68372661 341.76962891 -60.52441406 343.65185547 C-59.11630867 344.28937342 -57.7084227 344.92737628 -56.30078125 345.56591797 C-47.77167822 349.43447541 -39.21975865 353.22291124 -30.58447266 356.84912109 C-28 358 -28 358 -27 359 C-27.0389308 361.68323072 -27.14410057 364.32416405 -27.3125 367 C-27.35882568 367.77585449 -27.40515137 368.55170898 -27.45288086 369.35107422 C-27.72251717 373.3632289 -28.10695139 377.2072507 -29.0625 381.125 C-29.98299362 384.92970698 -30.06998802 388.108666 -30 392 C-16.93116584 393.33966239 -3.86533621 394.28478904 9.25 395 C20.17148258 395.60156146 31.08960029 396.2182483 42 397 C43.07926758 397.07089844 44.15853516 397.14179688 45.27050781 397.21484375 C46.25374023 397.28832031 47.23697266 397.36179687 48.25 397.4375 C49.10078125 397.49808594 49.9515625 397.55867188 50.828125 397.62109375 C53 398 53 398 56 400 C56.53173828 401.1446875 56.53173828 401.1446875 57.07421875 402.3125 C60.06101222 406.48068237 64.21691046 407.93025825 68.8125 410 C69.76302246 410.43787842 70.71354492 410.87575684 71.69287109 411.3269043 C96.90542747 422.78812824 125.5646733 430.07327829 153.3515625 430.203125 C154.32749359 430.20882507 155.30342468 430.21452515 156.30892944 430.22039795 C158.37130672 430.22979954 160.43369868 430.23636254 162.49609375 430.24023438 C165.56799656 430.24982209 168.63919455 430.28084275 171.7109375 430.3125 C185.69161314 430.38834911 199.20542338 429.26505157 213 427 C213.73152283 426.88090271 214.46304565 426.76180542 215.21673584 426.63909912 C224.67113146 425.04820843 233.68020502 422.44858011 242.75 419.375 C243.71531647 419.04985413 243.71531647 419.04985413 244.70013428 418.71813965 C252.99078208 415.91283099 261.16859726 412.91400756 269.125 409.25 C270.25953613 408.74025635 270.25953613 408.74025635 271.41699219 408.22021484 C276.11883914 405.93297822 278.30571708 403.61508748 281 399 C283.32117999 397.83941001 284.90270101 397.77840708 287.49047852 397.62695312 C288.42227432 397.57019409 289.35407013 397.51343506 290.31410217 397.45495605 C291.32548752 397.39763306 292.33687286 397.34031006 293.37890625 397.28125 C294.42014145 397.21844849 295.46137665 397.15564697 296.53416443 397.09094238 C299.87671233 396.88984552 303.21956445 396.69453824 306.5625 396.5 C309.88039241 396.30475896 313.1981949 396.10822702 316.51585388 395.90905762 C318.58151429 395.78526469 320.64731607 395.66380139 322.71327209 395.54504395 C327.85779985 395.23892131 332.96065271 394.81763493 338.07887268 394.21520996 C340.39897386 393.95530585 342.71053904 393.81263648 345.04296875 393.71875 C345.88923828 393.68136719 346.73550781 393.64398438 347.60742188 393.60546875 C349.33917322 393.53467801 351.07094445 393.46437192 352.80273438 393.39453125 C357.27933917 393.19587549 361.59011207 392.8660991 366 392 C366.20071864 387.283112 365.6472334 383.50125701 364.51171875 378.88671875 C363.35236245 372.34653322 363.28908444 365.6261197 363 359 C372.76555787 353.98037401 382.65402634 349.43340961 392.75 345.125 C394.77562526 344.2559103 396.80075346 343.38567218 398.82574463 342.5151062 C400.63008611 341.7401066 402.43561303 340.96786861 404.24121094 340.19580078 C405.84409799 339.50102726 407.43744897 338.78127552 409 338 C407.3897647 331.91351311 404.16074319 326.90131122 400.9375 321.5625 C400.35983887 320.59054687 399.78217773 319.61859375 399.18701172 318.6171875 C396.54800865 314.18641328 393.87982365 309.78102641 391.10546875 305.43359375 C390.68209229 304.76062256 390.25871582 304.08765137 389.82250977 303.39428711 C389.04740761 302.16818769 388.25831556 300.95077529 387.45288086 299.74438477 C385.7464126 297.0328849 384.98428705 295.34353561 385.13208008 292.11230469 C386.18900982 288.32222301 387.63845112 286.81112526 390.47265625 284.109375 C391.37177734 283.23539063 392.27089844 282.36140625 393.19726562 281.4609375 C394.14279297 280.56632813 395.08832031 279.67171875 396.0625 278.75 C397.93251657 276.95742471 399.79863009 275.16076571 401.66015625 273.359375 C402.49168213 272.57014648 403.32320801 271.78091797 404.17993164 270.96777344 C406.22633915 269.20203332 406.22633915 269.20203332 406 267 C404.49212839 265.62508701 402.91460239 264.32635538 401.3125 263.0625 C400.31605469 262.26585937 399.31960938 261.46921875 398.29296875 260.6484375 C397.49125244 260.00793457 397.49125244 260.00793457 396.67333984 259.35449219 C393.23129622 256.56831506 389.87523664 253.67922392 386.50512695 250.80688477 C383.37915354 248.14865757 380.21750049 245.54669319 377 243 C373.0038153 244.22681968 371.71096881 246.80936251 369.80395508 250.359375 C369.4355249 251.06578125 369.06709473 251.7721875 368.6875 252.5 C367.89661367 253.94976814 367.10232987 255.39768794 366.3046875 256.84375 C365.91506836 257.55144531 365.52544922 258.25914062 365.12402344 258.98828125 C363.6002799 261.71539827 362.008703 264.37653935 360.3125 267 C359.81363281 267.78375 359.31476563 268.5675 358.80078125 269.375 C357 271 357 271 353.91796875 271.375 C351 271 351 271 349 269 C349.31355925 264.55765124 350.61595078 261.41283496 352.8515625 257.60546875 C353.44807617 256.5801001 354.04458984 255.55473145 354.65917969 254.49829102 C355.30790039 253.40572998 355.95662109 252.31316895 356.625 251.1875 C357.30179103 250.03287151 357.97788638 248.877835 358.65332031 247.72241211 C363.90543013 238.76087227 369.25570015 229.85667785 374.61987305 220.96191406 C380.19762684 211.70840198 385.62633456 202.3731919 391 193 C388.03135893 190.62003265 385.05498986 188.94884044 381.61328125 187.3359375 C380.59298828 186.85382813 379.57269531 186.37171875 378.52148438 185.875 C377.46251953 185.38 376.40355469 184.885 375.3125 184.375 C373.20356307 183.38465033 371.09544317 182.39255828 368.98828125 181.3984375 C368.05540283 180.96192871 367.12252441 180.52541992 366.16137695 180.07568359 C364 179 364 179 363 178 C362.74907892 171.68244234 363.33757322 165.92099871 364.53125 159.73046875 C364.76430847 158.46533195 364.76430847 158.46533195 365.0020752 157.17463684 C365.49386077 154.51079316 365.9962256 151.84910005 366.5 149.1875 C367.00218972 146.50779064 367.50204516 143.82768916 367.9979248 141.14680481 C368.30550201 139.48661957 368.61694019 137.82714373 368.93273926 136.16850281 C369.58028744 132.69635373 370 129.54561178 370 126 C367.67071188 124.83535594 366.1036298 124.79157944 363.50610352 124.65869141 C362.10939171 124.58323593 362.10939171 124.58323593 360.6844635 124.5062561 C359.17196266 124.42968277 359.17196266 124.42968277 357.62890625 124.3515625 C355.50712927 124.23234238 353.38538535 124.11253248 351.26367188 123.9921875 C347.90839536 123.80623419 344.55307513 123.62451867 341.19702148 123.453125 C337.96514977 123.28601243 334.73465986 123.10140408 331.50390625 122.9140625 C330.49759659 122.86706207 329.49128693 122.82006165 328.45448303 122.77163696 C327.52018967 122.71502899 326.5858963 122.65842102 325.62329102 122.60009766 C324.80103531 122.55648102 323.9787796 122.51286438 323.13160706 122.46792603 C320.53652232 121.89825833 319.61795446 121.07571231 318 119 C317.21630859 116.53564453 317.21630859 116.53564453 316.6484375 113.6328125 C316.43703125 112.58222656 316.225625 111.53164062 316.0078125 110.44921875 C315.79898437 109.35222656 315.59015625 108.25523437 315.375 107.125 C315.1584375 106.03574219 314.941875 104.94648438 314.71875 103.82421875 C314.1358717 100.88464114 313.56720954 97.94263033 313 95 C312.66809373 93.33304856 312.33522706 91.6662868 312 90 C305.48759179 90.72154523 299.31158121 92.40078125 293 94.125 C291.2816394 94.59087524 291.2816394 94.59087524 289.52856445 95.06616211 C282.04431909 97.11463945 274.60429173 99.28262023 267.1875 101.5625 C266.25736084 101.84826904 265.32722168 102.13403809 264.36889648 102.4284668 C262.98359741 102.85446167 262.98359741 102.85446167 261.5703125 103.2890625 C255.90822927 105.03016805 250.24344364 106.75882215 244.5625 108.4375 C243.71647217 108.69668213 242.87044434 108.95586426 241.9987793 109.22290039 C236.83744758 110.73094381 232.38325142 111.53057517 227 111 C225 108 225 108 225 105.5 C226.44925532 101.87686169 228.46001772 101.54624508 232 100 C234.76725304 99.01809339 237.56234143 98.1542631 240.375 97.3125 C241.11105469 97.08755859 241.84710938 96.86261719 242.60546875 96.63085938 C244.4022074 96.08250407 246.20090747 95.54058243 248 95 C247.24275352 93.01559518 246.46877038 91.03756995 245.6875 89.0625 C245.04361328 87.40927734 245.04361328 87.40927734 244.38671875 85.72265625 C243.24391139 82.69139735 243.24391139 82.69139735 240 82 C237.25997432 82.96972422 237.25997432 82.96972422 234.265625 84.4921875 C233.13382812 85.03230469 232.00203125 85.57242188 230.8359375 86.12890625 C229.06089844 86.99322266 229.06089844 86.99322266 227.25 87.875 C224.92612054 89.00615987 222.59809257 90.12884414 220.265625 91.2421875 C219.23211914 91.7460498 218.19861328 92.24991211 217.13378906 92.76904297 C213.45176425 94.21534782 210.98854606 95.12143746 207 95 C203.93830373 93.05603983 201.51983996 90.59141621 199 88 C198.0899118 87.11189133 198.0899118 87.11189133 197.16143799 86.20584106 C195.32713257 84.40980631 193.52484139 82.58597149 191.7265625 80.75390625 C190.39465814 79.4093795 189.06262328 78.06498201 187.73046875 76.72070312 C185.66136069 74.62660345 183.59390932 72.53091323 181.52880859 70.43286133 C179.51569682 68.38973486 177.49656228 66.35271953 175.4765625 64.31640625 C174.85576813 63.68215225 174.23497375 63.04789825 173.59536743 62.39442444 C172.1010939 60.89136506 170.55510291 59.44003327 169 58 C166.90632583 57.780966 166.90632583 57.780966 165.43989563 59.35997009 Z " fill="#35383B" transform="translate(88,36)"/>
<path d="M0 0 C3.08185753 1.36886731 5.14094812 2.91410776 7.47998047 5.33227539 C8.14101776 6.0096022 8.80205505 6.68692902 9.48312378 7.38478088 C10.18736481 8.11502975 10.89160583 8.84527863 11.6171875 9.59765625 C13.12586697 11.13649442 14.63499545 12.67489247 16.14453125 14.21289062 C18.51531296 16.63948725 20.88199874 19.06973492 23.24072266 21.50805664 C25.52173439 23.86161359 27.81814288 26.19922999 30.1171875 28.53515625 C30.81738007 29.26742935 31.51757263 29.99970245 32.23898315 30.75416565 C35.11851725 33.66318385 37.21326291 35.71477678 41.09570312 37.12231445 C44.69238949 36.97084002 47.08997696 36.03073372 50.3515625 34.5078125 C51.53234375 33.96769531 52.713125 33.42757812 53.9296875 32.87109375 C55.16177342 32.28972979 56.39354146 31.70769172 57.625 31.125 C60.05218275 29.9970963 62.48308813 28.87755015 64.9140625 27.7578125 C65.9860791 27.2539502 67.0580957 26.75008789 68.16259766 26.23095703 C71 25 71 25 75 24 C76.98 27.96 78.96 31.92 81 36 C78.79936607 38.20063393 77.65450697 38.55975212 74.71875 39.40234375 C73.87699219 39.65306641 73.03523438 39.90378906 72.16796875 40.16210938 C70.39036612 40.67873327 68.61171419 41.19176043 66.83203125 41.70117188 C65.99027344 41.95318359 65.14851563 42.20519531 64.28125 42.46484375 C63.50845703 42.687771 62.73566406 42.91069824 61.93945312 43.14038086 C59.64674514 43.94931243 59.64674514 43.94931243 58 47 C58.28274138 50.31086259 58.28274138 50.31086259 60 53 C66.715445 53.49943241 72.03305572 52.03095733 78.375 49.9375 C86.86704692 47.23898963 95.38221425 44.76515814 104 42.5 C113.65136328 39.95860693 123.20280835 37.18688435 132.70507812 34.1328125 C133.59259766 33.85308594 134.48011719 33.57335937 135.39453125 33.28515625 C136.55239136 32.91209351 136.55239136 32.91209351 137.73364258 32.53149414 C140.22237175 31.94785056 142.4525272 31.90750264 145 32 C145.14099121 32.76143311 145.28198242 33.52286621 145.42724609 34.30737305 C146.0711996 37.76842537 146.7230153 41.22795198 147.375 44.6875 C147.59671875 45.88568359 147.8184375 47.08386719 148.046875 48.31835938 C148.26601563 49.47529297 148.48515625 50.63222656 148.7109375 51.82421875 C148.90993652 52.88729248 149.10893555 53.95036621 149.31396484 55.0456543 C149.97166727 57.87798779 150.74236799 60.37919838 152 63 C154.32595577 64.16297789 155.91638421 64.22188139 158.50976562 64.37304688 C159.44413452 64.42980591 160.37850342 64.48656494 161.34118652 64.54504395 C162.35265747 64.60236694 163.36412842 64.65968994 164.40625 64.71875 C165.44189087 64.78155151 166.47753174 64.84435303 167.54455566 64.90905762 C170.86280454 65.11017497 174.18134278 65.30574416 177.5 65.5 C181.86489556 65.75549685 186.22940125 66.01659483 190.59375 66.28125 C191.60522095 66.338573 192.61669189 66.395896 193.65881348 66.45495605 C194.59318237 66.51171509 195.52755127 66.56847412 196.49023438 66.62695312 C197.31471069 66.67501099 198.13918701 66.72306885 198.98864746 66.77258301 C201 67 201 67 203 68 C202.40069977 77.92335802 200.46762444 87.5327263 198.50854492 97.25341797 C196.9781558 104.88688273 195.59077988 112.18128365 196 120 C197.01578125 120.50789063 198.0315625 121.01578125 199.078125 121.5390625 C207.38541667 125.69270833 215.69270833 129.84635417 224 134 C220.4284176 141.4755959 216.37389724 148.55478002 212.0625 155.625 C206.81799189 164.28955759 201.64465105 172.98920093 196.5625 181.75 C191.82539676 189.90940786 187.02308678 198.01298003 182 206 C177.64029169 204.65150163 173.68658562 202.95092154 169.625 200.875 C168.56539063 200.33617187 167.50578125 199.79734375 166.4140625 199.2421875 C165.61742187 198.83226562 164.82078125 198.42234375 164 198 C166.00823564 192.21766633 169.38566133 187.18025259 172.54296875 181.97460938 C173.20619141 180.86762695 173.20619141 180.86762695 173.8828125 179.73828125 C174.28902832 179.06837158 174.69524414 178.39846191 175.11376953 177.70825195 C176.15350324 176.0248577 176.15350324 176.0248577 176 174 C174.69011108 173.37170288 174.69011108 173.37170288 173.35375977 172.73071289 C170.12308609 171.18041892 166.89374047 169.62737601 163.66479492 168.07348633 C162.26541813 167.40053089 160.86567925 166.72832784 159.46557617 166.05688477 C157.45656865 165.09327231 155.44886635 164.12698741 153.44140625 163.16015625 C152.49763878 162.70854881 152.49763878 162.70854881 151.5348053 162.24781799 C147.11387171 160.11387171 147.11387171 160.11387171 146 159 C146.08737203 150.72718555 148.06652239 142.39118262 149.52905273 134.26855469 C149.93656111 132.00521467 150.33888242 129.74100152 150.74023438 127.4765625 C152.07626042 119.96739834 153.45053897 112.46860861 155 105 C153.87851562 104.96261719 152.75703125 104.92523438 151.6015625 104.88671875 C134.34824393 104.22388954 117.18627451 102.59987826 100 101 C99.15419612 96.83576559 98.32562263 92.66827858 97.5 88.5 C97.26152344 87.32695312 97.02304687 86.15390625 96.77734375 84.9453125 C95.57914753 78.85162885 94.69250626 73.21137347 95 67 C86.26503526 69.13497277 77.58657863 71.31669418 69 74 C69.66 78.95 70.32 83.9 71 89 C67.97993472 90.439132 64.95898272 91.87634941 61.9375 93.3125 C61.08994141 93.71662109 60.24238281 94.12074219 59.36914062 94.53710938 C57.69524667 95.33204743 56.01867166 96.12136661 54.33935547 96.90478516 C52.88297927 97.58661605 51.43273449 98.28190791 49.99267578 98.99755859 C46.15970125 100.8231309 44.04389222 101.26135923 40 100 C37.95610046 98.43711853 37.95610046 98.43711853 35.9440918 96.39819336 C34.80347542 95.25712379 34.80347542 95.25712379 33.63981628 94.09300232 C32.8344191 93.26695999 32.02902191 92.44091766 31.19921875 91.58984375 C30.36284378 90.74780899 29.52646881 89.90577423 28.66474915 89.03822327 C25.99613512 86.34722282 23.34176518 83.6426472 20.6875 80.9375 C18.88047845 79.11041662 17.07254641 77.28423326 15.26367188 75.45898438 C10.83183059 70.98304542 6.41160431 66.49588149 2 62 C-1.27196452 63.43258772 -3.43203956 65.18825316 -5.94238281 67.71533203 C-6.70286926 68.47596954 -7.46335571 69.23660706 -8.24688721 70.02029419 C-9.05744568 70.84117523 -9.86800415 71.66205627 -10.703125 72.5078125 C-11.95980988 73.76874222 -11.95980988 73.76874222 -13.24188232 75.05514526 C-15.91598431 77.74044001 -18.58304724 80.43260655 -21.25 83.125 C-23.06204062 84.94707155 -24.87453518 86.76869177 -26.6875 88.58984375 C-31.13028036 93.05467252 -35.56730165 97.52516283 -40 102 C-43.70952841 100.39858697 -47.41740368 98.79338057 -51.125 97.1875 C-52.69507813 96.50977539 -52.69507813 96.50977539 -54.296875 95.81835938 C-59.26553454 93.66422533 -64.19585949 91.5018102 -69 89 C-68.69075786 86.89535207 -68.3774944 84.7912947 -68.0625 82.6875 C-67.88847656 81.51574219 -67.71445313 80.34398437 -67.53515625 79.13671875 C-67 76 -67 76 -66 73 C-67.134375 72.938125 -68.26875 72.87625 -69.4375 72.8125 C-77.17410061 71.99157453 -84.60171967 69.30187597 -92 67 C-92.69421976 70.8776859 -93.38796966 74.75545554 -94.08129883 78.63330078 C-94.43221006 80.59542132 -94.78348506 82.5574768 -95.13476562 84.51953125 C-95.35712891 85.76347656 -95.57949219 87.00742188 -95.80859375 88.2890625 C-96.11494751 90.00150146 -96.11494751 90.00150146 -96.42749023 91.74853516 C-96.96998519 94.82953634 -97.49100215 97.91330623 -98 101 C-116.31265345 102.72138942 -134.64097724 103.91626534 -153 105 C-152.4198673 108.39638784 -151.8358066 111.79208623 -151.25 115.1875 C-151.07170654 116.22092529 -150.89341309 117.25435059 -150.7097168 118.3190918 C-149.34361577 126.17282632 -147.88168736 134.00430532 -146.30761719 141.8190918 C-145.18562296 147.52640225 -144.48647086 153.20448496 -144 159 C-164.4135118 169.90689268 -164.4135118 169.90689268 -174 174 C-171.99176436 179.78233367 -168.61433867 184.81974741 -165.45703125 190.02539062 C-165.01488281 190.76337891 -164.57273438 191.50136719 -164.1171875 192.26171875 C-163.71097168 192.93162842 -163.30475586 193.60153809 -162.88623047 194.29174805 C-162 196 -162 196 -162 198 C-167.61 200.64 -173.22 203.28 -179 206 C-181.88557065 203.11442935 -183.52259574 200.6436642 -185.5546875 197.13671875 C-185.89254776 196.55688736 -186.23040802 195.97705597 -186.57850647 195.37965393 C-187.68155212 193.48468373 -188.77820564 191.58609398 -189.875 189.6875 C-190.64083143 188.36981134 -191.40719368 187.05243106 -192.17407227 185.73535156 C-193.3369561 183.73791677 -194.49947184 181.74027715 -195.66023254 179.74160767 C-199.05657336 173.89360063 -202.49027023 168.06815139 -205.9375 162.25 C-206.9714883 160.50268353 -208.0053459 158.75528972 -209.0390625 157.0078125 C-209.52922852 156.17926758 -210.01939453 155.35072266 -210.52441406 154.49707031 C-214.3609207 148.00471593 -218.1798624 141.50199492 -222 135 C-219.03135893 132.62003265 -216.05498986 130.94884044 -212.61328125 129.3359375 C-211.59298828 128.85382813 -210.57269531 128.37171875 -209.52148438 127.875 C-208.46251953 127.38 -207.40355469 126.885 -206.3125 126.375 C-204.20356307 125.38465033 -202.09544317 124.39255828 -199.98828125 123.3984375 C-199.05540283 122.96192871 -198.12252441 122.52541992 -197.16137695 122.07568359 C-195.07350953 121.17950495 -195.07350953 121.17950495 -194 120 C-193.74907892 113.68244234 -194.33757322 107.92099871 -195.53125 101.73046875 C-195.68662231 100.88704422 -195.84199463 100.04361969 -196.0020752 99.17463684 C-196.49386077 96.51079316 -196.9962256 93.84910005 -197.5 91.1875 C-198.00218972 88.50779064 -198.50204516 85.82768916 -198.9979248 83.14680481 C-199.30550201 81.48661957 -199.61694019 79.82714373 -199.93273926 78.16850281 C-200.58028744 74.69635373 -201 71.54561178 -201 68 C-197.16499175 66.81658376 -193.28390815 66.69768339 -189.3046875 66.5 C-188.55720245 66.45939453 -187.80971741 66.41878906 -187.0395813 66.37695312 C-184.65156703 66.24763098 -182.26332614 66.12341774 -179.875 66 C-174.56194254 65.7217384 -169.24957739 65.4361011 -163.93884277 65.11621094 C-162.21244177 65.0127334 -160.4856368 64.91604615 -158.75878906 64.8203125 C-157.8715918 64.75585938 -156.98439453 64.69140625 -156.0703125 64.625 C-155.33828613 64.57601562 -154.60625977 64.52703125 -153.85205078 64.4765625 C-151.38719813 63.84231621 -150.51327708 63.04381291 -149 61 C-148.14965496 58.4888285 -148.14965496 58.4888285 -147.6484375 55.6328125 C-147.43703125 54.58222656 -147.225625 53.53164062 -147.0078125 52.44921875 C-146.79898438 51.35222656 -146.59015625 50.25523437 -146.375 49.125 C-146.1584375 48.03574219 -145.941875 46.94648438 -145.71875 45.82421875 C-145.1358717 42.88464114 -144.56720954 39.94263033 -144 37 C-143.66809373 35.33304856 -143.33522706 33.6662868 -143 32 C-138.13890974 32.60139676 -133.60458873 33.57157969 -128.90649414 34.94946289 C-128.23557236 35.14468033 -127.56465057 35.33989777 -126.87339783 35.54103088 C-125.42857775 35.9618952 -123.98435929 36.38482939 -122.5406971 36.80964851 C-120.25011982 37.48295508 -117.95760605 38.1492424 -115.66441345 38.81358337 C-109.14868422 40.70215824 -102.63580422 42.60035782 -96.1262207 44.51000977 C-92.1331524 45.68088478 -88.1371575 46.84127323 -84.13918877 47.99529839 C-82.62348596 48.43505952 -81.10892617 48.87878144 -79.59559822 49.3266468 C-77.47408918 49.95424719 -75.34909529 50.5684252 -73.22290039 51.17993164 C-72.01823624 51.53221329 -70.81357208 51.88449493 -69.57240295 52.24745178 C-65.45490547 53.11482745 -62.19576539 53.34407747 -58 53 C-55.76887492 50.25423759 -55.76887492 50.25423759 -56 47.5 C-57.4490965 43.87725875 -59.46005486 43.5217324 -63 42 C-66.28036601 41.06036407 -69.55425659 40.2344693 -72.87304688 39.45117188 C-74.5968456 39.02322982 -76.30093008 38.51747259 -78 38 C-78.33 37.34 -78.66 36.68 -79 36 C-77.78515625 33.1796875 -77.78515625 33.1796875 -76.0625 29.875 C-75.49660156 28.77929688 -74.93070313 27.68359375 -74.34765625 26.5546875 C-73.68056641 25.29011719 -73.68056641 25.29011719 -73 24 C-70.43592413 25.03791334 -67.8736475 26.07989973 -65.3125 27.125 C-64.54244629 27.43759766 -63.77239258 27.75019531 -62.97900391 28.07226562 C-59.34058557 29.56410002 -55.74472357 31.08488541 -52.22265625 32.8359375 C-51.11792969 33.38507813 -50.01320312 33.93421875 -48.875 34.5 C-47.90304688 35.0053125 -46.93109375 35.510625 -45.9296875 36.03125 C-41.9730169 37.33958908 -40.05250279 37.11400803 -36 36 C-32.83033847 33.65136351 -30.169339 30.86771466 -27.44140625 28.02734375 C-26.65225327 27.22970108 -25.86310028 26.43205841 -25.05003357 25.61024475 C-22.5397264 23.0664272 -20.05111511 20.50252523 -17.5625 17.9375 C-15.86141668 16.20631474 -14.15895754 14.47648022 -12.45507812 12.74804688 C-8.28731043 8.5142257 -4.13715082 4.26373239 0 0 Z " fill="#FEEBD1" transform="translate(255,94)"/>
<path d="M0 0 C1.15725586 0.00563965 2.31451172 0.0112793 3.50683594 0.01708984 C19.86555875 0.25012666 37.3250769 4.26927409 49.25 16.3125 C55.31062237 23.64352206 58.79356913 30.0977742 58.5625 39.73046875 C57.55421553 48.06141922 52.32533454 55.64158797 46.203125 61.15625 C33.27186539 71.04996541 16.89360476 74.67338115 0.9375 74.625 C-0.11373047 74.64111328 -1.16496094 74.65722656 -2.24804688 74.67382812 C-18.66961275 74.68392128 -34.32910848 69.14560766 -46.75 58.3125 C-52.46487056 52.30605441 -55.78886262 45.69494793 -56.1875 37.375 C-55.88811613 28.87510149 -51.51224328 21.39902536 -45.75 15.3125 C-32.67674716 3.92767465 -16.88423716 -0.08552074 0 0 Z " fill="#EBA1C9" transform="translate(254.75,362.6875)"/>
<path d="M0 0 C6.47331683 3.8026615 10.31705206 8.50880426 14 15 C14.598125 16.051875 15.19625 17.10375 15.8125 18.1875 C19.16693424 28.9569994 18.93721614 40.38725581 13.70703125 50.5 C12.25957951 52.79729606 10.70941848 54.89171721 9 57 C8.52046875 57.62648438 8.0409375 58.25296875 7.546875 58.8984375 C1.65620431 65.71138492 -7.16037987 69.61702896 -16.04296875 70.546875 C-27.50008926 71.196555 -36.67678459 68.14507512 -45.4375 60.6875 C-54.05286307 52.29304368 -57.77341035 43.13959829 -58.5 31.0625 C-58.09119703 20.87512999 -53.40274302 12.32362639 -46.40234375 5.16015625 C-33.05800155 -6.83890267 -15.72007944 -8.98969747 0 0 Z " fill="#35373A" transform="translate(180,308)"/>
<path d="M0 0 C7.37447205 6.05512206 13.72547852 13.87474981 14.98461914 23.59350586 C15.09962479 25.86704086 15.10917397 28.11465146 15.07421875 30.390625 C15.08582031 31.14601563 15.09742188 31.90140625 15.109375 32.6796875 C15.05732489 42.77740945 10.60748112 50.91137909 3.953125 58.33984375 C-3.94263659 65.90729925 -13.3601513 69.20651307 -24.22094727 69.04833984 C-34.9801141 68.423987 -44.24181734 63.77613919 -51.46484375 55.828125 C-54.38472227 51.95152033 -56.45628156 47.86483308 -58.30078125 43.390625 C-58.66558594 42.60429687 -59.03039062 41.81796875 -59.40625 41.0078125 C-62.17031383 32.92081351 -60.81849893 23.63464215 -57.546875 15.9140625 C-53.12216169 6.95367127 -47.8588679 1.6590425 -39.30078125 -3.609375 C-38.676875 -3.99351562 -38.05296875 -4.37765625 -37.41015625 -4.7734375 C-25.8123092 -10.36339081 -10.02565242 -7.01285025 0 0 Z " fill="#35373A" transform="translate(374.30078125,309.609375)"/>
<path d="M0 0 C9.77992511 16.62344591 18.60949153 34.25142861 19 54 C19.01901367 54.66966797 19.03802734 55.33933594 19.05761719 56.02929688 C19.51202879 73.56511504 16.94171969 88.52013597 11 105 C7.37 105 3.74 105 0 105 C0.2165625 103.89785156 0.433125 102.79570312 0.65625 101.66015625 C4.34342568 81.96823104 4.2458736 64.33137071 -4.18652344 45.81591797 C-4.95641563 44.09729308 -5.65632248 42.34781248 -6.3515625 40.59765625 C-7.94205295 37.29334855 -9.1229382 35.28962314 -12 33 C-27.91866994 29.74762288 -45.24239042 36.09188286 -58.6875 44.3125 C-69.85755838 51.77525452 -78.1582265 60.59537164 -83.6875 72.9375 C-86.16213425 77.72270435 -88.45468363 79.05759006 -93.5625 80.6875 C-97.46105084 81.65639779 -100.98549428 82.15699184 -105 82 C-103.74801075 75.44661876 -101.89114255 69.81550203 -99 63.8125 C-98.60772217 62.99168945 -98.21544434 62.17087891 -97.8112793 61.32519531 C-93.99391228 53.58348159 -89.33457041 46.76200263 -84 40 C-83.44441406 39.28457031 -82.88882812 38.56914063 -82.31640625 37.83203125 C-78.67122515 33.35705283 -74.44698595 29.65919209 -70 26 C-69.09765625 25.22527344 -68.1953125 24.45054688 -67.265625 23.65234375 C-48.95566136 8.61865533 -23.80414928 -0.94795285 0 0 Z " fill="#F0D0A0" transform="translate(452,45)"/>
<path d="M0 0 C24.65220004 1.55175788 47.62656177 11.50833099 66.33984375 27.46875 C67.08878906 28.07203125 67.83773437 28.6753125 68.609375 29.296875 C83.29184829 41.53655501 97.81989797 63.23606033 100.33984375 82.46875 C93.72002933 82.6455403 88.09135731 81.93178254 82.33984375 78.46875 C79.82332052 75.12615992 77.98276255 71.73744115 76.12109375 68.0078125 C68.28475154 52.43823785 52.61947987 41.978315 36.40234375 36.59375 C27.43605955 33.74641264 16.70521586 30.75858948 7.33984375 33.46875 C3.21178615 37.06726085 1.31991372 41.46601765 -0.66015625 46.46875 C-0.94955078 47.14760254 -1.23894531 47.82645508 -1.53710938 48.52587891 C-9.61507274 67.50021593 -8.57111419 85.56476764 -4.66015625 105.46875 C-8.29015625 105.46875 -11.92015625 105.46875 -15.66015625 105.46875 C-23.39721907 84.00934936 -26.18840357 63.0576369 -21.66015625 40.46875 C-21.42683594 39.30472656 -21.19351563 38.14070313 -20.953125 36.94140625 C-18.59684996 26.85999202 -14.54678419 17.64663585 -9.73046875 8.50341797 C-8.76484229 6.66775855 -7.87911079 4.79060752 -7.00390625 2.91015625 C-4.29556416 0.08896657 -3.74471876 0.07808307 0 0 Z " fill="#F1D0A0" transform="translate(64.66015625,44.53125)"/>
<path d="M0 0 C1.15725586 0.00563965 2.31451172 0.0112793 3.50683594 0.01708984 C19.86555875 0.25012666 37.3250769 4.26927409 49.25 16.3125 C55.31062237 23.64352206 58.79356913 30.0977742 58.5625 39.73046875 C57.55421553 48.06141922 52.32533454 55.64158797 46.203125 61.15625 C33.27186539 71.04996541 16.89360476 74.67338115 0.9375 74.625 C-0.11373047 74.64111328 -1.16496094 74.65722656 -2.24804688 74.67382812 C-18.66961275 74.68392128 -34.32910848 69.14560766 -46.75 58.3125 C-52.46487056 52.30605441 -55.78886262 45.69494793 -56.1875 37.375 C-55.88811613 28.87510149 -51.51224328 21.39902536 -45.75 15.3125 C-32.67674716 3.92767465 -16.88423716 -0.08552074 0 0 Z M-24.75 16.3125 C-25.74386719 16.75980469 -26.73773438 17.20710938 -27.76171875 17.66796875 C-34.85146471 21.19864331 -39.68697187 25.09674686 -43.1875 32.25 C-44.27928251 38.19414924 -43.65852013 42.47060327 -40.3125 47.4375 C-33.09234756 56.22575237 -20.82585414 61.1377882 -9.75 62.3125 C7.9757275 63.21972929 26.09039131 62.50446292 40.3984375 50.51171875 C43.88196899 46.67983411 46.20255028 42.68143019 46.27734375 37.37109375 C45.85292972 31.63606313 43.87175084 27.78263151 39.62890625 23.78515625 C23.03693033 10.22871854 -5.40280233 7.57243728 -24.75 16.3125 Z " fill="#37393C" transform="translate(254.75,362.6875)"/>
<path d="M0 0 C14.6165098 0.20673988 29.86616442 7.62472318 40.3125 17.6875 C43.38485391 20.95233873 45.93556346 24.47250332 48.4375 28.1875 C44.67774218 29.59518184 42.4829478 28.71676103 38.8125 27.3125 C33.31524821 25.35401963 28.25145413 24.44475461 22.4375 24.1875 C19.06075818 30.85186142 18.01945758 37.81123687 16.75 45.125 C16.52505859 46.38119141 16.30011719 47.63738281 16.06835938 48.93164062 C15.51722029 52.01567424 14.97384921 55.10086597 14.4375 58.1875 C11.5179957 59.1606681 9.38305049 59.3804546 6.33203125 59.50390625 C5.34912109 59.54580078 4.36621094 59.58769531 3.35351562 59.63085938 C2.32935547 59.67017578 1.30519531 59.70949219 0.25 59.75 C-0.78576172 59.79318359 -1.82152344 59.83636719 -2.88867188 59.88085938 C-5.4464819 59.98694366 -8.00438845 60.08900146 -10.5625 60.1875 C-17.00656094 43.07046313 -16.62192412 24.89166269 -9.21875 8.1484375 C-5.29034112 0.04038428 -5.29034112 0.04038428 0 0 Z " fill="#ECA1C9" transform="translate(82.5625,88.8125)"/>
<path d="M0 0 C9.07498867 15.06299349 13.40631823 32.80023196 9.10546875 50.26953125 C8.17848783 53.24045596 7.19396597 56.12701938 6 59 C2.77085248 59.02917228 -0.45826083 59.04685663 -3.6875 59.0625 C-4.59951172 59.07087891 -5.51152344 59.07925781 -6.45117188 59.08789062 C-7.33740234 59.09111328 -8.22363281 59.09433594 -9.13671875 59.09765625 C-9.94842529 59.10289307 -10.76013184 59.10812988 -11.59643555 59.11352539 C-14.14864673 58.9929791 -16.51026137 58.559949 -19 58 C-19.14099121 57.17798096 -19.28198242 56.35596191 -19.42724609 55.5090332 C-19.95590662 52.44249904 -20.48949163 49.37687329 -21.02636719 46.31176758 C-21.37031618 44.33935981 -21.70863494 42.36597291 -22.046875 40.39257812 C-22.26601563 39.14541016 -22.48515625 37.89824219 -22.7109375 36.61328125 C-22.90993652 35.46641846 -23.10893555 34.31955566 -23.31396484 33.13793945 C-23.94756696 30.23982986 -24.80648422 27.70870403 -26 25 C-32.11507684 23.62472167 -36.40480334 24.622248 -42.3125 26.5 C-43.91081509 26.99589728 -45.51100657 27.4857996 -47.11328125 27.96875 C-47.81235596 28.18982422 -48.51143066 28.41089844 -49.23168945 28.63867188 C-51 29 -51 29 -53 28 C-48.46146746 22.03507152 -44.06855684 16.45108578 -38 12 C-36.83404297 11.13761719 -36.83404297 11.13761719 -35.64453125 10.2578125 C-24.80015742 2.79329521 -13.22328411 -1.10809643 0 0 Z " fill="#ECA1CA" transform="translate(434,89)"/>
<path d="M0 0 C4.5305289 4.0040942 6.96374425 8.17038155 9.5 13.625 C9.88800781 14.45314209 10.27601563 15.28128418 10.67578125 16.13452148 C15.83406713 27.56491208 19.75043187 40.37898295 20 53 C20.01901367 53.66966797 20.03802734 54.33933594 20.05761719 55.02929688 C20.51202879 72.56511504 17.94171969 87.52013597 12 104 C8.37 104 4.74 104 1 104 C1.2165625 102.89785156 1.433125 101.79570312 1.65625 100.66015625 C6.19780073 76.40531052 4.17449421 55.21769161 -9.2890625 34.07421875 C-11.06523908 31.92090879 -12.42842763 31.01627642 -15 30 C-13.58501785 26.32765496 -11.97296011 22.81718891 -10.21484375 19.296875 C-9.68439453 18.2346875 -9.15394531 17.1725 -8.60742188 16.078125 C-7.78081055 14.43070313 -7.78081055 14.43070313 -6.9375 12.75 C-6.38255859 11.63625 -5.82761719 10.5225 -5.25585938 9.375 C-4.72669922 8.31796875 -4.19753906 7.2609375 -3.65234375 6.171875 C-3.16757568 5.2034668 -2.68280762 4.23505859 -2.18334961 3.23730469 C-1 1 -1 1 0 0 Z " fill="#FCE9CF" transform="translate(451,46)"/>
<path d="M0 0 C2.80444716 2.46517442 4.2338381 5.10748934 5.8828125 8.4375 C6.41003906 9.49710938 6.93726562 10.55671875 7.48046875 11.6484375 C8.02316406 12.75445312 8.56585938 13.86046875 9.125 15 C9.67542969 16.10601562 10.22585937 17.21203125 10.79296875 18.3515625 C14.84527726 26.53583177 14.84527726 26.53583177 16 30 C15.2575 30.36480469 14.515 30.72960937 13.75 31.10546875 C5.29916161 36.92742417 0.59068994 51.46003447 -2 61 C-4.2906463 75.64846423 -2.83818205 89.55568062 0 104 C-3.63 104 -7.26 104 -11 104 C-18.73706282 82.54059936 -21.52824732 61.5888869 -17 39 C-16.76667969 37.83597656 -16.53335938 36.67195313 -16.29296875 35.47265625 C-13.43022958 23.22431559 -8.42711206 9.53795865 0 0 Z " fill="#FCE9D0" transform="translate(60,46)"/>
<path d="M0 0 C0.97710937 -0.00773437 1.95421875 -0.01546875 2.9609375 -0.0234375 C16.63221232 0.01292227 31.61067505 3.20823854 41.625 13.25 C42.12 14.735 42.12 14.735 42.625 16.25 C40.06350372 16.75567729 37.50100535 17.25470132 34.9375 17.75 C34.21626953 17.89308594 33.49503906 18.03617187 32.75195312 18.18359375 C28.98658641 18.90571887 25.48026187 19.4324976 21.625 19.25 C21.315625 18.445625 21.00625 17.64125 20.6875 16.8125 C19.86164655 14.35919595 19.86164655 14.35919595 18.625 13.25 C16.28555264 13.53730055 13.9510857 13.86936779 11.625 14.25 C10.965 16.56 10.305 18.87 9.625 21.25 C4.345 21.25 -0.935 21.25 -6.375 21.25 C-7.035 18.61 -7.695 15.97 -8.375 13.25 C-11.79156024 13.08322718 -11.79156024 13.08322718 -15.375 13.25 C-17.5135485 15.3885485 -17.80155063 16.38275314 -18.375 19.25 C-25.22317102 18.76358785 -31.70542073 17.89006048 -38.375 16.25 C-33.32193279 7.15909369 -25.27059775 4.07838158 -15.671875 1.1015625 C-10.48312971 -0.12260854 -5.30516628 -0.04166361 0 0 Z " fill="#FCC7E5" transform="translate(254.375,374.75)"/>
<path d="M0 0 C4.68976237 0.01341849 6.95332138 1.48841835 10.27514648 4.75219727 C12.32662179 6.91769772 14.33791937 9.11563165 16.32714844 11.33837891 C18.07607983 13.23357772 19.96519971 14.9034474 21.9375 16.5625 C25.37269736 19.48667627 28.51988463 22.62660493 31.68359375 25.83984375 C34.26866575 28.38460274 36.99995061 30.73042631 39.75 33.09375 C42.26872506 35.32810288 44.60730809 37.71162376 46.94921875 40.12890625 C48.72595688 41.849747 50.60208907 43.30725576 52.5625 44.8125 C55.32498464 47.13323597 55.68833685 47.81524302 56.8125 51.5 C56.6875 54.8125 56.6875 54.8125 55.625 56.75 C52.54784192 58.43747378 51.17779367 58.53690057 47.6875 57.8125 C45.51570807 56.0319004 43.6639937 54.08935345 41.7578125 52.02734375 C39.82791116 49.96271345 37.83987477 48.13990838 35.6875 46.3125 C32.17748489 43.29608077 28.93698724 40.08154868 25.69140625 36.78515625 C23.10503849 34.23912171 20.3721472 31.89228443 17.62109375 29.52734375 C15.12456027 27.31324639 12.80981891 24.94615957 10.47265625 22.56640625 C8.58561535 20.71239889 6.6272063 18.97866009 4.625 17.25 C3.96371094 16.6725 3.30242187 16.095 2.62109375 15.5 C1.37038535 14.40847267 0.11296311 13.32457058 -1.15234375 12.25 C-3.97809169 9.69685363 -5.24297703 8.33888821 -5.75 4.5 C-5.09011708 0.4464335 -3.89396405 0.46578517 0 0 Z " fill="#37393C" transform="translate(169.3125,261.1875)"/>
<path d="M0 0 C1.33417969 0.02320313 1.33417969 0.02320313 2.6953125 0.046875 C4.875 0.25 4.875 0.25 5.875 1.25 C6.28125 3.94140625 6.28125 3.94140625 5.875 7.25 C4.08884355 9.5094879 2.4721727 11.27021881 0.375 13.1875 C-0.17309326 13.71110107 -0.72118652 14.23470215 -1.28588867 14.77416992 C-4.87564259 18.17845586 -8.56546183 21.46837265 -12.33203125 24.67578125 C-14.79220175 26.83580023 -17.05464924 29.16930274 -19.34765625 31.50390625 C-21.19093574 33.31477643 -23.10322799 35.00321354 -25.0625 36.6875 C-27.87076347 39.10617779 -30.52470593 41.60899683 -33.125 44.25 C-45.64178225 56.93959778 -45.64178225 56.93959778 -50.625 57.5625 C-53.125 57.25 -53.125 57.25 -55 56.1875 C-56.125 54.25 -56.125 54.25 -56.140625 51.0703125 C-54.74850085 45.83378397 -52.00976389 43.65570466 -48 40.1875 C-46.52844933 38.86349962 -45.05709965 37.53927582 -43.5859375 36.21484375 C-42.83795898 35.55210449 -42.08998047 34.88936523 -41.31933594 34.20654297 C-38.03444247 31.27762261 -34.8315728 28.26405811 -31.625 25.25 C-30.40146492 24.10761943 -29.17750201 22.96569692 -27.953125 21.82421875 C-23.75683844 17.90746538 -19.56469487 13.98630308 -15.375 10.0625 C-14.69501953 9.42634766 -14.01503906 8.79019531 -13.31445312 8.13476562 C-12.67958984 7.53986328 -12.04472656 6.94496094 -11.390625 6.33203125 C-10.83149414 5.80843018 -10.27236328 5.2848291 -9.69628906 4.74536133 C-8.62229493 3.72326467 -7.58208381 2.66478864 -6.57373047 1.57788086 C-4.45329483 -0.36567314 -2.8158767 -0.08209553 0 0 Z " fill="#37393C" transform="translate(342.125,261.75)"/>
<path d="M0 0 C-0.79126203 5.83931348 -3.57815689 8.36253842 -8 12 C-14.40595915 16.7939563 -21.24277881 16.79611031 -29 16 C-36.11148293 14.49675971 -41.08201833 10.57413329 -45.375 4.8125 C-47 2 -47 2 -47 0 C-30.74970305 -3.97387174 -16.25029695 -3.97387174 0 0 Z " fill="#C74207" transform="translate(375,350)"/>
<path d="M0 0 C-2.84303013 7.4691888 -7.02955606 11.60904507 -14.265625 15.08984375 C-20.71716833 17.23728603 -29.18812348 17.29260731 -35.4375 14.4375 C-40.17181007 11.56018224 -45.28894399 7.80003412 -46.69140625 2.27734375 C-46.79324219 1.52582031 -46.89507812 0.77429688 -47 0 C-30.73241508 -3.5912671 -16.26758492 -3.5912671 0 0 Z " fill="#C84207" transform="translate(184,350)"/>
<path d="M0 0 C2.16577351 1.63488933 2.9161419 2.52026836 3.38818359 5.22070312 C3.39156738 6.06568359 3.39495117 6.91066406 3.3984375 7.78125 C3.40230469 8.70550781 3.40617187 9.62976563 3.41015625 10.58203125 C3.39855469 11.54496094 3.38695312 12.50789063 3.375 13.5 C3.38660156 14.46292969 3.39820313 15.42585938 3.41015625 16.41796875 C3.40628906 17.34222656 3.40242188 18.26648438 3.3984375 19.21875 C3.39505371 20.06373047 3.39166992 20.90871094 3.38818359 21.77929688 C2.91407394 24.49156189 2.19548337 25.377728 0 27 C-3 27.4375 -3 27.4375 -6 27 C-8.0908044 25.19452891 -8.89894553 23.68823844 -9.30029297 20.95483398 C-9.44099118 18.46272327 -9.45820478 15.99586758 -9.4375 13.5 C-9.45748047 12.64535156 -9.47746094 11.79070312 -9.49804688 10.91015625 C-9.4931855 4.67787212 -9.4931855 4.67787212 -7.1328125 1.43359375 C-4.47889085 -0.35026934 -3.13677175 -0.56301031 0 0 Z " fill="#393A3F" transform="translate(273,387)"/>
<path d="M0 0 C3.4375 0.875 3.4375 0.875 5.4375 3.875 C5.86303704 7.00657434 5.76179029 10.15505966 5.75 13.3125 C5.76611328 14.17166016 5.78222656 15.03082031 5.79882812 15.91601562 C5.80367871 22.1684147 5.80367871 22.1684147 4.10546875 25.4453125 C2.4375 26.875 2.4375 26.875 -0.5625 27.3125 C-3.89803497 26.82606782 -4.58602586 26.49298035 -6.5625 23.875 C-6.95068359 21.65429688 -6.95068359 21.65429688 -6.9609375 19.09375 C-6.96480469 18.16949219 -6.96867188 17.24523437 -6.97265625 16.29296875 C-6.96105469 15.33003906 -6.94945312 14.36710937 -6.9375 13.375 C-6.94910156 12.41207031 -6.96070313 11.44914062 -6.97265625 10.45703125 C-6.96878906 9.53277344 -6.96492187 8.60851562 -6.9609375 7.65625 C-6.95755371 6.81126953 -6.95416992 5.96628906 -6.95068359 5.09570312 C-6.17297686 0.64663365 -4.34803237 -0.15256254 0 0 Z " fill="#393A3F" transform="translate(242.5625,387.125)"/>
<path d="M0 0 C2.375 1.625 2.375 1.625 4 4 C4.61195145 7.6717087 4.48706506 9.28813568 2.375 12.375 C0 14 0 14 -3 14.5625 C-6 14 -6 14 -8.375 11.8125 C-10.14232156 8.75367423 -10.70698088 7.44653179 -10 4 C-7.16979976 -0.02759265 -4.82432618 -0.80405436 0 0 Z " fill="#F3F3F4" transform="translate(147,323)"/>
<path d="M0 0 C2.375 1.625 2.375 1.625 4 4 C4.61195145 7.6717087 4.48706506 9.28813568 2.375 12.375 C-0.71186432 14.48706506 -2.3282913 14.61195145 -6 14 C-8.375 12.375 -8.375 12.375 -10 10 C-10.61195145 6.3282913 -10.48706506 4.71186432 -8.375 1.625 C-5.28813568 -0.48706506 -3.6717087 -0.61195145 0 0 Z " fill="#F5F5F5" transform="translate(339,323)"/>
</svg>
