<?xml version="1.0" encoding="UTF-8"?>
<svg version="1.1" xmlns="http://www.w3.org/2000/svg" width="512" height="512">
<path d="M0 0 C4.5502516 3.36639088 5.90032878 8.1676616 7.7734375 13.2890625 C8.12998413 14.23634216 8.48653076 15.18362183 8.85388184 16.15960693 C10.03757171 19.31109708 11.20605826 22.46801311 12.375 25.625 C13.20342505 27.83718785 14.03303759 30.04893132 14.86376953 32.26025391 C16.64044832 36.9927203 18.41179464 41.72713537 20.1796875 46.46289062 C24.31384207 57.52566245 28.50063372 68.56851179 32.68955421 79.61063957 C34.36354408 84.02373524 36.03287899 88.43856683 37.70068359 92.85400391 C38.58943251 95.20218088 39.47826319 97.55032691 40.3671875 99.8984375 C40.76232544 100.9465863 41.15746338 101.99473511 41.5645752 103.074646 C44.23302378 110.11208067 47.06667889 117.06890734 50 124 C50.64235596 123.42475586 51.28471191 122.84951172 51.9465332 122.25683594 C58.73705858 116.17576843 58.73705858 116.17576843 61.3918457 114.40112305 C64.88598942 111.18433905 66.32297149 107.75325806 68.1875 103.44140625 C68.75717751 102.16817253 68.75717751 102.16817253 69.33836365 100.86921692 C70.57141195 98.10567851 71.78566939 95.33430728 73 92.5625 C73.8464475 90.65714119 74.69419316 88.75235856 75.54321289 86.84814453 C77.24164771 83.03379544 78.93303007 79.2164551 80.61767578 75.39599609 C83.59292957 68.65012956 86.60456517 61.92077807 89.62280273 55.19406128 C90.41481198 53.42565796 91.20258645 51.65535993 91.99023438 49.88500977 C99.13392986 33.86607014 99.13392986 33.86607014 102 31 C110.72927406 30.91738857 117.88817281 34.83508114 125.5625 38.5625 C126.86986297 39.18546291 128.1778021 39.80721816 129.48632812 40.42773438 C132.66431692 41.93795446 135.8341927 43.46437809 139 45 C144.20572041 40.66161883 148.99991686 36.08204572 153.7265625 31.23046875 C155.18445333 29.75021509 156.64280002 28.27041029 158.1015625 26.79101562 C160.37515619 24.48018629 162.64549959 22.16646775 164.90820312 19.8449707 C167.10944064 17.58936699 169.32307281 15.34656823 171.5390625 13.10546875 C172.21313141 12.40761765 172.88720032 11.70976654 173.58169556 10.99076843 C174.21940887 10.3495253 174.85712219 9.70828217 175.51416016 9.04760742 C176.3451976 8.198722 176.3451976 8.198722 177.19302368 7.33268738 C179.53963175 5.60200894 181.08356909 5.13715845 184 5 C187.5807612 6.6808698 190.19360945 8.94751742 192.96411133 11.73706055 C193.7045015 12.47760178 194.44489166 13.21814301 195.2077179 13.98112488 C195.9912413 14.77497086 196.77476471 15.56881683 197.58203125 16.38671875 C198.39621017 17.20372757 199.2103891 18.02073639 200.04924011 18.86250305 C202.64173515 21.46616908 205.22717883 24.07671242 207.8125 26.6875 C209.57180479 28.45683854 211.33156524 30.22572415 213.09179688 31.99414062 C217.39982708 36.32419036 221.70209281 40.65990347 226 45 C229.64610541 43.4172927 233.29183366 41.83371838 236.9375 40.25 C237.95908203 39.8065625 238.98066406 39.363125 240.03320312 38.90625 C241.04189453 38.46796875 242.05058594 38.0296875 243.08984375 37.578125 C244.08781982 37.14491943 245.0857959 36.71171387 246.11401367 36.26538086 C249.46964771 34.79407968 252.80470894 33.27996944 256.13183594 31.74536133 C258.97676485 30.61028972 261.00352265 30.37283032 264 31 C266.94561279 34.22568627 268.85661903 37.44141349 270.6015625 41.42578125 C271.08310791 42.5135083 271.56465332 43.60123535 272.06079102 44.72192383 C272.57697998 45.90681396 273.09316895 47.0917041 273.625 48.3125 C274.17872271 49.56769152 274.73335428 50.82248242 275.28881836 52.0769043 C276.19159659 54.11615046 277.09370163 56.15567432 277.99320984 58.19636536 C281.74025332 66.69637522 285.54936232 75.1684444 289.36077881 83.63973999 C290.54474906 86.27301996 291.72592535 88.90753932 292.90673828 91.54223633 C293.64735372 93.19096614 294.38807175 94.83964986 295.12890625 96.48828125 C295.46075424 97.22997559 295.79260223 97.97166992 296.13450623 98.73583984 C297.73840652 102.29851906 299.37469911 105.84506103 301.0715332 109.36450195 C301.37622025 109.99910843 301.68090729 110.6337149 301.99482727 111.28755188 C303.67098585 114.14311542 306.01375944 115.89721403 308.625 117.875 C309.58664062 118.61492187 310.54828125 119.35484375 311.5390625 120.1171875 C312.35117187 120.73851562 313.16328125 121.35984375 314 122 C314.66 122.66 315.32 123.32 316 124 C321.08241986 111.42641453 326.01820219 98.80800661 330.78482056 86.11141968 C331.84859821 83.27888068 332.91545991 80.4475199 333.9831543 77.61645508 C335.51539272 73.55360427 337.04710638 69.49055673 338.578125 65.42724609 C338.97273926 64.3800238 339.36735352 63.33280151 339.77392578 62.25384521 C340.60699955 60.04297326 341.44000493 57.83207553 342.27294922 55.62115479 C344.86194683 48.75049398 347.45549019 41.88157614 350.05453491 35.01470947 C350.88753468 32.81149672 351.7189575 30.60768704 352.54873657 28.40325928 C353.71214371 25.31290664 354.88086832 22.22461331 356.05078125 19.13671875 C356.39177856 18.2271492 356.73277588 17.31757965 357.08410645 16.38044739 C362.68264398 1.65867801 362.68264398 1.65867801 366 0 C371.35286118 -0.45556265 371.35286118 -0.45556265 373.62620544 1.14479065 C375.51820602 3.69979944 375.66444535 5.78341776 376.04321289 8.93334961 C376.19669693 10.15569809 376.35018097 11.37804657 376.50831604 12.63743591 C376.66328263 13.97571694 376.81805773 15.31402015 376.97265625 16.65234375 C377.14173925 18.03193166 377.31204181 19.4113706 377.48350525 20.79066467 C377.93287242 24.42946079 378.3671776 28.06989476 378.7979126 31.7109375 C379.40322912 36.80481218 380.02886563 41.8962361 380.65220642 46.9879303 C380.98360747 49.69540643 381.30879998 52.40338951 381.63063049 55.11204529 C382.5525249 62.78194119 383.65148101 70.39320045 385 78 C386.16402344 77.3498291 386.16402344 77.3498291 387.3515625 76.68652344 C390.26565686 75.05995108 393.18063111 73.43497738 396.09619141 71.81103516 C397.35142351 71.1114662 398.60631451 70.41128481 399.86083984 69.71044922 C419.07264672 58.97939215 419.07264672 58.97939215 422.8125 59.0625 C425.21419127 60.09179626 426.36588667 60.97489765 428 63 C427.82067851 70.69961638 425.54493338 77.91247653 423.4375 85.27734375 C423.0861499 86.52504044 422.7347998 87.77273712 422.37280273 89.0582428 C421.63401366 91.68077277 420.8906816 94.30195253 420.14355469 96.92211914 C419.18561189 100.28178038 418.23572263 103.64364964 417.28874207 107.00641537 C416.38271312 110.22249627 415.47269903 113.43744033 414.5625 116.65234375 C414.04997681 118.46471779 414.04997681 118.46471779 413.52709961 120.31370544 C413.2100708 121.42568802 412.89304199 122.53767059 412.56640625 123.68334961 C412.14790405 125.15486732 412.14790405 125.15486732 411.72094727 126.65611267 C411 129 411 129 410 131 C410.91265625 131.05607422 410.91265625 131.05607422 411.84375 131.11328125 C417.80733214 131.56054991 423.67517322 132.34617902 429.5625 133.375 C430.26503906 133.48884033 430.96757812 133.60268066 431.69140625 133.7199707 C433.69140625 134.0859375 433.69140625 134.0859375 437 135 C439.40832094 138.61248141 439.72360855 139.73874968 439 144 C437.67749023 145.79003906 437.67749023 145.79003906 435.93359375 147.703125 C435.29800537 148.40526123 434.66241699 149.10739746 434.00756836 149.83081055 C433.3450708 150.54664307 432.68257324 151.26247559 432 152 C431.38326416 152.67135986 430.76652832 153.34271973 430.13110352 154.03442383 C428.26424245 156.05355098 426.38432815 158.05967287 424.5 160.0625 C423.87480469 160.73087891 423.24960937 161.39925781 422.60546875 162.08789062 C419.53258821 165.36117642 416.42830229 168.59050736 413.2421875 171.75390625 C410.92976611 174.05040456 408.72262579 176.37782643 406.625 178.875 C404.03365795 181.8846753 401.32745217 184.71088616 398.5 187.5 C395.09662178 190.85738662 391.91654941 194.30884763 388.84765625 197.97265625 C387 200 387 200 384.49609375 202.18359375 C379.94906055 205.85642695 379.94906055 205.85642695 377.734375 210.97265625 C378.27971431 213.41257954 379.14003852 215.65075657 380 218 C380.72924916 220.83996835 381.35864414 223.70158921 382 226.5625 C382.33091616 227.9810348 382.66420767 229.39901781 383 230.81640625 C383.16282471 231.52031494 383.32564941 232.22422363 383.4934082 232.94946289 C383.9626982 234.84901308 384.53018515 236.72357011 385.10546875 238.59375 C386.6810028 244.9028439 386.34919898 251.47723381 386.3125 257.9375 C386.31001251 258.63074371 386.30752502 259.32398743 386.30496216 260.03823853 C386.14292251 289.18475281 377.1464638 315.97781966 359 339 C358.15115234 340.15242187 358.15115234 340.15242187 357.28515625 341.328125 C343.93480033 358.97279672 326.80073217 372.61771924 308 384 C307.07429199 384.56267578 307.07429199 384.56267578 306.12988281 385.13671875 C282.71500391 399.21688195 254.68413245 409.98227586 227.40234375 412.859375 C213.05782264 414.44494665 202.14465093 415.92540553 192.28808594 427.47583008 C191.23250563 428.79469282 190.20023544 430.13292971 189.20385742 431.49707031 C187.45474233 433.68071511 186.11556083 433.97798841 183.375 434.5 C177.45090912 433.62235691 173.66386404 429.05898865 169.99731445 424.52172852 C163.38295713 416.75167821 156.952182 415.18134692 147.28857422 414.08258057 C143.26146168 413.61996445 139.25582952 413.0101939 135.24609375 412.41796875 C134.44976532 412.3036853 133.65343689 412.18940186 132.83297729 412.07165527 C108.94982299 408.56162958 86.19264526 399.31023933 65 388 C63.83210937 387.38640625 62.66421875 386.7728125 61.4609375 386.140625 C47.17190665 378.33487903 34.68504136 368.2770441 23 357 C22.07703125 356.14019531 21.1540625 355.28039062 20.203125 354.39453125 C-3.33143379 331.89044043 -19.17851905 299.38535112 -20.37109375 266.72265625 C-20.41123994 264.1694905 -20.43284915 261.61597713 -20.4375 259.0625 C-20.43956451 258.39345642 -20.44162903 257.72441284 -20.4437561 257.03509521 C-20.43550295 242.01390653 -17.78217616 228.06816705 -12.46411133 214.02099609 C-11.90407982 211.58231075 -12.08786753 210.32258931 -13 208 C-14.2737395 206.3322431 -14.2737395 206.3322431 -15.9140625 204.828125 C-16.50678955 204.25022217 -17.0995166 203.67231934 -17.71020508 203.0769043 C-18.65802856 202.17258667 -18.65802856 202.17258667 -19.625 201.25 C-20.9146101 199.99277996 -22.20239193 198.73368166 -23.48828125 197.47265625 C-24.40988037 196.56990967 -24.40988037 196.56990967 -25.35009766 195.64892578 C-27.83207996 193.16841254 -30.09793397 190.53165987 -32.36328125 187.85546875 C-35.03294135 184.82900443 -37.94460678 182.04790057 -40.81640625 179.21484375 C-42.77974671 177.22340539 -44.62079669 175.18697422 -46.4375 173.0625 C-49.15619248 169.8896408 -52.02751675 166.93661618 -55 164 C-58.62700155 160.41146665 -62.09680427 156.76413487 -65.39453125 152.87109375 C-66.48219937 151.60347081 -67.60653254 150.36657023 -68.76171875 149.16015625 C-71.4817362 146.26260853 -72.88257239 144.76327949 -73.5 140.75 C-73 138 -73 138 -71 135 C-68.48109961 134.30410544 -66.12828642 133.79076333 -63.5625 133.375 C-62.84835938 133.25020264 -62.13421875 133.12540527 -61.3984375 132.99682617 C-55.62176894 132.02000396 -49.8449792 131.39363157 -44 131 C-44.28190186 130.11908691 -44.56380371 129.23817383 -44.85424805 128.33056641 C-48.41935697 117.10233576 -51.71265674 105.80115128 -54.93139648 94.46923828 C-55.52418691 92.38749102 -56.12060699 90.30677426 -56.72045898 88.22705078 C-57.5986763 85.18215234 -58.46653198 82.13447199 -59.33203125 79.0859375 C-59.60070511 78.16090424 -59.86937897 77.23587097 -60.14619446 76.2828064 C-62.55812435 67.69879751 -62.55812435 67.69879751 -62 63 C-59.875 60.5625 -59.875 60.5625 -57 59 C-52.61111341 59.35360876 -49.48209236 60.57093822 -45.69921875 62.765625 C-44.72146484 63.32636719 -43.74371094 63.88710937 -42.73632812 64.46484375 C-41.73021484 65.05394531 -40.72410156 65.64304687 -39.6875 66.25 C-37.69153699 67.40126836 -35.69544495 68.55231305 -33.69921875 69.703125 C-32.74321777 70.25806641 -31.7872168 70.81300781 -30.80224609 71.38476562 C-26.89426458 73.63735368 -22.95266513 75.82699431 -19 78 C-17.21735633 66.73032915 -15.64822878 55.4489875 -14.28125 44.12109375 C-14.13558594 42.9251358 -13.98992188 41.72917786 -13.83984375 40.49697876 C-13.23668605 35.54089243 -12.63478379 30.58477906 -12.05224609 25.6262207 C-11.61943617 21.95632365 -11.17053224 18.28869676 -10.71875 14.62109375 C-10.52641785 12.93384438 -10.52641785 12.93384438 -10.3302002 11.21250916 C-10.1348468 9.65796776 -10.1348468 9.65796776 -9.93554688 8.07202148 C-9.77258118 6.70689674 -9.77258118 6.70689674 -9.60632324 5.31419373 C-8.22463335 0.04060722 -5.10911389 -0.72987341 0 0 Z " fill="#35373A" transform="translate(73,39)"/>
<path d="M0 0 C3.13468664 1.38418369 5.19065346 2.97254778 7.5559082 5.43994141 C8.23373856 6.14051666 8.91156891 6.84109192 9.60993958 7.56289673 C10.33291733 8.31815643 11.05589508 9.07341614 11.80078125 9.8515625 C13.350159 11.44083808 14.90031338 13.02935684 16.45117188 14.6171875 C18.88837511 17.12250751 21.31979581 19.63261379 23.73803711 22.15625 C26.076471 24.59147455 28.43644987 27.00400962 30.80078125 29.4140625 C31.87613884 30.55302475 31.87613884 30.55302475 32.97322083 31.71499634 C37.1018696 35.90462755 37.1018696 35.90462755 42.609375 37.64038086 C46.23636646 36.95535792 49.1172516 35.92660239 52.44921875 34.33984375 C53.62677734 33.79392578 54.80433594 33.24800781 56.01757812 32.68554688 C57.24154072 32.10424236 58.46484277 31.52154511 59.6875 30.9375 C62.10224598 29.78703221 64.52272481 28.65331156 66.94921875 27.52734375 C68.01487061 27.01937256 69.08052246 26.51140137 70.1784668 25.98803711 C73.20667431 24.92762733 74.09718111 24.84478378 77 26 C78.52831821 28.67071881 79.77336833 31.20695405 80.984375 34.01953125 C81.35719101 34.85368561 81.73000702 35.68783997 82.11412048 36.54727173 C82.91880137 38.35320789 83.71662931 40.16220959 84.50839233 41.97384644 C85.75480232 44.82347942 87.02093336 47.66359181 88.29223633 50.50219727 C92.0892331 59.0045755 95.82148662 67.53182519 99.43753052 76.11280823 C100.84205746 79.44108202 102.26502605 82.76133168 103.68884277 86.08139038 C104.67173881 88.40031499 105.62168794 90.73100625 106.57128906 93.0637207 C107.17489568 94.47933457 107.77995627 95.89432968 108.38671875 97.30859375 C108.75929054 98.26664413 108.75929054 98.26664413 109.13938904 99.24404907 C110.28404474 101.83491232 111.36336564 103.66367875 113.90113831 105.0043335 C116.00651301 105.80524121 116.00651301 105.80524121 118.0836792 106.37528992 C121.13736309 107.37077414 123.19555502 109.25739732 125.5625 111.375 C126.43003906 112.12523437 127.29757812 112.87546875 128.19140625 113.6484375 C130 116 130 116 129.7824707 118.17944336 C128.80850641 121.69027316 127.58316084 125.07844817 126.2890625 128.48046875 C126.00921509 129.22524979 125.72936768 129.97003082 125.44104004 130.73738098 C124.50615131 133.22220093 123.56562568 135.70484665 122.625 138.1875 C121.96050516 139.94976816 121.2962862 141.71214038 120.63232422 143.47460938 C114.3849481 160.04177027 108.09034407 176.59128726 101.78759766 193.13745117 C101.22110756 194.62764015 101.22110756 194.62764015 100.64317322 196.14793396 C99.89107214 198.1200425 99.13442342 200.09042318 98.37306213 202.05897522 C96.38377631 207.22719701 94.51281932 212.40786166 92.7824707 217.66894531 C92.40955902 218.76239258 92.03664734 219.85583984 91.6524353 220.98242188 C90.94404509 223.06820346 90.26454702 225.16411428 89.62002563 227.27050781 C87.7641912 232.63382983 86.236352 235.42151834 81.03564453 237.96948242 C77.51969359 239.31643317 74.03286644 240.43449041 70.30859375 241.03515625 C67.17197033 241.5946141 64.14381775 242.18474387 61.09765625 243.12109375 C40.81845718 249.13219185 19.64206525 250.37784787 -1.375 250.375 C-2.24164276 250.37681274 -3.10828552 250.37862549 -4.00119019 250.38049316 C-23.57702616 250.37584911 -42.11377285 247.21664143 -61.125 242.625 C-61.91156982 242.44026123 -62.69813965 242.25552246 -63.50854492 242.06518555 C-65.12470804 241.66451004 -66.73149467 241.22443254 -68.32763672 240.75024414 C-71.06541284 239.92941615 -71.06541284 239.92941615 -74.20751953 239.46655273 C-78.79303439 238.3694967 -82.51763435 237.1896848 -85.26776123 233.12731934 C-88.44089257 226.97881843 -90.46916187 220.36705549 -92.625 213.8125 C-93.36998695 211.67307242 -94.12049614 209.53556063 -94.8762207 207.39990234 C-96.46079121 202.9126672 -98.02339751 198.41860345 -99.57373047 193.91943359 C-103.14316569 183.64490778 -107.05387149 173.4999984 -110.9520874 163.34677124 C-112.1550287 160.20968028 -113.35071289 157.06993565 -114.54345703 153.92895508 C-114.91919861 152.94016861 -115.29494019 151.95138214 -115.68206787 150.93263245 C-116.41252803 149.00945056 -117.14224531 147.08598633 -117.87115479 145.16221619 C-119.58365719 140.65686414 -121.3255804 136.1678661 -123.13916016 131.70214844 C-123.47264969 130.87327118 -123.80613922 130.04439392 -124.1497345 129.19039917 C-124.77287098 127.64753269 -125.4050089 126.10825804 -126.04789734 124.57351685 C-127.51377541 120.93081592 -128.35101303 118.72449735 -127 115 C-124.9609375 112.7109375 -124.9609375 112.7109375 -122.375 110.375 C-121.11816406 109.21097656 -121.11816406 109.21097656 -119.8359375 108.0234375 C-117 106 -117 106 -113.58300781 105.36889648 C-109.24240478 103.71055898 -108.62224075 102.48077604 -106.79460144 98.4155426 C-106.47824234 97.64290573 -106.16188324 96.87026886 -105.8359375 96.07421875 C-105.48126907 95.26713974 -105.12660065 94.46006073 -104.76118469 93.62852478 C-103.60851553 90.99118891 -102.49208899 88.34007674 -101.375 85.6875 C-100.58566463 83.86590658 -99.79373499 82.04543521 -98.99926758 80.22607422 C-97.40330793 76.56349593 -95.82004185 72.89586157 -94.24755859 69.22314453 C-91.40455885 62.59503484 -88.4630301 56.01249377 -85.50152588 49.43667603 C-84.71254007 47.68072857 -83.93013475 45.92182896 -83.14794922 44.1628418 C-80.26053856 37.68782097 -77.23414195 31.30927119 -74 25 C-70.08687117 25.627224 -66.87494057 26.83106839 -63.2890625 28.50390625 C-61.66871094 29.24350586 -61.66871094 29.24350586 -60.015625 29.99804688 C-57.76015503 31.03873319 -55.50752119 32.08558898 -53.2578125 33.13867188 C-51.63359375 33.87633789 -51.63359375 33.87633789 -49.9765625 34.62890625 C-48.99768066 35.08338135 -48.01879883 35.53785645 -47.01025391 36.00610352 C-43.18056453 37.27055327 -41.01647434 37.71481663 -37 37 C-33.70420507 34.66304053 -31.00712871 31.82083121 -28.22265625 28.90625 C-27.41130722 28.08499634 -26.59995819 27.26374268 -25.76402283 26.41760254 C-23.17994594 23.79438547 -20.62128024 21.14787526 -18.0625 18.5 C-16.31347031 16.71585703 -14.5628369 14.9332847 -12.81054688 13.15234375 C-8.52159855 8.78627425 -4.25325524 4.40083248 0 0 Z " fill="#E19B37" transform="translate(255,60)"/>
<path d="M0 0 C3.13468664 1.38418369 5.19065346 2.97254778 7.5559082 5.43994141 C8.23373856 6.14051666 8.91156891 6.84109192 9.60993958 7.56289673 C10.33291733 8.31815643 11.05589508 9.07341614 11.80078125 9.8515625 C13.350159 11.44083808 14.90031338 13.02935684 16.45117188 14.6171875 C18.88837511 17.12250751 21.31979581 19.63261379 23.73803711 22.15625 C26.076471 24.59147455 28.43644987 27.00400962 30.80078125 29.4140625 C31.87613884 30.55302475 31.87613884 30.55302475 32.97322083 31.71499634 C37.1018696 35.90462755 37.1018696 35.90462755 42.609375 37.64038086 C46.23636646 36.95535792 49.1172516 35.92660239 52.44921875 34.33984375 C53.62677734 33.79392578 54.80433594 33.24800781 56.01757812 32.68554688 C57.24154072 32.10424236 58.46484277 31.52154511 59.6875 30.9375 C62.10224598 29.78703221 64.52272481 28.65331156 66.94921875 27.52734375 C68.01487061 27.01937256 69.08052246 26.51140137 70.1784668 25.98803711 C73.20667431 24.92762733 74.09718111 24.84478378 77 26 C78.52831821 28.67071881 79.77336833 31.20695405 80.984375 34.01953125 C81.35719101 34.85368561 81.73000702 35.68783997 82.11412048 36.54727173 C82.91880137 38.35320789 83.71662931 40.16220959 84.50839233 41.97384644 C85.75480232 44.82347942 87.02093336 47.66359181 88.29223633 50.50219727 C92.0892331 59.0045755 95.82148662 67.53182519 99.43753052 76.11280823 C100.84205746 79.44108202 102.26502605 82.76133168 103.68884277 86.08139038 C104.67173881 88.40031499 105.62168794 90.73100625 106.57128906 93.0637207 C107.17489568 94.47933457 107.77995627 95.89432968 108.38671875 97.30859375 C108.75929054 98.26664413 108.75929054 98.26664413 109.13938904 99.24404907 C110.28404474 101.83491232 111.36336564 103.66367875 113.90113831 105.0043335 C116.00651301 105.80524121 116.00651301 105.80524121 118.0836792 106.37528992 C121.13736309 107.37077414 123.19555502 109.25739732 125.5625 111.375 C126.43003906 112.12523437 127.29757812 112.87546875 128.19140625 113.6484375 C130 116 130 116 129.875 118.51953125 C129.58625 119.33808594 129.2975 120.15664062 129 121 C128.62681641 122.10794922 128.62681641 122.10794922 128.24609375 123.23828125 C127.49739583 125.15885417 126.74869792 127.07942708 126 129 C121.41363624 128.39607042 117.77195485 126.46018427 113.75 124.3125 C105.44254737 119.99856411 96.88357566 116.90255443 88 114 C88.33 113.01 88.66 112.02 89 111 C88.20773755 108.44232828 88.20773755 108.44232828 86.91015625 105.67578125 C86.45576172 104.64775391 86.00136719 103.61972656 85.53320312 102.56054688 C85.04787109 101.48869141 84.56253906 100.41683594 84.0625 99.3125 C83.58103516 98.22904297 83.09957031 97.14558594 82.60351562 96.02929688 C81.41091362 93.34889435 80.20946012 90.67282782 79 88 C69.9282145 90.7340951 61.63456738 94.87041533 53.15429688 99.05664062 C52.03474609 99.59095703 50.91519531 100.12527344 49.76171875 100.67578125 C48.75069092 101.16989502 47.73966309 101.66400879 46.69799805 102.1730957 C44 103 44 103 42.07777405 102.28388977 C39.73737742 100.83772132 37.99697526 99.23695509 36.05761719 97.28466797 C35.29713074 96.52403046 34.53664429 95.76339294 33.75311279 94.97970581 C32.94255432 94.15882477 32.13199585 93.33794373 31.296875 92.4921875 C30.04019012 91.23125778 30.04019012 91.23125778 28.75811768 89.94485474 C26.08401569 87.25955999 23.41695276 84.56739345 20.75 81.875 C18.93795938 80.05292845 17.12546482 78.23130823 15.3125 76.41015625 C10.86971964 71.94532748 6.43269835 67.47483717 2 63 C-1.27196452 64.43258772 -3.43203956 66.18825316 -5.94238281 68.71533203 C-6.70286926 69.47596954 -7.46335571 70.23660706 -8.24688721 71.02029419 C-9.05744568 71.84117523 -9.86800415 72.66205627 -10.703125 73.5078125 C-11.95980988 74.76874222 -11.95980988 74.76874222 -13.24188232 76.05514526 C-15.91598431 78.74044001 -18.58304724 81.43260655 -21.25 84.125 C-23.06204062 85.94707155 -24.87453518 87.76869177 -26.6875 89.58984375 C-31.13028036 94.05467252 -35.56730165 98.52516283 -40 103 C-44.44210507 101.60055976 -48.62335376 99.8935566 -52.859375 97.9609375 C-54.152332 97.37497407 -55.44530109 96.78903733 -56.73828125 96.203125 C-58.75554373 95.28461626 -60.77222725 94.36485266 -62.78857422 93.44433594 C-64.74828134 92.55093308 -66.70997151 91.66200428 -68.671875 90.7734375 C-69.8381543 90.24153809 -71.00443359 89.70963867 -72.20605469 89.16162109 C-74.80349011 87.87203172 -74.80349011 87.87203172 -77 88 C-78.70319067 91.76394006 -80.38480877 95.53713325 -82.0625 99.3125 C-82.54783203 100.38435547 -83.03316406 101.45621094 -83.53320312 102.56054688 C-83.98759766 103.58857422 -84.44199219 104.61660156 -84.91015625 105.67578125 C-85.33433838 106.62364502 -85.75852051 107.57150879 -86.19555664 108.5480957 C-87.30030538 111.09276989 -87.30030538 111.09276989 -86 114 C-87.02996094 114.3403125 -88.05992187 114.680625 -89.12109375 115.03125 C-97.84466481 117.97836051 -106.1983046 121.3049956 -114.46459961 125.37109375 C-117.62600834 126.92109557 -120.5652954 128.23280765 -124 129 C-124.70133599 127.42274653 -125.385583 125.83788667 -126.0625 124.25 C-126.44535156 123.36828125 -126.82820312 122.4865625 -127.22265625 121.578125 C-128.08696134 118.71158552 -128.25084939 117.69496307 -127 115 C-124.9609375 112.7109375 -124.9609375 112.7109375 -122.375 110.375 C-121.11816406 109.21097656 -121.11816406 109.21097656 -119.8359375 108.0234375 C-117 106 -117 106 -113.58300781 105.36889648 C-109.24240478 103.71055898 -108.62224075 102.48077604 -106.79460144 98.4155426 C-106.47824234 97.64290573 -106.16188324 96.87026886 -105.8359375 96.07421875 C-105.48126907 95.26713974 -105.12660065 94.46006073 -104.76118469 93.62852478 C-103.60851553 90.99118891 -102.49208899 88.34007674 -101.375 85.6875 C-100.58566463 83.86590658 -99.79373499 82.04543521 -98.99926758 80.22607422 C-97.40330793 76.56349593 -95.82004185 72.89586157 -94.24755859 69.22314453 C-91.40455885 62.59503484 -88.4630301 56.01249377 -85.50152588 49.43667603 C-84.71254007 47.68072857 -83.93013475 45.92182896 -83.14794922 44.1628418 C-80.26053856 37.68782097 -77.23414195 31.30927119 -74 25 C-70.08687117 25.627224 -66.87494057 26.83106839 -63.2890625 28.50390625 C-61.66871094 29.24350586 -61.66871094 29.24350586 -60.015625 29.99804688 C-57.76015503 31.03873319 -55.50752119 32.08558898 -53.2578125 33.13867188 C-51.63359375 33.87633789 -51.63359375 33.87633789 -49.9765625 34.62890625 C-48.99768066 35.08338135 -48.01879883 35.53785645 -47.01025391 36.00610352 C-43.18056453 37.27055327 -41.01647434 37.71481663 -37 37 C-33.70420507 34.66304053 -31.00712871 31.82083121 -28.22265625 28.90625 C-27.41130722 28.08499634 -26.59995819 27.26374268 -25.76402283 26.41760254 C-23.17994594 23.79438547 -20.62128024 21.14787526 -18.0625 18.5 C-16.31347031 16.71585703 -14.5628369 14.9332847 -12.81054688 13.15234375 C-8.52159855 8.78627425 -4.25325524 4.40083248 0 0 Z " fill="#F8CA57" transform="translate(255,60)"/>
<path d="M0 0 C3.42526765 3.83247645 4.82835495 8.38421544 6.5625 13.1328125 C6.90565247 14.05539856 7.24880493 14.97798462 7.60235596 15.92852783 C8.34782274 17.93475392 9.09031772 19.94208617 9.8302002 21.95037842 C11.43147979 26.29595682 13.04754676 30.63598737 14.66290283 34.97634888 C15.50893546 37.24975139 16.35426149 39.52341697 17.19891357 41.79733276 C21.49094956 53.34549931 25.86424744 64.8621688 30.25 76.375 C31.43577627 79.49043725 32.62127465 82.60598016 33.8067627 85.7215271 C34.61550297 87.84691011 35.42434155 89.97225572 36.23327637 92.0975647 C40.69942828 103.83320202 45.15121698 115.57428101 49.60293579 127.31539917 C56.83828167 146.39781589 64.07737752 165.47880572 71.32543945 184.55639648 C72.13770439 186.69438295 72.94988168 188.83240272 73.76196289 190.97045898 C74.52348184 192.97530682 75.28514453 194.98010007 76.04696655 196.98483276 C76.75420095 198.84596857 77.46110383 200.70723041 78.16763306 202.56863403 C79.64154144 206.44779565 81.12138364 210.32405908 82.63232422 214.18896484 C83.09268066 215.36797363 83.55303711 216.54698242 84.02734375 217.76171875 C84.415271 218.74487061 84.80319824 219.72802246 85.20288086 220.7409668 C86 223 86 223 86 225 C85.10539063 225.14695312 84.21078125 225.29390625 83.2890625 225.4453125 C75.91043063 226.81405658 70.18625813 228.51167716 63.98828125 232.79296875 C62 234 62 234 59 234 C56.9696461 232.21898781 55.11510427 230.44139611 53.25 228.5 C52.44103271 227.67459717 52.44103271 227.67459717 51.61572266 226.83251953 C48.20373612 223.32612615 44.94353019 219.71897939 41.7734375 215.9921875 C38.80428153 212.65679203 35.58181657 209.57480673 32.40625 206.4375 C29.75040247 203.74716094 27.29864568 200.93426475 24.84375 198.0625 C21.84649772 194.70964151 18.60840366 191.60106244 15.41015625 188.44140625 C12.73145468 185.72797273 10.25391882 182.89222977 7.77734375 179.99609375 C5.76731223 177.73867374 3.65167047 175.62264287 1.5 173.5 C-1.26560408 170.77170593 -3.91287031 168.01483166 -6.4375 165.0625 C-9.15619248 161.8896408 -12.02751675 158.93661618 -15 156 C-18.58558699 152.45767801 -21.94891662 148.82444339 -25.22265625 144.99609375 C-27.23268777 142.73867374 -29.34832953 140.62264287 -31.5 138.5 C-34.87854439 135.16703462 -38.01866446 131.72504141 -41.09765625 128.1171875 C-44.21791587 124.64453717 -47.59803296 121.43512538 -50.9609375 118.19921875 C-53 116 -53 116 -54 113 C-52.48940317 111.48940317 -50.94817314 111.60907366 -48.8515625 111.31640625 C-47.59085938 111.13174805 -47.59085938 111.13174805 -46.3046875 110.94335938 C-44.52642906 110.69061856 -42.74778253 110.44059257 -40.96875 110.19335938 C-40.12570313 110.06896484 -39.28265625 109.94457031 -38.4140625 109.81640625 C-37.6401416 109.70756104 -36.8662207 109.59871582 -36.06884766 109.48657227 C-33.70976103 109.05890589 -33.70976103 109.05890589 -31 107 C-30.33480387 101.20540262 -31.85615883 96.42480798 -33.625 91 C-36.02321669 83.33638457 -38.22734058 75.64647039 -40.25 67.875 C-40.49572754 66.94042969 -40.74145508 66.00585938 -40.99462891 65.04296875 C-42.54143759 59.06467578 -43.85439658 53.06775911 -45 47 C-40.84798372 48.26342535 -37.31587056 49.8150485 -33.59375 52.0390625 C-32.60246094 52.61914062 -31.61117187 53.19921875 -30.58984375 53.796875 C-28.52651601 55.01765551 -26.46661548 56.24424686 -24.41015625 57.4765625 C-23.41886719 58.0540625 -22.42757812 58.6315625 -21.40625 59.2265625 C-20.06530273 60.02441162 -20.06530273 60.02441162 -18.69726562 60.83837891 C-15.55676486 62.19088639 -13.38656812 62.36250755 -10 62 C-7.26123485 59.26123485 -7.28742144 56.46129945 -6.81640625 52.7734375 C-6.66614487 51.67508072 -6.66614487 51.67508072 -6.5128479 50.55453491 C-6.18781858 48.1623859 -5.87498675 45.76881694 -5.5625 43.375 C-5.34282891 41.73852273 -5.12253054 40.10212955 -4.90161133 38.46582031 C-3.18104841 25.65525471 -1.54176378 12.83331149 0 0 Z " fill="#FEE88D" transform="translate(73,71)"/>
<path d="M0 0 C0.33 0 0.66 0 1 0 C1.40655136 3.04913523 1.81303525 6.09827928 2.21923828 9.14746094 C2.57552937 11.82018408 2.93345324 14.49268216 3.29248047 17.16503906 C4.15573743 23.60058977 5.01052534 30.0366716 5.81921387 36.4793396 C6.16615705 39.23984028 6.51919583 41.99954665 6.87268066 44.75921631 C7.12256933 46.73082219 7.36357523 48.70354727 7.60449219 50.67626953 C7.75821289 51.87106934 7.91193359 53.06586914 8.0703125 54.296875 C8.20195801 55.35229492 8.33360352 56.40771484 8.46923828 57.49511719 C8.79595926 60.15940805 8.79595926 60.15940805 11 62 C16.09308102 62.61723248 19.05064965 61.2458444 23.421875 58.71875 C24.00793518 58.38580933 24.59399536 58.05286865 25.19781494 57.70983887 C27.05569028 56.65182612 28.90304729 55.57694738 30.75 54.5 C32.61280586 53.4261359 34.477601 52.35596215 36.34503174 51.29016113 C38.03068333 50.32624856 39.71032581 49.35185016 41.38964844 48.37695312 C44 47 44 47 46 47 C44.64973193 54.18346534 42.98873832 61.2459242 41.125 68.3125 C40.86106445 69.31925781 40.59712891 70.32601562 40.32519531 71.36328125 C38.21349382 79.34710759 35.89793401 87.24149569 33.3125 95.0859375 C32.03639874 99.14464845 31.66692318 102.75327049 32 107 C34.37653908 109.37653908 35.53235891 109.48175161 38.7890625 110.0703125 C39.73007812 110.24433594 40.67109375 110.41835937 41.640625 110.59765625 C42.62546875 110.77167969 43.6103125 110.94570312 44.625 111.125 C45.61757813 111.30675781 46.61015625 111.48851562 47.6328125 111.67578125 C50.08735687 112.12420763 52.54299494 112.56529424 55 113 C52.51256218 117.78561407 49.08015114 121.11077305 45.25 124.8125 C40.85996862 129.12201112 36.61376766 133.44620395 32.63671875 138.14453125 C29.96705865 141.17099557 27.05539322 143.95209943 24.18359375 146.78515625 C22.22025329 148.77659461 20.37920331 150.81302578 18.5625 152.9375 C15.0553056 157.03058303 11.24274842 160.77224704 7.41015625 164.55859375 C4.73145468 167.27202727 2.25391882 170.10777023 -0.22265625 173.00390625 C-2.95099285 176.06803813 -5.89667908 178.90481832 -8.81640625 181.78515625 C-10.77974671 183.77659461 -12.62079669 185.81302578 -14.4375 187.9375 C-17.15619248 191.1103592 -20.02751675 194.06338382 -23 197 C-25.95183025 199.91626603 -28.80388859 202.84605835 -31.5 206 C-34.9809341 210.07203611 -38.77292135 213.78777253 -42.58203125 217.55078125 C-45.29675469 220.30058997 -47.81767727 223.17063581 -50.328125 226.10546875 C-53.07253502 229.21537263 -56.02793506 232.10923774 -59 235 C-59.94359375 234.40251953 -59.94359375 234.40251953 -60.90625 233.79296875 C-68.91884789 228.83336373 -75.5974608 225.83951243 -85 225 C-82.67206453 216.31558696 -79.4234237 207.99731617 -76.19622803 199.61914062 C-74.78183826 195.94670801 -73.37580885 192.27108952 -71.96911621 188.59570312 C-71.20103433 186.58904284 -70.43255091 184.58253621 -69.66369629 182.57617188 C-65.33562494 171.27840865 -61.04694988 159.96575464 -56.75933838 148.65258789 C-55.36192724 144.96550742 -53.96399992 141.27862304 -52.56591797 137.59179688 C-50.66373803 132.57558213 -48.7617102 127.55930977 -46.85986328 122.54296875 C-39.91962801 104.23745894 -32.97730557 85.93274097 -26.0322113 67.6290741 C-23.30728585 60.44719257 -20.58407914 53.26466195 -17.86201477 46.08169556 C-16.09817257 41.42813677 -14.33309364 36.77504775 -12.56771851 32.12207031 C-11.74005716 29.93981806 -10.91291709 27.75736802 -10.08633423 25.57470703 C-8.95086815 22.57662106 -7.81354462 19.57924602 -6.67578125 16.58203125 C-6.18047913 15.2721801 -6.18047913 15.2721801 -5.6751709 13.93586731 C-3.88976811 9.23897872 -2.01545635 4.60304975 0 0 Z " fill="#FEE88D" transform="translate(438,71)"/>
<path d="M0 0 C4.0635441 3.37932452 7.88441699 6.76458338 11.375 10.75 C12.13683594 11.61109375 12.89867188 12.4721875 13.68359375 13.359375 C14.44800781 14.23078125 15.21242188 15.1021875 16 16 C26.0030776 27.32158519 36.26087755 38.35845955 48.8125 46.91796875 C55.11474558 51.36068547 56.9375887 54.4888478 58.31640625 62.0390625 C60.45698278 71.31081685 68.11581233 77.54533067 75.5625 82.8125 C83.87833554 86.8638045 95.07202953 87.94978339 103.9453125 85.03125 C105.56338312 84.28054639 107.1806217 83.52804583 108.796875 82.7734375 C112.83898173 81.35440003 116.05933997 82.73294412 120 84 C121.98828949 84.54130893 123.98169611 85.06074555 125.97583008 85.58007812 C128.98928871 86.36702555 131.99423632 87.18420643 135 88 C130.39201045 91.83555199 125.4679103 95.04489658 120.43945312 98.2890625 C115.23003294 101.59754377 115.23003294 101.59754377 111 106 C111.35347913 109.87465514 112.42637944 111.95949292 115.04125977 114.78735352 C115.9911528 115.82014938 115.9911528 115.82014938 116.9602356 116.87380981 C120.37369496 120.43189906 123.83343796 123.93582722 127.33984375 127.40234375 C128.10680069 128.16551407 128.87375763 128.92868439 129.66395569 129.71498108 C132.08603626 132.12495178 134.51135821 134.53161826 136.9375 136.9375 C140.15777337 140.13128723 143.37479001 143.32830321 146.58984375 146.52734375 C147.70527809 147.63033058 147.70527809 147.63033058 148.84324646 148.75559998 C149.52137894 149.43042923 150.19951141 150.10525848 150.89819336 150.80053711 C151.49885117 151.3959581 152.09950897 151.99137909 152.71836853 152.60484314 C154 154 154 154 154 155 C138.9257601 154.02746839 124.23449539 149.88493973 110 145 C109.34290039 144.77586426 108.68580078 144.55172852 108.00878906 144.32080078 C81.91959998 135.29972198 58.9407181 121.04785012 39 102 C37.68322266 100.7625 37.68322266 100.7625 36.33984375 99.5 C30.12925622 93.51019069 24.94122747 87.06549349 20 80 C19.07380859 78.69095703 19.07380859 78.69095703 18.12890625 77.35546875 C10.26422987 65.67230808 5.32372211 52.62568541 2 39 C1.82049805 38.38503662 1.64099609 37.77007324 1.45605469 37.13647461 C-0.53820677 29.66678717 -0.22099835 22.10197232 -0.125 14.4375 C-0.11494735 13.03320953 -0.10582555 11.62891207 -0.09765625 10.22460938 C-0.07423093 6.81622515 -0.04142746 3.408205 0 0 Z " fill="#FDE78C" transform="translate(66,285)"/>
<path d="M0 0 C0.33 0 0.66 0 1 0 C1.83517114 32.68410115 1.83517114 32.68410115 -3 47 C-3.37382812 48.12664062 -3.74765625 49.25328125 -4.1328125 50.4140625 C-8.46922655 62.44689353 -14.19133365 73.85202854 -22 84 C-22.63164062 84.8353125 -23.26328125 85.670625 -23.9140625 86.53125 C-37.2440373 103.50574974 -53.22792578 117.35102491 -72 128 C-72.67740234 128.38655762 -73.35480469 128.77311523 -74.05273438 129.17138672 C-94.2999433 140.59556167 -115.31012998 148.07746592 -138 153 C-138.90540527 153.19867676 -139.81081055 153.39735352 -140.74365234 153.60205078 C-141.61586426 153.78622559 -142.48807617 153.97040039 -143.38671875 154.16015625 C-144.54046997 154.40390991 -144.54046997 154.40390991 -145.7175293 154.65258789 C-148.17632684 155.02683849 -150.51662507 155.05893869 -153 155 C-148.52822591 149.63702888 -143.79210132 144.67304431 -138.828125 139.765625 C-137.68268219 138.62586212 -137.68268219 138.62586212 -136.51409912 137.46307373 C-134.09515591 135.05626269 -131.67298921 132.65273736 -129.25 130.25 C-126.04401066 127.07057439 -122.84132529 123.88787397 -119.640625 120.703125 C-118.90418762 119.97498596 -118.16775024 119.24684692 -117.40899658 118.49664307 C-116.38718292 117.47978424 -116.38718292 117.47978424 -115.34472656 116.44238281 C-114.74549377 115.84838684 -114.14626099 115.25439087 -113.52886963 114.64239502 C-111.11912396 112.05371499 -109.98784881 110.65747224 -110.05444336 107.05419922 C-111.26877821 103.13183182 -112.67774864 102.28271396 -116.12890625 100.1328125 C-117.16337891 99.47539062 -118.19785156 98.81796875 -119.26367188 98.140625 C-120.35228516 97.47546875 -121.44089844 96.8103125 -122.5625 96.125 C-123.65498047 95.43664062 -124.74746094 94.74828125 -125.87304688 94.0390625 C-128.57182734 92.34201278 -131.28044634 90.66348092 -134 89 C-131.32107971 86.32107971 -128.37843412 85.84362625 -124.8125 84.9375 C-124.16474609 84.76412109 -123.51699219 84.59074219 -122.84960938 84.41210938 C-111.46821752 81.44453368 -111.46821752 81.44453368 -107.9453125 82.77734375 C-107.34460938 83.16019531 -106.74390625 83.54304688 -106.125 83.9375 C-98.41064452 87.70896268 -88.69652147 87.18992584 -80.515625 85.1171875 C-70.63701088 81.33122117 -62.59406869 74.65507552 -58 65 C-57.67562447 63.08859709 -57.38570574 61.17112287 -57.125 59.25 C-55.28115006 50.60146575 -47.80427153 46.58814575 -41.09814453 41.61132812 C-37.91739691 39.16858501 -34.98378437 36.49397084 -32.0625 33.75 C-31.53269531 33.2540332 -31.00289063 32.75806641 -30.45703125 32.24707031 C-23.96417716 26.12535298 -17.65325157 19.89821075 -11.8359375 13.125 C-3.64864865 3.64864865 -3.64864865 3.64864865 0 0 Z " fill="#FDE78C" transform="translate(445,285)"/>
<path d="M0 0 C3.49233993 1.4999504 6.57953973 3.4798912 9.71679688 5.59912109 C10.76722168 6.29460304 10.76722168 6.29460304 11.83886719 7.00413513 C14.12211887 8.51810339 16.39788535 10.04294268 18.67382812 11.56787109 C20.24333614 12.61111369 21.8134087 13.65350742 23.3840332 14.69506836 C26.5582233 16.80077976 29.73007919 18.90993852 32.90039062 21.02148438 C38.90250704 25.01445242 44.93579725 28.95929206 50.97427368 32.89697266 C53.66042622 34.64880078 56.34469531 36.40351121 59.02929688 38.15771484 C60.51493139 39.12783211 62.00059001 40.09791248 63.48632812 41.06787109 C61.84888878 45.24402909 58.7885102 48.03268639 55.65966797 51.12158203 C55.06440811 51.71713394 54.46914825 52.31268585 53.85585022 52.92628479 C51.89102636 54.88971752 49.91921774 56.84597482 47.94726562 58.80224609 C46.58205333 60.16372749 45.21728251 61.5256517 43.85293579 62.88800049 C40.26359654 66.46970933 36.66829133 70.04537099 33.07171631 73.61981201 C29.40161493 77.2694423 25.73717984 80.92475201 22.07226562 84.57958984 C14.8824916 91.74792439 7.68640297 98.90988409 0.48632812 106.06787109 C-3.67900556 104.42958072 -6.47526102 101.38758544 -9.56738281 98.27294922 C-10.16293472 97.68090195 -10.75848663 97.08885468 -11.37208557 96.47886658 C-13.33579522 94.52394756 -15.29211321 92.56181788 -17.24804688 90.59912109 C-18.60967232 89.2388427 -19.97159456 87.87886134 -21.33380127 86.51916504 C-24.18494685 83.6709668 -27.03244607 80.81918494 -29.87744141 77.96484375 C-33.53164859 74.29922067 -37.19478902 70.64267716 -40.86068344 66.98874664 C-43.67288369 64.18375697 -46.48032324 61.37404158 -49.28632355 58.56285095 C-50.63571435 57.21212256 -51.98660183 55.86288771 -53.33898163 54.51515198 C-55.22337135 52.63581661 -57.10127191 50.75023287 -58.97753906 48.86279297 C-59.54164993 48.30273056 -60.1057608 47.74266815 -60.68696594 47.16563416 C-64.51367188 43.2964021 -64.51367188 43.2964021 -64.51367188 41.06787109 C-62.69824219 39.66113281 -62.69824219 39.66113281 -60.09179688 37.99755859 C-59.10268311 37.35931152 -58.11356934 36.72106445 -57.09448242 36.06347656 C-55.99531494 35.36367676 -54.89614746 34.66387695 -53.76367188 33.94287109 C-51.39771269 32.42617924 -49.03518896 30.90421075 -46.67382812 29.38037109 C-46.03802322 28.97068085 -45.40221832 28.5609906 -44.74714661 28.1388855 C-39.42571544 24.69440441 -34.18210322 21.14218834 -28.94726562 17.56787109 C-26.50501429 15.90842345 -24.06215506 14.24987342 -21.6192627 12.59136963 C-20.00814909 11.49301617 -18.40046326 10.38961766 -16.79626465 9.28118896 C-14.52740893 7.71472117 -12.24671748 6.16708506 -9.96289062 4.62255859 C-8.94406044 3.90821655 -8.94406044 3.90821655 -7.90464783 3.17944336 C-5.25091451 1.40445898 -3.24223192 0.08754278 0 0 Z " fill="#BF8F9E" transform="translate(256.513671875,351.93212890625)"/>
<path d="M0 0 C0.66306152 0.14099121 1.32612305 0.28198242 2.00927734 0.42724609 C5.12939244 1.08533221 8.2521261 1.73013741 11.375 2.375 C12.4165625 2.59671875 13.458125 2.8184375 14.53125 3.046875 C30.5424789 6.32628333 46.37497424 7.3803117 62.6875 7.3125 C63.55819122 7.31134186 64.42888245 7.31018372 65.32595825 7.30899048 C79.08944809 7.27291793 92.43454173 6.44659274 106 4 C107.65988386 3.72103065 109.32003917 3.44367136 110.98046875 3.16796875 C116.67245826 2.2059998 122.34250469 1.14884004 128 0 C127.71125 0.845625 127.4225 1.69125 127.125 2.5625 C123.10392991 14.84910304 122.05375119 25.5522284 127.7109375 37.51171875 C128.13632812 38.33285156 128.56171875 39.15398437 129 40 C129.38414062 40.76957031 129.76828125 41.53914063 130.1640625 42.33203125 C130.43992187 42.88246094 130.71578125 43.43289063 131 44 C126.03047362 45.4777983 121.04135762 46.79090382 116 48 C114.90171875 48.27714844 113.8034375 48.55429687 112.671875 48.83984375 C103.65468094 50.391798 98.41830011 47.02908866 91.2890625 42.05078125 C90.59973633 41.55787598 89.91041016 41.0649707 89.20019531 40.55712891 C86.05316417 38.32990247 82.83112751 36.22150138 79.61206055 34.1003418 C76.64285662 32.14050575 73.69005643 30.15695484 70.73901367 28.16992188 C67.55419673 25.73705978 67.55419673 25.73705978 63.76171875 25.10546875 C60.08485906 26.29641765 57.03201126 28.22663631 53.8125 30.3125 C53.12849121 30.74747803 52.44448242 31.18245605 51.73974609 31.63061523 C45.35571827 35.71365806 39.05066678 39.91926372 32.76489258 44.15161133 C32.04068115 44.63911865 31.31646973 45.12662598 30.5703125 45.62890625 C29.92852051 46.06275635 29.28672852 46.49660645 28.62548828 46.94360352 C23.38789864 50.34748612 16.95723545 48.90243557 11 48 C6.25074941 46.95960086 1.61885519 45.5092004 -3 44 C-2.57847656 43.09636719 -2.15695313 42.19273437 -1.72265625 41.26171875 C-1.17480469 40.08222656 -0.62695312 38.90273438 -0.0625 37.6875 C0.48277344 36.51574219 1.02804688 35.34398437 1.58984375 34.13671875 C4.92844096 26.71042079 5.24705926 17.27131186 3.36328125 9.30859375 C2.66107267 7.50340389 1.83927324 5.74568833 1 4 C0.64017105 2.67357171 0.30030296 1.34115884 0 0 Z " fill="#95552C" transform="translate(192,314)"/>
<path d="M0 0 C3.42526765 3.83247645 4.82835495 8.38421544 6.5625 13.1328125 C6.90565247 14.05539856 7.24880493 14.97798462 7.60235596 15.92852783 C8.34782274 17.93475392 9.09031772 19.94208617 9.8302002 21.95037842 C11.43147979 26.29595682 13.04754676 30.63598737 14.66290283 34.97634888 C15.50893546 37.24975139 16.35426149 39.52341697 17.19891357 41.79733276 C21.49094956 53.34549931 25.86424744 64.8621688 30.25 76.375 C31.43577627 79.49043725 32.62127465 82.60598016 33.8067627 85.7215271 C34.61550297 87.84691011 35.42434155 89.97225572 36.23327637 92.0975647 C40.69942828 103.83320202 45.15121698 115.57428101 49.60293579 127.31539917 C56.83828167 146.39781589 64.07737752 165.47880572 71.32543945 184.55639648 C72.13770439 186.69438295 72.94988168 188.83240272 73.76196289 190.97045898 C74.52348184 192.97530682 75.28514453 194.98010007 76.04696655 196.98483276 C76.75420095 198.84596857 77.46110383 200.70723041 78.16763306 202.56863403 C79.64154144 206.44779565 81.12138364 210.32405908 82.63232422 214.18896484 C83.09268066 215.36797363 83.55303711 216.54698242 84.02734375 217.76171875 C84.415271 218.74487061 84.80319824 219.72802246 85.20288086 220.7409668 C86 223 86 223 86 225 C79.07 225.99 79.07 225.99 72 227 C63.5919557 205.26501175 55.27819218 183.49595687 47.0625 161.6875 C40.80131334 145.06785201 34.52220916 128.45557361 28.19015503 111.86279297 C23.84380942 100.47301199 19.50952111 89.07871923 15.1875 77.6796875 C14.81138391 76.68775296 14.81138391 76.68775296 14.42766953 75.67577934 C11.91922767 69.06003562 9.41150248 62.44402073 6.90491104 55.82757568 C5.75201712 52.78467422 4.59859815 49.74197176 3.4453125 46.69921875 C2.81520264 45.0350441 2.81520264 45.0350441 2.17236328 43.33724976 C1.78306641 42.31032013 1.39376953 41.2833905 0.99267578 40.2253418 C0.65454865 39.33276169 0.31642151 38.44018158 -0.0319519 37.52055359 C-0.69204115 35.80184732 -1.39049631 34.09750653 -2.12161255 32.40779114 C-3.39279144 28.92330002 -3.03658976 25.62945753 -2.75 22 C-2.6991626 21.25758057 -2.6483252 20.51516113 -2.59594727 19.75024414 C-2.09937545 13.10387623 -1.17532077 6.56125672 0 0 Z " fill="#F5EDCF" transform="translate(73,71)"/>
<path d="M0 0 C0.33 0 0.66 0 1 0 C1.50615271 3.87422208 2.00382721 7.74948817 2.5 11.625 C2.64308594 12.71941406 2.78617187 13.81382813 2.93359375 14.94140625 C3.06894531 16.00488281 3.20429688 17.06835938 3.34375 18.1640625 C3.53227539 19.62513428 3.53227539 19.62513428 3.72460938 21.11572266 C4.40179822 28.20819514 3.19669152 32.92977316 0.6171875 39.484375 C0.25561554 40.42710266 -0.10595642 41.36983032 -0.47848511 42.34112549 C-1.6849465 45.48098316 -2.90514759 48.61532325 -4.125 51.75 C-4.9841772 53.98004361 -5.84222681 56.21052194 -6.69921875 58.44140625 C-8.52137163 63.18307363 -10.34785202 67.9230429 -12.17675781 72.66210938 C-16.3691828 83.54106319 -20.49143509 94.446613 -24.61831665 105.35055542 C-26.93139068 111.46008512 -29.24909428 117.56785801 -31.56640625 123.67578125 C-32.48194569 126.08935088 -33.39747313 128.50292506 -34.31298828 130.91650391 C-34.75974915 132.09424377 -35.20651001 133.27198364 -35.66680908 134.4854126 C-36.54522513 136.80111241 -37.42360333 139.11682658 -38.30194092 141.43255615 C-49.13085424 169.98235466 -60.00613034 198.51327394 -71 227 C-71.94182129 226.84152588 -72.88364258 226.68305176 -73.85400391 226.51977539 C-77.56187674 225.90716781 -81.26929063 225.45025803 -85 225 C-82.67206453 216.31558696 -79.4234237 207.99731617 -76.19622803 199.61914062 C-74.78183826 195.94670801 -73.37580885 192.27108952 -71.96911621 188.59570312 C-71.20103433 186.58904284 -70.43255091 184.58253621 -69.66369629 182.57617188 C-65.33562494 171.27840865 -61.04694988 159.96575464 -56.75933838 148.65258789 C-55.36192724 144.96550742 -53.96399992 141.27862304 -52.56591797 137.59179688 C-50.66373803 132.57558213 -48.7617102 127.55930977 -46.85986328 122.54296875 C-39.91962801 104.23745894 -32.97730557 85.93274097 -26.0322113 67.6290741 C-23.30728585 60.44719257 -20.58407914 53.26466195 -17.86201477 46.08169556 C-16.09817257 41.42813677 -14.33309364 36.77504775 -12.56771851 32.12207031 C-11.74005716 29.93981806 -10.91291709 27.75736802 -10.08633423 25.57470703 C-8.95086815 22.57662106 -7.81354462 19.57924602 -6.67578125 16.58203125 C-6.18047913 15.2721801 -6.18047913 15.2721801 -5.6751709 13.93586731 C-3.88976811 9.23897872 -2.01545635 4.60304975 0 0 Z " fill="#F5EDCF" transform="translate(438,71)"/>
<path d="M0 0 C0.99 0.495 0.99 0.495 2 1 C-12.75936222 19.13293073 -28.54276412 34.39507064 -49 46 C-50.01610352 46.57983643 -50.01610352 46.57983643 -51.05273438 47.17138672 C-71.2999433 58.59556167 -92.31012998 66.07746592 -115 71 C-115.90540527 71.19867676 -116.81081055 71.39735352 -117.74365234 71.60205078 C-118.61586426 71.78622559 -119.48807617 71.97040039 -120.38671875 72.16015625 C-121.54046997 72.40390991 -121.54046997 72.40390991 -122.7175293 72.65258789 C-125.17632684 73.02683849 -127.51662507 73.05893869 -130 73 C-96.84717811 34.10160894 -96.84717811 34.10160894 -75.453125 32.328125 C-74.51017578 32.27849609 -73.56722656 32.22886719 -72.59570312 32.17773438 C-66.54107092 31.76315836 -60.76791597 29.79823263 -55 28 C-54.15791992 27.73880371 -53.31583984 27.47760742 -52.44824219 27.20849609 C-34.0193659 21.38800517 -13.97346589 13.97346589 0 0 Z " fill="#F8F0D0" transform="translate(422,367)"/>
<path d="M0 0 C3.30110481 1.50603399 5.99456647 3.42746561 8.875 5.625 C31.26149211 21.94357451 65.23841685 35.39154425 93.29858398 36.08105469 C98.75027193 37.43453753 101.51501691 40.74799545 105.33984375 44.71875 C106.10680069 45.49182495 106.87375763 46.2648999 107.66395569 47.06140137 C110.10286904 49.52720689 112.51984559 52.01336589 114.9375 54.5 C116.59046597 56.17449192 118.24474884 57.84768497 119.90039062 59.51953125 C122.90738479 62.56866507 125.91280922 65.61914471 128.89819336 68.68945312 C129.49885117 69.30598755 130.09950897 69.92252197 130.71836853 70.55773926 C132 72 132 72 132 73 C116.9257601 72.02746839 102.23449539 67.88493973 88 63 C87.34290039 62.77586426 86.68580078 62.55172852 86.00878906 62.32080078 C59.93015827 53.30337281 36.92045823 39.05786734 17 20 C16.09894531 19.14019531 15.19789062 18.28039062 14.26953125 17.39453125 C9.04054461 12.29211614 4.15018455 7.03288417 0 1 C0 0.67 0 0.34 0 0 Z " fill="#F7EFD0" transform="translate(88,367)"/>
<path d="M0 0 C0 19.47 0 38.94 0 59 C-4.91871018 58.38516123 -9.22370912 57.82023463 -13.94116211 56.64892578 C-15.58712624 56.2431279 -15.58712624 56.2431279 -17.26634216 55.82913208 C-18.42497269 55.53747162 -19.58360321 55.24581116 -20.77734375 54.9453125 C-21.98443497 54.64309784 -23.19152618 54.34088318 -24.43519592 54.0295105 C-26.97317535 53.39164366 -29.51047285 52.75105807 -32.04711914 52.10791016 C-35.30144273 51.28321938 -38.55964915 50.47510518 -41.81903744 49.67070198 C-44.93299677 48.89854858 -48.04234769 48.1082514 -51.15234375 47.3203125 C-52.32514389 47.0327005 -53.49794403 46.7450885 -54.70628357 46.44876099 C-55.78152786 46.17192474 -56.85677216 45.8950885 -57.96459961 45.60986328 C-59.39067787 45.2513176 -59.39067787 45.2513176 -60.8455658 44.88552856 C-61.55652908 44.59330414 -62.26749237 44.30107971 -63 44 C-63.495 42.515 -63.495 42.515 -64 41 C-63.1013623 40.41605469 -63.1013623 40.41605469 -62.18457031 39.8203125 C-59.2050054 37.88231149 -56.22725601 35.94154635 -53.25 34 C-52.69175537 33.63617218 -52.13351074 33.27234436 -51.55834961 32.89749146 C-43.78049991 27.8250344 -36.03964411 22.70011571 -28.328125 17.52734375 C-27.10539886 16.70805893 -27.10539886 16.70805893 -25.85797119 15.8722229 C-21.78850798 13.1450869 -17.72243581 10.41310155 -13.66113281 7.67382812 C-12.15963585 6.66647192 -10.65801418 5.65930154 -9.15625 4.65234375 C-8.46154602 4.18126694 -7.76684204 3.71019012 -7.05108643 3.22483826 C-2.22703107 0 -2.22703107 0 0 0 Z " fill="#E3B0C2" transform="translate(256,352)"/>
<path d="M0 0 C4.39109012 1.75643605 7.92960618 3.78458266 11.79296875 6.41015625 C12.44876923 6.85015457 13.1045697 7.29015289 13.78024292 7.7434845 C15.18817642 8.68871496 16.59473199 9.63600052 18.00003052 10.58514404 C21.69440682 13.08022289 25.39863695 15.56060378 29.1015625 18.04296875 C29.84755203 18.54366882 30.59354156 19.0443689 31.36213684 19.5602417 C38.55975744 24.38689116 45.80276571 29.14245321 53.0625 33.875 C53.62633392 34.24279572 54.19016785 34.61059143 54.77108765 34.98953247 C57.84601017 36.99514812 60.92225452 38.99871929 64 41 C62.25 44.875 62.25 44.875 60 46 C58.05939697 46.19420532 58.05939697 46.19420532 56.07958984 46.39233398 C50.48215539 46.96935096 45.16528926 48.31480462 39.7265625 49.72265625 C38.68100189 49.98759384 37.63544128 50.25253143 36.55819702 50.52549744 C33.24566218 51.36551194 29.93521038 52.21337584 26.625 53.0625 C23.29315881 53.91432295 19.96089967 54.76437988 16.62753296 55.61021423 C14.55987951 56.13513279 12.4931306 56.66363 10.42739868 57.19606018 C9.49567841 57.43308151 8.56395813 57.67010284 7.60400391 57.91430664 C6.37564316 58.2295504 6.37564316 58.2295504 5.12246704 58.55116272 C3 59 3 59 0 59 C0 39.53 0 20.06 0 0 Z " fill="#B67F93" transform="translate(256,352)"/>
<path d="M0 0 C-1.35026619 7.18345533 -3.01114773 14.24596068 -4.875 21.3125 C-5.13966064 22.32143311 -5.40432129 23.33036621 -5.67700195 24.36987305 C-7.35736496 30.72012365 -9.11437255 37.02360331 -11.15234375 43.26953125 C-12.03940245 45.99543958 -12.03940245 45.99543958 -12.62890625 48.82421875 C-13.71934839 53.52203553 -14.57595246 56.22608521 -18.75 58.875 C-20.15668564 59.60295334 -21.57352695 60.3116286 -23 61 C-24.27452453 61.76471472 -25.54563288 62.5351654 -26.8125 63.3125 C-30 65 -30 65 -33 65 C-35.23710949 47.02008728 -37.43901847 29.05398374 -39 11 C-38.46375 11.66 -37.9275 12.32 -37.375 13 C-35.16106375 15.23530006 -35.16106375 15.23530006 -32.25292969 15.33007812 C-28.32094748 14.93109584 -25.99408269 13.69358472 -22.578125 11.71875 C-21.69903473 11.21933899 -21.69903473 11.21933899 -20.80218506 10.70983887 C-18.94430972 9.65182612 -17.09695271 8.57694738 -15.25 7.5 C-13.38719414 6.4261359 -11.522399 5.35596215 -9.65496826 4.29016113 C-7.96931667 3.32624856 -6.28967419 2.35185016 -4.61035156 1.37695312 C-2 0 -2 0 0 0 Z " fill="#F7EFD0" transform="translate(484,118)"/>
<path d="M0 0 C4.15201628 1.26342535 7.68412944 2.8150485 11.40625 5.0390625 C12.89318359 5.90917969 12.89318359 5.90917969 14.41015625 6.796875 C16.47348399 8.01765551 18.53338452 9.24424686 20.58984375 10.4765625 C21.58113281 11.0540625 22.57242188 11.6315625 23.59375 12.2265625 C24.48771484 12.75846191 25.38167969 13.29036133 26.30273438 13.83837891 C30.48588907 15.63992218 33.73048108 15.42317297 38 14 C38.27517839 23.00099628 37.20393664 31.72159759 36.0625 40.625 C35.87769506 42.1014925 35.69344672 43.57805477 35.50976562 45.0546875 C35.01299107 49.03728926 34.50648248 53.01862075 34 57 C33.66537845 59.66650759 33.33256008 62.33323417 33 65 C28.7502852 64.39625823 25.59709934 62.92542105 21.875 60.8125 C20.84117188 60.24144531 19.80734375 59.67039063 18.7421875 59.08203125 C13.55589133 55.14428786 12.45379865 49.60082592 11.0625 43.5 C10.72065201 42.06985652 10.37686676 40.64017487 10.03125 39.2109375 C9.85980469 38.5003418 9.68835937 37.78974609 9.51171875 37.05761719 C8.4825073 32.91916579 7.2677263 28.83388927 6.08203125 24.73828125 C4.78801258 20.26761024 3.51188174 15.79233663 2.25 11.3125 C2.02707275 10.53342285 1.80414551 9.7543457 1.57446289 8.95166016 C0.71258158 5.88139848 0 3.2053383 0 0 Z " fill="#F7EFD0" transform="translate(28,118)"/>
<path d="M0 0 C4.80821918 7.21232877 4.80821918 7.21232877 4 12 C0.92891504 16.44792223 -3.39473178 19.95295779 -7.39990234 23.53417969 C-9.33157748 25.30375209 -11.05615977 27.19046641 -12.75 29.1875 C-13.27722656 29.80496094 -13.80445313 30.42242187 -14.34765625 31.05859375 C-14.89292969 31.69925781 -15.43820312 32.33992188 -16 33 C-25.69889315 44.10342954 -35.91522153 55.4237056 -48 64 C-48.66 64 -49.32 64 -50 64 C-51.625 61.25 -51.625 61.25 -53 58 C-51.75193535 54.03264218 -48.74062244 51.57715271 -45.8125 48.75 C-42.56464372 45.57798145 -39.38257414 42.39690527 -36.4375 38.9375 C-32.9793407 34.88224845 -29.20350078 31.18895696 -25.4140625 27.4453125 C-22.71248706 24.70876521 -20.20921265 21.85020634 -17.7109375 18.9296875 C-15.26279799 16.16854385 -12.62485722 13.61511286 -9.99609375 11.02734375 C-7.32192633 8.3113107 -4.83069543 5.45668648 -2.34765625 2.56640625 C-1.59150381 1.68751602 -0.81982149 0.81982149 0 0 Z " fill="#93552C" transform="translate(439,259)"/>
<path d="M0 0 C4.50267181 3.67565046 8.35839581 7.43869462 12.1171875 11.86328125 C14.15639232 14.17748257 16.30243458 16.33595677 18.5 18.5 C21.26560408 21.22829407 23.91287031 23.98516834 26.4375 26.9375 C29.94110171 31.02639016 33.74935329 34.76451264 37.578125 38.546875 C40.32005685 41.32418662 42.87552295 44.21312007 45.390625 47.1953125 C46.99189868 48.99091552 48.70044445 50.5318155 50.5 52.125 C53 55 53 55 52.9375 58.1875 C52.29166667 60.125 51.64583333 62.0625 51 64 C47.23931176 62.37545448 44.27887 59.94492843 41.1875 57.3125 C40.62853027 56.83772217 40.06956055 56.36294434 39.49365234 55.8737793 C29.61801823 47.34185222 20.43409582 37.95264349 12 28 C10.48530814 26.28621898 8.96407549 24.57820406 7.4375 22.875 C6.68726562 22.02808594 5.93703125 21.18117188 5.1640625 20.30859375 C3.30305764 18.32329795 1.40524908 16.6623457 -0.6875 14.9375 C-3 12 -3 12 -2.953125 9.7421875 C-2.45732052 7.4058967 -1.81593945 5.24276549 -1 3 C-0.67 2.01 -0.34 1.02 0 0 Z " fill="#93552C" transform="translate(72,259)"/>
<path d="M0 0 C-3.18177494 3.45207373 -6.74290366 5.98235513 -10.6640625 8.51171875 C-11.29734467 8.92541214 -11.93062683 9.33910553 -12.58309937 9.76533508 C-14.59413969 11.07728147 -16.60955824 12.38232805 -18.625 13.6875 C-19.98725401 14.57575051 -21.3492361 15.46441818 -22.7109375 16.35351562 C-24.00757281 17.19828468 -25.30443979 18.04269828 -26.6015625 18.88671875 C-27.21303131 19.28461105 -27.82450012 19.68250336 -28.45449829 20.092453 C-35.47935102 24.64012738 -40.76813306 24.24700956 -49 23 C-53.75708268 21.95788511 -58.35689921 20.46873596 -63 19 C-59.535 11.575 -59.535 11.575 -56 4 C-54.39125 4.12375 -52.7825 4.2475 -51.125 4.375 C-49.48917969 4.49875 -49.48917969 4.49875 -47.8203125 4.625 C-45.04586969 4.89733794 -42.36266967 5.24248067 -39.6171875 5.6875 C-30.8271191 7.04154697 -24.81242589 7.48212992 -16.6171875 3.31640625 C-11.46513193 0.72499919 -5.76026365 -0.37162991 0 0 Z " fill="#A5623C" transform="translate(252,339)"/>
<path d="M0 0 C7.48787982 0.16213913 13.31046751 1.62817794 20.078125 4.84375 C27.0101397 7.5869002 32.93794051 6.80546324 40.0625 5.5625 C41.80268512 5.26796756 43.54356336 4.97749683 45.28515625 4.69140625 C46.42803101 4.49333374 46.42803101 4.49333374 47.59399414 4.29125977 C50.3773575 3.95431887 53.19631657 4 56 4 C58.31 8.95 60.62 13.9 63 19 C58.00501835 20.44714422 53.04986938 21.7888624 48 23 C46.35257812 23.41572266 46.35257812 23.41572266 44.671875 23.83984375 C35.69639323 25.38461888 30.46251696 22.08637478 23.3671875 17.12109375 C22.32449707 16.37255127 22.32449707 16.37255127 21.26074219 15.60888672 C18.78932794 13.85007248 16.27949929 12.15853405 13.7578125 10.47265625 C10.36032485 8.19201363 6.96591548 5.90781325 3.59375 3.58984375 C2.89958984 3.11409912 2.20542969 2.63835449 1.49023438 2.14819336 C0.99845703 1.76928955 0.50667969 1.39038574 0 1 C0 0.67 0 0.34 0 0 Z " fill="#A6623C" transform="translate(260,339)"/>
<path d="M0 0 C-2.84449963 7.47304946 -7.04647187 11.67283913 -14.328125 15.09375 C-20.83468399 17.30065305 -28.82698518 16.8950765 -35.12109375 14.109375 C-41.24439545 10.49395362 -45.03665899 6.46464238 -48 0 C-31.59967643 -4.42966939 -16.4392319 -3.76265798 0 0 Z " fill="#5A514C" transform="translate(183,344)"/>
<path d="M0 0 C-3.23898731 7.17497188 -8.09526015 12.23181592 -15.3125 15.5 C-25.2759605 16.8509777 -32.41018627 16.62337729 -40.71484375 10.796875 C-43.97531422 8.2777829 -46.20031185 5.69935897 -48 2 C-48 1.34 -48 0.68 -48 0 C-31.39837457 -4.05978613 -16.62390032 -3.75883614 0 0 Z " fill="#5A514C" transform="translate(377,344)"/>
<path d="M0 0 C2.86697492 1.28519565 4.97607712 2.57129254 7 5 C7 5.66 7 6.32 7 7 C7.54914063 7.21785156 8.09828125 7.43570312 8.6640625 7.66015625 C11.75461185 9.4328292 13.95158259 11.8739215 16.375 14.4375 C26.95709319 25.30217665 39.62219534 35.09041679 52.8125 42.6015625 C55 44 55 44 55.9375 46.375 C56.00942863 49.39600253 55.31075943 51.30137765 54 54 C50.23931176 52.37545448 47.27887 49.94492843 44.1875 47.3125 C43.62853027 46.83772217 43.06956055 46.36294434 42.49365234 45.8737793 C32.61801823 37.34185222 23.43409582 27.95264349 15 18 C8.89397502 11.08417723 8.89397502 11.08417723 2.4375 4.5 C0 2 0 2 0 0 Z " fill="#A3603C" transform="translate(69,269)"/>
<path d="M0 0 C0.66 0 1.32 0 2 0 C0.41060574 3.93214301 -2.16342502 6.33020346 -5.1875 9.25 C-9.69316106 13.65688479 -13.90255447 18.21500125 -18 23 C-27.70252345 34.10210773 -37.91385498 45.42273579 -50 54 C-50.66 54 -51.32 54 -52 54 C-52.99 50.535 -52.99 50.535 -54 47 C-49.42002558 41.99398145 -44.60052907 38.20491263 -38.97851562 34.40844727 C-30.00540663 28.33258351 -21.97677945 21.31009847 -14 14 C-12.92503471 13.02933233 -11.84948845 12.05930775 -10.7734375 11.08984375 C-9.68210787 10.10176547 -8.5909593 9.11348716 -7.5 8.125 C-6.98324707 7.66053467 -6.46649414 7.19606934 -5.93408203 6.7175293 C-3.58324345 4.5762373 -1.77638089 2.66457134 0 0 Z " fill="#A3613C" transform="translate(441,269)"/>
<path d="M0 0 C2.5 1.5625 2.5 1.5625 4 4 C4 7.82389746 3.85254277 10.05611336 1.25 12.9375 C-1.49491218 14.23370853 -3.00074212 14.52487013 -6 14 C-8.3125 12.4375 -8.3125 12.4375 -10 10 C-10.42519574 6.53769185 -10.63902633 4.1652833 -8.9375 1.0625 C-5.8347167 -0.63902633 -3.46230815 -0.42519574 0 0 Z " fill="#F5F5F5" transform="translate(340,317)"/>
<path d="M0 0 C1.9375 1.0625 1.9375 1.0625 3 3 C3.5 6.4375 3.5 6.4375 3 10 C0.875 12.5 0.875 12.5 -2 14 C-5.125 14.0625 -5.125 14.0625 -8 13 C-10.54708628 10.12425742 -11.02587239 8.65974597 -10.875 4.8125 C-9.13550729 -0.77872656 -5.14690203 -0.45954482 0 0 Z " fill="#F5F6F6" transform="translate(147,317)"/>
<path d="M0 0 C1.65 0 3.3 0 5 0 C5.99 2.97 6.98 5.94 8 9 C1.125 3.375 1.125 3.375 0 0 Z " fill="#E9E1C1" transform="translate(19,184)"/>
<path d="M0 0 C1.65 0 3.3 0 5 0 C3.08864614 3.53600465 1.37357234 5.78972846 -2 8 C-1.125 2.25 -1.125 2.25 0 0 Z " fill="#EAE2C4" transform="translate(488,184)"/>
</svg>
