<?xml version="1.0" encoding="UTF-8"?>
<svg version="1.1" xmlns="http://www.w3.org/2000/svg" width="512" height="512">
<path d="M0 0 C3.62109935 1.74020112 5.61473067 4.04918612 7.13632202 7.80435181 C8.00245768 11.00909351 8.27546367 13.69372688 8.31884766 17.00537109 C8.34865219 18.74649673 8.34865219 18.74649673 8.37905884 20.52279663 C8.39638565 22.37936386 8.39638565 22.37936386 8.4140625 24.2734375 C8.44311172 26.19175888 8.44311172 26.19175888 8.4727478 28.14883423 C8.52228279 31.53207162 8.56360235 34.91520382 8.60089111 38.29858398 C8.64105483 41.75774773 8.69209044 45.21674963 8.7421875 48.67578125 C8.83810704 55.45041644 8.9231921 62.22512263 9 69 C9.452612 68.321082 9.905224 67.642164 10.37155151 66.94267273 C13.17242432 62.74136353 15.97329712 58.54005432 18.77416992 54.33874512 C19.47630615 53.28554077 20.17844238 52.23233643 20.90185547 51.1472168 C26.01342773 43.4798584 26.01342773 43.4798584 31.125 35.8125 C31.53387451 35.18887573 31.94274902 34.56525146 32.36401367 33.92272949 C35.51002989 29.28520488 38.93236213 24.79496713 44.5625 23.3359375 C48.95205673 23.40628296 52.06235587 23.54114837 55.5625 26.375 C59.08032691 30.16342898 59.7340362 32.7815699 59.6328125 37.87890625 C58.36039344 44.15460271 54.33416004 49.25547999 50.75585938 54.45068359 C48.74810939 57.36571771 46.77233369 60.30127293 44.796875 63.23828125 C38.29044709 72.88993833 31.69741152 82.47977799 25 92 C25.92296875 92.21914062 26.8459375 92.43828125 27.796875 92.6640625 C67.93141628 102.34341571 103.32529814 118.90647381 133.89453125 147.08203125 C135.61685185 148.65097265 137.36108928 150.11958759 139.1875 151.5625 C142.13354394 154.11573808 144.57879619 156.8237524 147.09765625 159.7890625 C149.09069748 162.10541021 151.1668239 164.32707752 153.25 166.5625 C183.92611431 200.72217305 203.22651721 245.87732802 200.89599609 292.06103516 C198.56664534 326.03567474 180.27722094 356.97489934 156 380 C156.29003906 380.99966797 156.29003906 380.99966797 156.5859375 382.01953125 C157.42908016 385.00392236 158.22290309 387.99775241 159 391 C159.31904297 392.19109375 159.31904297 392.19109375 159.64453125 393.40625 C164.69216538 415.7756214 160.77599182 441.04977636 149.25 460.6875 C142.41892581 471.27821391 134.36245483 478.88527338 124 486 C123.24589844 486.53238281 122.49179687 487.06476563 121.71484375 487.61328125 C106.01805078 497.88402233 87.11778812 502.28084213 69 506 C68.21963379 506.16338867 67.43926758 506.32677734 66.63525391 506.49511719 C7.29978099 518.50525385 -78.69198635 519.71992032 -131.875 487.6875 C-152.09743642 473.84944086 -165.2082899 456.25634042 -170 432 C-172.30228215 417.07379492 -172.62290777 400.35395054 -167.26757812 386.04272461 C-166.56361202 383.9527636 -166.07579302 382.206419 -166 380 C-167.73151529 377.54268036 -169.00221441 376.17287255 -171.25 374.3125 C-172.3819439 373.27827669 -173.50814064 372.23773283 -174.62890625 371.19140625 C-175.19883301 370.66434082 -175.76875977 370.13727539 -176.35595703 369.59423828 C-185.25535072 360.9644431 -191.34536775 349.89791607 -197 339 C-197.55558594 337.94296875 -198.11117187 336.8859375 -198.68359375 335.796875 C-214.54081838 303.67054978 -214.21168075 267.51619052 -203 234 C-192.27207914 204.9638203 -175.73403254 177.25495091 -153 156 C-151.7934375 154.7934375 -151.7934375 154.7934375 -150.5625 153.5625 C-149.716875 152.716875 -148.87125 151.87125 -148 151 C-147.39027344 150.35546875 -146.78054687 149.7109375 -146.15234375 149.046875 C-139.9433669 142.60125838 -133.18987632 137.28433855 -126 132 C-125.16597656 131.38253906 -124.33195312 130.76507813 -123.47265625 130.12890625 C-116.27355263 124.94219765 -108.67082546 120.44337061 -101 116 C-100.42185547 115.6582373 -99.84371094 115.31647461 -99.24804688 114.96435547 C-80.63212741 104.02670129 -60.13634089 98.00597622 -39.14111328 93.52148438 C-36.96641584 93.07606392 -36.96641584 93.07606392 -35 92 C-35.32460205 91.5460083 -35.6492041 91.0920166 -35.98364258 90.62426758 C-44.00737388 79.36549666 -51.74507428 67.94348611 -59.3125 56.375 C-59.95054062 55.40054428 -59.95054062 55.40054428 -60.60147095 54.40640259 C-70.22520586 39.69629811 -70.22520586 39.69629811 -69 31 C-67.3279253 27.87421857 -65.2143765 25.60718825 -62 24 C-57.9669611 23.41753186 -53.93501988 23.15621775 -50.13671875 24.8125 C-44.95657932 28.76869241 -41.62414682 34.69802169 -38.15625 40.12133789 C-34.38980932 45.97258267 -30.5180899 51.7531574 -26.65234375 57.5390625 C-25.90679912 58.65596499 -25.16131532 59.77290808 -24.41589355 60.88989258 C-22.61119092 63.59365994 -20.80587982 66.29701882 -19 69 C-18.99413376 68.28891586 -18.98826752 67.57783173 -18.98222351 66.84519958 C-18.9241584 60.12189017 -18.85200343 53.39889383 -18.76428509 46.67590237 C-18.71968504 43.22007548 -18.68040688 39.76436366 -18.65356445 36.30834961 C-18.62241864 32.32901187 -18.56763342 28.35016351 -18.51171875 24.37109375 C-18.50532883 23.13854355 -18.4989389 21.90599335 -18.49235535 20.63609314 C-18.36299127 13.05054054 -17.98380885 7.52631955 -12.9375 1.5625 C-8.61626239 -0.73603064 -4.78818802 -0.8810266 0 0 Z " fill="#FED300" transform="translate(261,0)"/>
<path d="M0 0 C7.57544481 5.89201263 11.56170524 15.88356325 15.8125 24.25 C30.21517603 52.17999039 50.60212844 74.66243656 76.49560547 92.29296875 C80.31118156 94.89372017 84.10919663 97.51960045 87.90478516 100.14941406 C89.86892035 101.50985676 91.83587242 102.86624525 93.80615234 104.21777344 C100.09140953 108.5593526 106.10122608 113.1472976 112 118 C112.93972656 118.76828125 113.87945312 119.5365625 114.84765625 120.328125 C126.25688545 130.2281969 136.33819353 143.76826471 139 159 C139.30965016 163.37785113 139.32457981 167.73761391 139.3125 172.125 C139.32861328 173.27226562 139.34472656 174.41953125 139.36132812 175.6015625 C139.37333027 196.9173758 131.87922443 214.020915 117 229 C84.16962198 260.04888464 20.29904536 260.96823719 -22.046875 260.09326172 C-64.40326445 258.75561781 -119.0314835 256.31073929 -150.375 223.87890625 C-162.79139332 209.52245147 -167.17300046 192.50953868 -167.3125 173.9375 C-167.34150391 172.67744141 -167.37050781 171.41738281 -167.40039062 170.11914062 C-167.52732528 151.22540569 -159.30067802 136.55857423 -146.34765625 123.28125 C-138.93895624 116.20792324 -130.81106866 110.39659847 -122.36962891 104.62402344 C-114.8674764 99.4824287 -107.42843091 94.24738029 -100 89 C-99.3925293 88.57090332 -98.78505859 88.14180664 -98.15917969 87.69970703 C-73.2354779 69.95551934 -56.25324944 47.73337602 -42.21362305 20.84741211 C-31.7538351 0.83028758 -31.7538351 0.83028758 -23.86328125 -1.6796875 C-15.4476664 -3.76573125 -8.02143135 -3.38895226 0 0 Z " fill="#DFD4A4" transform="translate(270,240)"/>
<path d="M0 0 C3.62109935 1.74020112 5.61473067 4.04918612 7.13632202 7.80435181 C8.00245768 11.00909351 8.27546367 13.69372688 8.31884766 17.00537109 C8.34865219 18.74649673 8.34865219 18.74649673 8.37905884 20.52279663 C8.39638565 22.37936386 8.39638565 22.37936386 8.4140625 24.2734375 C8.44311172 26.19175888 8.44311172 26.19175888 8.4727478 28.14883423 C8.52228279 31.53207162 8.56360235 34.91520382 8.60089111 38.29858398 C8.64105483 41.75774773 8.69209044 45.21674963 8.7421875 48.67578125 C8.83810704 55.45041644 8.9231921 62.22512263 9 69 C9.452612 68.321082 9.905224 67.642164 10.37155151 66.94267273 C13.17242432 62.74136353 15.97329712 58.54005432 18.77416992 54.33874512 C19.47630615 53.28554077 20.17844238 52.23233643 20.90185547 51.1472168 C26.01342773 43.4798584 26.01342773 43.4798584 31.125 35.8125 C31.53387451 35.18887573 31.94274902 34.56525146 32.36401367 33.92272949 C35.51002989 29.28520488 38.93236213 24.79496713 44.5625 23.3359375 C48.95205673 23.40628296 52.06235587 23.54114837 55.5625 26.375 C59.08032691 30.16342898 59.7340362 32.7815699 59.6328125 37.87890625 C58.36039344 44.15460271 54.33416004 49.25547999 50.75585938 54.45068359 C48.74810939 57.36571771 46.77233369 60.30127293 44.796875 63.23828125 C38.29044709 72.88993833 31.69741152 82.47977799 25 92 C25.92296875 92.21914062 26.8459375 92.43828125 27.796875 92.6640625 C67.93141628 102.34341571 103.32529814 118.90647381 133.89453125 147.08203125 C135.61685185 148.65097265 137.36108928 150.11958759 139.1875 151.5625 C142.13354394 154.11573808 144.57879619 156.8237524 147.09765625 159.7890625 C149.09069748 162.10541021 151.1668239 164.32707752 153.25 166.5625 C183.92611431 200.72217305 203.22651721 245.87732802 200.89599609 292.06103516 C198.56664534 326.03567474 180.27722094 356.97489934 156 380 C156.29003906 380.99966797 156.29003906 380.99966797 156.5859375 382.01953125 C157.42908016 385.00392236 158.22290309 387.99775241 159 391 C159.31904297 392.19109375 159.31904297 392.19109375 159.64453125 393.40625 C164.69216538 415.7756214 160.77599182 441.04977636 149.25 460.6875 C142.41892581 471.27821391 134.36245483 478.88527338 124 486 C123.24589844 486.53238281 122.49179687 487.06476563 121.71484375 487.61328125 C106.01805078 497.88402233 87.11778812 502.28084213 69 506 C68.21963379 506.16338867 67.43926758 506.32677734 66.63525391 506.49511719 C7.29978099 518.50525385 -78.69198635 519.71992032 -131.875 487.6875 C-152.09743642 473.84944086 -165.2082899 456.25634042 -170 432 C-172.30228215 417.07379492 -172.62290777 400.35395054 -167.26757812 386.04272461 C-166.56361202 383.9527636 -166.07579302 382.206419 -166 380 C-167.73151529 377.54268036 -169.00221441 376.17287255 -171.25 374.3125 C-172.3819439 373.27827669 -173.50814064 372.23773283 -174.62890625 371.19140625 C-175.19883301 370.66434082 -175.76875977 370.13727539 -176.35595703 369.59423828 C-185.25535072 360.9644431 -191.34536775 349.89791607 -197 339 C-197.55558594 337.94296875 -198.11117187 336.8859375 -198.68359375 335.796875 C-214.54081838 303.67054978 -214.21168075 267.51619052 -203 234 C-192.27207914 204.9638203 -175.73403254 177.25495091 -153 156 C-151.7934375 154.7934375 -151.7934375 154.7934375 -150.5625 153.5625 C-149.716875 152.716875 -148.87125 151.87125 -148 151 C-147.39027344 150.35546875 -146.78054687 149.7109375 -146.15234375 149.046875 C-139.9433669 142.60125838 -133.18987632 137.28433855 -126 132 C-125.16597656 131.38253906 -124.33195312 130.76507813 -123.47265625 130.12890625 C-116.27355263 124.94219765 -108.67082546 120.44337061 -101 116 C-100.42185547 115.6582373 -99.84371094 115.31647461 -99.24804688 114.96435547 C-80.63212741 104.02670129 -60.13634089 98.00597622 -39.14111328 93.52148438 C-36.96641584 93.07606392 -36.96641584 93.07606392 -35 92 C-35.32460205 91.5460083 -35.6492041 91.0920166 -35.98364258 90.62426758 C-44.00737388 79.36549666 -51.74507428 67.94348611 -59.3125 56.375 C-59.95054062 55.40054428 -59.95054062 55.40054428 -60.60147095 54.40640259 C-70.22520586 39.69629811 -70.22520586 39.69629811 -69 31 C-67.3279253 27.87421857 -65.2143765 25.60718825 -62 24 C-57.9669611 23.41753186 -53.93501988 23.15621775 -50.13671875 24.8125 C-44.95657932 28.76869241 -41.62414682 34.69802169 -38.15625 40.12133789 C-34.38980932 45.97258267 -30.5180899 51.7531574 -26.65234375 57.5390625 C-25.90679912 58.65596499 -25.16131532 59.77290808 -24.41589355 60.88989258 C-22.61119092 63.59365994 -20.80587982 66.29701882 -19 69 C-18.99413376 68.28891586 -18.98826752 67.57783173 -18.98222351 66.84519958 C-18.9241584 60.12189017 -18.85200343 53.39889383 -18.76428509 46.67590237 C-18.71968504 43.22007548 -18.68040688 39.76436366 -18.65356445 36.30834961 C-18.62241864 32.32901187 -18.56763342 28.35016351 -18.51171875 24.37109375 C-18.50532883 23.13854355 -18.4989389 21.90599335 -18.49235535 20.63609314 C-18.36299127 13.05054054 -17.98380885 7.52631955 -12.9375 1.5625 C-8.61626239 -0.73603064 -4.78818802 -0.8810266 0 0 Z M-72 116 C-73.47919922 116.54527344 -73.47919922 116.54527344 -74.98828125 117.1015625 C-89.96255738 122.8593063 -104.15621546 131.45938198 -117 141 C-118.54300781 142.11568359 -118.54300781 142.11568359 -120.1171875 143.25390625 C-157.39819281 170.91841752 -189.34892994 213.66428984 -196.75390625 260.40625 C-201.43665689 294.57059682 -193.97285085 325.51039496 -173.29003906 353.34179688 C-171.04179471 356.23166736 -168.64638069 358.97591822 -166.1875 361.6875 C-165.73157471 362.19273193 -165.27564941 362.69796387 -164.8059082 363.21850586 C-162.41114706 365.78088705 -160.27676836 367.69387555 -157 369 C-156.5153125 368.3709375 -156.030625 367.741875 -155.53125 367.09375 C-142.87606753 350.93405547 -126.99118257 339.93260939 -110.10522461 328.52392578 C-81.10034803 308.88306784 -59.46132799 287.11011575 -43.23046875 255.65625 C-42.50609619 254.25536133 -42.50609619 254.25536133 -41.76708984 252.82617188 C-40.81818872 250.98251974 -39.87673913 249.13500767 -38.94384766 247.28320312 C-34.13502456 237.90202751 -28.9495455 232.30930738 -19.375 227.75 C-7.41293269 223.97250506 5.00204009 225.58222907 16.1640625 231.0625 C24.77450906 236.5246335 28.97141299 247.56660587 33.375 256.3125 C39.82611998 268.90310489 46.84572595 280.16860704 56 291 C57.01320313 292.19882812 57.01320313 292.19882812 58.046875 293.421875 C71.26896136 308.57419295 86.90248866 320.05434782 103.625 331.0625 C119.83751283 341.73998504 135.38023343 353.24496356 147 369 C163.02821271 361.79789561 174.56752216 337.74113325 180.75 322.25 C186.8399365 306.17099912 188.90029796 291.15861987 188 274 C187.96132813 273.2265625 187.92265625 272.453125 187.8828125 271.65625 C185.68464823 234.41676118 166.34559567 200.3300629 142 173 C141.55688477 172.4951709 141.11376953 171.9903418 140.65722656 171.47021484 C119.25743727 147.1238512 93.44594865 130.17958928 64 117 C63.07719238 116.57879883 62.15438477 116.15759766 61.20361328 115.72363281 C53.40412621 112.29565869 45.53868693 110.16145521 37.25 108.25 C35.35701172 107.79560547 35.35701172 107.79560547 33.42578125 107.33203125 C24.22974325 105.16087852 15.44558451 103.85802097 6.015625 103.69140625 C5.17013596 103.67614395 4.32464691 103.66088165 3.45353699 103.64515686 C-23.24276044 103.25329776 -47.00719445 105.95849544 -72 116 Z M-23 243 C-27.5850577 249.74745361 -31.18589101 257.11607855 -34.875 264.375 C-49.96692661 293.63366871 -71.30637124 315.82862126 -98.34326172 334.19140625 C-115.11369155 345.50555752 -115.11369155 345.50555752 -131 358 C-132.23556641 359.01900391 -132.23556641 359.01900391 -133.49609375 360.05859375 C-145.9447516 370.68826963 -156.84537962 385.56014038 -158.28759766 402.34765625 C-158.40200193 406.04891184 -158.40937335 409.73472637 -158.375 413.4375 C-158.38660156 414.68337891 -158.39820313 415.92925781 -158.41015625 417.21289062 C-158.38575156 424.96138023 -157.45812789 431.6577129 -155 439 C-154.68417969 440.04414063 -154.36835938 441.08828125 -154.04296875 442.1640625 C-147.7019642 460.40530848 -133.7860663 472.90668137 -116.84741211 481.24853516 C-58.77347989 509.24373612 32.91962777 507.73939164 93.08422852 487.09814453 C114.43790691 479.34745541 132.13773128 468.01336104 142.12890625 446.953125 C147.13239039 435.73455071 148.36117394 424.8054783 148.375 412.5625 C148.39949219 411.42490234 148.42398437 410.28730469 148.44921875 409.11523438 C148.51293054 390.50077245 139.25348667 375.53417793 126.57421875 362.5078125 C118.73359483 355.05981466 109.89573009 349.09943996 101 343 C98.0278996 340.95213483 95.05807834 338.90106741 92.09082031 336.84619141 C90.12813644 335.48762935 88.16279814 334.13289091 86.19433594 332.78271484 C58.26192096 313.48671649 38.84739601 290.78617572 23.21362305 260.84741211 C16.83674902 246.99005866 16.83674902 246.99005866 5.0859375 238.3203125 C-4.35825933 235.65843463 -15.43650394 236.27689239 -23 243 Z " fill="#34373A" transform="translate(261,0)"/>
<path d="M0 0 C0.88721237 -0.00570007 1.77442474 -0.01140015 2.68852234 -0.01727295 C4.56878476 -0.02670572 6.44906358 -0.03325008 8.3293457 -0.03710938 C11.1515162 -0.04671268 13.97292528 -0.07770887 16.79492188 -0.109375 C27.90698231 -0.17459489 38.04789774 0.72033897 48.88671875 3.203125 C50.6686027 3.55161096 52.45107713 3.89710452 54.234375 4.23828125 C67.94657122 7.12992056 80.2877503 12.13454714 92.88671875 18.203125 C93.74072266 18.61224121 94.59472656 19.02135742 95.47460938 19.44287109 C107.44557322 25.25700393 118.26826111 32.20046948 128.88671875 40.203125 C129.79550781 40.87859375 130.70429688 41.5540625 131.640625 42.25 C150.64430655 56.9019324 167.02603277 74.97107023 179.88671875 95.203125 C179.55671875 95.863125 179.22671875 96.523125 178.88671875 97.203125 C177.61441406 95.96949219 177.61441406 95.96949219 176.31640625 94.7109375 C147.03576037 66.69126139 110.31182628 50.61253468 70.81640625 42.78466797 C68.27223804 42.27965058 65.7351339 41.75164601 63.19921875 41.20703125 C3.56210988 28.64235811 -70.02705234 38.64140773 -121.61328125 71.703125 C-132.11302634 78.76930416 -141.86649025 86.5616544 -151.11328125 95.203125 C-151.44328125 94.213125 -151.77328125 93.223125 -152.11328125 92.203125 C-150.77734375 89.890625 -150.77734375 89.890625 -148.73828125 87.203125 C-147.99449219 86.22214844 -147.25070313 85.24117188 -146.484375 84.23046875 C-122.91140873 54.13318892 -95.7722924 31.49286024 -61.11328125 15.203125 C-60.49388672 14.90164551 -59.87449219 14.60016602 -59.23632812 14.28955078 C-44.98464561 7.42221796 -29.5000566 4.45527384 -14.11328125 1.203125 C-13.34314697 1.01379395 -12.5730127 0.82446289 -11.77954102 0.62939453 C-7.85588457 0.00209812 -3.96784859 0.02001054 0 0 Z " fill="#FDF600" transform="translate(243.11328125,103.796875)"/>
<path d="M0 0 C3.24299168 3.0403047 5.90219034 6.18440751 8.5625 9.75 C28.88358535 35.30300657 66.16544368 41.69751716 96.58911133 45.30718994 C143.89718113 50.64094291 195.96845368 52.57920515 242 38 C243.45702335 37.56507769 244.91405508 37.13018347 246.37109375 36.6953125 C265.83844712 30.715995 280.99169399 21.40332418 294.3515625 5.8671875 C295.84464982 4.17596537 297.38585753 2.57501175 299 1 C300.92262033 6.39087661 298.22766206 11.04513953 296 16 C284.30331409 37.47936867 263.46035055 48.48897369 240.91796875 55.40234375 C180.28253006 72.59593242 91.50529797 75.31350485 34 45.5625 C18.36841308 36.69420568 7.3232674 24.57433188 0.75 7.8125 C0.0177549 5.06658087 -0.16621401 2.82563816 0 0 Z " fill="#FCF1C4" transform="translate(106,434)"/>
<path d="M0 0 C0.33 0 0.66 0 1 0 C5.94849769 36.18588935 0.46302181 67.50517695 -21.70996094 97.34179688 C-23.95820529 100.23166736 -26.35361931 102.97591822 -28.8125 105.6875 C-29.49638794 106.4453479 -29.49638794 106.4453479 -30.1940918 107.21850586 C-32.58885294 109.78088705 -34.72323164 111.69387555 -38 113 C-38.72703125 112.05640625 -38.72703125 112.05640625 -39.46875 111.09375 C-51.06283298 96.28899789 -65.49802547 85.47430712 -81 75 C-79.01973571 72.90386718 -77.10081422 71.31488035 -74.62890625 69.8359375 C-73.65304565 69.24341187 -73.65304565 69.24341187 -72.6574707 68.63891602 C-71.96613037 68.22182373 -71.27479004 67.80473145 -70.5625 67.375 C-54.92587181 57.7517833 -40.73266794 46.21823579 -28 33 C-23 28 -23 28 -21.015625 26.0859375 C-15.96624064 21.15843483 -11.4242301 16.0109134 -7.04296875 10.48046875 C-5 8 -5 8 -2.78515625 5.81640625 C-0.8576451 3.85515311 -0.38340129 2.68380903 0 0 Z " fill="#FDAF00" transform="translate(446,256)"/>
<path d="M0 0 C0.21269531 0.53109375 0.42539063 1.0621875 0.64453125 1.609375 C2.52247894 4.92149023 5.08044504 7.50929072 7.6875 10.25 C8.7780912 11.41336225 9.8679384 12.57742243 10.95703125 13.7421875 C11.7452124 14.58281738 11.7452124 14.58281738 12.54931641 15.44042969 C15.97246103 19.12051179 19.28262529 22.9090849 22.47265625 26.79296875 C25.70167183 30.69361957 29.15825026 33.99114281 33.01953125 37.265625 C34.83178559 38.85268797 36.47162376 40.50083622 38.125 42.25 C50.78914705 55.02798208 66.79596008 64.58406573 82 74 C78.85156229 77.37937446 75.35028836 79.9611091 71.5625 82.5625 C59.36039827 91.11603657 47.38428999 100.55059971 39 113 C22.97178729 105.79789561 11.43247784 81.74113325 5.25 66.25 C-3.12842761 44.12879318 -3.17658903 23.22880732 0 0 Z " fill="#FDAF00" transform="translate(65,256)"/>
<path d="M0 0 C7.57544481 5.89201263 11.56170524 15.88356325 15.8125 24.25 C30.21517603 52.17999039 50.60212844 74.66243656 76.49560547 92.29296875 C80.31118156 94.89372017 84.10919663 97.51960045 87.90478516 100.14941406 C89.86892035 101.50985676 91.83587242 102.86624525 93.80615234 104.21777344 C100.09140953 108.5593526 106.10122608 113.1472976 112 118 C112.93972656 118.76828125 113.87945312 119.5365625 114.84765625 120.328125 C123.30888697 127.67014531 130.80392058 136.50980144 135 147 C134.67 147.99 134.34 148.98 134 150 C133.52691406 149.29875 133.05382812 148.5975 132.56640625 147.875 C121.65155966 132.21549301 106.66812317 124.2286002 90.28857422 115.15454102 C56.04186403 96.11516817 32.11102424 69.50529911 15.66210938 33.95092773 C12.14278918 26.58216309 7.92039309 20.05940153 0.3125 16.5625 C-8.80879911 13.45296621 -18.79903614 12.93773776 -28 16 C-37.75626526 21.00494717 -42.30656454 31.21307779 -46.8125 40.6875 C-54.72415386 56.88769615 -64.65222039 70.84493614 -77 84 C-77.75627686 84.81525146 -77.75627686 84.81525146 -78.52783203 85.64697266 C-91.33361656 99.35678505 -105.43926871 107.77846959 -121.7824707 116.81494141 C-137.61336594 125.60547873 -152.07773909 134.43066455 -162 150 C-163.20903692 146.37288924 -162.77417155 145.8199009 -161.125 142.5 C-152.37844324 125.98937642 -137.436983 114.92764871 -122.36962891 104.62402344 C-114.8674764 99.4824287 -107.42843091 94.24738029 -100 89 C-99.3925293 88.57090332 -98.78505859 88.14180664 -98.15917969 87.69970703 C-73.2354779 69.95551934 -56.25324944 47.73337602 -42.21362305 20.84741211 C-31.7538351 0.83028758 -31.7538351 0.83028758 -23.86328125 -1.6796875 C-15.4476664 -3.76573125 -8.02143135 -3.38895226 0 0 Z " fill="#FBF0C3" transform="translate(270,240)"/>
<path d="M0 0 C0.80050781 0.30035156 1.60101563 0.60070312 2.42578125 0.91015625 C8.0544889 3.35880308 12.24733806 7.49467613 15 13 C15.203125 15.09375 15.203125 15.09375 15.25 17.5 C15.27578125 18.2940625 15.3015625 19.088125 15.328125 19.90625 C15.21984375 20.5971875 15.1115625 21.288125 15 22 C12 24 12 24 8.5625 24.125 C5 23 5 23 3.97265625 21.28515625 C3.69292969 20.59292969 3.41320312 19.90070313 3.125 19.1875 C1.61060157 15.56977041 0.34062478 14.23649201 -3.25 12.625 C-4.82163057 12.05026131 -6.4051413 11.50672768 -8 11 C-9.19625 10.5875 -10.3925 10.175 -11.625 9.75 C-22.50868207 7.36987072 -33.8558952 8.46533486 -44 13 C-47.80879567 15.48014602 -49.64341835 18.68360385 -51 23 C-57.625 24.25 -57.625 24.25 -61 22 C-61.97230892 17.6202301 -61.38987005 13.82847387 -59.5 9.8125 C-44.75660219 -6.77382253 -19.59225036 -7.47973627 0 0 Z " fill="#373938" transform="translate(377,222)"/>
<path d="M0 0 C1.24511353 0.00845947 1.24511353 0.00845947 2.51538086 0.01708984 C14.31557091 0.2476827 25.76248692 2.42530477 34.50390625 10.96484375 C37.63590217 14.61437746 38.97002062 17.06522527 39.0625 21.8125 C39.08828125 22.6065625 39.1140625 23.400625 39.140625 24.21875 C39.03234375 24.9096875 38.9240625 25.600625 38.8125 26.3125 C35.8125 28.3125 35.8125 28.3125 32.375 28.4375 C28.8125 27.3125 28.8125 27.3125 27.78515625 25.59765625 C27.50542969 24.90542969 27.22570312 24.21320313 26.9375 23.5 C25.42310157 19.88227041 24.15312478 18.54899201 20.5625 16.9375 C18.99086943 16.36276131 17.4073587 15.81922768 15.8125 15.3125 C14.61625 14.9 13.42 14.4875 12.1875 14.0625 C1.34571926 11.69153403 -10.08550326 12.7539388 -20.1875 17.3125 C-24.49893193 20.30939744 -25.73630404 22.28912936 -27.1875 27.3125 C-29.95000036 28.69375018 -32.13481099 28.50329306 -35.1875 28.3125 C-37.55910148 25.94089852 -37.50733352 25.30628878 -37.5625 22.0625 C-37.42739417 17.37132543 -36.36610133 14.8884265 -33.1875 11.3125 C-28.3635965 6.95818002 -23.42771202 4.08922703 -17.1875 2.3125 C-15.97449219 1.96316406 -14.76148438 1.61382812 -13.51171875 1.25390625 C-8.98894937 0.14438988 -4.64201007 -0.03321483 0 0 Z " fill="#373938" transform="translate(157.1875,217.6875)"/>
<path d="M0 0 C2.97238943 2.31931824 4.47446903 4.0689641 5.65234375 7.671875 C5.58984375 10.421875 5.58984375 10.421875 3.58984375 12.421875 C0.55081043 13.44906826 -2.22169088 13.82856701 -5.41015625 13.421875 C-7.2496466 11.90831376 -8.4355837 10.26180747 -9.83203125 8.3359375 C-14.60527356 2.54660896 -23.24082963 -0.23845521 -30.41015625 -1.578125 C-41.95156957 -2.53368833 -51.65868631 -0.33484246 -61.16015625 6.359375 C-63.54837265 8.36300505 -63.54837265 8.36300505 -65.16015625 11.234375 C-67.41015625 13.421875 -67.41015625 13.421875 -69.58984375 13.5859375 C-75.82366857 13.00836268 -75.82366857 13.00836268 -78.41015625 10.421875 C-78.50669705 6.17407977 -77.60315367 4.63282567 -74.72265625 1.484375 C-69.19107915 -2.84072644 -62.78441224 -5.72913474 -56.41015625 -8.578125 C-55.59804687 -8.94421875 -54.7859375 -9.3103125 -53.94921875 -9.6875 C-35.82585467 -16.42811962 -15.43085882 -10.10383625 0 0 Z " fill="#FDF500" transform="translate(292.41015625,227.578125)"/>
<path d="M0 0 C3.0625 0.3125 3.0625 0.3125 4.9375 1.4375 C6.69405039 4.36508399 6.55855093 5.90214983 6.0625 9.3125 C4.25478496 13.67110182 2.42275028 17.95224972 -0.9375 21.3125 C-4.04097254 21.64265665 -6.09531176 21.81781294 -8.8125 20.1875 C-10.56905039 17.25991601 -10.43355093 15.72285017 -9.9375 12.3125 C-5.0539222 0.5376513 -5.0539222 0.5376513 0 0 Z " fill="#36393C" transform="translate(276.9375,286.6875)"/>
<path d="M0 0 C4.5711115 3.69603726 6.70203426 9.70140712 7.4375 15.375 C7 18 7 18 5.875 19.875 C3.11909116 21.52854531 1.14924548 21.39365568 -2 21 C-6.5711115 17.30396274 -8.70203426 11.29859288 -9.4375 5.625 C-9 3 -9 3 -7.875 1.125 C-5.11909116 -0.52854531 -3.14924548 -0.39365568 0 0 Z " fill="#36393C" transform="translate(238,287)"/>
</svg>
