<?xml version="1.0" encoding="UTF-8"?>
<svg version="1.1" xmlns="http://www.w3.org/2000/svg" width="512" height="512">
<path d="M0 0 C14.10981627 -0.58902459 28.2132406 3.58777998 39.24609375 12.4140625 C57.46314951 29.65049 58.37161993 58.61062795 59.05078125 81.95019531 C59.42372111 96.01936153 59.66344607 110.09160048 59.87109375 124.1640625 C60.46076935 123.87847977 61.05044495 123.59289703 61.6579895 123.29866028 C64.3755173 121.98540403 67.09592653 120.67822328 69.81640625 119.37109375 C70.74364502 118.92189575 71.67088379 118.47269775 72.6262207 118.0098877 C116.32625861 97.06030793 168.41969717 95.98950172 213.97877502 111.527771 C220.14819644 113.76911523 226.0219212 116.51098673 231.92578125 119.37109375 C232.88734131 119.83310181 233.84890137 120.29510986 234.83959961 120.77111816 C237.18510484 121.89868081 239.52886655 123.02971058 241.87109375 124.1640625 C241.88322403 123.34198303 241.88322403 123.34198303 241.89559937 122.5032959 C243.23263035 33.5775374 243.23263035 33.5775374 260.8671875 13.94140625 C272.75547396 2.60409207 288.03174239 0.11733875 303.87109375 0.1640625 C332.90238505 1.153908 359.95006997 14.08138235 379.87109375 35.1640625 C391.35651592 48.06408732 398.98451948 62.68524999 403.87109375 79.1640625 C404.21269531 80.29585938 404.55429687 81.42765625 404.90625 82.59375 C411.79707506 110.34935232 406.23301093 139.75960809 392.03735352 164.17016602 C383.81941334 177.7177246 372.30165498 189.75978707 358.87109375 198.1640625 C357.9584375 198.74800781 357.04578125 199.33195313 356.10546875 199.93359375 C348.37419872 204.67778218 340.33700808 208.00669281 331.87109375 211.1640625 C332.35578125 212.00324219 332.84046875 212.84242188 333.33984375 213.70703125 C339.38134904 224.43108358 343.96308466 235.50090766 347.87109375 247.1640625 C348.17885742 248.06705078 348.48662109 248.97003906 348.80371094 249.90039062 C355.06106754 268.93628412 356.60228559 291.36164771 352.87109375 311.1640625 C356.91326956 310.08262318 360.95473665 308.99855701 364.99609375 307.9140625 C366.18630127 307.5955835 367.37650879 307.27710449 368.6027832 306.94897461 C375.78958835 305.0187256 382.93724574 303.0175221 390.0390625 300.79296875 C393.98647837 299.91637019 398.16090803 299.22621872 401.80859375 301.2265625 C403.50673539 304.32317372 403.24276273 306.69392538 402.87109375 310.1640625 C400.66796875 312.71875 400.66796875 312.71875 397.62109375 315.0390625 C397.0789624 315.46123047 396.53683105 315.88339844 395.97827148 316.31835938 C394.29179447 317.62288676 392.58439924 318.89505739 390.87109375 320.1640625 C389.87722656 320.91945313 388.88335937 321.67484375 387.859375 322.453125 C385.88455723 323.9454439 383.90257552 325.4283231 381.9140625 326.90234375 C372.7689814 333.69952213 363.81617224 340.75706989 354.83032227 347.76245117 C348.7936109 352.46264013 342.72085341 357.11418649 336.61621094 361.72583008 C328.01223895 368.22648882 328.01223895 368.22648882 320.49609375 375.9140625 C319.91601562 376.59082031 319.3359375 377.26757812 318.73828125 377.96484375 C318.12210937 378.69058594 317.5059375 379.41632813 316.87109375 380.1640625 C310.75919812 387.35657846 304.35784138 393.41685443 296.87109375 399.1640625 C296.34338379 399.58268555 295.81567383 400.00130859 295.27197266 400.43261719 C264.62714139 424.71448349 224.57659213 439.70100304 185.87109375 444.1640625 C185.62875 445.06769531 185.38640625 445.97132813 185.13671875 446.90234375 C184.63398437 448.67158203 184.63398437 448.67158203 184.12109375 450.4765625 C183.63382812 452.23419922 183.63382812 452.23419922 183.13671875 454.02734375 C181.74688256 457.47190689 181.00035416 458.31743727 177.87109375 460.1640625 C175.37367249 460.55847168 175.37367249 460.55847168 172.53930664 460.58398438 C171.47462662 460.59989624 170.40994659 460.61580811 169.31300354 460.63220215 C168.16814987 460.63240356 167.0232962 460.63260498 165.84375 460.6328125 C164.66268173 460.64042603 163.48161346 460.64803955 162.26475525 460.65588379 C159.7674267 460.66668764 157.27005295 460.66953676 154.77270508 460.66503906 C150.95121944 460.66406698 147.13174247 460.70568487 143.31054688 460.75 C140.88411877 460.75520708 138.45768369 460.75789519 136.03125 460.7578125 C134.88842056 460.77420776 133.74559113 460.79060303 132.56813049 460.80749512 C124.7032853 460.73895842 124.7032853 460.73895842 120.72436523 457.99023438 C118.80719097 455.06661307 117.83636446 452.74919244 117.05859375 449.3515625 C116.82527344 448.37574219 116.59195313 447.39992188 116.3515625 446.39453125 C116.19300781 445.65847656 116.03445312 444.92242187 115.87109375 444.1640625 C115.30527588 444.07954834 114.73945801 443.99503418 114.15649414 443.90795898 C71.21547255 437.34101457 27.7328881 421.75380803 -4.12890625 391.1640625 C-5.47809826 390.01237578 -6.83213736 388.86633856 -8.19140625 387.7265625 C-13.83862348 382.81096856 -18.80706934 377.14928138 -23.3984375 371.24609375 C-26.49658415 367.51916537 -30.24922741 364.78131086 -34.12890625 361.9140625 C-35.66158987 360.7618937 -37.19414086 359.60954846 -38.7265625 358.45703125 C-39.47824707 357.8954834 -40.22993164 357.33393555 -41.00439453 356.75537109 C-43.87754587 354.60331405 -46.72308583 352.41791136 -49.56640625 350.2265625 C-50.59636719 349.43378906 -51.62632813 348.64101563 -52.6875 347.82421875 C-57.62511885 344.01285213 -62.54365637 340.17688349 -67.46533203 336.3449707 C-74.59575425 330.79547101 -81.75508805 325.28462275 -88.92529297 319.78662109 C-90.15182876 318.84598657 -91.37815103 317.90507357 -92.60424805 316.96386719 C-93.7627629 316.07454089 -94.92175845 315.18584032 -96.08129883 314.29785156 C-100.01618716 311.27678159 -100.01618716 311.27678159 -101.12890625 310.1640625 C-101.58572007 303.99707594 -101.58572007 303.99707594 -100.06640625 301.2265625 C-95.21374455 298.56542544 -89.43715365 300.41792293 -84.41531372 301.84118652 C-83.60150238 302.0817981 -82.78769104 302.32240967 -81.94921875 302.5703125 C-80.66916458 302.93654724 -80.66916458 302.93654724 -79.36325073 303.31018066 C-76.65755799 304.08616696 -73.95572566 304.87470742 -71.25390625 305.6640625 C-68.52992507 306.45063846 -65.80522224 307.23466409 -63.08029175 308.01794434 C-61.38907437 308.50509339 -59.69856135 308.99469547 -58.00881958 309.48693848 C-54.62113536 310.65150211 -54.62113536 310.65150211 -51.12890625 311.1640625 C-51.2875415 310.32214355 -51.44617676 309.48022461 -51.60961914 308.61279297 C-54.69272663 288.1370166 -52.693716 266.67868635 -46.12890625 247.1640625 C-45.88333984 246.41044434 -45.63777344 245.65682617 -45.38476562 244.88037109 C-41.59747149 233.43763048 -36.82112697 221.20239358 -30.12890625 211.1640625 C-30.64686768 210.95837646 -31.1648291 210.75269043 -31.69848633 210.54077148 C-41.71934465 206.52953677 -51.37536473 202.59755968 -60.12890625 196.1640625 C-60.95261719 195.56078125 -61.77632812 194.9575 -62.625 194.3359375 C-84.86896952 177.26256308 -99.9454833 152.90976343 -104.73632812 125.21801758 C-105.45536553 119.62446103 -105.46822612 114.04661747 -105.44140625 108.4140625 C-105.4357666 107.17487061 -105.43012695 105.93567871 -105.42431641 104.65893555 C-105.30653173 95.78018671 -104.70739691 87.7071372 -102.12890625 79.1640625 C-101.93022949 78.49407227 -101.73155273 77.82408203 -101.52685547 77.13378906 C-97.0567358 62.39411357 -90.26915492 49.85244074 -80.12890625 38.1640625 C-79.4534375 37.34421875 -78.77796875 36.524375 -78.08203125 35.6796875 C-60.28158249 14.76091195 -34.46997862 3.32865619 -7.50390625 0.5390625 C-5.00304125 0.34912339 -2.50058763 0.19270584 0 0 Z " fill="#34373B" transform="translate(105.12890625,25.8359375)"/>
<path d="M0 0 C21.63920114 -0.64933837 39.5186256 3.72034943 56.00195312 18.39453125 C67.76031824 30.17003683 76.89973649 46.11965754 76.95507812 63.09570312 C76.94734375 63.89427734 76.93960938 64.69285156 76.93164062 65.515625 C76.939375 66.31033203 76.94710937 67.10503906 76.95507812 67.92382812 C76.90576048 83.07667405 71.34393969 94.60926813 61.30664062 105.703125 C50.36531497 115.60241964 39.41932034 121.23708492 24.55664062 121.390625 C23.18765625 121.43413086 23.18765625 121.43413086 21.79101562 121.47851562 C15.1917211 121.5396202 10.4549699 120.24192718 4.68164062 117.078125 C3.83472656 116.62050781 2.9878125 116.16289062 2.11523438 115.69140625 C-7.57602426 109.37596765 -13.39997087 101.52001569 -17.56835938 90.890625 C-19.41588225 81.49905039 -19.3183469 72.43853774 -14.31835938 64.078125 C-8.87309561 56.33042413 -2.41656674 50.95065484 6.68164062 48.078125 C14.22137612 46.85715128 20.80646435 47.5593543 27.46289062 51.40625 C34.48873047 56.70036876 37.9363794 63.91054657 40.68164062 72.078125 C43.01458838 72.12054223 45.34866629 72.11905437 47.68164062 72.078125 C49.09364892 70.88504362 49.09364892 70.88504362 48.93164062 67.453125 C48.85545743 63.16401133 47.7562838 59.80932736 45.68164062 56.078125 C45.29105469 55.35496094 44.90046875 54.63179687 44.49804688 53.88671875 C40.70773497 47.54089911 36.03491789 43.76422455 29.68164062 40.078125 C29.06804687 39.71589844 28.45445312 39.35367188 27.82226562 38.98046875 C19.74657991 35.13915807 7.99252451 35.92655634 -0.25585938 38.703125 C-12.07335242 43.78040121 -21.00923056 51.81932645 -26.34960938 63.63671875 C-30.8094407 74.87621302 -30.25771967 87.68102285 -26.19335938 99.015625 C-19.57981818 114.17008226 -8.82605205 123.59987342 6.16992188 130.16796875 C20.74846209 135.45070572 36.71950218 133.0990774 50.68164062 127.078125 C68.4475795 118.12636644 79.26524759 104.31286259 85.84960938 85.79296875 C91.31115422 65.51089377 86.98367698 44.7060198 76.72509766 26.78320312 C74.77844258 23.60223938 72.55567176 20.69909144 70.12695312 17.875 C68.68164062 16.078125 68.68164062 16.078125 67.73632812 13.96875 C66.39565476 11.56546886 65.15630951 11.19967218 62.68164062 10.078125 C61.29412649 8.97290741 59.94032079 7.82434133 58.61914062 6.640625 C57.94753906 6.04378906 57.2759375 5.44695312 56.58398438 4.83203125 C54.90619272 3.28515558 53.28004819 1.70640934 51.68164062 0.078125 C81.31732128 6.33122036 109.2223029 16.83619312 133.68164062 35.078125 C135.22658203 36.19574219 135.22658203 36.19574219 136.80273438 37.3359375 C143.23347812 42.10586493 149.20203638 47.24099683 155.05664062 52.703125 C155.71059814 53.31236816 156.36455566 53.92161133 157.03833008 54.54931641 C161.54574042 58.82420844 165.6744845 63.33365215 169.68164062 68.078125 C170.17519043 68.66013672 170.66874023 69.24214844 171.17724609 69.84179688 C188.18408817 90.12657531 206.87675597 116.87300923 209.99804688 143.80859375 C209.68164062 146.078125 209.68164062 146.078125 208.31835938 147.67578125 C207.67511719 148.15917969 207.031875 148.64257812 206.36914062 149.140625 C202.6362722 152.17192595 199.34153671 155.45561795 196.11914062 159.015625 C195.25160156 159.97339844 194.3840625 160.93117188 193.49023438 161.91796875 C192.00475293 163.57791503 190.53487097 165.24836795 189.08032227 166.93554688 C184.6585631 172.05820123 180.02644354 176.91651758 175.24414062 181.703125 C174.53193359 182.42757812 173.81972656 183.15203125 173.0859375 183.8984375 C168.60075683 188.39583937 164.00108204 192.57661424 158.68164062 196.078125 C158.35164063 196.078125 158.02164062 196.078125 157.68164062 196.078125 C157.606875 195.35109375 157.53210938 194.6240625 157.45507812 193.875 C156.12585235 183.71033231 152.85470558 173.78422958 144.68164062 167.078125 C143.93914062 166.3975 143.19664062 165.716875 142.43164062 165.015625 C132.37895925 157.93305403 120.91930173 156.62305988 108.97851562 158.50390625 C99.67408986 161.23164258 92.23804544 167.40255753 87.08789062 175.4921875 C81.93218546 184.97295643 80.90126938 195.86203092 83.49023438 206.35546875 C86.39395776 214.16236518 91.52095113 222.19238782 98.95898438 226.3515625 C99.52746094 226.59132813 100.0959375 226.83109375 100.68164062 227.078125 C100.68164062 227.738125 100.68164062 228.398125 100.68164062 229.078125 C76.71612009 238.80067282 51.157735 237.06994566 25.793396 236.85021973 C21.05367386 236.82071414 16.31452428 236.83592897 11.57476902 236.85146713 C6.94932973 236.86184667 2.32422331 236.8472337 -2.30116463 236.82508087 C-4.48203101 236.81683104 -6.66293429 236.81515113 -8.84380913 236.82073212 C-25.09634339 236.83850608 -38.97287265 234.27813792 -54.31835938 229.078125 C-53.1861022 225.68135349 -52.30443013 225.05582385 -49.56835938 222.890625 C-45.44801656 219.38206833 -42.78880499 215.86929225 -40.31835938 211.078125 C-39.72023438 209.94375 -39.12210937 208.809375 -38.50585938 207.640625 C-35.85017873 199.94830865 -35.74787368 188.65904714 -38.94335938 181.078125 C-39.69686559 179.72286035 -40.48954397 178.38868935 -41.31835938 177.078125 C-41.73085937 176.32273437 -42.14335937 175.56734375 -42.56835938 174.7890625 C-47.63595501 166.17990855 -55.73848959 160.69081676 -65.31835938 158.078125 C-68.31206871 157.66690855 -71.23699596 157.60071678 -74.25585938 157.640625 C-75.44163574 157.64980957 -75.44163574 157.64980957 -76.65136719 157.65917969 C-82.60904255 157.81900177 -87.25835323 158.79137994 -92.31835938 162.078125 C-93.39085937 162.7175 -94.46335937 163.356875 -95.56835938 164.015625 C-98.45049343 166.17722554 -100.87009828 168.43658013 -103.31835938 171.078125 C-103.99898437 171.779375 -104.67960937 172.480625 -105.38085938 173.203125 C-110.05150504 180.1337605 -111.77849969 187.8452648 -112.31835938 196.078125 C-126.34923656 188.27756512 -139.24983811 173.29786158 -149.56445312 161.125 C-152.03128577 158.2461129 -154.57786093 155.4430874 -157.13085938 152.640625 C-157.61200195 152.10735596 -158.09314453 151.57408691 -158.58886719 151.0246582 C-161.14492589 148.16467589 -161.14492589 148.16467589 -164.31835938 146.078125 C-163.80612101 139.68463138 -162.66140356 134.24789424 -160.38085938 128.265625 C-160.07438477 127.45375732 -159.76791016 126.64188965 -159.45214844 125.80541992 C-153.32397922 110.02372057 -145.43370783 95.63477757 -135.31835938 82.078125 C-134.88442871 81.48870117 -134.45049805 80.89927734 -134.00341797 80.29199219 C-128.62276688 73.02740497 -122.79309846 66.2533112 -116.63085938 59.640625 C-116.02532227 58.99029297 -115.41978516 58.33996094 -114.79589844 57.66992188 C-100.22014759 42.2962573 -82.93647282 30.02988255 -64.31835938 20.078125 C-63.28630371 19.51786621 -63.28630371 19.51786621 -62.23339844 18.94628906 C-43.08061975 8.61743575 -21.89593731 0.73785804 0 0 Z " fill="#A861E7" transform="translate(233.318359375,141.921875)"/>
<path d="M0 0 C1.34010132 -0.01522705 1.34010132 -0.01522705 2.70727539 -0.03076172 C7.45755496 0.0336089 10.98735001 0.20040234 14.75 3.4375 C16.14859162 10.15073976 12.75218513 15.57341876 9.75 21.4375 C9.43353516 22.05947266 9.11707031 22.68144531 8.79101562 23.32226562 C4.71184598 31.30189843 0.40351391 39.11643515 -4.1875 46.8125 C-19.46030269 72.54074938 -32.60143422 98.47513228 -27.6328125 129.26171875 C-26.72277866 132.47099739 -25.61195784 135.39222348 -24.25 138.4375 C-23.83137695 139.38979492 -23.83137695 139.38979492 -23.40429688 140.36132812 C-19.74961382 148.5475078 -15.79666015 155.73617383 -9.71875 162.421875 C-8.25 164.4375 -8.25 164.4375 -8.25 168.4375 C-9.22802734 170.22094727 -9.22802734 170.22094727 -10.5859375 172.00390625 C-11.07320313 172.65423828 -11.56046875 173.30457031 -12.0625 173.97460938 C-12.578125 174.64298828 -13.09375 175.31136719 -13.625 176 C-14.63314474 177.33438447 -15.64096931 178.6690109 -16.6484375 180.00390625 C-17.32398682 180.88477905 -17.32398682 180.88477905 -18.01318359 181.78344727 C-19.14479569 183.29680533 -20.20180762 184.86521144 -21.25 186.4375 C-26.90355597 185.95130665 -31.44566387 184.83585259 -36.5625 182.3125 C-37.20985107 181.99974121 -37.85720215 181.68698242 -38.52416992 181.36474609 C-48.67214441 176.36160533 -57.07194783 170.24894983 -65.25 162.4375 C-65.85328125 161.90898437 -66.4565625 161.38046875 -67.078125 160.8359375 C-83.53895547 145.83658263 -92.35215258 121.60651771 -93.69921875 99.796875 C-94.56976168 73.75520518 -85.76102064 50.60448145 -68.6875 31.0625 C-50.53598443 11.69464576 -26.66098116 0.21707512 0 0 Z " fill="#E1CAA9" transform="translate(105.25,38.5625)"/>
<path d="M0 0 C0.84240234 0.01160156 1.68480469 0.02320313 2.55273438 0.03515625 C28.2753833 0.69421432 49.9565671 11.46846092 68.1875 29.375 C68.78820312 29.9628125 69.38890625 30.550625 70.0078125 31.15625 C80.13802595 41.89898799 86.93638905 55.35762646 91.1875 69.375 C91.52652344 70.4784375 91.86554688 71.581875 92.21484375 72.71875 C98.17527424 95.79138416 93.69924059 121.69233099 82.1875 142.375 C70.39512584 162.32886833 53.32677435 175.50639109 32.1875 184.375 C31.34316406 184.75785156 30.49882812 185.14070312 29.62890625 185.53515625 C26.8401446 186.49449026 25.10471144 186.89944251 22.1875 186.375 C20.16015625 184.25 20.16015625 184.25 18.25 181.375 C17.57066406 180.37855469 16.89132812 179.38210937 16.19140625 178.35546875 C15.19947266 176.88013672 15.19947266 176.88013672 14.1875 175.375 C13.03200956 173.80421701 11.86684946 172.24044952 10.6875 170.6875 C10.2028125 170.04425781 9.718125 169.40101563 9.21875 168.73828125 C8.8784375 168.28839844 8.538125 167.83851563 8.1875 167.375 C9.68060547 164.08715159 11.59664381 161.46765216 13.8125 158.625 C17.16126745 154.06238059 19.94073052 149.421413 22.5 144.375 C22.82500488 143.74754883 23.15000977 143.12009766 23.48486328 142.47363281 C27.981056 133.34125176 29.7354302 124.26042171 29.625 114.125 C29.61597656 113.11920898 29.60695313 112.11341797 29.59765625 111.07714844 C28.97195821 83.97225679 12.72434373 58.75829414 -0.76416016 36.09887695 C-14.94811499 12.13545852 -14.94811499 12.13545852 -13.8125 3.375 C-9.55881794 -0.25660208 -5.312811 -0.093881 0 0 Z " fill="#E1CAA9" transform="translate(405.8125,38.625)"/>
<path d="M0 0 C0.33 0 0.66 0 1 0 C2.59704143 8.98335806 2.14666151 17.72613806 1.125 26.75 C1.04660889 27.45882324 0.96821777 28.16764648 0.88745117 28.89794922 C0.33686824 33.40924522 -0.32077895 37.75130419 -2 42 C-4.08203125 43.34765625 -4.08203125 43.34765625 -6.8125 44.0625 C-7.87210938 44.3615625 -8.93171875 44.660625 -10.0234375 44.96875 C-10.63670898 45.12730469 -11.24998047 45.28585937 -11.88183594 45.44921875 C-15.30364197 46.33898297 -18.7041154 47.30333858 -22.10620117 48.26538086 C-23.96806403 48.78956662 -25.83278959 49.30370685 -27.70043945 49.80688477 C-34.22296199 51.57548965 -34.22296199 51.57548965 -40 55 C-40.58350505 57.54290625 -40.58350505 57.54290625 -40 60 C-38.11915148 62.29927735 -38.11915148 62.29927735 -35.05078125 62.31640625 C-29.88022988 62.15794743 -25.09021362 60.46415356 -20.1875 58.9375 C-18.06067576 58.29429045 -15.93303886 57.6537632 -13.8046875 57.015625 C-12.69834961 56.68369141 -11.59201172 56.35175781 -10.45214844 56.00976562 C-3.49457806 53.97465169 3.52090143 52.14904213 10.5324707 50.31030273 C11.56718506 50.03645752 12.60189941 49.7626123 13.66796875 49.48046875 C14.57828857 49.24223389 15.4886084 49.00399902 16.42651367 48.75854492 C19.05170774 48.04287234 19.05170774 48.04287234 21.64575195 46.8449707 C24 46 24 46 27 47 C18.75760968 53.67917837 10.44145886 60.22387091 1.92944336 66.55639648 C-3.17286255 70.35929937 -8.2051844 74.24190409 -13.18579102 78.20288086 C-15.64593605 80.15909354 -18.11389212 82.08245054 -20.66015625 83.92578125 C-25.42439348 87.38561964 -28.33694462 90.69965004 -31.4375 95.6875 C-54.22983153 129.42015066 -105.62340028 146.88640329 -143.1640625 154.37109375 C-146.22314751 154.87263416 -148.91879545 155.15223343 -152 155 C-150.69262477 145.92642565 -148.73680723 137.02806994 -146.67700195 128.09936523 C-145.03437771 121.12261682 -145.03437771 121.12261682 -145 114 C-147.94192784 111.05807216 -151.12190973 111.64462603 -155.0703125 111.5859375 C-155.86654022 111.56657135 -156.66276794 111.5472052 -157.48312378 111.5272522 C-160.03030634 111.46739526 -162.57753395 111.42104721 -165.125 111.375 C-166.8502803 111.33682579 -168.57554143 111.29777439 -170.30078125 111.2578125 C-174.53369876 111.16168891 -178.76670549 111.07768092 -183 111 C-179.48199173 108.14416564 -175.61237395 106.07024046 -171.61328125 103.98046875 C-170.88792175 103.60127289 -170.16256226 103.22207703 -169.41522217 102.83139038 C-155.61729416 95.67638613 -142.51343573 88.95216773 -127.12915039 85.99951172 C-117.35273269 84.08738439 -108.37771544 80.59044897 -99.17993164 76.86743164 C-92.46750145 74.18065221 -86.01095683 72.13420366 -78.89746094 70.79296875 C-72.6122268 69.072844 -67.66441287 65.05796862 -63.62109375 60.05859375 C-61.03314988 56.86227879 -57.96579655 54.64146802 -54.5625 52.375 C-36.74488921 40.00224489 -21.05049913 24.47347687 -7 8 C-5.70833333 6.5 -4.41666667 5 -3.125 3.5 C-2.26261719 2.49453125 -2.26261719 2.49453125 -1.3828125 1.46875 C-0.92648437 0.9840625 -0.47015625 0.499375 0 0 Z " fill="#FDF9E9" transform="translate(445,301)"/>
<path d="M0 0 C4.97214276 3.88069678 8.91506611 8.21164388 13 13 C26.54131321 28.64836402 41.11432791 42.30925482 58 54.25 C61.14424429 56.49261965 63.68135805 58.58722002 66.0625 61.625 C71.90919498 68.8551383 79.52622771 71.38037552 88.36767578 73.32763672 C94.0764141 74.63379605 99.33154206 76.61021898 104.75 78.8125 C111.58507798 81.58080666 118.21009775 83.55926829 125.43164062 85.04345703 C146.61882005 89.47122258 165.04602009 99.87066051 184 110 C184 110.33 184 110.66 184 111 C182.37989014 111.029729 182.37989014 111.029729 180.72705078 111.06005859 C176.72746087 111.13601623 172.72823948 111.22474816 168.72900391 111.31738281 C166.99665593 111.35571341 165.26422726 111.39055906 163.53173828 111.421875 C161.04430251 111.46743765 158.55742434 111.52544503 156.0703125 111.5859375 C154.90461227 111.60326431 154.90461227 111.60326431 153.71536255 111.62094116 C149.39349025 111.58793768 149.39349025 111.58793768 146 114 C145.689161 122.64853208 148.00780438 131.23407018 150.0625 139.5625 C150.61870708 141.85478593 151.17222636 144.14772623 151.72265625 146.44140625 C152.09015991 147.93716187 152.09015991 147.93716187 152.46508789 149.46313477 C153 152 153 152 153 155 C139.25101965 154.06183428 126.2605057 150.78422938 113.25 146.375 C112.27770447 146.0473616 112.27770447 146.0473616 111.2857666 145.71310425 C82.49478066 135.96656943 47.87250767 119.0630973 30.37890625 92.8515625 C26.67960541 87.88422936 21.82470223 84.11911145 17 80.3125 C16.01314209 79.52866943 16.01314209 79.52866943 15.00634766 78.72900391 C9.2525428 74.17108247 3.44391387 69.68610212 -2.38964844 65.23095703 C-5.18091502 63.09730541 -7.96532611 60.95474438 -10.75 58.8125 C-11.28729736 58.39935547 -11.82459473 57.98621094 -12.37817383 57.56054688 C-16.93188614 54.05715227 -21.47051171 50.53463944 -26 47 C-23.31882597 45.65941299 -22.32489637 46.29694991 -19.4777832 47.13989258 C-18.53953201 47.41380325 -17.60128082 47.68771393 -16.63459778 47.96992493 C-15.1081086 48.42760506 -15.1081086 48.42760506 -13.55078125 48.89453125 C-11.98181343 49.35565559 -11.98181343 49.35565559 -10.38114929 49.82609558 C-7.02287998 50.81475438 -3.66769219 51.81345379 -0.3125 52.8125 C1.93144243 53.47528077 4.17558082 54.13739846 6.41992188 54.79882812 C10.55813046 56.01903731 14.69503715 57.24348817 18.83081055 58.47192383 C20.55371287 58.98182628 22.27676072 59.49123747 24 60 C24.7134407 60.21101349 25.42688141 60.42202698 26.16194153 60.63943481 C30.740755 61.97492671 34.25028997 62.32201424 39 62 C41.20857238 60.17213728 41.20857238 60.17213728 41.4375 57.5625 C41.27701604 54.83254428 41.27701604 54.83254428 38.92041016 53.47460938 C35.60698401 51.80155354 32.41714664 50.8215734 28.8359375 49.84375 C27.45309543 49.45713699 26.07028383 49.07041501 24.6875 48.68359375 C22.52459632 48.08820428 20.36083151 47.49614193 18.19628906 46.90673828 C16.09458713 46.33160075 13.99650212 45.74449418 11.8984375 45.15625 C10.64724121 44.81400391 9.39604492 44.47175781 8.10693359 44.11914062 C5.19183449 43.06910021 3.82037397 42.44487892 2 40 C-2.07749193 27.92787503 -2.21559382 12.46271525 0 0 Z " fill="#FDF9E9" transform="translate(66,301)"/>
<path d="M0 0 C7.29042063 3.15134311 10.87792721 10.88477246 13.90234375 17.8671875 C19.93149635 35.07494688 19.45180095 53.68854051 19.65206528 71.67496586 C19.69839201 75.78609894 19.76624966 79.89441098 19.88476562 84.00415039 C19.99954625 88.00130531 20.05995173 91.99592368 20.0825882 95.994627 C20.10031374 97.51033176 20.13703569 99.02594429 20.19359589 100.5406971 C20.35929723 105.19298626 20.34195714 109.49219 19 114 C15.72320742 117.32925751 12.21363239 119.08477686 8 121 C6.74723928 121.85202194 5.51240681 122.73294898 4.3203125 123.66796875 C3.52572632 124.2863562 3.52572632 124.2863562 2.71508789 124.91723633 C2.19035889 125.33642334 1.66562988 125.75561035 1.125 126.1875 C0.54548584 126.64600342 -0.03402832 127.10450684 -0.63110352 127.5769043 C-6.02970939 131.90938971 -11.09564823 136.57327966 -16.1328125 141.31640625 C-19.34087124 144.31904433 -22.63166551 147.17999903 -26 150 C-38.20700737 137.18264226 -44.73569055 121.69245509 -44.53027344 104.04370117 C-43.63671622 80.45420827 -30.19627827 58.64533077 -18.18798828 38.96630859 C-6.81123447 20.43838458 -6.81123447 20.43838458 0 0 Z " fill="#8A4EDE" transform="translate(132,46)"/>
<path d="M0 0 C0.16113281 0.69480469 0.32226562 1.38960937 0.48828125 2.10546875 C4.72831435 17.96037924 13.76668413 31.99284699 22.0625 46 C35.12231818 68.13185135 49.01826396 92.60303119 43.53417969 119.26464844 C40.71781882 129.74803598 34.34829662 143.97225218 25 150 C24.15179688 149.11699219 23.30359375 148.23398438 22.4296875 147.32421875 C14.95736596 139.64212141 7.28318182 132.68490301 -1.30078125 126.27148438 C-3.01263385 124.99054639 -4.71050261 123.69278668 -6.40625 122.390625 C-12.42410285 117.75841613 -12.42410285 117.75841613 -19 114 C-19.07021707 105.20131762 -19.12316855 96.40273504 -19.15543652 87.60383129 C-19.17094129 83.51597728 -19.19189288 79.4283181 -19.22631836 75.34057617 C-19.65641014 22.87385914 -19.65641014 22.87385914 -6 4 C-1.71428571 0 -1.71428571 0 0 0 Z " fill="#8A4EDE" transform="translate(380,46)"/>
<path d="M0 0 C21.66515123 -0.65011707 39.43116955 3.74830353 55.97851562 18.3515625 C67.56378106 30.03727822 67.56378106 30.03727822 68.68164062 37.078125 C66.34808792 36.93531644 64.01484474 36.78894063 61.68164062 36.640625 C59.77669271 36.52156576 57.87174479 36.40250651 55.96679688 36.28344727 C54.00346633 36.10704118 52.0481579 35.84507227 50.09667969 35.56665039 C45.05751952 34.92773869 40.0517128 34.93452942 34.97851562 34.9453125 C33.97830383 34.94435577 32.97809204 34.94339905 31.9475708 34.94241333 C29.84655697 34.94173631 27.745541 34.94355705 25.64453125 34.94775391 C22.42768693 34.95313161 19.21098078 34.94778109 15.99414062 34.94140625 C13.94726532 34.94206667 11.9003901 34.9433471 9.85351562 34.9453125 C8.89306335 34.94328827 7.93261108 34.94126404 6.9430542 34.93917847 C5.6008078 34.94390671 5.6008078 34.94390671 4.23144531 34.94873047 C3.05518585 34.94992386 3.05518585 34.94992386 1.85516357 34.95114136 C-0.32946262 35.07877368 -2.20722688 35.52418459 -4.31835938 36.078125 C-6.33060999 36.25066302 -8.34315906 36.42054347 -10.35717773 36.57104492 C-31.98073629 38.28059518 -53.01895583 43.56574731 -73.31835938 51.078125 C-74.62564787 51.54167561 -75.93293934 52.00521784 -77.24023438 52.46875 C-100.64615967 61.20830151 -120.79703253 75.57344692 -139.31835938 92.078125 C-139.64835937 91.088125 -139.97835937 90.098125 -140.31835938 89.078125 C-139.47314453 87.42749023 -139.47314453 87.42749023 -138.10742188 85.63671875 C-137.35948364 84.64478516 -137.35948364 84.64478516 -136.59643555 83.6328125 C-136.05092041 82.93414062 -135.50540527 82.23546875 -134.94335938 81.515625 C-134.39333252 80.79761719 -133.84330566 80.07960938 -133.27661133 79.33984375 C-129.48930586 74.44632604 -125.53446009 69.75498353 -121.31445312 65.2265625 C-119.49450691 63.26771628 -117.78118564 61.25516625 -116.06835938 59.203125 C-102.64400247 43.94400405 -85.72585263 32.04885108 -68.11425781 22.09570312 C-66.92767125 21.4233686 -65.74587622 20.74249836 -64.56933594 20.05273438 C-45.27835523 8.74832776 -22.42272428 0.75560992 0 0 Z " fill="#BB7CFD" transform="translate(233.318359375,141.921875)"/>
<path d="M0 0 C1.64772641 14.49999238 -10.92514695 30.5320976 -18.0534668 42.54882812 C-31.79424352 65.749721 -31.79424352 65.749721 -41 91 C-41.17152588 91.65597168 -41.34305176 92.31194336 -41.51977539 92.98779297 C-45.86597703 110.78800244 -42.9409457 127.50329697 -33.77734375 143.265625 C-25.87317078 155.42589111 -16.03063583 166.07320898 -5.75 176.25 C-4.8425 177.1575 -3.935 178.065 -3 179 C-3 179.33 -3 179.66 -3 180 C-20.73604943 178.20166799 -36.81257005 164.141033 -48 151 C-64.18479322 130.48120357 -71.43616542 104.97747821 -69 79 C-65.86327426 54.63200599 -53.09517606 32.52830129 -34.33984375 16.78125 C-25.02855135 9.69285378 -12.10057161 0 0 0 Z " fill="#F0E8C7" transform="translate(81,43)"/>
<path d="M0 0 C18.95522399 2.70788914 37.39148347 16.65751382 48.89453125 31.43359375 C50.67066025 33.91398305 52.34861087 36.43516133 54 39 C54.51304687 39.75667969 55.02609375 40.51335937 55.5546875 41.29296875 C68.38991862 61.14434953 72.33216824 86.21593943 67.56176758 109.21630859 C61.76360438 133.91008927 48.64081659 155.93797702 27 169.9375 C9.81065455 180.57451877 9.81065455 180.57451877 4.82861328 179.55615234 C4.2251709 179.37262207 3.62172852 179.1890918 3 179 C3.40726318 178.60321045 3.81452637 178.2064209 4.23413086 177.79760742 C21.73985615 160.68205064 42.89317628 139.32157233 43.38085938 113.08740234 C43.31204806 83.43545798 27.8249713 58.54542647 13.04833984 33.72412109 C-0.4375274 10.93818495 -0.4375274 10.93818495 0 0 Z " fill="#F0E8C7" transform="translate(431,43)"/>
<path d="M0 0 C0.33 0 0.66 0 1 0 C2.59704143 8.98335806 2.14666151 17.72613806 1.125 26.75 C1.04660889 27.45882324 0.96821777 28.16764648 0.88745117 28.89794922 C0.33686824 33.40924522 -0.32077895 37.75130419 -2 42 C-4.08203125 43.34765625 -4.08203125 43.34765625 -6.8125 44.0625 C-7.87210938 44.3615625 -8.93171875 44.660625 -10.0234375 44.96875 C-10.63670898 45.12730469 -11.24998047 45.28585937 -11.88183594 45.44921875 C-15.30364197 46.33898297 -18.7041154 47.30333858 -22.10620117 48.26538086 C-23.96806403 48.78956662 -25.83278959 49.30370685 -27.70043945 49.80688477 C-34.21980129 51.57979302 -34.21980129 51.57979302 -40 55 C-40.65998008 58.67703187 -39.69680305 60.79038459 -38 64 C-65.24347199 90.13149354 -102.03672267 109.67578186 -139.47265625 115.46484375 C-142.15672464 115.79319866 -142.15672464 115.79319866 -144 118 C-144.309375 117.195625 -144.61875 116.39125 -144.9375 115.5625 C-145.76335345 113.10919595 -145.76335345 113.10919595 -147 112 C-149.66426685 111.83996512 -152.30560428 111.74057111 -154.97265625 111.68359375 C-155.77029892 111.66281265 -156.56794159 111.64203156 -157.38975525 111.62062073 C-159.94724611 111.55503842 -162.5048428 111.49620033 -165.0625 111.4375 C-166.79232882 111.39432301 -168.52214679 111.35070899 -170.25195312 111.30664062 C-174.5011926 111.19934828 -178.7505389 111.09810574 -183 111 C-179.48199173 108.14416564 -175.61237395 106.07024046 -171.61328125 103.98046875 C-170.88792175 103.60127289 -170.16256226 103.22207703 -169.41522217 102.83139038 C-155.61729416 95.67638613 -142.51343573 88.95216773 -127.12915039 85.99951172 C-117.35273269 84.08738439 -108.37771544 80.59044897 -99.17993164 76.86743164 C-92.46750145 74.18065221 -86.01095683 72.13420366 -78.89746094 70.79296875 C-72.6122268 69.072844 -67.66441287 65.05796862 -63.62109375 60.05859375 C-61.03314988 56.86227879 -57.96579655 54.64146802 -54.5625 52.375 C-36.74488921 40.00224489 -21.05049913 24.47347687 -7 8 C-5.70833333 6.5 -4.41666667 5 -3.125 3.5 C-2.26261719 2.49453125 -2.26261719 2.49453125 -1.3828125 1.46875 C-0.92648437 0.9840625 -0.47015625 0.499375 0 0 Z " fill="#EFE7C7" transform="translate(445,301)"/>
<path d="M0 0 C4.97214276 3.88069678 8.91506611 8.21164388 13 13 C26.54131321 28.64836402 41.11432791 42.30925482 58 54.25 C61.14424429 56.49261965 63.68135805 58.58722002 66.0625 61.625 C71.90919498 68.8551383 79.52622771 71.38037552 88.36767578 73.32763672 C94.0764141 74.63379605 99.33154206 76.61021898 104.75 78.8125 C111.58507798 81.58080666 118.21009775 83.55926829 125.43164062 85.04345703 C146.61882005 89.47122258 165.04602009 99.87066051 184 110 C184 110.33 184 110.66 184 111 C182.37989014 111.029729 182.37989014 111.029729 180.72705078 111.06005859 C176.72746087 111.13601623 172.72823948 111.22474816 168.72900391 111.31738281 C166.99665593 111.35571341 165.26422726 111.39055906 163.53173828 111.421875 C161.04430251 111.46743765 158.55742434 111.52544503 156.0703125 111.5859375 C154.90461227 111.60326431 154.90461227 111.60326431 153.71536255 111.62094116 C149.39349025 111.58793768 149.39349025 111.58793768 146 114 C145.30251417 115.31747324 144.63040043 116.64914193 144 118 C143.67 117.34 143.34 116.68 143 116 C141.02038953 115.47793809 139.01305062 115.06037188 137 114.6875 C100.10692642 107.15982236 66.5948768 89.52704365 39 64 C39.32097656 63.39285156 39.64195313 62.78570312 39.97265625 62.16015625 C41.24607375 59.48259018 41.52529105 57.92662158 41 55 C37.21410183 52.23724548 33.32415308 51.06922498 28.8359375 49.84375 C27.45309543 49.45713699 26.07028383 49.07041501 24.6875 48.68359375 C22.52459632 48.08820428 20.36083151 47.49614193 18.19628906 46.90673828 C16.09458713 46.33160075 13.99650212 45.74449418 11.8984375 45.15625 C10.64724121 44.81400391 9.39604492 44.47175781 8.10693359 44.11914062 C5.19183449 43.06910021 3.82037397 42.44487892 2 40 C-2.07749193 27.92787503 -2.21559382 12.46271525 0 0 Z " fill="#EFE7C7" transform="translate(66,301)"/>
<path d="M0 0 C29.63568066 6.25309536 57.54066227 16.75806812 82 35 C83.02996094 35.74507812 84.05992187 36.49015625 85.12109375 37.2578125 C91.55183749 42.02773993 97.52039575 47.16287183 103.375 52.625 C104.35593628 53.53886475 104.35593628 53.53886475 105.35668945 54.47119141 C112.18938212 60.95141425 118.18932423 68.09023058 124.0625 75.4375 C124.5790918 76.08275635 125.09568359 76.7280127 125.62792969 77.39282227 C129.3561676 82.09193096 132.84453022 86.89312128 136 92 C135.67 92.66 135.34 93.32 135 94 C134.23558594 93.26136719 133.47117187 92.52273437 132.68359375 91.76171875 C120.56695589 80.2166747 107.6836636 70.81760561 92.88183594 62.99804688 C91.16303721 62.0864681 89.4595134 61.14623634 87.7578125 60.203125 C72.70146212 52.17797981 55.94622088 46.60032472 39.39355469 42.58349609 C33.10480847 41.00303883 33.10480847 41.00303883 31 38 C29.87138155 35.98301356 28.79337538 33.93737283 27.75 31.875 C25.06991997 26.77089854 22.18102579 22.31422067 18.48046875 17.90234375 C17 16 17 16 16.05078125 13.87890625 C14.71255913 11.4860258 13.46587684 11.11756253 11 10 C9.61248587 8.89478241 8.25868017 7.74621633 6.9375 6.5625 C6.26589844 5.96566406 5.59429687 5.36882812 4.90234375 4.75390625 C3.2245521 3.20703058 1.59840757 1.62828434 0 0 Z " fill="#BA7CFC" transform="translate(285,142)"/>
<path d="M0 0 C7.29042063 3.15134311 10.87792721 10.88477246 13.90234375 17.8671875 C19.93149635 35.07494688 19.45180095 53.68854051 19.65206528 71.67496586 C19.69839201 75.78609894 19.76624966 79.89441098 19.88476562 84.00415039 C19.99954625 88.00130531 20.05995173 91.99592368 20.0825882 95.994627 C20.10031374 97.51033176 20.13703569 99.02594429 20.19359589 100.5406971 C20.35929298 105.19286709 20.34290497 109.49256979 19 114 C15.71709077 117.31677733 12.18842276 119.04760748 8 121 C6.04317601 122.44528064 6.04317601 122.44528064 4.4375 123.9375 C2 126 2 126 0 126 C-0.00586624 124.94558716 -0.01173248 123.89117432 -0.01777649 122.80480957 C-0.07532333 112.80267106 -0.14824761 102.80074333 -0.23571491 92.7988205 C-0.28018799 87.65837716 -0.31949305 82.51800889 -0.34643555 77.37744141 C-0.37270099 72.40409249 -0.4132621 67.43103614 -0.46318626 62.45787048 C-0.47969952 60.57319313 -0.49130944 58.68846535 -0.49761391 56.8037262 C-0.53570012 46.45151801 -1.0614531 36.6906637 -3.26408386 26.55725098 C-5.61524968 15.19225097 -5.61524968 15.19225097 -3.125 9.25 C-1.86805584 6.17356325 -0.71383697 3.2502364 0 0 Z " fill="#A761E6" transform="translate(132,46)"/>
<path d="M0 0 C0.41572266 1.37285156 0.41572266 1.37285156 0.83984375 2.7734375 C1.20207031 3.96195313 1.56429688 5.15046875 1.9375 6.375 C2.29714844 7.55835938 2.65679687 8.74171875 3.02734375 9.9609375 C3.87576274 12.87926818 3.87576274 12.87926818 5 15 C5.51798799 20.05038294 4.19467177 24.33942268 2.75390625 29.12109375 C1.1392938 35.28673816 0.84144298 41.35957553 0.79467773 47.68920898 C0.77982834 48.94895287 0.77982834 48.94895287 0.76467896 50.23414612 C0.73329212 52.98810077 0.70839753 55.74207262 0.68359375 58.49609375 C0.66300448 60.4142347 0.64200751 62.33237132 0.62062073 64.25050354 C0.56560377 69.28262811 0.51610517 74.31479224 0.46777344 79.34698486 C0.41740903 84.48852023 0.36180118 89.62999862 0.30664062 94.77148438 C0.19930851 104.8476075 0.09780882 114.92378024 0 125 C-4.21184668 124.12818996 -7.18640827 121.97916324 -10.625 119.5 C-14.67588444 116.52934432 -14.67588444 116.52934432 -19 114 C-19.07021707 105.20131762 -19.12316855 96.40273504 -19.15543652 87.60383129 C-19.17094129 83.51597728 -19.19189288 79.4283181 -19.22631836 75.34057617 C-19.65641014 22.87385914 -19.65641014 22.87385914 -6 4 C-1.71428571 0 -1.71428571 0 0 0 Z " fill="#A761E6" transform="translate(380,46)"/>
<path d="M0 0 C1.51835449 0.01015137 1.51835449 0.01015137 3.06738281 0.02050781 C14.19526223 0.17451451 29.29890296 0.55904849 37.75 8.9375 C38.36875 9.700625 38.9875 10.46375 39.625 11.25 C40.12 11.745 40.12 11.745 40.625 12.25 C41 14.625 41 14.625 40.625 17.25 C36.74998103 20.27183319 33.72937422 20.62841931 28.89453125 20.63818359 C28.23858978 20.64344055 27.58264832 20.64869751 26.90682983 20.65411377 C24.75014048 20.66725989 22.59419617 20.65859555 20.4375 20.6484375 C18.93204609 20.6504598 17.42659314 20.65337254 15.92114258 20.65713501 C12.77057542 20.66155104 9.62026394 20.65515079 6.46972656 20.64111328 C2.43790839 20.62402155 -1.59331061 20.63386664 -5.62510681 20.65183067 C-8.73242684 20.66268818 -11.83960558 20.65921321 -14.94692993 20.6514473 C-16.43323844 20.64945071 -17.91955991 20.65188551 -19.40585327 20.65888596 C-21.48575662 20.6665332 -23.56469918 20.65485214 -25.64453125 20.63818359 C-26.82635986 20.63579681 -28.00818848 20.63341003 -29.22583008 20.63095093 C-32.66344907 20.2151067 -34.57545867 19.23687067 -37.375 17.25 C-37.25669162 11.2162725 -37.25669162 11.2162725 -35.03125 8.77734375 C-24.88613843 1.23768129 -12.27202619 -0.11874833 0 0 Z " fill="#BB7CFE" transform="translate(254.375,336.75)"/>
<path d="M0 0 C8.25 0 16.5 0 25 0 C23.8756454 11.24354603 23.8756454 11.24354603 22.44140625 16.96875 C22.13783203 18.19980469 21.83425781 19.43085938 21.52148438 20.69921875 C21.20501953 21.95347656 20.88855469 23.20773437 20.5625 24.5 C18.53336351 32.64164869 16.56555972 40.75524329 15 49 C10.05 49 5.1 49 0 49 C0 32.83 0 16.66 0 0 Z " fill="#FDFDFD" transform="translate(262,424)"/>
<path d="M0 0 C8.25 0 16.5 0 25 0 C25 16.17 25 32.34 25 49 C20.05 49 15.1 49 10 49 C2.96142578 17.32641602 2.96142578 17.32641602 2.48931885 15.18630981 C2.14625404 13.653473 1.79366325 12.12275173 1.434021 10.59371948 C1.250672 9.80474274 1.067323 9.01576599 0.87841797 8.20288086 C0.71034637 7.49296494 0.54227478 6.78304901 0.36911011 6.05162048 C0 4 0 4 0 0 Z " fill="#FDFDFD" transform="translate(225,424)"/>
<path d="M0 0 C-3.41877314 6.83754627 -7.62573561 11.75083488 -14.75 14.875 C-21.73525875 17.11351921 -28.54144676 17.01782942 -35.25 14 C-40.52372716 11.04772212 -45.86741098 6.72136393 -47.68359375 0.75390625 C-47.78800781 0.17511719 -47.89242188 -0.40367187 -48 -1 C-32.16807198 -4.67117172 -15.67030537 -4.04394977 0 0 Z " fill="#A2145C" transform="translate(377,347)"/>
<path d="M0 0 C-3.17592109 6.92839401 -7.73633128 11.8507762 -14.8125 14.9375 C-21.78022836 17.10554072 -28.57603072 17.0022719 -35.25 14 C-40.9540336 10.81593021 -45.90316787 6.29049638 -48 0 C-31.78159325 -4.44484883 -16.23816321 -4.07774502 0 0 Z " fill="#A3145C" transform="translate(183,347)"/>
<path d="M0 0 C5.61 0 11.22 0 17 0 C16.34 3.96 15.68 7.92 15 12 C10.05 12 5.1 12 0 12 C0 8.04 0 4.08 0 0 Z " fill="#D1DEE0" transform="translate(262,461)"/>
<path d="M0 0 C5.61 0 11.22 0 17 0 C17 3.96 17 7.92 17 12 C12.05 12 7.1 12 2 12 C1.34 8.04 0.68 4.08 0 0 Z " fill="#D1DEE0" transform="translate(233,461)"/>
<path d="M0 0 C-0.25270241 3.677485 -0.60976789 7.33478199 -1 11 C-1.103125 12.299375 -1.20625 13.59875 -1.3125 14.9375 C-3.78127605 19.41787135 -7.11008386 19.94511312 -11.859375 21.37109375 C-14.99629396 21.99925787 -17.81036636 22.11937252 -21 22 C-20.195625 21.071875 -19.39125 20.14375 -18.5625 19.1875 C-15.01169223 15.06452415 -11.62797651 10.81279749 -8.24609375 6.55078125 C-2.47779479 0 -2.47779479 0 0 0 Z " fill="#FBF7E7" transform="translate(446,325)"/>
<path d="M0 0 C4.58137788 2.68178218 7.71296977 5.70942376 11.12109375 9.765625 C13.83131557 12.98859149 16.67252608 16.09123853 19.49609375 19.21484375 C21 21 21 21 21 22 C17.96371541 21.75902503 15.01023365 21.43587094 12 21 C11.17628906 20.896875 10.35257813 20.79375 9.50390625 20.6875 C6.85835075 20.13145549 5.17582407 19.62173223 3 18 C0.32441637 12.22413693 -0.14115048 6.2953115 0 0 Z " fill="#FAF6E6" transform="translate(66,325)"/>
<path d="M0 0 C2.375 1.625 2.375 1.625 4 4 C4.61195145 7.6717087 4.48706506 9.28813568 2.375 12.375 C-0.71186432 14.48706506 -2.3282913 14.61195145 -6 14 C-8.375 12.375 -8.375 12.375 -10 10 C-10.61195145 6.3282913 -10.48706506 4.71186432 -8.375 1.625 C-5.28813568 -0.48706506 -3.6717087 -0.61195145 0 0 Z " fill="#F5F5F5" transform="translate(146,319)"/>
<path d="M0 0 C4.91511194 1.34048507 4.91511194 1.34048507 6.4375 3.9375 C6.97818562 7.56781776 6.90129841 9.25964079 4.8125 12.3125 C1.72563568 14.42456506 0.1092087 14.54945145 -3.5625 13.9375 C-5.9375 12.3125 -5.9375 12.3125 -7.5625 9.9375 C-8.17225382 6.27897708 -8.00793026 4.63237121 -6 1.5 C-3.5625 -0.0625 -3.5625 -0.0625 0 0 Z " fill="#F6F6F6" transform="translate(337.5625,319.0625)"/>
</svg>
