<?xml version="1.0" encoding="UTF-8"?>
<svg version="1.1" xmlns="http://www.w3.org/2000/svg" width="512" height="512">
<path d="M0 0 C0.87841553 0.01281006 1.75683105 0.02562012 2.66186523 0.03881836 C37.87897024 1.08715017 69.09339262 16.40801753 94.125 40.5 C94.75664062 41.06847656 95.38828125 41.63695312 96.0390625 42.22265625 C115.44352873 60.20167591 127.64152401 87.85239917 132.125 113.5 C132.2578125 117.08984375 132.2578125 117.08984375 132.125 119.5 C133.28773438 118.99210937 134.45046875 118.48421875 135.6484375 117.9609375 C184.20818642 96.96890936 237.44541545 92.06692892 287.50537109 111.63012695 C291.40112709 113.20258914 295.2694228 114.8317214 299.125 116.5 C300.47904043 117.07972202 301.83319652 117.65917402 303.1875 118.23828125 C304.156875 118.65464844 305.12625 119.07101563 306.125 119.5 C306.13917969 118.91476563 306.15335937 118.32953125 306.16796875 117.7265625 C307.71066645 89.9580039 322.64166199 63.56030251 341.125 43.5 C341.98738281 42.55511719 342.84976562 41.61023438 343.73828125 40.63671875 C362.60993806 20.87040562 387.55410217 8.26309428 414.125 2.5 C415.15109375 2.27570312 416.1771875 2.05140625 417.234375 1.8203125 C423.95896351 0.5743862 430.73730356 0.16247252 437.5625 -0.0625 C438.84193481 -0.13936035 438.84193481 -0.13936035 440.1472168 -0.21777344 C443.56096771 -0.26763381 446.0805509 -0.27647786 448.8815918 1.8059082 C450.50361213 3.61553197 451.81955667 5.45081707 453.125 7.5 C453.759823 8.47658569 453.759823 8.47658569 454.4074707 9.47290039 C455.69322461 11.55446512 456.88903168 13.66572095 458.0625 15.8125 C458.48998535 16.59230225 458.9174707 17.37210449 459.35791016 18.17553711 C475.79549069 48.89661703 480.795556 86.79211293 471.125 120.5 C470.94308105 121.16547852 470.76116211 121.83095703 470.57373047 122.51660156 C467.70460374 132.80853604 463.17074828 142.14027291 458.125 151.5 C457.54621094 152.58539063 456.96742188 153.67078125 456.37109375 154.7890625 C452.34155074 162.02541119 447.55521865 168.26258668 442.125 174.5 C441.0421875 175.78390625 441.0421875 175.78390625 439.9375 177.09375 C428.80828848 189.97183762 414.83356053 199.18536699 400.125 207.5 C400.36621582 207.99701416 400.60743164 208.49402832 400.85595703 209.00610352 C419.80568955 248.18059811 430.65217804 287.25240288 416.02075195 329.85693359 C411.18423194 343.26246468 404.68932463 355.12527523 396.125 366.5 C395.45082031 367.39847656 394.77664063 368.29695313 394.08203125 369.22265625 C384.08418141 381.95912912 372.3457608 393.17826972 359.125 402.5 C358.56941406 402.89993164 358.01382812 403.29986328 357.44140625 403.71191406 C321.49937118 429.44592216 275.31854753 444.30885406 231.078125 444.73828125 C230.2369664 444.74802979 229.3958078 444.75777832 228.52915955 444.76782227 C208.36670281 444.95306341 188.9783731 444.36905666 169.125 440.5 C168.16416504 440.31276367 167.20333008 440.12552734 166.21337891 439.93261719 C126.77075516 431.93216907 88.43423446 414.23715263 59.53613281 385.87597656 C58.20829909 384.58122381 56.8510799 383.31680418 55.4921875 382.0546875 C44.45837308 371.57429324 36.159463 358.91672414 29.125 345.5 C28.59261719 344.489375 28.06023437 343.47875 27.51171875 342.4375 C11.51644898 310.03364599 12.2052204 274.97418265 23.18017578 241.20556641 C27.23827958 229.58491877 32.54906147 218.45589901 38.125 207.5 C37.38564209 207.06300781 37.38564209 207.06300781 36.63134766 206.6171875 C27.33593567 201.09851116 18.27286791 195.65728808 10.125 188.5 C9.2484375 187.76652344 8.371875 187.03304687 7.46875 186.27734375 C-17.41796976 164.78109002 -32.20732152 132.67145327 -36.875 100.5 C-37.80581661 82.65656652 -37.83139465 64.77611018 -32.875 47.5 C-32.69308105 46.83452148 -32.51116211 46.16904297 -32.32373047 45.48339844 C-28.10815895 30.3615896 -18.05764329 -0.40236477 0 0 Z " fill="#4F73E7" transform="translate(36.875,33.5)"/>
<path d="M0 0 C0.87841553 0.01281006 1.75683105 0.02562012 2.66186523 0.03881836 C37.87897024 1.08715017 69.09339262 16.40801753 94.125 40.5 C94.75664062 41.06847656 95.38828125 41.63695312 96.0390625 42.22265625 C115.44352873 60.20167591 127.64152401 87.85239917 132.125 113.5 C132.2578125 117.08984375 132.2578125 117.08984375 132.125 119.5 C133.28773438 118.99210937 134.45046875 118.48421875 135.6484375 117.9609375 C184.20818642 96.96890936 237.44541545 92.06692892 287.50537109 111.63012695 C291.40112709 113.20258914 295.2694228 114.8317214 299.125 116.5 C300.47904043 117.07972202 301.83319652 117.65917402 303.1875 118.23828125 C304.156875 118.65464844 305.12625 119.07101563 306.125 119.5 C306.13917969 118.91476563 306.15335937 118.32953125 306.16796875 117.7265625 C307.71066645 89.9580039 322.64166199 63.56030251 341.125 43.5 C341.98738281 42.55511719 342.84976562 41.61023438 343.73828125 40.63671875 C362.60993806 20.87040562 387.55410217 8.26309428 414.125 2.5 C415.15109375 2.27570312 416.1771875 2.05140625 417.234375 1.8203125 C423.95896351 0.5743862 430.73730356 0.16247252 437.5625 -0.0625 C438.84193481 -0.13936035 438.84193481 -0.13936035 440.1472168 -0.21777344 C443.56096771 -0.26763381 446.0805509 -0.27647786 448.8815918 1.8059082 C450.50361213 3.61553197 451.81955667 5.45081707 453.125 7.5 C453.759823 8.47658569 453.759823 8.47658569 454.4074707 9.47290039 C455.69322461 11.55446512 456.88903168 13.66572095 458.0625 15.8125 C458.48998535 16.59230225 458.9174707 17.37210449 459.35791016 18.17553711 C475.79549069 48.89661703 480.795556 86.79211293 471.125 120.5 C470.94308105 121.16547852 470.76116211 121.83095703 470.57373047 122.51660156 C467.70460374 132.80853604 463.17074828 142.14027291 458.125 151.5 C457.54621094 152.58539063 456.96742188 153.67078125 456.37109375 154.7890625 C452.34155074 162.02541119 447.55521865 168.26258668 442.125 174.5 C441.0421875 175.78390625 441.0421875 175.78390625 439.9375 177.09375 C428.80828848 189.97183762 414.83356053 199.18536699 400.125 207.5 C400.36621582 207.99701416 400.60743164 208.49402832 400.85595703 209.00610352 C419.80568955 248.18059811 430.65217804 287.25240288 416.02075195 329.85693359 C411.18423194 343.26246468 404.68932463 355.12527523 396.125 366.5 C395.45082031 367.39847656 394.77664063 368.29695313 394.08203125 369.22265625 C384.08418141 381.95912912 372.3457608 393.17826972 359.125 402.5 C358.56941406 402.89993164 358.01382812 403.29986328 357.44140625 403.71191406 C321.49937118 429.44592216 275.31854753 444.30885406 231.078125 444.73828125 C230.2369664 444.74802979 229.3958078 444.75777832 228.52915955 444.76782227 C208.36670281 444.95306341 188.9783731 444.36905666 169.125 440.5 C168.16416504 440.31276367 167.20333008 440.12552734 166.21337891 439.93261719 C126.77075516 431.93216907 88.43423446 414.23715263 59.53613281 385.87597656 C58.20829909 384.58122381 56.8510799 383.31680418 55.4921875 382.0546875 C44.45837308 371.57429324 36.159463 358.91672414 29.125 345.5 C28.59261719 344.489375 28.06023437 343.47875 27.51171875 342.4375 C11.51644898 310.03364599 12.2052204 274.97418265 23.18017578 241.20556641 C27.23827958 229.58491877 32.54906147 218.45589901 38.125 207.5 C37.38564209 207.06300781 37.38564209 207.06300781 36.63134766 206.6171875 C27.33593567 201.09851116 18.27286791 195.65728808 10.125 188.5 C9.2484375 187.76652344 8.371875 187.03304687 7.46875 186.27734375 C-17.41796976 164.78109002 -32.20732152 132.67145327 -36.875 100.5 C-37.80581661 82.65656652 -37.83139465 64.77611018 -32.875 47.5 C-32.69308105 46.83452148 -32.51116211 46.16904297 -32.32373047 45.48339844 C-28.10815895 30.3615896 -18.05764329 -0.40236477 0 0 Z M110.125 147.5 C109.54073242 147.91604492 108.95646484 148.33208984 108.35449219 148.76074219 C99.67638487 155.02467655 91.82870883 162.09249934 84.125 169.5 C83.29669678 170.28745605 83.29669678 170.28745605 82.45166016 171.09082031 C74.50444897 178.67123713 67.4875772 186.54776046 61.125 195.5 C60.52075195 196.33772949 60.52075195 196.33772949 59.90429688 197.19238281 C46.03953326 216.56130377 35.64170498 238.29362052 30.125 261.5 C29.94670654 262.19971924 29.76841309 262.89943848 29.5847168 263.62036133 C27.7886069 271.40178626 27.72723453 279.18146049 27.75 287.125 C27.75054382 287.83720703 27.75108765 288.54941406 27.75164795 289.28320312 C27.78899529 299.90538511 28.44880658 309.44184346 32.125 319.5 C32.56677443 320.82366247 33.00681378 322.14790501 33.4453125 323.47265625 C39.93446163 342.42178654 50.36810248 357.96272742 64.125 372.5 C65.39537109 373.88445312 65.39537109 373.88445312 66.69140625 375.296875 C85.59082064 395.4311274 110.5388144 408.80319371 136.125 418.5 C136.76421387 418.74298828 137.40342773 418.98597656 138.06201172 419.23632812 C182.78166223 435.89496153 232.06614672 436.01432156 278.125 425.5 C278.78757812 425.34950195 279.45015625 425.19900391 280.1328125 425.04394531 C313.33907726 417.30606571 344.38818559 400.95276603 369.125 377.5 C370.08277344 376.60667969 371.04054688 375.71335937 372.02734375 374.79296875 C393.33070136 354.53098601 409.56586719 325.59416024 410.55859375 295.765625 C410.58200435 293.09104592 410.5873045 290.42382166 410.5625 287.75 C410.55945862 287.05067352 410.55641724 286.35134705 410.55328369 285.63082886 C410.48182973 274.49179138 409.54599218 264.1430868 406.125 253.5 C405.92664551 252.83677734 405.72829102 252.17355469 405.52392578 251.49023438 C393.34002102 211.05168968 366.13322902 175.20206799 332.125 150.5 C330.82369141 149.5409375 330.82369141 149.5409375 329.49609375 148.5625 C327.07191357 146.81926931 324.61526663 145.14728818 322.125 143.5 C320.75601563 142.58347656 320.75601563 142.58347656 319.359375 141.6484375 C309.45244772 135.27244071 298.86215417 130.30948209 288.125 125.5 C286.72882446 124.86602295 286.72882446 124.86602295 285.30444336 124.21923828 C277.64769924 120.86786146 269.9308499 118.68935943 261.8125 116.75 C260.58982422 116.44707031 259.36714844 116.14414063 258.10742188 115.83203125 C249.20415078 113.65578356 240.826808 112.34277715 231.66796875 112.296875 C230.76613358 112.29117493 229.8642984 112.28547485 228.93513489 112.27960205 C227.0281388 112.270189 225.12112672 112.26363283 223.21411133 112.25976562 C220.35923012 112.25015727 217.50510032 112.21913935 214.65039062 112.1875 C177.09526676 111.97122312 140.57398551 125.7964885 110.125 147.5 Z " fill="#33363C" transform="translate(36.875,33.5)"/>
<path d="M0 0 C1.39923832 -0.00543335 2.79847091 -0.01256276 4.19769287 -0.02124023 C7.96653437 -0.03933617 11.73493345 -0.03246273 15.5037818 -0.01972389 C19.46950217 -0.00952031 23.43518738 -0.01901019 27.40090942 -0.02526855 C34.05998455 -0.03252542 40.71888166 -0.02301082 47.37792969 -0.00390625 C55.04598056 0.0178409 62.71360554 0.01081907 70.38164604 -0.01121187 C76.9952165 -0.02944354 83.60865974 -0.03188596 90.22224724 -0.0214572 C94.15899692 -0.01526237 98.09554738 -0.01427432 102.03228378 -0.02760315 C105.73765186 -0.03927433 109.44247858 -0.03093409 113.147789 -0.00802612 C115.13354272 -0.00033023 117.11934296 -0.01199931 119.10507202 -0.02453613 C131.45920867 0.09028307 141.93019361 2.88204036 151.73876953 10.51757812 C153.31658203 11.69320313 153.31658203 11.69320313 154.92626953 12.89257812 C164.17615835 21.52580769 170.53887114 33.86354156 171.00619507 46.65029907 C171.02389698 48.13282854 171.03108053 49.61551045 171.02929688 51.09814453 C171.0360141 51.91563171 171.04273132 52.7331189 171.0496521 53.57537842 C171.06852421 56.25669575 171.07255132 58.93776115 171.07470703 61.61914062 C171.08114423 63.50231017 171.08787326 65.38547873 171.09487915 67.26864624 C171.10682631 71.21085932 171.1105628 75.15298495 171.109375 79.09521484 C171.10917237 84.11144924 171.13642787 89.12711354 171.17091942 94.14321327 C171.19331931 98.03321838 171.1972085 101.92308936 171.19615555 105.81315231 C171.19849365 107.6604648 171.20721442 109.50778201 171.22282028 111.35503006 C171.35857128 129.08864143 168.62646396 143.60457279 156.73876953 157.51757812 C140.00470104 172.7011123 121.29324717 172.40251803 100.03964329 172.22473645 C96.16827083 172.19805132 92.2969218 172.20367377 88.42547607 172.20481873 C81.93320332 172.20202459 75.44135574 172.17618363 68.94921875 172.13500977 C61.47364537 172.08777014 53.99853547 172.07201918 46.52282357 172.07421643 C38.51293557 172.07625161 30.50322287 172.05539087 22.49338818 172.02787662 C20.20595556 172.02152343 17.91855175 172.01935875 15.63111115 172.01815987 C12.0225625 172.01511835 8.41439379 171.99657898 4.80597115 171.96666145 C2.87139408 171.95390248 0.93673897 171.95538513 -0.99787903 171.95748901 C-16.25216175 171.79205171 -28.10643415 167.77389255 -39.44482422 157.44335938 C-42.57119663 154.12873228 -44.90565499 150.39909244 -47.26123047 146.51757812 C-47.81810547 145.73382813 -48.37498047 144.95007813 -48.94873047 144.14257812 C-54.32740362 133.38523181 -53.71867433 121.88792167 -53.69482422 110.17773438 C-53.69939412 108.2043795 -53.70470207 106.2310262 -53.71070862 104.25767517 C-53.71960586 100.1366425 -53.71725515 96.01580397 -53.70727539 91.89477539 C-53.69578732 86.64187984 -53.71601235 81.38965672 -53.74519253 76.1368494 C-53.76363225 72.06591106 -53.76324668 67.99513159 -53.75755501 63.92416191 C-53.75740276 61.988683 -53.76336643 60.05319266 -53.77584648 58.11775398 C-53.87170662 40.8182925 -51.17511807 26.85421196 -38.94873047 13.70507812 C-27.79180381 3.31845153 -14.89363906 -0.09373448 0 0 Z " fill="#33363B" transform="translate(201.26123046875,264.482421875)"/>
<path d="M0 0 C8.85423239 7.0431394 16.12173332 15.76628049 23.625 24.1875 C39.73360768 42.09239127 59.33657161 58.16828581 81 69 C81.01458252 69.73001221 81.02916504 70.46002441 81.04418945 71.2121582 C81.11951437 74.57942142 81.21589144 77.94578279 81.3125 81.3125 C81.33505859 82.46041016 81.35761719 83.60832031 81.38085938 84.79101562 C81.82712425 99.11206118 85.64433047 110.63604242 95.296875 121.40625 C98.52711783 124.42904605 102.2274131 126.7167648 106 129 C106.75924397 129.48879418 107.51848793 129.97758837 108.30073929 130.4811945 C117.07880593 135.42038983 127.24123589 135.44645991 137.05175781 135.43579102 C138.4167207 135.44479326 139.78167604 135.45500705 141.1466217 135.46632385 C144.81839772 135.49257727 148.4899634 135.49984673 152.16182423 135.50177121 C154.46562895 135.5039179 156.7693818 135.5103492 159.07317352 135.51826286 C167.13817177 135.54593448 175.20302226 135.55827867 183.26806641 135.5559082 C190.74136813 135.55410796 198.2140188 135.58574372 205.68715596 135.63313919 C212.14112829 135.67258688 218.59488972 135.68845073 225.04898143 135.68654197 C228.88704727 135.68578348 232.7245333 135.6939726 236.56247711 135.72607613 C263.31726523 136.2986047 263.31726523 136.2986047 286.51953125 124.19921875 C288 123 288 123 291 122 C292.06064135 120.15553703 292.06064135 120.15553703 293 118 C293.94500221 116.63649681 294.90433354 115.28285377 295.875 113.9375 C301.40650851 105.75519524 304.35055569 96.6310598 303.75390625 86.7734375 C303.10208508 67.93555114 303.10208508 67.93555114 306.46826172 62.72900391 C310.1379814 59.19559645 314.47279699 56.99694487 319.08105469 54.90722656 C321.52971449 53.74956501 323.53220146 52.27334292 325.625 50.5625 C326.64207031 49.74845703 326.64207031 49.74845703 327.6796875 48.91796875 C328.44539063 48.28503906 329.21109375 47.65210938 330 47 C330.50176758 46.5870166 331.00353516 46.1740332 331.52050781 45.74853516 C342.4814131 36.6826202 352.87570344 27.02616263 362.109375 16.18359375 C364.78711378 13.09091611 367.54651526 10.07622751 370.3125 7.0625 C370.84109619 6.48177734 371.36969238 5.90105469 371.91430664 5.30273438 C375.76591427 1.11704286 375.76591427 1.11704286 378 0 C379.93310339 4.08169237 380.28036014 7.42849731 380.3359375 11.92578125 C380.34431641 12.58595749 380.35269531 13.24613373 380.36132812 13.92631531 C380.38082373 16.05528817 380.38092 18.18345293 380.375 20.3125 C380.37418427 21.39954224 380.37418427 21.39954224 380.37335205 22.50854492 C380.33619436 33.22541754 379.70899816 42.8520889 376 53 C375.55822557 54.32366247 375.11818622 55.64790501 374.6796875 56.97265625 C368.19053837 75.92178654 357.75689752 91.46272742 344 106 C342.72962891 107.38445312 342.72962891 107.38445312 341.43359375 108.796875 C323.05237782 128.37907122 298.95381318 141.67394911 274 151 C272.6484256 151.52601109 271.29686316 152.0520529 269.9453125 152.578125 C254.92150337 158.2816081 238.92104734 161.89490645 223 164 C221.71738281 164.18433594 220.43476563 164.36867188 219.11328125 164.55859375 C190.81990732 168.29216544 161.76105477 166.43351428 134 160 C133.2869873 159.84869629 132.57397461 159.69739258 131.83935547 159.54150391 C103.63012703 153.55411751 77.10833147 141.1733329 54 124 C53.05125 123.29617188 52.1025 122.59234375 51.125 121.8671875 C24.0328133 100.66110089 3.42470875 71.4551588 -2 37 C-2.40386031 32.18793389 -2.3941842 27.37210588 -2.33618164 22.54663086 C-2.31216505 20.40766844 -2.31570482 18.26992632 -2.32226562 16.13085938 C-2.27644701 4.78569315 -2.27644701 4.78569315 0 0 Z " fill="#3661CD" transform="translate(67,300)"/>
<path d="M0 0 C1.41248468 -0.0051519 2.8249629 -0.01244267 4.23742676 -0.02168274 C8.03716732 -0.04004226 11.83619732 -0.0273582 15.63590741 -0.00759244 C19.63324997 0.00892133 23.63055198 -0.00003623 27.62791443 -0.00511169 C34.33652966 -0.00961804 41.04486474 0.00614736 47.75341797 0.03417969 C55.48459245 0.06623817 63.21526235 0.06620605 70.9464727 0.04896492 C78.41735568 0.03304525 85.88805552 0.03986737 93.35893059 0.05690193 C96.52335489 0.06373409 99.68763068 0.06277983 102.85205269 0.05535698 C106.58453494 0.04763782 110.31644991 0.06000116 114.04883575 0.08720589 C116.054034 0.09726121 118.05930081 0.0879665 120.0644989 0.07788086 C130.27443748 0.18455892 139.00247134 2.20156278 147.31420898 8.38110352 C148.1662793 8.99469727 149.01834961 9.60829102 149.89624023 10.24047852 C155.44039898 15.32747275 158.77207178 19.08477406 159.26342773 26.86157227 C159.27752006 29.18067182 159.25136933 31.50029434 159.18920898 33.81860352 C159.17140381 35.02226562 159.15359863 36.22592773 159.13525391 37.46606445 C158.87191921 46.07261311 157.97354979 53.12086128 153.50170898 60.63110352 C153.08276367 61.34911133 152.66381836 62.06711914 152.23217773 62.80688477 C149.86836472 66.43139806 147.11047605 69.25691466 143.50170898 71.63110352 C142.51170898 71.63110352 141.52170898 71.63110352 140.50170898 71.63110352 C140.26811676 71.12633484 140.03452454 70.62156616 139.79385376 70.10150146 C137.36126546 64.84524252 134.92782728 59.58937766 132.49389648 54.33374023 C131.58580092 52.37257813 130.67792168 50.41131583 129.77026367 48.44995117 C128.46516955 45.62986267 127.15929645 42.81013603 125.85327148 39.99047852 C125.44799225 39.11429871 125.04271301 38.2381189 124.62515259 37.33538818 C124.24490936 36.51483948 123.86466614 35.69429077 123.47290039 34.84887695 C123.13980865 34.1293988 122.80671692 33.40992065 122.46353149 32.66864014 C122.14613007 31.99625305 121.82872864 31.32386597 121.50170898 30.63110352 C121.19550629 29.89958069 120.88930359 29.16805786 120.57382202 28.41436768 C120.22002472 27.8258905 119.86622742 27.23741333 119.50170898 26.63110352 C116.44262486 25.81525784 116.44262486 25.81525784 113.50170898 25.63110352 C109.77295973 29.8376283 107.56478535 34.27852293 105.24389648 39.33422852 C104.66020798 40.59006744 104.66020798 40.59006744 104.06472778 41.87127686 C103.24611894 43.63807421 102.43107223 45.40652587 101.61938477 47.17651367 C100.38477088 49.86355741 99.13350001 52.54238299 97.88061523 55.22094727 C97.08401834 56.94573512 96.288413 58.67098135 95.49389648 60.39672852 C95.12303925 61.18766907 94.75218201 61.97860962 94.37008667 62.79351807 C94.02277496 63.55750916 93.67546326 64.32150024 93.31762695 65.10864258 C93.01436493 65.76640686 92.71110291 66.42417114 92.39865112 67.10186768 C91.07423185 70.83652183 90.36130473 74.76292265 89.50170898 78.63110352 C69.04170898 78.63110352 48.58170898 78.63110352 27.50170898 78.63110352 C26.51170898 74.67110352 26.51170898 74.67110352 25.50170898 70.63110352 C24.64948265 68.26703687 24.64948265 68.26703687 23.66992188 66.22216797 C23.31938248 65.45810135 22.96884308 64.69403473 22.60768127 63.90681458 C22.23368698 63.11071274 21.85969269 62.3146109 21.47436523 61.49438477 C21.08478134 60.65191696 20.69519745 59.80944916 20.29380798 58.94145203 C19.47422829 57.17265545 18.65130393 55.40540514 17.82519531 53.63964844 C16.5645431 50.94431786 15.31451562 48.24425839 14.06616211 45.54321289 C13.26534539 43.81831759 12.46393343 42.09369849 11.66186523 40.36938477 C11.28989517 39.56721024 10.91792511 38.76503571 10.53468323 37.93855286 C7.61486666 30.540512 7.61486666 30.540512 2.06420898 25.56860352 C-0.55059895 25.38284936 -0.55059895 25.38284936 -2.37866211 27.05444336 C-5.36147643 30.68040769 -7.06774382 34.65188701 -8.97485352 38.92016602 C-9.38617523 39.81980072 -9.79749695 40.71943542 -10.22128296 41.64633179 C-11.53042923 44.51248554 -12.82760033 47.38384487 -14.12329102 50.25610352 C-15.42766475 53.13475453 -16.73459702 56.01217229 -18.04672241 58.88729858 C-18.86184898 60.67465001 -19.67224245 62.46416899 -20.47744751 64.25601196 C-21.0284462 65.46769547 -21.0284462 65.46769547 -21.59057617 66.70385742 C-21.91160309 67.41571198 -22.23263 68.12756653 -22.56338501 68.86099243 C-23.49829102 70.63110352 -23.49829102 70.63110352 -25.49829102 72.63110352 C-34.29786375 65.64384973 -39.10386245 58.66977824 -41.49829102 47.63110352 C-41.99692084 43.10260349 -42.09806551 38.62180782 -42.12329102 34.06860352 C-42.1684082 32.90135742 -42.21352539 31.73411133 -42.26000977 30.53149414 C-42.31786889 23.19578411 -41.28188106 18.97272899 -36.36767578 13.44482422 C-25.82212388 3.21328378 -14.53551662 -0.1311934 0 0 Z " fill="#6F2251" transform="translate(201.498291015625,345.368896484375)"/>
<path d="M0 0 C2.82371806 0.00315662 5.64638153 -0.02036696 8.4699707 -0.0456543 C19.53727831 -0.08492865 29.74407752 0.74708985 40.52661133 3.31567383 C41.47238037 3.53473389 42.41814941 3.75379395 43.39257812 3.97949219 C79.31170416 12.77972961 111.03218886 31.83996388 137.52661133 57.31567383 C138.07881348 57.84064453 138.63101562 58.36561523 139.19995117 58.90649414 C147.15040577 66.49000468 154.1168502 74.39273298 160.52661133 83.31567383 C161.50887695 84.65758789 161.50887695 84.65758789 162.51098633 86.02661133 C165.63934339 90.46084221 165.63934339 90.46084221 166.52661133 92.31567383 C166.19661133 93.30567383 165.86661133 94.29567383 165.52661133 95.31567383 C164.94395508 94.69821289 164.36129883 94.08075195 163.76098633 93.44458008 C140.32505753 69.23482344 109.20501214 56.05591764 77.52661133 46.31567383 C76.78749512 46.08122559 76.04837891 45.84677734 75.28686523 45.60522461 C62.73690656 41.64803043 49.54101904 40.00561066 36.52661133 38.31567383 C35.70547852 38.20819824 34.8843457 38.10072266 34.03833008 37.98999023 C24.08706204 36.89196006 14.02514805 37.07171394 4.02661133 37.06567383 C2.52345367 37.06466171 2.52345367 37.06466171 0.9899292 37.06362915 C-47.39515336 37.11530301 -100.16741445 47.06548779 -139.47338867 77.31567383 C-140.53041992 78.09813477 -141.58745117 78.8805957 -142.67651367 79.68676758 C-149.07489106 84.46058201 -155.03992867 89.43900108 -160.47338867 95.31567383 C-160.80338867 94.32567383 -161.13338867 93.33567383 -161.47338867 92.31567383 C-159.57741892 88.7147462 -156.92326872 85.55666097 -154.47338867 82.31567383 C-153.73088867 81.2921582 -152.98838867 80.26864258 -152.22338867 79.21411133 C-140.61304598 63.53582607 -126.26231492 49.73445085 -110.47338867 38.31567383 C-109.60713867 37.67758789 -108.74088867 37.03950195 -107.84838867 36.38208008 C-105.42326368 34.63707828 -102.96456773 32.96481884 -100.47338867 31.31567383 C-99.58393555 30.71625977 -98.69448242 30.1168457 -97.77807617 29.49926758 C-80.28653235 18.19598534 -60.95651523 10.06595658 -40.91088867 4.62817383 C-39.79568848 4.32387451 -39.79568848 4.32387451 -38.65795898 4.01342773 C-25.78171591 0.67007351 -13.23586107 -0.03086348 0 0 Z " fill="#6791FA" transform="translate(253.473388671875,145.684326171875)"/>
<path d="M0 0 C2.79019681 -0.13622173 5.30400874 0.16465307 8.0703125 0.57421875 C9.33488281 0.74695312 10.59945312 0.9196875 11.90234375 1.09765625 C40.18948065 5.34438489 64.37054889 16.74297669 85.0703125 36.57421875 C85.76640625 37.21875 86.4625 37.86328125 87.1796875 38.52734375 C92.58759252 43.6837183 96.88722774 49.39763265 101.0703125 55.57421875 C101.7303125 56.528125 102.3903125 57.48203125 103.0703125 58.46484375 C112.38359173 72.65304258 118.16343142 88.90343089 121.0703125 105.57421875 C121.26367188 106.57453125 121.45703125 107.57484375 121.65625 108.60546875 C121.96007737 111.33170355 122.03885668 113.00589016 121.0703125 115.57421875 C118.06969498 118.55214729 114.75713237 120.54512227 111.0703125 122.57421875 C110.17699219 123.13238281 109.28367188 123.69054687 108.36328125 124.265625 C106.0703125 125.57421875 106.0703125 125.57421875 104.0703125 125.57421875 C103.96541504 124.72210815 103.96541504 124.72210815 103.85839844 123.8527832 C101.19975112 102.70969809 96.39111667 85.64318441 83.0703125 68.57421875 C82.43222656 67.73375 81.79414062 66.89328125 81.13671875 66.02734375 C68.96844237 51.5818285 47.97765033 40.48957859 29.0703125 38.57421875 C27.77738281 38.42210937 26.48445313 38.27 25.15234375 38.11328125 C17.56488081 37.41782939 17.56488081 37.41782939 10.734375 40.24609375 C8.75196871 42.91920268 7.42932219 45.53384666 6.0703125 48.57421875 C5.45325847 49.843147 4.83469065 51.11133992 4.21484375 52.37890625 C-1.65988856 64.84943554 -4.48602759 76.51380201 -4.3671875 90.38671875 C-4.36033936 91.61777344 -4.35349121 92.84882813 -4.34643555 94.1171875 C-4.18597351 103.21364192 -3.21439875 111.02967577 0.0703125 119.57421875 C0.44414063 120.6209375 0.81796875 121.66765625 1.203125 122.74609375 C9.75214734 145.05281429 26.90680835 160.48853059 48.0703125 170.57421875 C50.391693 171.60688135 52.72519938 172.59583394 55.0703125 173.57421875 C52.91952528 177.43080273 50.83575972 181.11740972 48.0703125 184.57421875 C22.98596738 177.12909349 3.11414502 153.74720191 -9.12890625 131.6875 C-24.40987183 103.03747971 -28.66873654 69.41645064 -19.67578125 38.0859375 C-16.5016195 27.6729081 -12.07965043 18.13997799 -6.9296875 8.57421875 C-6.51074219 7.65898438 -6.09179688 6.74375 -5.66015625 5.80078125 C-4.29044292 3.04199468 -3.06993619 0.91352352 0 0 Z " fill="#6791FA" transform="translate(35.9296875,45.42578125)"/>
<path d="M0 0 C3.07175494 -0.57655968 4.38710296 -0.65277982 7.2265625 0.72265625 C11.59831745 5.66343843 14.39998297 11.81883824 17.2265625 17.72265625 C17.7421875 18.7796875 18.2578125 19.83671875 18.7890625 20.92578125 C32.05109889 50.59958767 33.18195387 84.90278018 21.95703125 115.40234375 C10.78422784 144.06609674 -9.27449129 168.52759837 -36.7734375 182.72265625 C-38.75613923 183.43913256 -40.75180297 184.12479482 -42.7734375 184.72265625 C-45.0834375 181.42265625 -47.3934375 178.12265625 -49.7734375 174.72265625 C-46.75383147 171.70305022 -45.16259543 170.92597316 -41.2734375 169.47265625 C-20.54533541 161.08152095 -5.04978021 144.17854838 3.9140625 123.91015625 C8.18283173 113.01329588 9.76713016 102.5168479 9.6640625 90.84765625 C9.65503906 89.61821289 9.64601563 88.38876953 9.63671875 87.12207031 C9.34183845 71.65314149 4.96173226 59.01886244 -2.7734375 45.72265625 C-3.13123291 45.06217285 -3.48902832 44.40168945 -3.85766602 43.72119141 C-5.03255087 41.77789495 -6.09297056 40.25222981 -7.7734375 38.72265625 C-10.86657381 38.07785384 -12.78720077 37.89733207 -15.8359375 38.09765625 C-16.59036133 38.12512939 -17.34478516 38.15260254 -18.12207031 38.1809082 C-24.59847305 38.50803403 -30.62125426 39.65252973 -36.7734375 41.72265625 C-37.83046875 42.07457031 -38.8875 42.42648438 -39.9765625 42.7890625 C-62.70691272 50.94936595 -79.3375428 65.99109143 -89.7734375 87.72265625 C-95.31059894 99.88238861 -97.59082372 112.47738187 -98.7734375 125.72265625 C-102.70046108 124.29660207 -106.01963269 122.42815963 -109.5234375 120.16015625 C-110.48765625 119.54011719 -111.451875 118.92007813 -112.4453125 118.28125 C-114.7734375 116.72265625 -114.7734375 116.72265625 -115.7734375 115.72265625 C-117.76222365 101.63813794 -111.41496639 86.3489352 -105.7734375 73.72265625 C-105.31066406 72.68496094 -104.84789062 71.64726563 -104.37109375 70.578125 C-98.21699839 57.57099269 -89.66125847 46.99019385 -79.7734375 36.72265625 C-79.19207031 36.078125 -78.61070312 35.43359375 -78.01171875 34.76953125 C-64.28404245 19.96992053 -43.93552396 10.11942253 -24.7734375 4.72265625 C-24.04382813 4.50222656 -23.31421875 4.28179687 -22.5625 4.0546875 C-17.23388139 2.55952658 -11.72090131 1.81332094 -6.234375 1.1640625 C-2.86230937 0.8088444 -2.86230937 0.8088444 0 0 Z " fill="#6791FA" transform="translate(470.7734375,45.27734375)"/>
<path d="M0 0 C18.27627524 0.3175972 36.1241032 10.10469881 48.85888672 22.70068359 C53.03945354 27.14514449 56.27167992 32.06564956 59.375 37.3125 C59.94863281 38.26640625 60.52226563 39.2203125 61.11328125 40.203125 C68.33279202 53.31647955 72.2436706 70.75344495 68.578125 85.5234375 C67.30726409 88.46952416 66.07143337 90.06267334 63.75 92.25 C63.03328125 92.93320313 62.3165625 93.61640625 61.578125 94.3203125 C59.58082545 96.12638125 57.5519647 97.88166414 55.5 99.625 C50.31666549 104.06490805 45.88232308 109.20481627 41.375 114.3125 C21.81754705 110.04541936 5.14361743 97.57694274 -5.6875 80.8125 C-8.22515768 76.41252901 -10.1319723 71.85980975 -11.9375 67.125 C-12.19217041 66.45984375 -12.44684082 65.7946875 -12.70922852 65.109375 C-18.41936395 49.45173616 -17.59806486 27.9893805 -10.6796875 12.9375 C-4.63727367 0.39976497 -4.63727367 0.39976497 0 0 Z " fill="#EDA2CB" transform="translate(58.625,94.6875)"/>
<path d="M0 0 C2.48934765 -0.30804636 3.94705866 -0.35440932 6.2734375 0.5859375 C16.372061 10.98635894 18.45110326 28.1929976 18.4609375 41.9609375 C18.47318359 42.85554688 18.48542969 43.75015625 18.49804688 44.671875 C18.54226138 64.95159634 9.27466418 82.38433548 -4.7265625 96.5859375 C-13.27187082 104.98099864 -24.86459288 111.73471743 -36.625 114.19140625 C-41.57959767 113.2241989 -43.90215551 109.74405936 -47.1015625 106.0234375 C-51.48748304 101.05060436 -55.87598528 96.39360583 -60.95166016 92.11352539 C-64.55571147 89.01166169 -66.14479993 87.43167748 -66.7265625 82.5859375 C-68.22822068 61.21808011 -62.17693183 42.19186413 -48.44140625 25.62109375 C-35.42994313 10.69631878 -18.87251122 4.05569725 0 0 Z " fill="#EDA2CB" transform="translate(450.7265625,94.4140625)"/>
<path d="M0 0 C3.70984923 -1.20767432 6.32002882 -1.38687349 10 0 C14.46688491 4.79376885 17.19735042 11.14616399 20 17 C20.515625 18.05703125 21.03125 19.1140625 21.5625 20.203125 C34.82453639 49.87693142 35.95539137 84.18012393 24.73046875 114.6796875 C13.55766534 143.34344049 -6.50105379 167.80494212 -34 182 C-35.98270173 182.71647631 -37.97836547 183.40213857 -40 184 C-42.31 180.7 -44.62 177.4 -47 174 C-43.98039397 170.98039397 -42.38915793 170.20331691 -38.5 168.75 C-17.77189791 160.3588647 -2.27634271 143.45589213 6.6875 123.1875 C10.95626923 112.29063963 12.54056766 101.79419165 12.4375 90.125 C12.42847656 88.89555664 12.41945313 87.66611328 12.41015625 86.39941406 C12.07176769 68.64811411 6.23158406 51.92083658 -5 38 C-7.08025278 37.27317603 -7.08025278 37.27317603 -9 37 C-7.64638502 32.59526817 -5.91515607 28.65723175 -3.77734375 24.578125 C-3.47180069 23.99206482 -3.16625763 23.40600464 -2.85145569 22.80218506 C-1.88427171 20.9492593 -0.9110348 19.09959549 0.0625 17.25 C0.71981134 15.99370417 1.37671623 14.73719559 2.03320312 13.48046875 C3.23062966 11.1890802 4.43085766 8.89924847 5.63305664 6.61035156 C6.43444411 5.08000064 7.22744634 3.54510733 8 2 C5.36 1.67 2.72 1.34 0 1 C0 0.67 0 0.34 0 0 Z " fill="#3661CB" transform="translate(468,46)"/>
<path d="M0 0 C2.54783614 -0.02858722 4.95145953 0.11627201 7.47265625 0.46875 C7.47265625 0.79875 7.47265625 1.12875 7.47265625 1.46875 C4.83265625 1.79875 2.19265625 2.12875 -0.52734375 2.46875 C7.20010499 18.21726602 7.20010499 18.21726602 15.546875 33.640625 C16.47265625 35.46875 16.47265625 35.46875 16.47265625 37.46875 C15.73015625 37.67757812 14.98765625 37.88640625 14.22265625 38.1015625 C6.88410789 41.74998853 2.60497063 53.86229128 -0.421875 61.12890625 C-3.6708442 70.94469659 -5.05348931 79.93312246 -4.96484375 90.28125 C-4.95799561 91.51230469 -4.95114746 92.74335938 -4.9440918 94.01171875 C-4.78362976 103.10817317 -3.812055 110.92420702 -0.52734375 119.46875 C-0.15351562 120.51546875 0.2203125 121.5621875 0.60546875 122.640625 C9.15449109 144.94734554 26.3091521 160.38306184 47.47265625 170.46875 C49.79403675 171.5014126 52.12754313 172.49036519 54.47265625 173.46875 C52.32186903 177.32533398 50.23810347 181.01194097 47.47265625 184.46875 C22.38831113 177.02362474 2.51648877 153.64173316 -9.7265625 131.58203125 C-25.00752808 102.93201096 -29.26639279 69.31098189 -20.2734375 37.98046875 C-17.09927575 27.56743935 -12.67730668 18.03450924 -7.52734375 8.46875 C-7.10839844 7.55351563 -6.68945312 6.63828125 -6.2578125 5.6953125 C-4.6965253 2.55067044 -3.56190567 0.66063166 0 0 Z " fill="#3661CB" transform="translate(36.52734375,45.53125)"/>
<path d="M0 0 C17.12125546 -1.20149161 34.52116409 6.86907951 47.4375 17.6875 C53.8946284 23.36465129 58.62641403 29.60548351 63 37 C63.86044922 38.43085938 63.86044922 38.43085938 64.73828125 39.890625 C71.95779202 53.00397955 75.8686706 70.44094495 72.203125 85.2109375 C70.93226409 88.15702416 69.69643337 89.75017334 67.375 91.9375 C66.66859375 92.60652344 65.9621875 93.27554688 65.234375 93.96484375 C64.49703125 94.63644531 63.7596875 95.30804688 63 96 C61.89398438 97.02287109 61.89398438 97.02287109 60.765625 98.06640625 C55.30378788 103 55.30378788 103 53 103 C52.53327881 102.09161377 52.06655762 101.18322754 51.58569336 100.24731445 C43.5742986 84.65598616 35.56046624 69.06602929 27.5 53.5 C21.71188506 42.32136641 15.94476384 31.13205181 10.1875 19.9375 C9.79046875 19.16567383 9.3934375 18.39384766 8.984375 17.59863281 C7.85778375 15.40835166 6.73154836 13.21788798 5.60546875 11.02734375 C5.26972336 10.37454941 4.93397797 9.72175507 4.58805847 9.04917908 C3.04224364 6.04084098 1.50368652 3.02964636 0 0 Z " fill="#CC85AE" transform="translate(55,95)"/>
<path d="M0 0 C-1.66937129 5.7384638 -4.30969382 10.87807958 -7 16.1875 C-7.43183594 17.05052734 -7.86367188 17.91355469 -8.30859375 18.80273438 C-11.37050483 24.88752367 -14.5300631 30.91832716 -17.7109375 36.94140625 C-23.57056153 48.03894409 -29.27325464 59.21509608 -34.97363281 70.39501953 C-40.54628954 81.32009383 -46.17966488 92.2045811 -52 103 C-56.66065449 100.87731932 -59.96551817 97.64033757 -63.6875 94.1875 C-64.37650391 93.57068359 -65.06550781 92.95386719 -65.77539062 92.31835938 C-66.43087891 91.71185547 -67.08636719 91.10535156 -67.76171875 90.48046875 C-68.658302 89.65905396 -68.658302 89.65905396 -69.57299805 88.82104492 C-74.03687521 83.12454197 -72.54090259 72.91086157 -72 66 C-69.31315405 45.40084772 -58.6092272 27.10881847 -42.32421875 14.28515625 C-30.48659241 5.84606271 -14.7704786 -1.20575336 0 0 Z " fill="#CC85AE" transform="translate(456,95)"/>
<path d="M0 0 C1.875 2.125 1.875 2.125 2.875 8.125 C-22.865 8.125 -48.605 8.125 -75.125 8.125 C-74.125 2.125 -74.125 2.125 -72.5859375 0.3671875 C-53.01582615 -12.45966451 -20.01542306 -12.00925384 0 0 Z " fill="#6791FB" transform="translate(292.125,255.875)"/>
<path d="M0 0 C0.66 0 1.32 0 2 0 C3.80085662 3.68307996 5.58900718 7.37219233 7.375 11.0625 C7.88289063 12.10083984 8.39078125 13.13917969 8.9140625 14.20898438 C9.40390625 15.22412109 9.89375 16.23925781 10.3984375 17.28515625 C10.84880371 18.21207275 11.29916992 19.13898926 11.76318359 20.09399414 C13 23 13 23 15 30 C5.76 30 -3.48 30 -13 30 C-11.61135903 25.8340771 -10.22363054 22.11157302 -8.3984375 18.1640625 C-7.66367187 16.56884766 -7.66367187 16.56884766 -6.9140625 14.94140625 C-6.40617187 13.84699219 -5.89828125 12.75257813 -5.375 11.625 C-4.859375 10.50738281 -4.34375 9.38976562 -3.8125 8.23828125 C-2.54446772 5.49087798 -1.2735532 2.7448473 0 0 Z " fill="#F7F5F6" transform="translate(316,392)"/>
<path d="M0 0 C2.55557412 3.146524 4.23061682 6.36373206 5.91796875 10.04296875 C6.44970703 11.19861328 6.98144531 12.35425781 7.52929688 13.54492188 C7.8012085 14.14232178 8.07312012 14.73972168 8.35327148 15.35522461 C9.19060611 17.19432217 10.03512247 19.02998774 10.88085938 20.86523438 C15 29.85290751 15 29.85290751 15 31 C5.76 31 -3.48 31 -13 31 C-12.13873234 26.69366172 -11.10983972 23.7399733 -9.27734375 19.82421875 C-8.47006836 18.08881836 -8.47006836 18.08881836 -7.64648438 16.31835938 C-7.07694064 15.10801751 -6.50727769 13.89773174 -5.9375 12.6875 C-5.36343439 11.45791463 -4.7898615 10.22809909 -4.21679688 8.99804688 C-2.81602767 5.99639857 -1.41027491 2.99719095 0 0 Z " fill="#F7F5F7" transform="translate(202,391)"/>
<path d="M0 0 C8.91 0 17.82 0 27 0 C25.74847098 6.25764509 23.22705258 11.48075274 20.5625 17.25 C20.05912109 18.36375 19.55574219 19.4775 19.03710938 20.625 C18.55177734 21.68203125 18.06644531 22.7390625 17.56640625 23.828125 C16.90040405 25.2807373 16.90040405 25.2807373 16.22094727 26.76269531 C15 29 15 29 13 30 C11.14373245 26.05125409 9.2924537 22.10022073 7.44580078 18.14697266 C6.81664084 16.8019281 6.18611234 15.45752282 5.55419922 14.11376953 C4.64712342 12.18427549 3.74496389 10.25255007 2.84375 8.3203125 C2.02680664 6.57645264 2.02680664 6.57645264 1.19335938 4.79736328 C0 2 0 2 0 0 Z " fill="#FCFCFC" transform="translate(283,278)"/>
<path d="M0 0 C9.24 0 18.48 0 28 0 C24.96225464 7.29058886 21.91556708 14.54657137 18.6875 21.75 C18.32849609 22.554375 17.96949219 23.35875 17.59960938 24.1875 C16.73439107 26.125589 15.867397 28.0628851 15 30 C14.34 30 13.68 30 13 30 C11.1462338 25.88932655 9.29488368 21.77757717 7.44580078 17.66479492 C6.81593674 16.26475381 6.18540416 14.86501326 5.55419922 13.46557617 C4.64897082 11.4582997 3.74612317 9.4499676 2.84375 7.44140625 C2.55939087 6.81222794 2.27503174 6.18304962 1.98205566 5.5348053 C0 1.11387171 0 1.11387171 0 0 Z " fill="#FBFCFC" transform="translate(209,278)"/>
<path d="M0 0 C0.66 0.99 1.32 1.98 2 3 C0.35 4.32 -1.3 5.64 -3 7 C-1.125 2.25 -1.125 2.25 0 0 Z " fill="#577CE6" transform="translate(91,239)"/>
</svg>
